<?xml version="1.0" standalone="no"?>
<!DOCTYPE svg PUBLIC "-//W3C//DTD SVG 20010904//EN"
 "http://www.w3.org/TR/2001/REC-SVG-20010904/DTD/svg10.dtd">
<svg version="1.0" xmlns="http://www.w3.org/2000/svg"
 width="500.000000pt" height="500.000000pt" viewBox="0 0 500.000000 500.000000"
 preserveAspectRatio="xMidYMid meet">

<g transform="translate(0.000000,500.000000) scale(0.100000,-0.100000)"
fill="#000000" stroke="none">
<path d="M589 3636 c-222 -62 -380 -252 -396 -478 -18 -254 140 -480 386 -552
85 -25 230 -21 314 8 183 65 313 214 353 406 56 269 -119 545 -391 615 -70 18
-202 18 -266 1z m348 -117 c79 -29 134 -126 141 -245 6 -103 -14 -174 -64
-232 -64 -75 -124 -90 -195 -50 -138 77 -164 347 -47 474 53 57 108 75 165 53z
m-290 -711 c30 -34 36 -63 19 -96 -17 -34 -65 -57 -96 -47 -60 19 -80 96 -35
140 32 33 84 34 112 3z"/>
<path d="M4213 3635 c-88 -24 -174 -74 -239 -139 -175 -176 -208 -458 -76
-662 161 -247 479 -319 736 -164 190 114 284 352 231 579 -43 182 -197 338
-380 386 -73 19 -202 18 -272 0z m364 -126 c172 -83 174 -432 3 -519 -46 -24
-76 -25 -121 -6 -178 75 -182 446 -6 527 54 24 71 24 124 -2z m-302 -704 c37
-36 34 -86 -7 -120 -25 -21 -38 -25 -62 -21 -44 9 -70 39 -70 81 0 76 87 113
139 60z"/>
<path d="M1745 1721 c-11 -5 -29 -18 -39 -30 -17 -18 -18 -32 -13 -113 12
-200 105 -390 261 -536 242 -226 597 -280 901 -137 227 106 399 324 450 570
19 91 19 194 1 218 -20 26 -68 40 -99 28 -39 -15 -54 -48 -61 -131 -20 -260
-195 -477 -456 -566 -78 -27 -292 -27 -370 0 -105 36 -193 89 -266 161 -112
111 -179 253 -191 409 -5 60 -11 84 -27 102 -24 27 -62 37 -91 25z"/>
</g>
</svg>
