<?xml version="1.0" standalone="no"?>
<!DOCTYPE svg PUBLIC "-//W3C//DTD SVG 20010904//EN"
 "http://www.w3.org/TR/2001/REC-SVG-20010904/DTD/svg10.dtd">
<svg version="1.0" xmlns="http://www.w3.org/2000/svg"
 width="500.000000pt" height="500.000000pt" viewBox="0 0 500.000000 500.000000"
 preserveAspectRatio="xMidYMid meet">

<g transform="translate(0.000000,500.000000) scale(0.100000,-0.100000)"
fill="#000000" stroke="none">
<path d="M682 4340 c-161 -33 -303 -193 -364 -407 -31 -110 -31 -296 0 -406
48 -168 144 -303 261 -366 156 -83 307 -56 441 78 76 77 131 173 162 288 29
109 29 296 0 404 -76 279 -288 453 -500 409z"/>
<path d="M4182 4340 c-161 -33 -303 -193 -364 -407 -31 -110 -31 -296 0 -406
48 -168 144 -303 261 -366 156 -83 307 -56 441 78 76 77 131 173 162 288 29
109 29 296 0 404 -76 279 -288 453 -500 409z"/>
<path d="M199 2565 c-44 -24 -53 -62 -46 -197 47 -861 545 -1617 1312 -1993
234 -115 452 -183 705 -221 140 -21 480 -24 620 -6 279 37 523 112 771 238
751 381 1240 1134 1286 1982 7 137 -2 174 -48 197 -42 22 -4560 22 -4600 0z
m4446 -237 c-4 -29 -13 -101 -22 -160 l-15 -106 -72 -16 c-39 -9 -154 -32
-256 -51 -1231 -230 -2557 -215 -3769 41 -62 13 -114 24 -116 24 -3 0 -30 182
-40 268 l-6 52 2151 0 2151 0 -6 -52z m-4079 -508 c840 -174 1857 -231 2769
-154 345 28 749 84 1053 145 85 17 156 29 158 27 7 -8 -68 -197 -126 -313
-170 -347 -452 -659 -777 -861 l-76 -48 -31 40 c-17 21 -62 72 -101 112 -263
275 -565 342 -867 192 l-68 -34 -72 36 c-200 98 -390 102 -587 12 -122 -56
-269 -179 -377 -318 l-31 -40 -76 48 c-321 199 -608 517 -782 866 -32 63 -125
291 -125 305 0 8 13 6 116 -15z m1709 -1009 c33 -12 90 -41 126 -66 86 -59
112 -59 198 0 122 83 258 112 380 81 112 -29 196 -81 304 -189 54 -53 97 -103
95 -109 -6 -16 -152 -73 -288 -113 -457 -133 -960 -105 -1397 76 -40 17 -73
34 -73 38 0 3 27 37 61 74 186 206 393 279 594 208z"/>
</g>
</svg>
