<?xml version="1.0" standalone="no"?>
<!DOCTYPE svg PUBLIC "-//W3C//DTD SVG 20010904//EN"
 "http://www.w3.org/TR/2001/REC-SVG-20010904/DTD/svg10.dtd">
<svg version="1.0" xmlns="http://www.w3.org/2000/svg"
 width="500.000000pt" height="500.000000pt" viewBox="0 0 500.000000 500.000000"
 preserveAspectRatio="xMidYMid meet">

<g transform="translate(0.000000,500.000000) scale(0.100000,-0.100000)"
fill="#000000" stroke="none">
<path d="M379 3443 c-63 -38 -75 -126 -39 -267 54 -212 209 -378 420 -451 76
-26 98 -29 205 -29 98 1 132 5 185 23 259 90 433 307 448 562 3 67 1 92 -12
117 -40 78 -169 83 -216 8 -7 -11 -19 -58 -26 -104 -14 -99 -50 -174 -112
-238 -145 -147 -377 -151 -531 -8 -69 64 -108 142 -123 247 -5 39 -16 84 -24
99 -28 54 -120 76 -175 41z"/>
<path d="M3472 3446 c-42 -23 -62 -66 -62 -133 0 -92 17 -157 66 -261 78 -163
214 -278 394 -334 109 -34 274 -32 378 5 104 36 176 81 258 163 114 112 184
275 184 425 0 69 -18 107 -60 133 -60 35 -155 9 -178 -50 -6 -16 -15 -60 -21
-97 -41 -281 -318 -427 -566 -299 -56 28 -127 103 -159 166 -16 32 -32 88 -40
137 -7 46 -18 94 -26 105 -31 49 -116 70 -168 40z"/>
<path d="M2327 2039 c-103 -11 -250 -47 -336 -82 -219 -89 -410 -267 -487
-456 -52 -126 -9 -221 101 -221 64 0 92 26 141 127 110 230 352 363 690 380
405 20 709 -121 834 -388 16 -35 35 -71 42 -80 47 -58 159 -50 202 15 50 77
-23 253 -168 404 -141 148 -325 240 -567 287 -105 20 -335 27 -452 14z"/>
</g>
</svg>
