<?xml version="1.0" standalone="no"?>
<!DOCTYPE svg PUBLIC "-//W3C//DTD SVG 20010904//EN"
 "http://www.w3.org/TR/2001/REC-SVG-20010904/DTD/svg10.dtd">
<svg version="1.0" xmlns="http://www.w3.org/2000/svg"
 width="500.000000pt" height="500.000000pt" viewBox="0 0 500.000000 500.000000"
 preserveAspectRatio="xMidYMid meet">

<g transform="translate(0.000000,500.000000) scale(0.100000,-0.100000)"
fill="#000000" stroke="none">
<path d="M915 4004 c-250 -36 -458 -216 -531 -459 -29 -96 -25 -258 9 -361 82
-248 302 -418 559 -432 157 -8 260 20 390 105 131 86 228 224 264 378 21 91
15 244 -15 335 -58 184 -211 338 -398 402 -82 29 -205 43 -278 32z"/>
<path d="M3913 4000 c-226 -41 -427 -216 -494 -430 -26 -84 -36 -230 -20 -312
7 -35 33 -105 58 -157 104 -216 319 -350 560 -351 104 0 170 14 258 55 149 69
264 185 324 331 73 172 66 349 -20 524 -75 150 -225 276 -389 324 -68 20 -208
28 -277 16z"/>
<path d="M2345 2614 c-155 -17 -333 -67 -457 -130 -155 -78 -251 -157 -262
-217 -20 -109 105 -187 195 -123 153 110 227 147 371 185 328 85 729 23 944
-147 67 -53 86 -62 132 -62 45 0 84 26 107 70 45 86 -23 172 -219 276 -192
102 -360 143 -606 148 -91 2 -183 2 -205 0z"/>
<path d="M958 2320 c-9 -6 -49 -53 -88 -106 -174 -232 -322 -491 -355 -619
-42 -166 4 -324 135 -456 108 -110 227 -155 381 -147 211 12 382 143 450 345
48 143 25 274 -87 482 -81 151 -246 393 -327 479 -32 33 -74 42 -109 22z m154
-359 c103 -155 185 -304 213 -390 52 -160 -52 -348 -221 -401 -78 -24 -111
-25 -182 -6 -106 29 -185 94 -227 190 -46 106 -38 191 31 328 73 145 260 430
279 425 6 -2 53 -68 107 -146z"/>
</g>
</svg>
