<?xml version="1.0" standalone="no"?>
<!DOCTYPE svg PUBLIC "-//W3C//DTD SVG 20010904//EN"
 "http://www.w3.org/TR/2001/REC-SVG-20010904/DTD/svg10.dtd">
<svg version="1.0" xmlns="http://www.w3.org/2000/svg"
 width="500.000000pt" height="500.000000pt" viewBox="0 0 500.000000 500.000000"
 preserveAspectRatio="xMidYMid meet">

<g transform="translate(0.000000,500.000000) scale(0.100000,-0.100000)"
fill="#000000" stroke="none">
<path d="M0 4989 c0 -5 5 -7 10 -4 5 3 10 8 10 11 0 2 -4 4 -10 4 -5 0 -10 -5
-10 -11z"/>
<path d="M975 4121 c-148 -69 -182 -266 -64 -378 45 -42 97 -63 159 -63 198 0
304 235 172 382 -20 23 -55 49 -77 59 -52 24 -138 24 -190 0z"/>
<path d="M3835 4121 c-140 -63 -179 -250 -77 -363 48 -53 102 -78 172 -78 208
0 310 254 159 397 -67 63 -172 82 -254 44z"/>
<path d="M2280 2899 c-409 -38 -794 -174 -1130 -399 -554 -372 -940 -970
-1045 -1620 -26 -164 -19 -205 44 -247 l33 -22 2296 0 c1330 -1 2313 3 2335 8
43 10 84 44 98 79 10 25 1 102 -33 272 -135 692 -597 1314 -1228 1653 -409
220 -905 320 -1370 276z m495 -249 c339 -46 656 -164 929 -348 371 -250 654
-599 816 -1008 31 -76 120 -376 120 -401 0 -11 -367 -13 -2141 -13 l-2141 0 7
32 c18 84 88 312 120 392 116 287 261 505 484 726 146 146 257 233 416 330
257 155 603 268 920 300 106 10 356 5 470 -10z"/>
</g>
</svg>
