<?xml version="1.0" standalone="no"?>
<!DOCTYPE svg PUBLIC "-//W3C//DTD SVG 20010904//EN"
 "http://www.w3.org/TR/2001/REC-SVG-20010904/DTD/svg10.dtd">
<svg version="1.0" xmlns="http://www.w3.org/2000/svg"
 width="500.000000pt" height="500.000000pt" viewBox="0 0 500.000000 500.000000"
 preserveAspectRatio="xMidYMid meet">

<g transform="translate(0.000000,500.000000) scale(0.100000,-0.100000)"
fill="#000000" stroke="none">
<path d="M954 3939 c-244 -27 -462 -221 -519 -462 -70 -296 83 -594 365 -710
166 -69 328 -63 495 18 110 54 178 112 244 211 62 93 91 182 98 300 11 183
-47 335 -176 464 -141 141 -309 201 -507 179z"/>
<path d="M3905 3940 c-147 -17 -258 -71 -365 -179 -86 -88 -132 -166 -160
-277 -82 -320 93 -629 420 -740 85 -29 262 -27 359 5 155 51 291 170 361 316
46 97 60 159 60 272 0 361 -315 643 -675 603z"/>
<path d="M932 1694 c-72 -37 -82 -119 -26 -203 51 -76 186 -205 295 -284 117
-84 339 -195 484 -242 243 -79 461 -110 780 -109 249 0 375 13 570 55 410 88
783 312 983 588 54 75 38 162 -36 197 -58 27 -100 14 -152 -48 -212 -252 -465
-402 -823 -488 -177 -43 -332 -60 -538 -60 -373 0 -655 58 -924 189 -194 95
-313 189 -460 365 -33 39 -47 48 -80 52 -26 3 -52 -1 -73 -12z"/>
</g>
</svg>
