<?xml version="1.0" standalone="no"?>
<!DOCTYPE svg PUBLIC "-//W3C//DTD SVG 20010904//EN"
 "http://www.w3.org/TR/2001/REC-SVG-20010904/DTD/svg10.dtd">
<svg version="1.0" xmlns="http://www.w3.org/2000/svg"
 width="500.000000pt" height="500.000000pt" viewBox="0 0 500.000000 500.000000"
 preserveAspectRatio="xMidYMid meet">

<g transform="translate(0.000000,500.000000) scale(0.100000,-0.100000)"
fill="#000000" stroke="none">
<path d="M761 3820 c-108 -29 -194 -81 -287 -175 -127 -128 -187 -270 -187
-450 -1 -114 14 -177 69 -292 62 -130 153 -222 284 -287 173 -85 332 -97 503
-38 200 68 344 214 413 417 22 67 27 98 28 190 1 189 -55 325 -189 461 -136
137 -272 194 -460 193 -65 0 -126 -7 -174 -19z"/>
<path d="M3891 3820 c-108 -29 -194 -81 -287 -175 -129 -130 -187 -271 -187
-455 0 -116 20 -197 76 -304 113 -218 362 -358 608 -343 421 26 709 435 587
837 -32 106 -77 179 -163 266 -136 137 -272 194 -460 193 -65 0 -126 -7 -174
-19z"/>
<path d="M2145 1774 c-22 -2 -103 -8 -180 -14 -374 -29 -762 -89 -1090 -171
-144 -36 -195 -59 -218 -98 -48 -82 11 -190 105 -192 18 -1 96 15 173 34 325
83 702 141 1120 172 236 18 836 13 1066 -9 379 -36 794 -104 1080 -176 87 -23
130 -16 173 26 71 72 31 187 -76 219 -218 64 -732 151 -1138 191 -152 15 -897
28 -1015 18z"/>
</g>
</svg>
