<?xml version="1.0" standalone="no"?>
<!DOCTYPE svg PUBLIC "-//W3C//DTD SVG 20010904//EN"
 "http://www.w3.org/TR/2001/REC-SVG-20010904/DTD/svg10.dtd">
<svg version="1.0" xmlns="http://www.w3.org/2000/svg"
 width="500.000000pt" height="500.000000pt" viewBox="0 0 500.000000 500.000000"
 preserveAspectRatio="xMidYMid meet">

<g transform="translate(0.000000,500.000000) scale(0.100000,-0.100000)"
fill="#000000" stroke="none">
<path d="M760 4475 c-36 -8 -103 -33 -150 -56 -69 -34 -101 -58 -170 -128
-135 -136 -193 -275 -194 -461 -1 -118 14 -180 70 -297 78 -163 217 -281 402
-340 96 -31 251 -35 352 -8 178 46 349 184 429 345 179 364 3 793 -381 926
-93 33 -259 41 -358 19z"/>
<path d="M3930 4469 c-186 -48 -337 -168 -424 -339 -47 -92 -66 -161 -73 -270
-11 -186 55 -358 192 -496 68 -68 97 -89 176 -127 116 -56 178 -70 295 -70
105 0 174 14 260 53 408 183 530 682 251 1025 -162 199 -430 288 -677 224z"/>
<path d="M2325 3416 c-374 -55 -660 -259 -885 -631 -268 -444 -424 -1235 -408
-2065 5 -255 10 -276 64 -319 32 -25 101 -28 144 -6 58 30 60 45 60 372 0 521
38 886 131 1261 155 623 415 979 804 1098 83 26 103 28 265 28 202 1 251 -9
396 -79 296 -143 511 -458 649 -950 108 -389 155 -796 155 -1353 0 -331 3
-347 58 -376 58 -30 114 -24 158 17 34 31 36 38 46 122 14 119 3 656 -17 851
-65 655 -208 1137 -436 1480 -88 131 -249 298 -361 373 -75 50 -186 103 -278
134 -145 48 -382 67 -545 43z"/>
</g>
</svg>
