<!-- Generated by IcoMoon.io -->
<svg version="1.1" xmlns="http://www.w3.org/2000/svg" width="32" height="32" viewBox="0 0 32 32">
<title>abacus</title>
<path d="M0.517 31.483v-29.774h29.774v29.774h-29.774zM27.91 4.090h-25.010v7.146h2.402c0.177-1.334 0.888-2.333 1.741-2.333 0.854 0 1.565 0.999 1.741 2.333h1.276c0.171-1.347 0.887-2.357 1.746-2.357s1.575 1.011 1.746 2.357h8.417c0.172-1.347 0.887-2.357 1.746-2.357 0.86 0 1.574 1.011 1.747 2.357h2.449v-7.146zM27.91 12.427h-2.441c-0.16 1.371-0.883 2.407-1.753 2.407-0.868 0-1.591-1.035-1.752-2.407h-8.405c-0.16 1.371-0.883 2.407-1.752 2.407s-1.592-1.036-1.752-2.407h-1.259c-0.154 1.383-0.879 2.431-1.753 2.431s-1.599-1.048-1.753-2.431h-2.39v8.337h9.518c0.171-1.347 0.888-2.357 1.746-2.357 0.859 0 1.576 1.011 1.747 2.357h1.19c0.154-1.383 0.879-2.432 1.754-2.432 0.873 0 1.598 1.049 1.753 2.432h1.334c0.166-1.36 0.886-2.382 1.751-2.382s1.585 1.022 1.751 2.382h2.466v-8.337zM27.91 21.955h-2.468c-0.166 1.359-0.886 2.382-1.751 2.382s-1.585-1.023-1.751-2.382h-1.346c-0.177 1.333-0.889 2.332-1.741 2.332-0.854 0-1.565-0.999-1.742-2.332h-1.196c-0.16 1.371-0.883 2.407-1.752 2.407-0.868 0-1.591-1.035-1.752-2.407h-9.512v7.146h25.010v-7.146z"></path>
</svg>
