<!-- Generated by IcoMoon.io -->
<svg version="1.1" xmlns="http://www.w3.org/2000/svg" width="32" height="32" viewBox="0 0 32 32">
<title>add</title>
<path d="M28.505 29.101h-3.573c-0.329 0-0.596-0.267-0.596-0.596s0.267-0.596 0.596-0.596h2.977v-2.977c0-0.329 0.267-0.596 0.596-0.596 0.328 0 0.596 0.267 0.596 0.596v3.573c0 0.329-0.268 0.596-0.596 0.596zM28.505 21.955c-0.329 0-0.596-0.267-0.596-0.596v-3.573c0-0.329 0.267-0.596 0.596-0.596 0.328 0 0.596 0.267 0.596 0.596v3.573c0 0.329-0.268 0.596-0.596 0.596zM28.505 14.809c-0.329 0-0.596-0.267-0.596-0.595v-3.573c0-0.329 0.267-0.595 0.596-0.595 0.328 0 0.596 0.267 0.596 0.595v3.573c0 0.329-0.268 0.595-0.596 0.595zM28.505 7.663c-0.329 0-0.596-0.267-0.596-0.596v-2.977h-2.977c-0.329 0-0.596-0.267-0.596-0.596s0.267-0.595 0.596-0.595h3.573c0.328 0 0.596 0.267 0.596 0.595v3.573c0 0.329-0.268 0.596-0.596 0.596zM21.359 29.101h-3.573c-0.329 0-0.596-0.267-0.596-0.596s0.267-0.596 0.596-0.596h3.573c0.328 0 0.596 0.267 0.596 0.596s-0.268 0.596-0.596 0.596zM21.359 4.090h-3.573c-0.329 0-0.596-0.267-0.596-0.596s0.267-0.595 0.596-0.595h3.573c0.328 0 0.596 0.267 0.596 0.595s-0.268 0.596-0.596 0.596zM20.69 14.809c0.657 0 1.191 0.532 1.191 1.191 0 0.657-0.534 1.191-1.191 1.191h-3.573v3.573c0 0.657-0.534 1.191-1.191 1.191-0.659 0-1.191-0.534-1.191-1.191v-3.573h-3.573c-0.657 0-1.191-0.534-1.191-1.191 0-0.659 0.532-1.191 1.191-1.191h3.573v-3.573c0-0.659 0.532-1.191 1.191-1.191 0.657 0 1.191 0.532 1.191 1.191v3.573h3.573zM14.214 4.090h-3.573c-0.329 0-0.595-0.267-0.595-0.596s0.267-0.595 0.595-0.595h3.573c0.328 0 0.595 0.267 0.595 0.595s-0.268 0.596-0.595 0.596zM7.068 29.101h-3.573c-0.329 0-0.595-0.267-0.595-0.596v-3.573c0-0.329 0.267-0.596 0.595-0.596s0.596 0.267 0.596 0.596v2.977h2.977c0.329 0 0.596 0.267 0.596 0.596s-0.267 0.596-0.596 0.596zM7.068 4.090h-2.977v2.977c0 0.329-0.267 0.596-0.596 0.596s-0.595-0.267-0.595-0.596v-3.573c0-0.329 0.267-0.595 0.595-0.595h3.573c0.329 0 0.596 0.267 0.596 0.595s-0.267 0.596-0.596 0.596zM3.495 10.045c0.329 0 0.596 0.267 0.596 0.595v3.573c0 0.329-0.267 0.595-0.596 0.595s-0.595-0.267-0.595-0.595v-3.573c0-0.329 0.267-0.595 0.595-0.595zM3.495 17.191c0.329 0 0.596 0.267 0.596 0.596v3.573c0 0.329-0.267 0.596-0.596 0.596s-0.595-0.267-0.595-0.596v-3.573c0-0.329 0.267-0.596 0.595-0.596zM10.641 27.91h3.573c0.328 0 0.595 0.267 0.595 0.596s-0.268 0.596-0.595 0.596h-3.573c-0.329 0-0.595-0.267-0.595-0.596s0.267-0.596 0.595-0.596z"></path>
</svg>
