<!-- Generated by IcoMoon.io -->
<svg version="1.1" xmlns="http://www.w3.org/2000/svg" width="32" height="32" viewBox="0 0 32 32">
<title>addressbook2</title>
<path d="M4.090 1.708c-0.659 0-1.191 0.532-1.191 1.191 0 0.657 0.532 1.191 1.191 1.191h23.819v25.010c0 1.315-1.067 2.382-2.382 2.382h-21.438c-1.315 0-2.382-1.067-2.382-2.382h0.595c0.986 0 1.786-0.8 1.786-1.786s-0.8-1.786-1.786-1.786h-0.595v-1.191h0.595c0.986 0 1.786-0.8 1.786-1.786s-0.8-1.786-1.786-1.786h-0.595v-1.191h0.595c0.986 0 1.786-0.8 1.786-1.786s-0.8-1.786-1.786-1.786h-0.595v-1.191h0.595c0.986 0 1.786-0.8 1.786-1.786s-0.8-1.786-1.786-1.786h-0.595v-1.191h0.595c0.986 0 1.786-0.8 1.786-1.786s-0.8-1.786-1.786-1.786h-0.595v-3.573c0-1.315 1.067-2.382 2.382-2.382h21.438c0.879 0 1.639 0.481 2.052 1.191h-23.49zM9.438 20.198c0.285 0.635 0.71 1.197 1.272 1.685 0.563 0.487 1.245 0.853 2.044 1.096 0.8 0.243 1.672 0.366 2.619 0.366 1.028 0 1.907-0.136 2.636-0.406 0.729-0.272 1.359-0.638 1.888-1.103 0.528-0.464 0.902-0.919 1.118-1.366h-1.154c-0.375 0.535-0.941 0.99-1.696 1.365s-1.691 0.562-2.807 0.562c-1.046 0-1.997-0.18-2.856-0.541s-1.516-0.918-1.97-1.671c-0.455-0.755-0.681-1.654-0.681-2.699 0-0.998 0.226-1.932 0.68-2.804s1.093-1.541 1.918-2.008c0.823-0.468 1.735-0.7 2.732-0.7 0.873 0 1.671 0.185 2.394 0.556s1.265 0.867 1.629 1.484c0.364 0.619 0.547 1.284 0.547 1.996 0 0.61-0.142 1.202-0.425 1.775-0.285 0.574-0.669 1.031-1.158 1.372-0.368 0.261-0.665 0.391-0.89 0.391-0.124 0-0.23-0.042-0.318-0.125-0.087-0.082-0.131-0.182-0.131-0.298 0-0.064 0.064-0.394 0.192-0.992l0.924-4.297h-1.145l-0.222 0.991c-0.243-0.397-0.532-0.692-0.869-0.886-0.336-0.194-0.691-0.291-1.061-0.291-0.486 0-0.987 0.17-1.504 0.512-0.516 0.342-0.947 0.853-1.295 1.533-0.348 0.681-0.522 1.361-0.522 2.040 0 0.55 0.112 1.056 0.336 1.517s0.516 0.803 0.873 1.023c0.358 0.223 0.726 0.332 1.106 0.332 0.345 0 0.69-0.096 1.033-0.291 0.344-0.194 0.655-0.451 0.931-0.771 0.025 0.261 0.067 0.444 0.123 0.553 0.085 0.167 0.218 0.294 0.399 0.385 0.181 0.089 0.42 0.133 0.715 0.133 0.922 0 1.771-0.43 2.549-1.291 0.871-0.96 1.307-2.058 1.307-3.294 0-0.866-0.207-1.667-0.621-2.406-0.485-0.857-1.149-1.502-1.991-1.934s-1.791-0.649-2.85-0.649c-1.365 0-2.524 0.306-3.481 0.919s-1.696 1.498-2.215 2.654c-0.426 0.942-0.64 1.933-0.64 2.973 0.001 0.935 0.18 1.805 0.538 2.609zM15.391 18.807c-0.241 0.281-0.493 0.494-0.757 0.637-0.266 0.143-0.517 0.216-0.755 0.216-0.358 0-0.675-0.163-0.954-0.487-0.276-0.324-0.416-0.779-0.416-1.365 0-0.368 0.069-0.771 0.205-1.212 0.136-0.439 0.318-0.813 0.543-1.121 0.226-0.307 0.46-0.53 0.7-0.669s0.498-0.208 0.771-0.208c0.414 0 0.765 0.16 1.053 0.48 0.287 0.32 0.431 0.771 0.431 1.352 0 0.436-0.076 0.871-0.23 1.304-0.152 0.435-0.35 0.793-0.591 1.074zM2.899 8.259c0 0.329-0.267 0.595-0.596 0.595h-1.191c-0.329 0-0.596-0.267-0.596-0.595s0.267-0.596 0.596-0.596h1.191c0.329 0 0.596 0.267 0.596 0.596zM1.113 12.427h1.191c0.329 0 0.596 0.267 0.596 0.595s-0.267 0.595-0.596 0.595h-1.191c-0.329 0-0.596-0.267-0.596-0.595s0.267-0.595 0.596-0.595zM1.113 17.191h1.191c0.329 0 0.596 0.267 0.596 0.596s-0.267 0.596-0.596 0.596h-1.191c-0.329 0-0.596-0.267-0.596-0.596s0.267-0.596 0.596-0.596zM1.113 21.955h1.191c0.329 0 0.596 0.267 0.596 0.596s-0.267 0.596-0.596 0.596h-1.191c-0.329 0-0.596-0.267-0.596-0.596s0.267-0.596 0.596-0.596zM1.113 26.719h1.191c0.329 0 0.596 0.267 0.596 0.596s-0.267 0.596-0.596 0.596h-1.191c-0.329 0-0.596-0.267-0.596-0.596s0.267-0.596 0.596-0.596zM31.483 8.78h-2.382v-3.573h2.382v3.573zM31.483 13.618h-2.382v-3.573h2.382v3.573zM31.483 18.308h-2.382v-3.573h2.382v3.573z"></path>
</svg>
