<!-- Generated by IcoMoon.io -->
<svg version="1.1" xmlns="http://www.w3.org/2000/svg" width="32" height="32" viewBox="0 0 32 32">
<title>addressbook1</title>
<path d="M29.101 18.308v-3.573h2.382v3.573h-2.382zM29.101 10.045h2.382v3.573h-2.382v-3.573zM29.101 5.281h2.382v3.573h-2.382v-3.573zM25.528 31.483h-21.438c-1.315 0-2.382-1.067-2.382-2.382h0.596c0.986 0 1.786-0.8 1.786-1.786s-0.8-1.786-1.786-1.786h-0.596v-1.191h0.596c0.986 0 1.786-0.8 1.786-1.786s-0.8-1.786-1.786-1.786h-0.596v-1.191h0.596c0.986 0 1.786-0.8 1.786-1.786s-0.8-1.786-1.786-1.786h-0.596v-1.191h0.596c0.986 0 1.786-0.8 1.786-1.786s-0.8-1.786-1.786-1.786h-0.596v-1.191h0.596c0.986 0 1.786-0.8 1.786-1.786s-0.8-1.786-1.786-1.786h-0.596v-3.573c0-1.315 1.067-2.382 2.382-2.382h21.438c0.879 0 1.639 0.481 2.052 1.191h-23.49c-0.659 0-1.191 0.532-1.191 1.191 0 0.657 0.532 1.191 1.191 1.191h23.819v25.010c0 1.315-1.067 2.382-2.382 2.382zM15.405 8.333c-1.439 0-2.606 1.533-2.606 3.424s1.166 3.424 2.606 3.424 2.606-1.533 2.606-3.424-1.167-3.424-2.606-3.424zM19.561 16.819c-0.642-0.428-2.49-0.712-2.49-0.712s-1.198 1.28-1.707 1.28c-0.51 0-1.708-1.28-1.708-1.28s-1.848 0.283-2.489 0.712c-0.642 0.426-0.925 2.693-0.925 2.693h10.26c0.001-0.001-0.187-2.191-0.941-2.693zM2.899 8.259c0 0.329-0.267 0.595-0.596 0.595h-1.191c-0.329 0-0.596-0.267-0.596-0.595s0.267-0.596 0.596-0.596h1.191c0.329 0 0.596 0.267 0.596 0.596zM1.113 12.427h1.191c0.329 0 0.596 0.267 0.596 0.595s-0.267 0.595-0.596 0.595h-1.191c-0.329 0-0.596-0.267-0.596-0.595s0.267-0.595 0.596-0.595zM1.113 17.191h1.191c0.329 0 0.596 0.267 0.596 0.596s-0.267 0.596-0.596 0.596h-1.191c-0.329 0-0.596-0.267-0.596-0.596s0.267-0.596 0.596-0.596zM1.113 21.955h1.191c0.329 0 0.596 0.267 0.596 0.596s-0.267 0.596-0.596 0.596h-1.191c-0.329 0-0.596-0.267-0.596-0.596s0.267-0.596 0.596-0.596zM1.113 26.719h1.191c0.329 0 0.596 0.267 0.596 0.596s-0.267 0.596-0.596 0.596h-1.191c-0.329 0-0.596-0.267-0.596-0.596s0.267-0.596 0.596-0.596z"></path>
</svg>
