<!-- Generated by IcoMoon.io -->
<svg version="1.1" xmlns="http://www.w3.org/2000/svg" width="32" height="32" viewBox="0 0 32 32">
<title>aids</title>
<path d="M18.493 16.044c2.726-4.72 3.504-7.769 3.504-10.666 0-4.422-3.974-6.092-6.284-6.092s-6.261 1.613-6.261 6.093c0 2.861 0.738 5.937 3.461 10.625l-6.39 11.267 2.723 5.445 6.397-11.844 7.18 11.844 2.655-4.929-6.985-11.742zM12.899 4.639c0-2.274 1.398-2.769 2.809-2.769 1.415 0 2.773 0.484 2.773 2.758s-2.769 6.063-2.769 6.063-2.813-3.777-2.813-6.053z"></path>
</svg>
