<!-- Generated by IcoMoon.io -->
<svg version="1.1" xmlns="http://www.w3.org/2000/svg" width="32" height="32" viewBox="0 0 32 32">
<title>alarm-cancel</title>
<path d="M30.044 27.050l0.001 2.174h-24.856l19.719-19.72c-0.036 4.858-0.025 10.928 2.654 13.464 3.043 2.882 2.482 4.083 2.482 4.083zM1.916 29.077l25.326-25.325 0.843 0.844-25.325 25.325-0.844-0.844zM6.296 22.967c3.043-2.882 2.643-10.328 2.643-15.373s7.084-5.151 7.084-5.151h0.242c0 0.002 0-0.035 0-0.819 0-0.504-1.691-2.328-1.691-2.328l-0.025-1.104h4.776l-0.033 1.146c0 0-1.832 1.823-1.832 2.361 0 0.519 0 0.693 0 0.744h0.378c0 0 4.527 0.076 6.34 2.686l-18.947 18.948c0.297-0.339 0.638-0.704 1.067-1.109zM19.921 30.375c0 1.65-1.336 3.434-2.985 3.434-1.65 0-2.986-1.784-2.986-3.434 0 0.037 5.97-0.038 5.97 0z"></path>
</svg>
