<!-- Generated by IcoMoon.io -->
<svg version="1.1" xmlns="http://www.w3.org/2000/svg" width="32" height="32" viewBox="0 0 32 32">
<title>alarmclock</title>
<path d="M29.373 14.541c-1.636-4.534-5.627-8.014-10.589-9.122 1.271-1.825 3.378-3.024 5.77-3.024 3.887 0 7.037 3.151 7.037 7.039 0 2.018-0.86 3.824-2.219 5.107zM15.838 2.66v4.426c6.753 0.275 12.147 5.821 12.147 12.641 0 2.849-0.952 5.469-2.537 7.583l2.935 5.084-2.438 1.409-2.512-4.352c-2.199 1.838-5.027 2.946-8.115 2.946-3.072 0-5.887-1.094-8.080-2.912l-2.578 4.463-2.438-1.409 2.997-5.188c-1.605-2.122-2.568-4.758-2.568-7.625 0-6.774 5.321-12.29 12.010-12.634v-4.433c-0.682-0.244-1.178-0.881-1.178-1.65 0-0.977 0.792-1.767 1.767-1.767 0.977 0 1.769 0.792 1.769 1.767-0.001 0.768-0.497 1.405-1.18 1.65zM5.463 19.727c0 5.443 4.411 9.853 9.853 9.853 5.44 0 9.853-4.41 9.853-9.853 0-5.44-4.413-9.852-9.853-9.852-5.442-0.001-9.853 4.411-9.853 9.852zM18.27 21.857h-3.536c-0.651 0-1.179-0.528-1.179-1.179v-4.715c0-0.651 0.528-1.179 1.179-1.179 0.65 0 1.178 0.528 1.178 1.179v3.536h2.357c0.651 0 1.179 0.528 1.179 1.179s-0.526 1.179-1.178 1.179zM1.437 14.541c-1.36-1.284-2.22-3.089-2.22-5.107 0-3.887 3.151-7.039 7.039-7.039 2.391 0 4.497 1.199 5.77 3.024-4.962 1.108-8.953 4.588-10.589 9.122z"></path>
</svg>
