<!-- Generated by IcoMoon.io -->
<svg version="1.1" xmlns="http://www.w3.org/2000/svg" width="32" height="32" viewBox="0 0 32 32">
<title>alarm1</title>
<path d="M29.116 27.050v2.174h-26.232v-2.174c0 0-0.561-1.202 2.483-4.084 3.042-2.881 2.642-10.328 2.642-15.372s7.084-5.151 7.084-5.151h0.243c0 0.002 0-0.035 0-0.819 0-0.504-1.691-2.328-1.691-2.328l-0.025-1.104h4.776l-0.032 1.146c0 0-1.833 1.823-1.833 2.361 0 0.519 0 0.693 0 0.744h0.378c0 0 7.084 0.107 7.084 5.151s-0.4 12.492 2.643 15.374 2.482 4.083 2.482 4.083zM18.992 30.375c0 1.65-1.336 3.434-2.985 3.434s-2.985-1.784-2.985-3.434c0 0.037 5.969-0.038 5.969 0z"></path>
</svg>
