<!-- Generated by IcoMoon.io -->
<svg version="1.1" xmlns="http://www.w3.org/2000/svg" width="32" height="32" viewBox="0 0 32 32">
<title>alert</title>
<path d="M14.346 19.401c-0.412 0.419-0.619 0.931-0.619 1.539 0 0.656 0.235 1.208 0.703 1.654 0.432 0.412 0.952 0.618 1.559 0.618 0.621 0 1.156-0.224 1.603-0.674s0.669-0.986 0.669-1.608c0-0.6-0.217-1.123-0.649-1.57-0.432-0.454-0.954-0.68-1.561-0.68-0.675-0.001-1.243 0.239-1.704 0.721v0zM14.084 9.793c-0.356 0.537-0.532 1.204-0.532 2 0 0.649 0.11 1.365 0.329 2.146s0.518 1.514 0.894 2.199c0.51 0.928 0.905 1.392 1.184 1.392 0.286 0 0.663-0.363 1.13-1.089 0.412-0.642 0.741-1.372 0.989-2.193s0.372-1.586 0.372-2.299c0-1.074-0.291-1.906-0.869-2.491-0.432-0.447-0.959-0.671-1.579-0.671-0.837 0-1.477 0.336-1.916 1.005v0z"></path>
</svg>
