<!-- Generated by IcoMoon.io -->
<svg version="1.1" xmlns="http://www.w3.org/2000/svg" width="32" height="32" viewBox="0 0 32 32">
<title>anchor</title>
<path d="M31.481 19.686l-1.353 9.205-2.738-2.656c-2.169 1.833-6.191 4.327-12.034 4.327-5.877 0-9.942-2.433-12.105-4.177l-2.499 2.424-1.427-9.122 9.4 1.384-2.59 2.514c1.817 1.349 4.669 2.976 7.508 2.976l-0.008-15.017c-2.073-0.722-3.566-2.628-3.566-4.889 0-2.88 2.405-5.214 5.371-5.214 2.966 0 5.371 2.334 5.371 5.214 0 2.295-1.539 4.222-3.661 4.918 0.013 2.93 0.061 15.044-0.005 15.044 2.715 0 5.519-1.767 7.345-3.197l-2.42-2.35 9.41-1.385zM18.21 6.571c0-1.484-1.24-2.688-2.769-2.688s-2.77 1.204-2.77 2.688c0 1.485 1.241 2.689 2.77 2.689s2.769-1.204 2.769-2.689z"></path>
</svg>
