<!-- Generated by IcoMoon.io -->
<svg version="1.1" xmlns="http://www.w3.org/2000/svg" width="32" height="32" viewBox="0 0 32 32">
<title>anchor2</title>
<path d="M6.944 25.056c1.946 1.95 4.52 3.274 7.393 3.641l0.063 0.007v-12.704h-6.4v-3.2h6.4v-3.472c-1.88-0.679-3.2-2.448-3.2-4.525 0-2.651 2.149-4.8 4.8-4.8s4.8 2.149 4.8 4.8c0 2.077-1.32 3.847-3.167 4.515l-0.033 0.011v3.472h6.4v3.2h-6.4v12.704c2.936-0.374 5.51-1.698 7.456-3.648l0-0-2.272-2.272h9.056l-4.528 4.528c-2.895 2.894-6.895 4.685-11.312 4.685s-8.417-1.79-11.312-4.685l-4.528-4.528h9.056l-2.272 2.272zM16 6.4c0.884 0 1.6-0.716 1.6-1.6s-0.716-1.6-1.6-1.6v0c-0.884 0-1.6 0.716-1.6 1.6s0.716 1.6 1.6 1.6v0z"></path>
</svg>
