<!-- Generated by IcoMoon.io -->
<svg version="1.1" xmlns="http://www.w3.org/2000/svg" width="32" height="32" viewBox="0 0 32 32">
<title>android</title>
<path d="M24.337 20.764c-0.659 0-1.191-0.534-1.191-1.191v-7.146c0-0.659 0.532-1.191 1.191-1.191 0.657 0 1.191 0.532 1.191 1.191v7.146c0 0.657-0.534 1.191-1.191 1.191zM20.762 5.53c1.189 2.051 1.193 4.515 1.193 4.515h-11.91c0 0-0.046-2.496 1.154-4.554l-2.243-2.243c-0.232-0.232-0.232-0.61 0-0.842s0.61-0.232 0.842 0l2.103 2.103c0.881-0.975 2.181-1.684 4.098-1.684 1.894 0 3.181 0.728 4.061 1.72l2.14-2.139c0.232-0.232 0.61-0.232 0.842 0s0.232 0.61 0 0.842l-2.282 2.282zM13.023 6.472c-0.329 0-0.595 0.267-0.595 0.596s0.267 0.596 0.595 0.596c0.328 0 0.595-0.267 0.595-0.596s-0.268-0.596-0.595-0.596zM18.977 6.472c-0.329 0-0.596 0.267-0.596 0.596s0.267 0.596 0.596 0.596c0.328 0 0.596-0.267 0.596-0.596s-0.268-0.596-0.596-0.596zM8.854 19.573c0 0.657-0.534 1.191-1.191 1.191-0.659 0-1.191-0.534-1.191-1.191v-7.146c0-0.659 0.532-1.191 1.191-1.191 0.657 0 1.191 0.532 1.191 1.191v7.146zM21.955 21.955c0 1.554-0.998 2.861-2.382 3.354v3.792c0 0.657-0.534 1.191-1.191 1.191-0.659 0-1.191-0.534-1.191-1.191v-3.573h-2.382v3.573c0 0.657-0.534 1.191-1.191 1.191-0.659 0-1.191-0.534-1.191-1.191v-3.792c-1.385-0.493-2.382-1.801-2.382-3.354v-10.719h11.91v10.719z"></path>
</svg>
