<!-- Generated by IcoMoon.io -->
<svg version="1.1" xmlns="http://www.w3.org/2000/svg" width="32" height="32" viewBox="0 0 32 32">
<title>archive</title>
<path d="M12.51 3.14l-6.903-1.85c-0.635-0.17-1.287 0.207-1.458 0.842l-7.090 26.459c-0.17 0.636 0.207 1.289 0.843 1.46l6.902 1.85c0.635 0.17 1.289-0.207 1.459-0.842l7.090-26.46c0.169-0.635-0.207-1.289-0.843-1.459zM6.21 26.651c-0.511 1.907-2.469 3.037-4.376 2.526s-3.037-2.469-2.526-4.376 2.469-3.038 4.376-2.526c1.907 0.511 3.037 2.47 2.526 4.376zM7.579 21.546l-6.902-1.85 3.698-13.805 6.903 1.851-3.699 13.803zM19.499 24.337c-0.987 0-1.786 0.8-1.786 1.786s0.799 1.786 1.786 1.786c0.986 0 1.786-0.8 1.786-1.786s-0.8-1.786-1.786-1.786zM9.82 8.584l-4.603-1.233-0.307 1.15 4.602 1.233 0.308-1.15zM8.893 12.035l0.31-1.15-4.602-1.233-0.308 1.15 4.601 1.233zM3.203 24.072c-0.953-0.256-1.933 0.311-2.188 1.264-0.256 0.954 0.31 1.933 1.264 2.188 0.953 0.256 1.933-0.31 2.188-1.264 0.255-0.953-0.311-1.932-1.264-2.188zM32.6 7.663h-4.764v1.191h4.764v-1.191zM32.6 12.427h-4.764v1.191h4.764v-1.191zM32.6 10.045h-4.764v1.191h4.764v-1.191zM30.218 24.337c-0.987 0-1.786 0.8-1.786 1.786s0.799 1.786 1.786 1.786c0.986 0 1.786-0.8 1.786-1.786s-0.8-1.786-1.786-1.786zM33.791 1.708h-7.146c-0.659 0-1.191 0.532-1.191 1.191v27.392c0 0.657 0.532 1.191 1.191 1.191h7.146c0.657 0 1.191-0.534 1.191-1.191v-27.392c0-0.659-0.535-1.191-1.191-1.191zM30.218 29.696c-1.973 0-3.573-1.601-3.573-3.573 0-1.973 1.599-3.573 3.573-3.573 1.972 0 3.573 1.599 3.573 3.573 0 1.972-1.601 3.573-3.573 3.573zM33.791 20.764h-7.146v-14.292h7.146v14.292zM21.881 7.663h-4.764v1.191h4.764v-1.191zM21.881 12.427h-4.764v1.191h4.764v-1.191zM23.072 1.708h-7.146c-0.659 0-1.191 0.532-1.191 1.191v27.392c0 0.657 0.532 1.191 1.191 1.191h7.146c0.657 0 1.191-0.534 1.191-1.191v-27.392c0-0.659-0.535-1.191-1.191-1.191zM19.499 29.622c-1.973 0-3.573-1.601-3.573-3.573 0-1.973 1.599-3.573 3.573-3.573 1.972 0 3.573 1.599 3.573 3.573 0 1.972-1.601 3.573-3.573 3.573zM23.072 20.764h-7.146v-14.292h7.146v14.292zM21.881 10.045h-4.764v1.191h4.764v-1.191zM3.676 13.102l4.601 1.233 0.31-1.15-4.602-1.233-0.308 1.15z"></path>
</svg>
