<!-- Generated by IcoMoon.io -->
<svg version="1.1" xmlns="http://www.w3.org/2000/svg" width="32" height="32" viewBox="0 0 32 32">
<title>at-symbol</title>
<path d="M21.76 21.552c-1.457 1.524-3.506 2.472-5.776 2.472-4.409 0-7.984-3.575-7.984-7.984 0-0.014 0-0.028 0-0.042v0.002c0-4.418 3.582-8 8-8 1.81 0 3.48 0.601 4.82 1.615l-0.020-0.015v-1.6h3.2v10.4c0 1.325 1.075 2.4 2.4 2.4s2.4-1.075 2.4-2.4v0-2.4c-0.005-7.065-5.734-12.791-12.8-12.791-7.069 0-12.8 5.731-12.8 12.8s5.731 12.8 12.8 12.8c2.088 0 4.059-0.5 5.801-1.387l-0.073 0.034 1.44 2.864c-2.088 1.069-4.555 1.695-7.168 1.695-8.837 0-16-7.163-16-16s7.163-16 16-16c8.831 0 15.991 7.155 16 15.984v0.001h-0.016v2.4c0 0.005 0 0.011 0 0.017 0 3.093-2.507 5.6-5.6 5.6-1.923 0-3.619-0.969-4.628-2.445l-0.012-0.019zM16 20.8c2.651 0 4.8-2.149 4.8-4.8s-2.149-4.8-4.8-4.8v0c-2.651 0-4.8 2.149-4.8 4.8s2.149 4.8 4.8 4.8v0z"></path>
</svg>
