<!-- Generated by IcoMoon.io -->
<svg version="1.1" xmlns="http://www.w3.org/2000/svg" width="32" height="32" viewBox="0 0 32 32">
<title>atom1</title>
<path d="M26.346 16.044c2.731 2.945 3.954 5.843 2.893 7.701-1.059 1.853-4.146 2.235-8.025 1.327-1.161 3.881-3.042 6.416-5.17 6.416-2.131 0-4.010-2.543-5.169-6.435-3.922 0.935-7.046 0.56-8.113-1.308-1.061-1.858 0.163-4.759 2.894-7.708-2.783-2.973-4.036-5.907-2.966-7.779 1.072-1.877 4.226-2.247 8.175-1.295 1.16-3.9 3.047-6.45 5.18-6.45 2.132 0 4.012 2.542 5.171 6.432 3.912-0.929 7.032-0.553 8.097 1.312 1.067 1.873-0.187 4.81-2.968 7.787zM3.795 8.903c-0.819 1.434 0.311 3.785 2.704 6.27 0.975-0.952 2.098-1.896 3.349-2.804 0.152-1.508 0.385-2.938 0.703-4.24-3.343-0.859-5.932-0.667-6.755 0.773zM9.713 14.048c-0.857 0.653-1.64 1.315-2.341 1.976 0.711 0.665 1.478 1.332 2.346 1.989-0.036-0.661-0.061-1.329-0.061-2.013 0-0.662 0.021-1.312 0.056-1.952zM9.846 19.685c-1.252-0.904-2.371-1.846-3.35-2.794-2.35 2.463-3.441 4.787-2.628 6.209 0.818 1.43 3.38 1.629 6.693 0.788-0.318-1.295-0.563-2.702-0.715-4.203zM20.87 20.567c-0.531 0.349-1.074 0.692-1.64 1.022-0.574 0.335-1.148 0.642-1.72 0.935 0.98 0.417 1.939 0.78 2.849 1.059 0.213-0.934 0.379-1.952 0.511-3.016zM16.043 30.196c1.63 0 3.077-2.126 4.014-5.427-1.292-0.372-2.657-0.889-4.048-1.517-1.366 0.621-2.702 1.119-3.974 1.492 0.934 3.31 2.378 5.452 4.009 5.452zM11.74 23.553c0.884-0.275 1.808-0.617 2.758-1.022-0.574-0.294-1.152-0.605-1.728-0.941-0.535-0.313-1.049-0.635-1.553-0.965 0.13 1.044 0.314 2.008 0.523 2.927zM11.219 11.422c0.525-0.344 1.064-0.682 1.622-1.010 0.551-0.323 1.103-0.619 1.653-0.903-0.954-0.407-1.888-0.767-2.776-1.044-0.207 0.917-0.368 1.916-0.499 2.957zM16.043 1.804c-1.635 0-3.089 2.146-4.024 5.471 1.271 0.374 2.609 0.887 3.973 1.509 1.396-0.64 2.761-1.15 4.060-1.529-0.934-3.307-2.377-5.451-4.009-5.451zM20.348 8.443c-0.915 0.285-1.87 0.637-2.856 1.061 0.554 0.285 1.11 0.584 1.665 0.909 0.598 0.349 1.169 0.712 1.728 1.081-0.131-1.090-0.32-2.096-0.537-3.051zM21.050 13.146c-0.798-0.555-1.641-1.097-2.532-1.615-0.853-0.498-1.698-0.933-2.534-1.339-0.825 0.403-1.663 0.849-2.502 1.339-0.849 0.494-1.66 1.011-2.424 1.538-0.074 0.949-0.124 1.921-0.124 2.932 0 1.022 0.042 2.016 0.116 2.976 0.747 0.513 1.535 1.015 2.359 1.496 0.877 0.511 1.746 0.958 2.606 1.372 0.849-0.412 1.711-0.868 2.575-1.372 0.856-0.499 1.67-1.018 2.44-1.551 0.073-0.946 0.124-1.914 0.124-2.921 0-0.979-0.036-1.933-0.104-2.855zM28.132 23.099c0.812-1.42-0.288-3.74-2.633-6.197-0.954 0.922-2.046 1.836-3.259 2.717-0.152 1.527-0.388 2.976-0.712 4.292 3.27 0.816 5.794 0.605 6.604-0.812zM22.375 17.941c0.821-0.626 1.573-1.262 2.252-1.895-0.681-0.643-1.416-1.29-2.247-1.927 0.030 0.618 0.051 1.243 0.051 1.881-0.001 0.66-0.023 1.305-0.056 1.941zM28.204 8.903c-0.817-1.428-3.37-1.63-6.675-0.793 0.325 1.332 0.576 2.786 0.726 4.336 1.214 0.887 2.299 1.81 3.249 2.738 2.397-2.49 3.522-4.845 2.7-6.281zM16.238 18.456c-1.402 0-2.538-1.147-2.538-2.563 0-1.415 1.136-2.563 2.538-2.563 1.401 0 2.537 1.148 2.537 2.563 0 1.417-1.136 2.563-2.537 2.563z"></path>
</svg>
