<!-- Generated by IcoMoon.io -->
<svg version="1.1" xmlns="http://www.w3.org/2000/svg" width="32" height="32" viewBox="0 0 32 32">
<title>attachment</title>
<path d="M24.409 12.952c0 0 1.396-1.061 0.335-2.122-1.064-1.061-2.096 0.308-2.096 0.308l-8.3 8.301c0 0-2.505 3.229-4.402 1.274s1.274-4.402 1.274-4.402l11.623-11.624c0 0 3.268-3.6 6.338-0.53 3.070 3.072-0.54 6.347-0.54 6.347l-15.736 15.738c0 0-5.035 5.817-9.698 1.154s1.21-9.641 1.21-9.641l11.95-11.95c0 0 1.34-1.117 0.335-2.122s-2.121 0.335-2.121 0.335l-13.708 13.709c0 0-5.175 5.677 0.605 11.455 5.78 5.78 11.456 0.606 11.456 0.606l18.844-18.845c0 0 3.768-4.16-0.725-8.656s-8.656-0.725-8.656-0.725l-13.827 13.828c0 0-4.156 3.375-0.387 7.143 3.769 3.769 7.088-0.443 7.088-0.443l9.14-9.138z"></path>
</svg>
