<!-- Generated by IcoMoon.io -->
<svg version="1.1" xmlns="http://www.w3.org/2000/svg" width="32" height="32" viewBox="0 0 32 32">
<title>attachment2</title>
<path d="M24 4.8h-12.8c-6.186 0-11.2 5.014-11.2 11.2s5.014 11.2 11.2 11.2v0h12.8v-3.2h-12.8c-4.418 0-8-3.582-8-8s3.582-8 8-8v0h12.8c2.651 0 4.8 2.149 4.8 4.8s-2.149 4.8-4.8 4.8v0h-12.8c-0.884 0-1.6-0.716-1.6-1.6s0.716-1.6 1.6-1.6v0h12.8v-3.2h-12.8c-2.651 0-4.8 2.149-4.8 4.8s2.149 4.8 4.8 4.8v0h12.8c4.418 0 8-3.582 8-8s-3.582-8-8-8v0z"></path>
</svg>
