<!-- Generated by IcoMoon.io -->
<svg version="1.1" xmlns="http://www.w3.org/2000/svg" width="32" height="32" viewBox="0 0 32 32">
<title>auction</title>
<path d="M10.787 5.999l7.22 4.168c0.57 0.329 1.298 0.133 1.626-0.436 0.33-0.569 0.135-1.298-0.435-1.626l-7.22-4.168c-0.571-0.329-1.298-0.133-1.627 0.435-0.33 0.569-0.133 1.297 0.436 1.627zM17.412 11.199l-7.22-4.168-4.168 7.22 7.22 4.168 4.168-7.22zM4.237 17.345l7.22 4.168c0.569 0.329 1.298 0.133 1.626-0.436 0.329-0.569 0.133-1.298-0.435-1.626l-7.22-4.168c-0.571-0.329-1.298-0.133-1.627 0.435-0.33 0.569-0.133 1.298 0.436 1.627zM29.115 20.706l-13.191-6.928-1.191 2.063 12.596 7.959c0.854 0.493 1.947 0.201 2.44-0.654s0.2-1.947-0.654-2.44zM16.039 26.719c0-0.659-0.534-1.191-1.191-1.191h-10.719c-0.659 0-1.191 0.532-1.191 1.191 0 0.657 0 1.191 0 1.191l-1.23-0.025 0.039 1.216h15.483l0.056-1.141-1.172-0.050c0 0-0.075-0.534-0.075-1.191z"></path>
</svg>
