<!-- Generated by IcoMoon.io -->
<svg version="1.1" xmlns="http://www.w3.org/2000/svg" width="32" height="32" viewBox="0 0 32 32">
<title>bag</title>
<path d="M18.252 8.622h-4.514c0 0-7.348 5.754-7.348 14.42s7.725 8.75 7.725 8.75 2.010 0.149 3.722 0c0 0.074 7.771-1.030 7.771-8.757 0.001-7.725-7.355-14.413-7.355-14.413zM13.738 8.056h4.522v-1.696h-4.522v1.696zM18.191 5.796l2.296-5.654c0 0-1.449 1.202-2.296 1.202-0.849 0-2.191-1.166-2.191-1.166s-1.448 1.166-2.296 1.166-2.226-1.13-2.226-1.13l2.332 5.583h4.382z"></path>
</svg>
