<!-- Generated by IcoMoon.io -->
<svg version="1.1" xmlns="http://www.w3.org/2000/svg" width="32" height="32" viewBox="0 0 32 32">
<title>barcode</title>
<path d="M31.483 4.127h-30.965c-1.315 0-2.382 1.067-2.382 2.382v20.173c0 1.315 1.067 2.382 2.382 2.382h30.965c1.315 0 2.382-1.067 2.382-2.382v-20.173c0-1.315-1.067-2.382-2.382-2.382zM4.090 25.491h-2.382v-17.791h2.382v17.791zM6.472 23.183h-1.191v-15.483h1.191v15.483zM10.045 23.183h-1.191v-15.483h1.191v15.483zM13.618 23.183h-2.382v-15.483h2.382v15.483zM16 23.183h-1.191v-15.483h1.191v15.483zM20.764 23.183h-2.382v-15.483h2.382v15.483zM23.146 23.183h-1.191v-15.483h1.191v15.483zM26.719 23.183h-1.191v-15.483h1.191v15.483zM30.292 25.491h-2.382v-17.791h2.382v17.791z"></path>
</svg>
