<!-- Generated by IcoMoon.io -->
<svg version="1.1" xmlns="http://www.w3.org/2000/svg" width="32" height="32" viewBox="0 0 32 32">
<title>barcode1</title>
<path d="M25.298 20.047h-2.094v0.698h2.094v-0.698zM17.486 22.141v0.698h2.094v0.698h0.698v-2.792h-0.698v1.396h-2.094zM17.486 24.932h1.396v-0.698h-1.396v0.698zM18.882 24.234h0.698v-0.698h-0.698v0.698zM17.486 20.745h-0.698v1.396h0.698v-1.396zM13.618 6.472h-2.382v11.91h2.382v-11.91zM16 6.472h-1.191v11.91h1.191v-11.91zM23.204 24.932h2.094v-0.698h-2.094v0.698zM19.58 20.047h-2.094v0.698h2.094v-0.698zM25.996 24.234v-3.49h-0.698v3.49h0.698zM26.719 6.472h-1.191v11.91h1.191v-11.91zM11.77 23.536h-0.698v0.698h0.698v-0.698zM20.764 6.472h-2.382v11.91h2.382v-11.91zM23.146 6.472h-1.191v11.91h1.191v-11.91zM22.506 24.234h0.698v-3.49h-0.698v3.49zM5.355 24.932h3.49v-0.698h-2.792v-0.698h-0.698v1.396zM5.355 21.443h0.698v-0.698h-0.698v0.698zM6.751 22.839h1.396v-0.698h-1.396v0.698zM12.468 22.141v0.698h1.396v-0.698h-1.396zM6.053 20.047v0.698h2.094v-0.698h-2.094zM6.472 6.472h-1.191v11.91h1.191v-11.91zM32.674 1.708h-33.347c-1.315 0-2.382 1.067-2.382 2.382v23.819c0 1.315 1.067 2.382 2.382 2.382h33.347c1.315 0 2.382-1.067 2.382-2.382v-23.819c0-1.315-1.067-2.382-2.382-2.382zM32.674 27.91h-33.347v-23.819h33.347v23.819zM4.090 6.472h-2.382v19.056h2.382v-19.056zM6.053 23.536h0.698v-0.698h-0.698v0.698zM14.561 20.745h-0.698v1.396h0.698v-1.396zM11.77 20.047v0.698h2.094v-0.698h-2.094zM8.845 22.141v-1.396h-0.698v1.396h0.698zM11.072 21.443h0.698v-0.698h-0.698v0.698zM10.045 6.472h-1.191v11.91h1.191v-11.91zM14.561 22.839h-0.698v1.396h0.698v-1.396zM13.863 24.932v-0.698h-2.094v0.698h2.094zM30.292 6.472h-2.382v19.056h2.382v-19.056z"></path>
</svg>
