<!-- Generated by IcoMoon.io -->
<svg version="1.1" xmlns="http://www.w3.org/2000/svg" width="32" height="32" viewBox="0 0 32 32">
<title>baseball</title>
<path d="M20.706 16c0-7.678 3.968-11.992 3.968-11.992s-3.503-2.842-8.733-2.842c-5.231 0-8.735 2.844-8.735 2.844s4.040 3.281 4.040 11.99c0 8.404-4.066 11.972-4.066 11.972s4.227 2.862 8.761 2.862c4.641 0 8.737-2.846 8.737-2.846s-3.972-3.722-3.972-11.987zM6.209 4.795c0 0-4.934 3.007-4.934 11.255 0 8.246 4.989 10.945 4.989 10.945s3.636-2.7 3.636-10.945c0-8.247-3.691-11.255-3.691-11.255zM25.672 5.018c0 0-3.69 2.784-3.69 11.032 0 8.246 3.634 10.945 3.634 10.945s5.108-2.7 5.108-10.945c0-8.247-5.052-11.032-5.052-11.032z"></path>
</svg>
