<!-- Generated by IcoMoon.io -->
<svg version="1.1" xmlns="http://www.w3.org/2000/svg" width="32" height="32" viewBox="0 0 32 32">
<title>basket1</title>
<path d="M-3.056 13.618v-3.573h4.466l8.969-8.97c-0.060-0.177-0.111-0.358-0.111-0.557 0-0.987 0.799-1.786 1.786-1.786 0.986 0 1.786 0.799 1.786 1.786 0 0.986-0.8 1.786-1.786 1.786-0.132 0-0.249-0.049-0.372-0.075l-7.818 7.816h23.050l-7.771-7.835c-0.154 0.043-0.3 0.094-0.466 0.094-0.986 0-1.786-0.8-1.786-1.786 0-0.987 0.8-1.786 1.786-1.786s1.786 0.799 1.786 1.786c0 0.182-0.054 0.349-0.105 0.516l9.012 9.012h4.491v3.573h-36.92zM26.563 31.366c-0.349 1.396-1.316 1.318-1.316 1.318l-19.764 0.038c-1.008 0-1.278-1.277-1.278-1.277l-5.225-16.62 32.84-0.031-5.257 16.571zM8.853 17.191h-1.191v5.955h1.191v-5.955zM8.853 24.337h-1.191v5.955h1.191v-5.955zM11.235 17.191h-1.19v5.955h1.19v-5.955zM11.235 24.337h-1.19v5.955h1.19v-5.955zM13.617 17.191h-1.191v5.955h1.191v-5.955zM13.617 24.337h-1.191v5.955h1.191v-5.955zM16 17.191h-1.191v5.955h1.191v-5.955zM16 24.337h-1.191v5.955h1.191v-5.955zM18.382 17.191h-1.191v5.955h1.191v-5.955zM18.382 24.337h-1.191v5.955h1.191v-5.955zM20.764 17.191h-1.191v5.955h1.191v-5.955zM20.764 24.337h-1.191v5.955h1.191v-5.955zM23.146 17.191h-1.191v5.955h1.191v-5.955zM23.146 24.337h-1.191v5.955h1.191v-5.955z"></path>
</svg>
