<!-- Generated by IcoMoon.io -->
<svg version="1.1" xmlns="http://www.w3.org/2000/svg" width="39" height="32" viewBox="0 0 39 32">
<title>batman</title>
<path d="M20.168 2.006c-12.827 0-23.224 6.266-23.224 13.994s10.397 13.994 23.224 13.994 23.224-6.266 23.224-13.994-10.397-13.994-23.224-13.994zM33.335 24.968c0 0.074 2.324-2.807 0.464-4.741-2.232-2.53-6.093 1.258-6.093 1.258-3.051-6.025-7.651 3.746-7.651 3.746s-3.987-9.207-7.409-3.629c0.074 0-2.838-3.326-5.739-1.764-2.083 2.083 0 4.872 0 4.872-10.861-3.794-11.567-14.878 3.516-19.396-4.259 5.337 7.849 12.683 6.955-0.41l2.567 2.251c0 0 2.586-2.139 2.586-2.288-0.298 13.092 11.158 5.412 7.29 0.576 13.612 3.94 15.936 13.351 3.515 19.525z"></path>
</svg>
