<!-- Generated by IcoMoon.io -->
<svg version="1.1" xmlns="http://www.w3.org/2000/svg" width="32" height="32" viewBox="0 0 32 32">
<title>battery1</title>
<path d="M30.292 13.618c-0.659 0-1.191 0-1.191 0v-1.191c0-1.315-1.067-2.382-2.382-2.382h-23.819c-1.315 0-2.382 1.067-2.382 2.382v8.337c0 1.315 1.067 2.382 2.382 2.382h23.819c1.315 0 2.382-1.067 2.382-2.382v-1.191c0 0 0.532 0 1.191 0 0.657 0 1.191-0.534 1.191-1.191v-3.573c0-0.659-0.534-1.191-1.191-1.191zM27.91 20.764c0 0.657-0.534 1.191-1.191 1.191h-23.819c-0.659 0-1.191-0.534-1.191-1.191v-8.337c0-0.659 0.532-1.191 1.191-1.191h23.819c0.657 0 1.191 0.532 1.191 1.191v8.337zM2.899 20.764h7.146v-8.337h-7.146v8.337zM11.236 20.764h7.146v-8.337h-7.146v8.337zM19.573 20.764h7.146v-8.337h-7.146v8.337z"></path>
</svg>
