<!-- Generated by IcoMoon.io -->
<svg version="1.1" xmlns="http://www.w3.org/2000/svg" width="32" height="32" viewBox="0 0 32 32">
<title>battery5</title>
<path d="M19.586 31.47h-8.362c-1.309 0-2.368-1.060-2.368-2.368v-22.645c0-1.308 1.060-2.368 2.368-2.368h1.259c0 0 0 0.062 0-0.592s0.456-1.776 1.11-1.776h3.551c0.654 0 1.184 1.122 1.184 1.776s0 0.592 0 0.592h1.259c1.309 0 2.368 1.061 2.368 2.368v22.645c-0.001 1.309-1.061 2.368-2.369 2.368zM17.143 7.716h-1.184v-1.184h-1.11v1.184h-1.184v1.184h1.184v1.184h1.11v-1.184h1.184v-1.184zM20.77 12.377h-10.731v16.725c0 0.655 0.53 1.184 1.184 1.184h8.362c0.654 0 1.184-0.529 1.184-1.184v-16.725zM13.592 26.659h3.627v1.259h-3.627v-1.259z"></path>
</svg>
