<!-- Generated by IcoMoon.io -->
<svg version="1.1" xmlns="http://www.w3.org/2000/svg" width="38" height="32" viewBox="0 0 38 32">
<title>bike</title>
<path d="M32.671 30.526c-5.016 0-9.084-4.066-9.084-9.084 0-3.68 2.194-6.842 5.34-8.269l-1.208-2.719 0.197 0.475-8.27 11.101v2.226h1.211v1.212h-3.635v-1.212h1.212v-1.212l-3.426-0.322c-0.624 4.408-4.402 7.802-8.982 7.802-5.016 0.001-9.082-4.065-9.082-9.082 0-5.016 4.066-9.082 9.084-9.082 1.311 0 2.555 0.283 3.68 0.782l2.27-5.702-1.030-2.877c-0.453 0-0.874 0-1.211 0-1.136 0-0.832-1.211-0.832-1.211s0.075-1.060 0.909-1.060 0.832 0.757 2.195 0.757c1.304 0 3.179 0.378 3.179 0.378s0.832 1.135-0.756 1.135c-0.719 0-1.511 0-2.271 0l0.861 3.093h13.163l-1.034-2.35h-0.804v-1.21h4.844v1.211h-2.737l3.546 7.456c0.846-0.261 1.745-0.401 2.675-0.401 5.016 0 9.084 4.066 9.084 9.082-0.001 5.018-4.068 9.084-9.085 9.084zM6.028 13.57c-4.348 0-7.872 3.524-7.872 7.872s3.524 7.871 7.872 7.871c3.953 0 7.217-2.917 7.777-6.716l-6.305-0.649c-0.1 0.568-0.573 1.008-1.17 1.008-0.669 0-1.211-0.542-1.211-1.212 0-0.668 0.542-1.212 1.211-1.212 0.143 0 0.276 0.037 0.404 0.083l2.526-6.348c-0.987-0.443-2.079-0.697-3.232-0.697zM7.844 20.913l6.049 0.64c0.001-0.037 0.006-0.073 0.006-0.11 0-2.799-1.464-5.25-3.665-6.647l-2.39 6.117zM12.519 8.952l-1.838 4.702c2.65 1.586 4.429 4.477 4.429 7.79 0 0.079-0.010 0.158-0.012 0.237l2.056 0.217-4.635-12.946zM26.693 8.135v0.731h-13.244l4.823 12.909 9.155-11.987-0.735-1.653zM32.671 13.57c-0.759 0-1.49 0.113-2.184 0.314l2.827 6.46c0.574 0.093 1.022 0.572 1.022 1.172 0 0.669-0.542 1.212-1.211 1.212s-1.212-0.542-1.212-1.212c0-0.325 0.132-0.621 0.344-0.84l-2.839-6.398c-2.724 1.239-4.62 3.975-4.62 7.163 0 4.347 3.524 7.871 7.871 7.871s7.871-3.524 7.871-7.871-3.522-7.871-7.869-7.871z"></path>
</svg>
