<!-- Generated by IcoMoon.io -->
<svg version="1.1" xmlns="http://www.w3.org/2000/svg" width="32" height="32" viewBox="0 0 32 32">
<title>bike1</title>
<path d="M25.528 7.663h-4.764v-2.382h4.764c0.657 0 1.191 0.532 1.191 1.191 0 0.657-0.534 1.191-1.191 1.191zM21.955-3.056c0-1.973-1.599-3.573-3.573-3.573h-5.955c-1.973 0-3.573 1.599-3.573 3.573v7.146h-1.191v-7.146c0-2.631 2.133-4.764 4.764-4.764h5.955c2.631 0 4.764 2.133 4.764 4.764v7.146h-1.191v-7.146zM10.045 7.663h-4.764c-0.659 0-1.191-0.534-1.191-1.191 0-0.659 0.532-1.191 1.191-1.191h4.764v2.382zM15.405 10.641c-2.303 0-4.168-1.866-4.168-4.168 0-2.303 1.865-4.168 4.168-4.168 2.302 0 4.168 1.865 4.168 4.168 0 2.302-1.866 4.168-4.168 4.168zM15.405 4.090c-1.315 0-2.382 1.067-2.382 2.382s1.067 2.382 2.382 2.382 2.382-1.067 2.382-2.382-1.067-2.382-2.382-2.382zM11.37 8.98c0.841 1.349 2.327 2.256 4.035 2.256s3.193-0.906 4.035-2.256c2.12 0.482 3.706 2.371 3.706 4.638v11.91c0 2.216-1.522 4.064-3.573 4.595v-6.456c0-2.302-1.866-4.168-4.168-4.168-2.303 0-4.168 1.866-4.168 4.168v6.456c-2.052-0.531-3.573-2.378-3.573-4.595v-11.91c0-2.266 1.586-4.155 3.706-4.638zM15.405 20.764c1.645 0 2.977 1.333 2.977 2.977v8.337c0 1.645-1.333 2.977-2.977 2.977s-2.977-1.333-2.977-2.977v-8.337c0-1.645 1.333-2.977 2.977-2.977z"></path>
</svg>
