<!-- Generated by IcoMoon.io -->
<svg version="1.1" xmlns="http://www.w3.org/2000/svg" width="32" height="32" viewBox="0 0 32 32">
<title>blocked1</title>
<path d="M16 31.483c-8.55 0-15.483-6.931-15.483-15.483s6.933-15.483 15.483-15.483c8.551 0 15.483 6.931 15.483 15.483s-6.931 15.483-15.483 15.483zM16 27.91c2.633 0 5.060-0.866 7.033-2.312l-16.63-16.628c-1.448 1.971-2.313 4.397-2.313 7.030 0 6.577 5.332 11.91 11.91 11.91zM16 4.090c-2.654 0-5.096 0.878-7.076 2.346l16.639 16.64c1.467-1.981 2.346-4.422 2.346-7.077 0-6.578-5.332-11.91-11.91-11.91z"></path>
</svg>
