<!-- Generated by IcoMoon.io -->
<svg version="1.1" xmlns="http://www.w3.org/2000/svg" width="32" height="32" viewBox="0 0 32 32">
<title>block1</title>
<path d="M0 16c0-8.837 7.163-16 16-16s16 7.163 16 16v0c0 8.837-7.163 16-16 16s-16-7.163-16-16v0zM26.112 8.16l-17.968 17.936c2.145 1.679 4.881 2.692 7.853 2.692 7.069 0 12.8-5.731 12.8-12.8 0-2.969-1.011-5.701-2.707-7.873l0.021 0.028zM23.856 5.888c-2.15-1.694-4.898-2.717-7.885-2.717-7.069 0-12.8 5.731-12.8 12.8 0 2.987 1.023 5.735 2.738 7.912l-0.021-0.027 17.968-17.968z"></path>
</svg>
