<!-- Generated by IcoMoon.io -->
<svg version="1.1" xmlns="http://www.w3.org/2000/svg" width="37" height="32" viewBox="0 0 37 32">
<title>bomb</title>
<path d="M36.518 6.386l3.911 0.553-3.478 1.841 2.521 2.303-3.65-0.461 2.259 4.698-4.52-3.409-3.738 4.514 1.739-5.618-5.477 2.948 3.824-4.145-0.262-1.019c-1.033 0.514-2.495 1.040-4.024 0.979-2.028 0-4.547-1.415-7.557-3.944 0 0-3.407-3.604-6.272-3.604-2.946 0-2.658 4.433-2.655 4.477h3.337v3.016c4.242 1.634 7.109 5.738 7.109 10.558 0 6.253-5.069 11.321-11.321 11.321s-11.32-5.071-11.32-11.324c0-4.819 2.941-8.924 7.183-10.558v-3.016h2.982c-0.004-0.023-0.343-3.268 1.37-5.069 0.914-0.96 2.029-1.44 3.35-1.44 3.974 0 7.541 4.183 7.541 4.183 2.614 2.244 4.746 3.365 6.396 3.365 0.669 0 2.032-0.422 2.732-0.654l-2.152-1.694 3.738 0.275-2.868-4.421 4.694 3.316 0.522-3.132 0.868 2.856 3.478-4.145-0.782 4.606 3.998-0.921-3.475 2.764z"></path>
</svg>
