<!-- Generated by IcoMoon.io -->
<svg version="1.1" xmlns="http://www.w3.org/2000/svg" width="32" height="32" viewBox="0 0 32 32">
<title>book</title>
<path d="M14.809 27.761v-23.373c0 0-3.201-2.68-7.741-2.68s-7.741 2.382-7.741 2.382v23.671c0 0 3.201-2.308 7.741-2.308s7.741 2.308 7.741 2.308zM31.483 27.761v-23.373c0 0-3.201-2.68-7.741-2.68s-7.741 2.382-7.741 2.382v23.671c0 0 3.201-2.308 7.741-2.308s7.741 2.308 7.741 2.308zM33.865 6.472h-1.191v22.628h-14.292v1.191h-5.955v-1.191h-14.292v-22.628h-1.191v23.819h14.292v1.191h8.411l-0.074-1.191h14.292v-23.819z"></path>
</svg>
