<!-- Generated by IcoMoon.io -->
<svg version="1.1" xmlns="http://www.w3.org/2000/svg" width="32" height="32" viewBox="0 0 32 32">
<title>book1</title>
<path d="M17.191 27.91c0 0 7.37-2.456 13.101 2.158 0-0.074 0-2.158 0-2.158-6.699-3.722-13.101 0-13.101 0zM-0.674 4.090v23.671c0 0 3.201-2.308 7.741-2.308s7.741 2.308 7.741 2.308v-23.373c0 0-3.201-2.68-7.741-2.68s-7.741 2.382-7.741 2.382zM1.708 6.472h4.764v5.955h-4.764v-5.955zM12.427 21.955h-10.719v-1.191h10.719v1.191zM12.427 19.573h-10.719v-1.191h10.719v1.191zM12.427 17.191h-10.719v-1.191h10.719v1.191zM12.427 14.809h-10.719v-1.191h10.719v1.191zM7.663 6.472h4.764v1.191h-4.764v-1.191zM7.663 8.854h4.764v1.191h-4.764v-1.191zM7.663 11.236h4.764v1.191h-4.764v-1.191zM23.741 1.708c-4.54 0-7.741 2.382-7.741 2.382v23.671c0 0 3.201-2.308 7.741-2.308s7.741 2.308 7.741 2.308v-23.373c0 0-3.201-2.68-7.741-2.68zM29.101 21.955h-10.719v-1.191h10.719v1.191zM29.101 19.573h-10.719v-1.191h10.719v1.191zM29.101 17.191h-10.719v-1.191h10.719v1.191zM29.101 14.809h-10.719v-1.191h10.719v1.191zM29.101 12.427h-10.719v-1.191h10.719v1.191zM29.101 10.045h-10.719v-1.191h10.719v1.191zM29.101 7.663h-10.719v-1.191h10.719v1.191zM0.517 27.91c0 0 0 2.084 0 2.158 5.731-4.614 13.101-2.158 13.101-2.158s-6.402-3.722-13.101 0z"></path>
</svg>
