<!-- Generated by IcoMoon.io -->
<svg version="1.1" xmlns="http://www.w3.org/2000/svg" width="32" height="32" viewBox="0 0 32 32">
<title>bookmark3</title>
<path d="M26.719 31.483h-19.056v-26.201h8.337v10.868l4.217-3.201 4.12 3.201v-10.868h4.764v23.819c0 1.315-1.067 2.382-2.382 2.382zM20.217 11.385l-3.026 2.382v-9.677h5.955v9.677l-2.929-2.382zM4.090 2.899v1.191c0 0.657 0.534 1.191 1.191 1.191h1.191v26.201h-1.191c-1.315 0-2.382-1.067-2.382-2.382v-26.201c0-1.315 1.067-2.382 2.382-2.382h21.438c0.879 0 1.639 0.481 2.052 1.191h-23.49c-0.657 0-1.191 0.532-1.191 1.191z"></path>
</svg>
