<!-- Generated by IcoMoon.io -->
<svg version="1.1" xmlns="http://www.w3.org/2000/svg" width="32" height="32" viewBox="0 0 32 32">
<title>border-top</title>
<path d="M1.6 1.6h28.8v3.2h-28.8v-3.2zM1.6 8h3.2v3.2h-3.2v-3.2zM1.6 14.4h3.2v3.2h-3.2v-3.2zM1.6 20.8h3.2v3.2h-3.2v-3.2zM1.6 27.2h3.2v3.2h-3.2v-3.2zM8 14.4h3.2v3.2h-3.2v-3.2zM8 27.2h3.2v3.2h-3.2v-3.2zM14.4 8h3.2v3.2h-3.2v-3.2zM14.4 14.4h3.2v3.2h-3.2v-3.2zM14.4 20.8h3.2v3.2h-3.2v-3.2zM14.4 27.2h3.2v3.2h-3.2v-3.2zM20.8 14.4h3.2v3.2h-3.2v-3.2zM20.8 27.2h3.2v3.2h-3.2v-3.2zM27.2 8h3.2v3.2h-3.2v-3.2zM27.2 14.4h3.2v3.2h-3.2v-3.2zM27.2 20.8h3.2v3.2h-3.2v-3.2zM27.2 27.2h3.2v3.2h-3.2v-3.2z"></path>
</svg>
