<!-- Generated by IcoMoon.io -->
<svg version="1.1" xmlns="http://www.w3.org/2000/svg" width="32" height="32" viewBox="0 0 32 32">
<title>bowling</title>
<path d="M16 1.113c-8.222 0-14.887 6.665-14.887 14.887 0 8.221 6.665 14.887 14.887 14.887 8.221 0 14.887-6.666 14.887-14.887 0-8.222-6.666-14.887-14.887-14.887zM13.816 12.427c-0.986 0-1.786-0.8-1.786-1.786 0-0.987 0.8-1.786 1.786-1.786 0.987 0 1.786 0.799 1.786 1.786 0 0.986-0.799 1.786-1.786 1.786zM16.793 6.671c0-0.987 0.8-1.786 1.786-1.786 0.987 0 1.786 0.799 1.786 1.786s-0.799 1.786-1.786 1.786c-0.986 0-1.786-0.8-1.786-1.786zM20.168 15.405c-1.315 0-2.382-1.067-2.382-2.382s1.067-2.382 2.382-2.382 2.382 1.067 2.382 2.382-1.067 2.382-2.382 2.382z"></path>
</svg>
