<!-- Generated by IcoMoon.io -->
<svg version="1.1" xmlns="http://www.w3.org/2000/svg" width="32" height="32" viewBox="0 0 32 32">
<title>bowlingpin</title>
<path d="M19.463 4.493h-6.846c0 0-4.547 8.535-4.547 15.858 0 3.891 1.653 10.344 1.671 10.344 1.186 4.723 2.031 4.354 6.521 4.354 4.139 0 5.315 0.373 6.249-4.349-0.021 0.020 1.418-6.39 1.418-10.347 0-7.977-4.466-15.859-4.466-15.859zM19.182-0.871c0 0 1.098-3.632 1.098-5.864s-1.133-5.564-4.164-5.564c-3.032 0-4.432 3.299-4.432 5.532 0 2.232 1.199 5.896 1.199 5.896h6.298zM18.914 2.627v-1.866h-5.83v1.865h5.83z"></path>
</svg>
