<!-- Generated by IcoMoon.io -->
<svg version="1.1" xmlns="http://www.w3.org/2000/svg" width="32" height="32" viewBox="0 0 32 32">
<title>box</title>
<path d="M-0.989 18.182l14.356 7.242 2.563-7.242-14.355-6.858-2.564 6.858zM16.251 18.182l2.436 7.178 14.868-7.242-2.884-6.793-14.419 6.858zM-3.35 5.534l4.935 5.768 14.355-7.305-4.678-5.961-14.612 7.498zM35.35 5.661l-14.293-7.626-4.871 5.961 14.485 7.305 4.679-5.64zM0.726 19.993l-0.049 6.954 15.141 7.018v-13.077l-2.163 5.64-12.929-6.536zM16.347 20.889v13.076l15.094-7.018v-6.906l-13.089 6.503-2.006-5.654z"></path>
</svg>
