<!-- Generated by IcoMoon.io -->
<svg version="1.1" xmlns="http://www.w3.org/2000/svg" width="32" height="32" viewBox="0 0 32 32">
<title>brightness-down</title>
<path d="M16 20.8c-2.651 0-4.8-2.149-4.8-4.8s2.149-4.8 4.8-4.8v0c2.651 0 4.8 2.149 4.8 4.8s-2.149 4.8-4.8 4.8v0zM14.4 6.4c0-0.884 0.716-1.6 1.6-1.6s1.6 0.716 1.6 1.6v0c0 0.884-0.716 1.6-1.6 1.6s-1.6-0.716-1.6-1.6v0zM21.664 8.080c0.295-0.343 0.73-0.559 1.215-0.559 0.884 0 1.6 0.716 1.6 1.6 0 0.485-0.216 0.92-0.557 1.213l-0.002 0.002c-0.295 0.343-0.73 0.559-1.215 0.559-0.884 0-1.6-0.716-1.6-1.6 0-0.485 0.216-0.92 0.557-1.213l0.002-0.002zM25.6 14.4c0.884 0 1.6 0.716 1.6 1.6s-0.716 1.6-1.6 1.6v0c-0.884 0-1.6-0.716-1.6-1.6s0.716-1.6 1.6-1.6v0zM23.92 21.664c0.343 0.295 0.559 0.73 0.559 1.215 0 0.884-0.716 1.6-1.6 1.6-0.485 0-0.92-0.216-1.213-0.557l-0.002-0.002c-0.343-0.295-0.559-0.73-0.559-1.215 0-0.884 0.716-1.6 1.6-1.6 0.485 0 0.92 0.216 1.213 0.557l0.002 0.002zM17.6 25.6c0 0.884-0.716 1.6-1.6 1.6s-1.6-0.716-1.6-1.6v0c0-0.884 0.716-1.6 1.6-1.6s1.6 0.716 1.6 1.6v0zM10.336 23.92c-0.295 0.343-0.73 0.559-1.215 0.559-0.884 0-1.6-0.716-1.6-1.6 0-0.485 0.216-0.92 0.557-1.213l0.002-0.002c0.295-0.343 0.73-0.559 1.215-0.559 0.884 0 1.6 0.716 1.6 1.6 0 0.485-0.216 0.92-0.557 1.213l-0.002 0.002zM6.4 17.6c-0.884 0-1.6-0.716-1.6-1.6s0.716-1.6 1.6-1.6v0c0.884 0 1.6 0.716 1.6 1.6s-0.716 1.6-1.6 1.6v0zM8.080 10.336c-0.343-0.295-0.559-0.73-0.559-1.215 0-0.884 0.716-1.6 1.6-1.6 0.485 0 0.92 0.216 1.213 0.557l0.002 0.002c0.343 0.295 0.559 0.73 0.559 1.215 0 0.884-0.716 1.6-1.6 1.6-0.485 0-0.92-0.216-1.213-0.557l-0.002-0.002z"></path>
</svg>
