<!-- Generated by IcoMoon.io -->
<svg version="1.1" xmlns="http://www.w3.org/2000/svg" width="32" height="32" viewBox="0 0 32 32">
<title>brush</title>
<path d="M29.762 6.972c-1.614 1.962-6.038 7.378-9.553 11.683l-4.463-4.53c4.036-3.592 9.032-8.032 10.838-9.622 3.212-2.831 6.029-4.515 6.641-3.827 0.383 0.381-0.635 2.854-3.463 6.295zM19.429 19.609c-1.361 1.666-2.533 3.101-3.25 3.981l-5.283-5.149c0.856-0.762 2.282-2.031 3.935-3.5l4.598 4.667zM15.391 24.555v-0.014c-3.067 11.767-16.695 5.002-16.695 5.002s5.718 0.721 5.718-4.613c0-5.17 5.255-5.637 5.577-5.661l5.411 5.272c0 0.001-0.011 0.013-0.011 0.013z"></path>
</svg>
