<!-- Generated by IcoMoon.io -->
<svg version="1.1" xmlns="http://www.w3.org/2000/svg" width="32" height="32" viewBox="0 0 32 32">
<title>bug2</title>
<path d="M24.48 23.824l4.432 4.432c0.288 0.289 0.465 0.688 0.465 1.128s-0.178 0.839-0.465 1.128l0-0c-0.289 0.288-0.688 0.465-1.128 0.465s-0.839-0.178-1.128-0.465l0 0-4.144-4.128c-1.32 1.225-2.996 2.084-4.855 2.408l-0.057 0.008v-14.336c0-0.884-0.716-1.6-1.6-1.6s-1.6 0.716-1.6 1.6v0 14.336c-1.917-0.331-3.592-1.191-4.918-2.422l0.006 0.006-4.144 4.128c-0.289 0.288-0.688 0.465-1.128 0.465s-0.839-0.178-1.128-0.465l0 0c-0.288-0.289-0.465-0.688-0.465-1.128s0.178-0.839 0.465-1.128l4.432-4.432c-0.476-0.875-0.829-1.892-1.001-2.97l-0.007-0.054h-4.912c-0.884 0-1.6-0.716-1.6-1.6s0.716-1.6 1.6-1.6v0h4.8v-4.144l-4.912-4.912c-0.288-0.289-0.465-0.688-0.465-1.128s0.178-0.839 0.465-1.128l-0 0c0.289-0.288 0.688-0.465 1.128-0.465s0.839 0.178 1.128 0.465l3.36 3.36h17.792l3.36-3.36c0.289-0.288 0.688-0.465 1.128-0.465s0.839 0.178 1.128 0.465l-0-0c0.288 0.289 0.465 0.688 0.465 1.128s-0.178 0.839-0.465 1.128l-4.912 4.912v4.144h4.8c0.884 0 1.6 0.716 1.6 1.6s-0.716 1.6-1.6 1.6v0h-4.912c-0.16 1.072-0.512 2.096-1.008 3.024zM24 8h-16c0-4.418 3.582-8 8-8s8 3.582 8 8v0z"></path>
</svg>
