<!-- Generated by IcoMoon.io -->
<svg version="1.1" xmlns="http://www.w3.org/2000/svg" width="32" height="32" viewBox="0 0 32 32">
<title>buoy</title>
<path d="M27.456 10.272c-1.266-2.488-3.24-4.462-5.655-5.694l-0.073-0.034-2.144 4.304c1.549 0.79 2.778 2.019 3.547 3.523l0.021 0.045 4.304-2.144zM27.456 21.728l-4.304-2.144c-0.79 1.549-2.019 2.778-3.523 3.547l-0.045 0.021 2.144 4.304c2.488-1.266 4.462-3.24 5.694-5.655l0.034-0.073zM10.272 4.544c-2.488 1.266-4.462 3.24-5.694 5.655l-0.034 0.073 4.304 2.144c0.79-1.549 2.019-2.778 3.523-3.547l0.045-0.021-2.144-4.304zM4.544 21.728c1.266 2.488 3.24 4.462 5.655 5.694l0.073 0.034 2.144-4.304c-1.549-0.79-2.778-2.019-3.547-3.523l-0.021-0.045-4.304 2.144zM16 32c-8.837 0-16-7.163-16-16s7.163-16 16-16v0c8.837 0 16 7.163 16 16s-7.163 16-16 16v0zM16 20.8c2.651 0 4.8-2.149 4.8-4.8s-2.149-4.8-4.8-4.8v0c-2.651 0-4.8 2.149-4.8 4.8s2.149 4.8 4.8 4.8v0z"></path>
</svg>
