<!-- Generated by IcoMoon.io -->
<svg version="1.1" xmlns="http://www.w3.org/2000/svg" width="33" height="32" viewBox="0 0 33 32">
<title>bus</title>
<path d="M23.146 31.497c0 0.659 0.532 1.191 1.191 1.191h1.191c0.657 0 1.191-0.532 1.191-1.191v-2.456h-3.573v2.456zM6.472 31.497c0 0.659 0.532 1.191 1.191 1.191h1.191c0.659 0 1.191-0.532 1.191-1.191v-2.456h-3.573v2.456zM2.881 27.587c0 0.798 0.648 1.447 1.447 1.447h24.529c0.799 0 1.447-0.649 1.447-1.447 0-0.8 0-0.852 0-0.852h-27.423c0 0 0 0.051 0 0.852zM35.056 8.868v-2.382h-4.752l0.001-1.296c0-2.895-2.964-5.88-14.261-5.88-9.93 0-13.163 2.985-13.163 5.88v1.296h-4.746v2.382h-1.191v4.764h1.191v2.382h4.746v9.497h27.392l0.026-17.834h3.565v1.191h-1.191v4.764h1.191v1.191h-3.573v1.191h4.764v-2.382h1.191v-4.764h-1.191zM2.881 14.823h-3.555v-1.191h1.191v-4.764h-1.191v-1.191h3.555v7.146zM11.832 2.84h9.528c0.329 0 0.596 0.267 0.596 0.595s-0.267 0.596-0.596 0.596h-9.528c-0.329 0-0.595-0.267-0.595-0.596s0.267-0.595 0.595-0.595zM5.33 7.936c0-0.799 0.648-1.447 1.447-1.447h7.758c0.799 0 1.447 0.648 1.447 1.447v4.267c0 0.8-0.648 1.448-1.447 1.448h-7.758c-0.799 0-1.447-0.648-1.447-1.448v-4.267zM7.649 22.834c-1.199 0-2.17-0.972-2.17-2.17 0-1.201 0.971-2.17 2.17-2.17s2.171 0.969 2.171 2.17c0.001 1.198-0.972 2.17-2.171 2.17zM11.236 17.205h10.719v1.191h-10.719v-1.191zM21.993 23.078h-10.726v-1.149h10.726v1.149zM21.993 20.706h-10.726v-1.149h10.726v1.149zM25.537 22.909c-1.199 0-2.17-0.972-2.17-2.17s0.971-2.17 2.17-2.17 2.171 0.972 2.171 2.17-0.972 2.17-2.171 2.17zM27.916 12.203c0 0.8-0.648 1.448-1.448 1.448h-7.815c-0.8 0-1.448-0.648-1.448-1.448v-4.267c0-0.799 0.648-1.447 1.448-1.447h7.815c0.8 0 1.448 0.648 1.448 1.447v4.267z"></path>
</svg>
