<!-- Generated by IcoMoon.io -->
<svg version="1.1" xmlns="http://www.w3.org/2000/svg" width="32" height="32" viewBox="0 0 32 32">
<title>cake</title>
<path d="M27.314 7.663c-0.351 0-0.691 0.044-1.021 0.115-0.146-2.169-1.934-3.887-4.14-3.887-0.494 0-0.962 0.101-1.402 0.26-1.37-2.177-3.778-3.634-6.538-3.634-4.195 0-7.59 3.343-7.718 7.507-0.559-0.23-1.168-0.361-1.81-0.361-2.631 0-4.764 2.133-4.764 4.764 0 2.563 2.028 4.638 4.565 4.742l1.91-1.91 1.932 1.932h0.903l1.931-1.932 1.931 1.932h0.903l1.931-1.932 1.931 1.932h0.903l1.931-1.932 1.931 1.932h0.903l1.931-1.932 1.925 1.925c2.6-0.035 4.7-2.147 4.7-4.757 0-2.631-2.133-4.764-4.764-4.764zM25.528 16.674l-1.708 1.708h-1.498l-1.633-1.633-1.633 1.633h-1.498l-1.633-1.633-1.633 1.633h-1.498l-1.633-1.633-1.633 1.633h-1.497l-1.633-1.633-1.634 1.633h-0.079l3.156 13.101h16.227l3.245-13.101h-0.079l-1.708-1.708zM10.641 30.292l-2.481-10.719h1.191l2.481 10.719h-1.191zM13.023 30.292l-1.265-10.719h1.191l1.265 10.719h-1.191zM16.596 30.292h-1.191v-10.719h1.191v10.719zM17.786 30.292l1.265-10.719h1.191l-1.265 10.719h-1.191zM21.359 30.292h-1.191l2.456-10.719h1.191l-2.456 10.719z"></path>
</svg>
