<!-- Generated by IcoMoon.io -->
<svg version="1.1" xmlns="http://www.w3.org/2000/svg" width="32" height="32" viewBox="0 0 32 32">
<title>calculator</title>
<path d="M25.528 2.899h-19.056c-0.659 0-1.191 0.532-1.191 1.191v25.010c0 0.657 0.532 1.191 1.191 1.191h19.056c0.657 0 1.191-0.534 1.191-1.191v-25.010c0-0.659-0.534-1.191-1.191-1.191zM7.663 14.809h2.382v2.382h-2.382v-2.382zM7.663 18.382h2.382v2.382h-2.382v-2.382zM7.663 21.955h2.382v2.382h-2.382v-2.382zM13.618 27.91h-5.955v-2.382h5.955v2.382zM13.618 24.337h-2.382v-2.382h2.382v2.382zM13.618 20.764h-2.382v-2.382h2.382v2.382zM13.618 17.191h-2.382v-2.382h2.382v2.382zM17.191 27.91h-2.382v-2.382h2.382v2.382zM17.191 24.337h-2.382v-2.382h2.382v2.382zM17.191 20.764h-2.382v-2.382h2.382v2.382zM17.191 17.191h-2.382v-2.382h2.382v2.382zM20.764 27.91h-2.382v-2.382h2.382v2.382zM20.764 24.337h-2.382v-2.382h2.382v2.382zM20.764 20.764h-2.382v-2.382h2.382v2.382zM20.764 17.191h-2.382v-2.382h2.382v2.382zM24.337 27.91h-2.382v-5.955h2.382v5.955zM24.337 20.764h-2.382v-2.382h2.382v2.382zM24.337 17.191h-2.382v-2.382h2.382v2.382zM24.337 12.427h-16.674v-7.146h16.674v7.146z"></path>
</svg>
