<!-- Generated by IcoMoon.io -->
<svg version="1.1" xmlns="http://www.w3.org/2000/svg" width="32" height="32" viewBox="0 0 32 32">
<title>calculator4</title>
<path d="M3.2 3.2c0-1.76 1.44-3.2 3.2-3.2h19.2c1.767 0 3.2 1.433 3.2 3.2v0 25.6c0 1.767-1.433 3.2-3.2 3.2v0h-19.2c-1.767 0-3.2-1.433-3.2-3.2v0-25.6zM8 4.8v3.2h16v-3.2h-16zM8 11.2v3.2h3.2v-3.2h-3.2zM14.4 11.2v3.2h3.2v-3.2h-3.2zM20.8 11.2v3.2h3.2v-3.2h-3.2zM8 17.6v3.2h3.2v-3.2h-3.2zM14.4 17.6v3.2h3.2v-3.2h-3.2zM20.8 17.6v9.6h3.2v-9.6h-3.2zM8 24v3.2h3.2v-3.2h-3.2zM14.4 24v3.2h3.2v-3.2h-3.2z"></path>
</svg>
