<!-- Generated by IcoMoon.io -->
<svg version="1.1" xmlns="http://www.w3.org/2000/svg" width="32" height="32" viewBox="0 0 32 32">
<title>calendar1</title>
<path d="M29.101 33.865h-26.201c-1.315 0-2.382-1.067-2.382-2.382v-26.201c0-1.316 1.067-2.382 2.382-2.382h2.382v1.191c0 1.973 1.599 3.573 3.573 3.573 1.972 0 3.573-1.599 3.573-3.573v-1.191h7.146v1.191c0 1.973 1.601 3.573 3.573 3.573s3.573-1.599 3.573-3.573v-1.191h2.382c1.315 0 2.382 1.066 2.382 2.382v26.201c0 1.315-1.067 2.382-2.382 2.382zM29.101 11.236h-26.201v20.247h26.201v-20.247zM8.854 17.191h-3.573v-3.573h3.573v3.573zM8.854 23.146h-3.573v-3.573h3.573v3.573zM8.854 29.101h-3.573v-3.573h3.573v3.573zM14.809 17.191h-3.573v-3.573h3.573v3.573zM14.809 23.146h-3.573v-3.573h3.573v3.573zM14.809 29.101h-3.573v-3.573h3.573v3.573zM20.764 17.191h-3.573v-3.573h3.573v3.573zM20.764 23.146h-3.573v-3.573h3.573v3.573zM20.764 29.101h-3.573v-3.573h3.573v3.573zM26.719 17.191h-3.573v-3.573h3.573v3.573zM26.719 23.146h-3.573v-3.573h3.573v3.573zM26.719 29.101h-3.573v-3.573h3.573v3.573zM23.109 6.472c-1.296 0-2.345-1.050-2.345-2.345v-2.456c0-1.296 1.049-2.345 2.345-2.345s2.345 1.049 2.345 2.345v2.456c0 1.295-1.049 2.345-2.345 2.345zM8.817 6.472c-1.296 0-2.345-1.050-2.345-2.345v-2.456c0-1.296 1.049-2.345 2.345-2.345s2.345 1.049 2.345 2.345v2.456c0 1.295-1.050 2.345-2.345 2.345z"></path>
</svg>
