<!-- Generated by IcoMoon.io -->
<svg version="1.1" xmlns="http://www.w3.org/2000/svg" width="32" height="32" viewBox="0 0 32 32">
<title>calendar7</title>
<path d="M1.6 6.4c0-1.76 1.44-3.2 3.2-3.2h22.4c1.767 0 3.2 1.433 3.2 3.2v0 22.4c0 1.767-1.433 3.2-3.2 3.2v0h-22.4c-1.767 0-3.2-1.433-3.2-3.2v0-22.4zM4.8 9.6v19.2h22.4v-19.2h-22.4zM8 0h3.2v3.2h-3.2v-3.2zM20.8 0h3.2v3.2h-3.2v-3.2zM8 14.4h3.2v3.2h-3.2v-3.2zM8 20.8h3.2v3.2h-3.2v-3.2zM14.4 14.4h3.2v3.2h-3.2v-3.2zM14.4 20.8h3.2v3.2h-3.2v-3.2zM20.8 14.4h3.2v3.2h-3.2v-3.2zM20.8 20.8h3.2v3.2h-3.2v-3.2z"></path>
</svg>
