<!-- Generated by IcoMoon.io -->
<svg version="1.1" xmlns="http://www.w3.org/2000/svg" width="32" height="32" viewBox="0 0 32 32">
<title>calendar3</title>
<path d="M10.045 0.517h-2.382v4.764h2.382v-4.764zM23.146 6.472h-2.382v2.382h2.382v-2.382zM10.045 6.472h-2.382v2.382h2.382v-2.382zM24.263 4.090l0.074 5.955h-4.764v-5.955h-8.337v5.955h-4.764v-5.955h-3.573v28.583h25.010v-28.583h-3.647zM10.045 29.027h-3.573v-3.573h3.573v3.573zM10.045 24.263h-3.573v-3.573h3.573v3.573zM10.045 19.499h-3.573v-3.573h3.573v3.573zM14.809 29.027h-3.573v-3.573h3.573v3.573zM14.809 24.263h-3.573v-3.573h3.573v3.573zM14.809 19.499h-3.573v-3.573h3.573v3.573zM19.573 29.027h-3.573v-3.573h3.573v3.573zM19.573 24.263h-3.573v-3.573h3.573v3.573zM19.573 19.499h-3.573v-3.573h3.573v3.573zM24.337 29.027h-3.573v-3.573h3.573v3.573zM24.337 24.263h-3.573v-3.573h3.573v3.573zM24.337 19.499h-3.573v-3.573h3.573v3.573zM23.146 0.517h-2.382v4.764h2.382v-4.764z"></path>
</svg>
