<!-- Generated by IcoMoon.io -->
<svg version="1.1" xmlns="http://www.w3.org/2000/svg" width="32" height="32" viewBox="0 0 32 32">
<title>calendar2</title>
<path d="M30.292 32.674h-28.583c-1.315 0-2.382-1.067-2.382-2.382v-25.010c0-1.315 1.067-2.382 2.382-2.382h2.382v1.191c0 1.973 1.599 3.573 3.573 3.573s3.573-1.599 3.573-3.573v-1.191h9.528v1.191c0 1.973 1.601 3.573 3.573 3.573s3.573-1.599 3.573-3.573v-1.191h2.382c1.315 0 2.382 1.067 2.382 2.382v25.010c0 1.315-1.067 2.382-2.382 2.382zM30.292 11.236h-28.583v19.056h28.583v-19.056zM12.509 20.56c0.235-0.374 0.353-0.769 0.353-1.183 0-0.921-0.495-1.382-1.486-1.382-0.861 0-1.684 0.342-2.47 1.025v-1.94c0.869-0.563 1.852-0.844 2.945-0.844 1.023 0 1.822 0.257 2.397 0.771s0.862 1.209 0.862 2.083c0 1.167-0.7 2.375-2.101 3.622l-2.059 1.828v0.042h4.061v1.828h-6.587v-1.716l2.868-2.743c0.576-0.553 0.983-1.016 1.217-1.391zM20.57 24.535c0.314-0.242 0.472-0.579 0.472-1.012 0-0.447-0.194-0.791-0.582-1.033s-0.922-0.363-1.602-0.363h-0.9v-1.689h0.83c1.303 0 1.954-0.432 1.954-1.298 0-0.815-0.5-1.221-1.501-1.221-0.669 0-1.321 0.217-1.954 0.649v-1.801c0.703-0.354 1.521-0.53 2.456-0.53 1.023 0 1.82 0.23 2.39 0.691s0.855 1.059 0.855 1.794c0 1.308-0.663 2.126-1.989 2.456v0.035c0.707 0.088 1.265 0.345 1.675 0.771s0.615 0.948 0.615 1.566c0 0.935-0.342 1.675-1.025 2.219s-1.628 0.817-2.833 0.817c-1.033 0-1.872-0.168-2.519-0.503v-1.919c0.669 0.488 1.452 0.732 2.345 0.732 0.562 0.002 1-0.119 1.315-0.361zM24.3 6.472c-1.296 0-2.345-1.049-2.345-2.345v-2.456c0-1.296 1.049-2.345 2.345-2.345s2.345 1.049 2.345 2.345v2.456c0 1.296-1.049 2.345-2.345 2.345zM7.626 6.472c-1.296 0-2.345-1.049-2.345-2.345v-2.456c0-1.296 1.049-2.345 2.345-2.345s2.345 1.049 2.345 2.345v2.456c0 1.296-1.050 2.345-2.345 2.345z"></path>
</svg>
