<!-- Generated by IcoMoon.io -->
<svg version="1.1" xmlns="http://www.w3.org/2000/svg" width="32" height="32" viewBox="0 0 32 32">
<title>camera4</title>
<path d="M29.101 17.247l-5.955-2.386v-4.773l5.955-2.387c0.659 0 1.191 0.535 1.191 1.193v7.16c0 0.659-0.532 1.192-1.191 1.192zM17.786 8.893c-2.96 0-5.359-2.405-5.359-5.37s2.4-5.37 5.359-5.37 5.359 2.405 5.359 5.37c0 2.967-2.4 5.37-5.359 5.37zM7.068 8.893c-2.96 0-5.359-2.405-5.359-5.37s2.4-5.37 5.359-5.37 5.359 2.405 5.359 5.37c0 2.967-2.4 5.37-5.359 5.37zM21.955 8.893v10.74h-6.648c-0.062 0.991-0.495 1.845-1.14 2.328h0.672l4.751 10.714h-1.184l-1.584-3.573h-3.168v5.952h-1.187v-5.952h-3.218l-1.609 3.573h-1.185l4.826-10.714h0.449c-0.644-0.483-1.078-1.337-1.14-2.328h-7.69v-10.74h19.056zM12.465 22.331c-0.049-0.012-0.094-0.037-0.142-0.054l-2.539 5.636h2.681v-5.582zM13.653 22.245v5.669h2.64l-2.532-5.711c-0.035 0.017-0.070 0.027-0.108 0.042z"></path>
</svg>
