<!-- Generated by IcoMoon.io -->
<svg version="1.1" xmlns="http://www.w3.org/2000/svg" width="32" height="32" viewBox="0 0 32 32">
<title>camera2</title>
<path d="M30.292 5.281l-17.869 0.020 0.005-3.519-9.528-0.074v3.573h-2.382c-1.315 0-2.382 1.067-2.382 2.382v20.247c0 1.315 1.067 2.382 2.382 2.382h29.774c1.315 0 2.382-1.067 2.382-2.382v-20.247c0-1.315-1.067-2.382-2.382-2.382zM5.281 4.090h4.764v3.573h-4.764v-3.573zM11.236 26.669c-4.604 0-8.337-3.733-8.337-8.337s3.733-8.337 8.337-8.337c4.603 0 8.337 3.733 8.337 8.337s-3.734 8.337-8.337 8.337zM27.314 13.048c-1.316 0-2.382-1.066-2.382-2.382 0-1.315 1.066-2.382 2.382-2.382 1.315 0 2.382 1.067 2.382 2.382s-1.067 2.382-2.382 2.382zM11.236 13.171c-2.96 0-5.359 2.4-5.359 5.359s2.4 5.359 5.359 5.359 5.359-2.4 5.359-5.359-2.4-5.359-5.359-5.359z"></path>
</svg>
