<!-- Generated by IcoMoon.io -->
<svg version="1.1" xmlns="http://www.w3.org/2000/svg" width="32" height="32" viewBox="0 0 32 32">
<title>camera3</title>
<path d="M30.292 6.472h-7.072c0 0-0.074-0.142-0.074-1.786s-1.333-2.977-2.977-2.977h-9.528c-1.645 0-2.977 1.333-2.977 2.977s0.074 1.786 0.074 1.786h-7.22c-1.315 0-2.382 1.067-2.382 2.382v19.056c0 1.315 1.067 2.382 2.382 2.382h29.774c1.315 0 2.382-1.067 2.382-2.382v-19.056c0-1.315-1.067-2.382-2.382-2.382zM15.458 25.496c-3.947 0-7.146-3.199-7.146-7.146 0-3.946 3.199-7.146 7.146-7.146 3.946 0 7.146 3.199 7.146 7.146s-3.2 7.146-7.146 7.146z"></path>
</svg>
