<!-- Generated by IcoMoon.io -->
<svg version="1.1" xmlns="http://www.w3.org/2000/svg" width="32" height="32" viewBox="0 0 32 32">
<title>cancel1</title>
<path d="M16 31.483c-8.551 0-15.483-6.931-15.483-15.483s6.931-15.483 15.483-15.483 15.483 6.931 15.483 15.483-6.931 15.483-15.483 15.483zM23.099 11.485c0.291-0.291 0.291-0.763 0-1.054l-1.582-1.58c-0.291-0.291-0.763-0.291-1.054 0l-4.479 4.479-4.479-4.479c-0.291-0.291-0.763-0.291-1.054 0l-1.582 1.58c-0.291 0.291-0.291 0.763 0 1.054l4.48 4.48-4.48 4.478c-0.291 0.291-0.291 0.763 0 1.054l1.582 1.582c0.291 0.291 0.763 0.291 1.054 0l4.479-4.48 4.479 4.48c0.291 0.291 0.763 0.291 1.054 0l1.582-1.582c0.291-0.291 0.291-0.763 0-1.054l-4.48-4.478 4.48-4.48z"></path>
</svg>
