<!-- Generated by IcoMoon.io -->
<svg version="1.1" xmlns="http://www.w3.org/2000/svg" width="32" height="32" viewBox="0 0 32 32">
<title>cancel3</title>
<path d="M20.272 16.001l7.26 7.26c0.472 0.472 0.472 1.237 0 1.709l-2.562 2.562c-0.472 0.472-1.236 0.472-1.709 0l-7.261-7.26-7.261 7.26c-0.472 0.472-1.236 0.472-1.708 0l-2.563-2.562c-0.472-0.472-0.472-1.236 0-1.709l7.261-7.26-7.261-7.261c-0.472-0.472-0.472-1.237 0-1.709l2.564-2.562c0.472-0.472 1.236-0.472 1.708 0l7.26 7.261 7.261-7.261c0.472-0.472 1.236-0.472 1.709 0l2.562 2.563c0.472 0.472 0.472 1.236 0 1.709l-7.26 7.26z"></path>
</svg>
