<!-- Generated by IcoMoon.io -->
<svg version="1.1" xmlns="http://www.w3.org/2000/svg" width="32" height="32" viewBox="0 0 32 32">
<title>cancel2</title>
<path d="M16 31.483c-8.551 0-15.483-6.931-15.483-15.483s6.931-15.483 15.483-15.483 15.483 6.931 15.483 15.483-6.931 15.483-15.483 15.483zM16 4.090c-6.577 0-11.91 5.333-11.91 11.91s5.333 11.91 11.91 11.91c6.578 0 11.91-5.333 11.91-11.91s-5.332-11.91-11.91-11.91zM21.403 20.21l-1.208 1.208c-0.222 0.222-0.581 0.222-0.804 0l-3.418-3.418-3.418 3.418c-0.223 0.222-0.581 0.222-0.804 0l-1.208-1.208c-0.222-0.222-0.222-0.581 0-0.804l3.419-3.417-3.419-3.418c-0.222-0.223-0.222-0.582 0-0.805l1.208-1.206c0.223-0.223 0.581-0.223 0.804 0l3.418 3.418 3.418-3.418c0.223-0.223 0.582-0.223 0.804 0l1.208 1.206c0.222 0.223 0.222 0.582 0 0.805l-3.419 3.418 3.419 3.417c0.222 0.223 0.222 0.584 0 0.804z"></path>
</svg>
