<!-- Generated by IcoMoon.io -->
<svg version="1.1" xmlns="http://www.w3.org/2000/svg" width="32" height="32" viewBox="0 0 32 32">
<title>car</title>
<path d="M29.101 23.146h-27.392c-1.315 0-2.382-1.067-2.382-2.382v-5.955c0-1.315 1.067-2.382 2.382-2.382h1.191c0 0 1.761-5.359 2.282-7.146s1.067-2.382 2.383-2.382h15.68c1.315 0 1.713 0.372 2.382 2.382s2.283 7.146 2.283 7.146h1.191c1.315 0 2.382 1.067 2.382 2.382v5.955c0 1.315-1.067 2.382-2.382 2.382zM7.663 20.764h15.483v-1.191h-15.483v1.191zM23.146 12.427c0-1.315-1.067-2.531-2.382-2.531s-2.382 1.216-2.382 2.531c0 0.031 4.764 0.031 4.764 0zM7.663 18.382h15.483v-1.191h-15.483v1.191zM7.663 16h15.483v-1.191h-15.483v1.191zM1.782 17.191c0 1.315 1.067 2.382 2.382 2.382s2.382-1.067 2.382-2.382-1.067-2.382-2.382-2.382-2.382 1.067-2.382 2.382zM24.436 5.281c-0.298-0.819-0.532-1.191-1.191-1.191h-7.245v1.191h0.596c0.329 0 0.596 0.267 0.596 0.596s-0.267 0.596-0.596 0.596h-2.382c-0.329 0-0.595-0.267-0.595-0.596s0.267-0.596 0.595-0.596h0.595v-1.191h-7.245c-0.659 0-0.894 0.149-1.191 1.191-0.299 1.042-2.283 7.146-2.283 7.146h13.649c0.027-1.624 1.346-3.148 2.971-3.148 1.627 0 2.944 1.522 2.973 3.148h3.036c0 0-1.985-6.326-2.283-7.146zM26.645 14.883c-1.315 0-2.382 1.067-2.382 2.382s1.067 2.382 2.382 2.382 2.382-1.067 2.382-2.382-1.067-2.382-2.382-2.382zM5.281 27.314c0 0.986-0.8 1.786-1.786 1.786s-1.786-0.8-1.786-1.786v-2.977h3.573v2.977zM29.101 27.314c0 0.986-0.8 1.786-1.786 1.786s-1.786-0.8-1.786-1.786v-2.977h3.573v2.977z"></path>
</svg>
