<!-- Generated by IcoMoon.io -->
<svg version="1.1" xmlns="http://www.w3.org/2000/svg" width="32" height="32" viewBox="0 0 32 32">
<title>cassette</title>
<path d="M30.312 30.311h-2.459l-2.384-7.155h-20.2l-2.386 7.155h-2.386c-1.975 0-3.578-1.603-3.578-3.578v-21.466c0-1.976 1.603-3.576 3.578-3.576h29.814c1.976 0 3.578 1.602 3.578 3.576v21.466c0.001 1.975-1.601 3.578-3.576 3.578zM30.237 5.267h-29.74v15.503h29.74v-15.503zM27.926 18.384h-25.044v-10.732h25.043v10.732zM8.244 10.018c-1.647 0-2.981 1.335-2.981 2.981s1.334 2.981 2.981 2.981 2.982-1.335 2.982-2.981-1.335-2.981-2.982-2.981zM17.118 11.827h-3.503v2.384h3.503v-2.384zM22.566 10.018c-1.647 0-2.981 1.335-2.981 2.981s1.334 2.981 2.981 2.981c1.646 0 2.981-1.335 2.981-2.981s-1.335-2.981-2.981-2.981zM22.485 14.211c-0.659 0-1.192-0.534-1.192-1.192s0.534-1.192 1.192-1.192 1.193 0.534 1.193 1.192c0 0.659-0.535 1.192-1.193 1.192zM8.324 14.211c-0.659 0-1.192-0.534-1.192-1.192s0.534-1.192 1.192-1.192c0.66 0 1.193 0.534 1.193 1.192s-0.535 1.192-1.193 1.192zM24.646 24.348l2.088 5.913h-22.733l2.012-5.913h18.634zM23.157 27.925h1.192v-1.192h-1.192v1.192zM20.771 27.925h1.193v-1.192h-1.193v1.192zM12.424 27.925h5.888v-1.192h-5.888v1.192zM8.846 27.925h1.192v-1.192h-1.192v1.192zM6.46 27.925h1.192v-1.192h-1.192v1.192z"></path>
</svg>
