<!-- Generated by IcoMoon.io -->
<svg version="1.1" xmlns="http://www.w3.org/2000/svg" width="32" height="32" viewBox="0 0 32 32">
<title>chart8</title>
<path d="M6.608 19.2h-0.208c-1.761 0.008-3.186 1.438-3.186 3.2 0 1.767 1.433 3.2 3.2 3.2s3.2-1.433 3.2-3.2c0-0.519-0.123-1.009-0.343-1.442l0.008 0.018 3.296-4.976c0.053 0.003 0.115 0.005 0.177 0.005 0.307 0 0.604-0.043 0.886-0.122l-0.023 0.006 2.48 2.48c-0.071 0.251-0.111 0.539-0.111 0.837 0 1.767 1.433 3.2 3.2 3.2s3.2-1.433 3.2-3.2c0-0.521-0.124-1.012-0.345-1.447l0.008 0.018 3.344-4.976h0.208c1.761-0.008 3.186-1.438 3.186-3.2 0-1.767-1.433-3.2-3.2-3.2s-3.2 1.433-3.2 3.2c0 0.519 0.123 1.009 0.343 1.442l-0.008-0.018-3.296 4.976c-0.053-0.003-0.115-0.005-0.177-0.005-0.307 0-0.604 0.043-0.886 0.122l0.023-0.006-2.496-2.48c0.071-0.251 0.111-0.539 0.111-0.837 0-1.767-1.433-3.2-3.2-3.2s-3.2 1.433-3.2 3.2c0 0.521 0.124 1.012 0.345 1.447l-0.008-0.018-3.328 4.976zM0 6.4c0-1.76 1.44-3.2 3.2-3.2h25.6c1.767 0 3.2 1.433 3.2 3.2v0 19.2c0 1.767-1.433 3.2-3.2 3.2v0h-25.6c-1.767 0-3.2-1.433-3.2-3.2v0-19.2z"></path>
</svg>
