<!-- Generated by IcoMoon.io -->
<svg version="1.1" xmlns="http://www.w3.org/2000/svg" width="32" height="32" viewBox="0 0 32 32">
<title>chart3</title>
<path d="M1.693 1.708h-1.175v28.583h30.965v-1.147l-29.77-0.060-0.020-27.377zM10.045 2.899c0-0.659-0.534-1.191-1.191-1.191h-3.573c-0.659 0-1.191 0.532-1.191 1.191v23.819h5.955v-23.819zM17.191 10.045c0-0.659-0.534-1.191-1.191-1.191h-3.573c-0.659 0-1.191 0.532-1.191 1.191v16.674h5.955v-16.674zM24.337 17.191c0-0.659-0.534-1.191-1.191-1.191h-3.573c-0.659 0-1.191 0.532-1.191 1.191v9.528h5.955v-9.528zM30.292 23.146h-3.573c-0.659 0-1.191 0.532-1.191 1.191v2.382h5.955v-2.382c0-0.659-0.534-1.191-1.191-1.191z"></path>
</svg>
