<!-- Generated by IcoMoon.io -->
<svg version="1.1" xmlns="http://www.w3.org/2000/svg" width="32" height="32" viewBox="0 0 32 32">
<title>chart5</title>
<path d="M29.101 21.992h-23.819v5.955h23.819c0.657 0 1.191-0.532 1.191-1.191v-3.573c0-0.657-0.534-1.191-1.191-1.191zM23.146 19.61v-3.573c0-0.657-0.534-1.191-1.191-1.191h-16.674v5.955h16.674c0.657 0 1.191-0.532 1.191-1.191zM16 12.464v-3.573c0-0.657-0.534-1.191-1.191-1.191h-9.528v5.955h9.528c0.657 0 1.191-0.534 1.191-1.191zM8.854 5.318v-3.573c0-0.659-0.534-1.191-1.191-1.191h-2.382v5.955h2.382c0.657 0 1.191-0.534 1.191-1.191zM2.899 0.554h-1.191v30.891h28.583v-1.191h-27.392v-29.701z"></path>
</svg>
