<!-- Generated by IcoMoon.io -->
<svg version="1.1" xmlns="http://www.w3.org/2000/svg" width="32" height="32" viewBox="0 0 32 32">
<title>chat2</title>
<path d="M16 3.226c-8.264 0-14.965 4.987-14.965 11.138 0 3.697 2.42 6.972 6.145 8.998-0.011 0.032-2.968 5.413-2.968 5.413s9.031-3.444 9.056-3.459c0.886 0.123 1.8 0.185 2.732 0.185 8.264 0 14.965-4.987 14.965-11.137-0.001-6.151-6.702-11.138-14.966-11.138zM8.816 15.553c-0.657 0-1.191-0.534-1.191-1.191 0-0.659 0.534-1.191 1.191-1.191s1.191 0.532 1.191 1.191c0 0.657-0.532 1.191-1.191 1.191zM13.555 15.603c-0.657 0-1.191-0.534-1.191-1.191 0-0.659 0.534-1.191 1.191-1.191 0.659 0 1.191 0.532 1.191 1.191 0 0.657-0.532 1.191-1.191 1.191zM18.368 15.603c-0.657 0-1.191-0.534-1.191-1.191 0-0.659 0.534-1.191 1.191-1.191 0.659 0 1.191 0.532 1.191 1.191 0 0.657-0.532 1.191-1.191 1.191zM23.132 15.603c-0.657 0-1.191-0.534-1.191-1.191 0-0.659 0.534-1.191 1.191-1.191 0.659 0 1.191 0.532 1.191 1.191 0 0.657-0.532 1.191-1.191 1.191z"></path>
</svg>
