<!-- Generated by IcoMoon.io -->
<svg version="1.1" xmlns="http://www.w3.org/2000/svg" width="32" height="32" viewBox="0 0 32 32">
<title>chat</title>
<path d="M26.769 19.182v-14.872c0-1.47-1.191-2.663-2.663-2.663h-23.309c-1.471-0.001-2.663 1.192-2.663 2.663v14.872c0 1.471 1.192 2.663 2.663 2.663h4.441v6.118l6.793-6.118h12.073c1.473 0 2.664-1.192 2.664-2.663zM31.203 7.494h-3.332c0 0 0 11.876 0 12.992s-1.448 2.551-2.564 2.551-13.035 0.065-13.035 0.065c0 1.471 1.192 2.365 2.663 2.365h5.132l6.696 6.076-0.008-6.076h4.449c1.472 0 2.663-0.894 2.663-2.365v-13.020c0-1.47-1.191-2.589-2.663-2.589z"></path>
</svg>
