<!-- Generated by IcoMoon.io -->
<svg version="1.1" xmlns="http://www.w3.org/2000/svg" width="32" height="32" viewBox="0 0 32 32">
<title>chat1</title>
<path d="M27.654 2.842h-23.307c-1.471 0-2.663 1.193-2.663 2.663v14.873c0 1.47 1.192 2.663 2.663 2.663h4.441l0.001 6.118 6.793-6.118h12.073c1.472 0 2.663-1.193 2.663-2.663v-14.873c-0.001-1.47-1.192-2.663-2.664-2.663zM8.854 13.581c-0.659 0-1.191-0.534-1.191-1.191 0-0.659 0.532-1.191 1.191-1.191 0.657 0 1.191 0.532 1.191 1.191 0 0.657-0.534 1.191-1.191 1.191zM13.618 13.531c-0.659 0-1.191-0.534-1.191-1.191 0-0.659 0.532-1.191 1.191-1.191 0.657 0 1.191 0.532 1.191 1.191 0 0.657-0.534 1.191-1.191 1.191zM18.406 13.556c-0.657 0-1.191-0.532-1.191-1.191 0-0.657 0.534-1.191 1.191-1.191 0.659 0 1.191 0.534 1.191 1.191s-0.534 1.191-1.191 1.191zM23.146 13.581c-0.659 0-1.191-0.534-1.191-1.191 0-0.659 0.532-1.191 1.191-1.191 0.657 0 1.191 0.532 1.191 1.191 0 0.657-0.534 1.191-1.191 1.191z"></path>
</svg>
