<!-- Generated by IcoMoon.io -->
<svg version="1.1" xmlns="http://www.w3.org/2000/svg" width="32" height="32" viewBox="0 0 32 32">
<title>checkmark2</title>
<path d="M22.931 12.463l-1.193-1.193c-0.22-0.22-0.576-0.22-0.796 0l-7.163 7.161-3.405-3.432c-0.222-0.22-0.576-0.22-0.798 0l-1.193 1.195c-0.22 0.22-0.22 0.576 0 0.796l4.994 5.029c0.22 0.219 0.576 0.219 0.796 0l8.758-8.758c0.222-0.22 0.222-0.576 0-0.797zM16 0.517c-8.551 0-15.483 6.931-15.483 15.483s6.931 15.483 15.483 15.483 15.483-6.931 15.483-15.483-6.931-15.483-15.483-15.483zM16 27.91c-6.577 0-11.91-5.333-11.91-11.91 0-6.578 5.333-11.91 11.91-11.91 6.578 0 11.91 5.332 11.91 11.91 0 6.577-5.332 11.91-11.91 11.91z"></path>
</svg>
