<!-- Generated by IcoMoon.io -->
<svg version="1.1" xmlns="http://www.w3.org/2000/svg" width="32" height="32" viewBox="0 0 32 32">
<title>checkmark1</title>
<path d="M16 0.517c-8.551 0-15.483 6.931-15.483 15.483s6.931 15.483 15.483 15.483 15.483-6.931 15.483-15.483-6.931-15.483-15.483-15.483zM24.644 11.602l-11.298 11.296c-0.283 0.282-0.742 0.282-1.025 0l-0.227-0.227-0.001 0.001-6.216-6.26c-0.283-0.283-0.283-0.743 0-1.027l1.541-1.54c0.283-0.283 0.743-0.283 1.027 0l4.394 4.426 9.237-9.237c0.283-0.283 0.743-0.283 1.027 0l1.541 1.541c0.285 0.282 0.285 0.742 0.001 1.027z"></path>
</svg>
