<!-- Generated by IcoMoon.io -->
<svg version="1.1" xmlns="http://www.w3.org/2000/svg" width="32" height="32" viewBox="0 0 32 32">
<title>checked</title>
<path d="M28.505 29.101h-3.573c-0.329 0-0.596-0.267-0.596-0.596s0.267-0.596 0.596-0.596h2.977v-2.977c0-0.329 0.267-0.596 0.596-0.596 0.328 0 0.596 0.267 0.596 0.596v3.573c0 0.329-0.268 0.596-0.596 0.596zM28.505 21.955c-0.329 0-0.596-0.267-0.596-0.596v-3.573c0-0.329 0.267-0.596 0.596-0.596 0.328 0 0.596 0.267 0.596 0.596v3.573c0 0.329-0.268 0.596-0.596 0.596zM28.505 14.809c-0.329 0-0.596-0.267-0.596-0.595v-3.573c0-0.329 0.267-0.595 0.596-0.595 0.328 0 0.596 0.267 0.596 0.595v3.573c0 0.329-0.268 0.595-0.596 0.595zM28.505 7.663c-0.329 0-0.596-0.267-0.596-0.596v-2.977h-2.977c-0.329 0-0.596-0.267-0.596-0.596s0.267-0.595 0.596-0.595h3.573c0.328 0 0.596 0.267 0.596 0.595v3.573c0 0.329-0.268 0.596-0.596 0.596zM14.411 22.018c-0.219 0.22-0.575 0.22-0.796 0l-1.193-1.193c-0.002-0.004-0.001-0.008-0.004-0.011l-3.797-3.825c-0.22-0.219-0.22-0.575 0-0.796l1.193-1.195c0.22-0.22 0.576-0.22 0.797 0l3.406 3.431 7.163-7.161c0.219-0.22 0.575-0.22 0.796 0l1.193 1.195c0.222 0.22 0.222 0.576 0 0.797l-8.758 8.758zM21.359 4.090h-3.573c-0.329 0-0.596-0.267-0.596-0.596s0.267-0.595 0.596-0.595h3.573c0.328 0 0.596 0.267 0.596 0.595s-0.268 0.596-0.596 0.596zM14.214 4.090h-3.573c-0.329 0-0.595-0.267-0.595-0.596s0.267-0.595 0.595-0.595h3.573c0.328 0 0.595 0.267 0.595 0.595s-0.268 0.596-0.595 0.596zM7.068 29.101h-3.573c-0.329 0-0.595-0.267-0.595-0.596v-3.573c0-0.329 0.267-0.596 0.595-0.596s0.596 0.267 0.596 0.596v2.977h2.977c0.329 0 0.596 0.267 0.596 0.596s-0.267 0.596-0.596 0.596zM7.068 4.090h-2.977v2.977c0 0.329-0.267 0.596-0.596 0.596s-0.595-0.267-0.595-0.596v-3.573c0-0.329 0.267-0.595 0.595-0.595h3.573c0.329 0 0.596 0.267 0.596 0.595s-0.267 0.596-0.596 0.596zM3.495 10.045c0.329 0 0.596 0.267 0.596 0.595v3.573c0 0.329-0.267 0.595-0.596 0.595s-0.595-0.267-0.595-0.595v-3.573c0-0.329 0.267-0.595 0.595-0.595zM3.495 17.191c0.329 0 0.596 0.267 0.596 0.596v3.573c0 0.329-0.267 0.596-0.596 0.596s-0.595-0.267-0.595-0.596v-3.573c0-0.329 0.267-0.596 0.595-0.596zM10.641 27.91h3.573c0.328 0 0.595 0.267 0.595 0.596s-0.268 0.596-0.595 0.596h-3.573c-0.329 0-0.595-0.267-0.595-0.596s0.267-0.596 0.595-0.596zM17.786 27.91h3.573c0.328 0 0.596 0.267 0.596 0.596s-0.268 0.596-0.596 0.596h-3.573c-0.329 0-0.596-0.267-0.596-0.596s0.267-0.596 0.596-0.596z"></path>
</svg>
