<!-- Generated by IcoMoon.io -->
<svg version="1.1" xmlns="http://www.w3.org/2000/svg" width="32" height="32" viewBox="0 0 32 32">
<title>chronometer</title>
<path d="M30.356 19.062c0 8.257-6.693 14.951-14.951 14.951-8.257 0-14.951-6.694-14.951-14.951 0-8.006 6.295-14.52 14.205-14.912v-2.58h-1.121c-0.661 0-1.197-0.536-1.197-1.197s0.536-1.196 1.197-1.196h3.587c0.661 0 1.197 0.535 1.197 1.196s-0.536 1.197-1.197 1.197h-1.27v2.564c8.047 0.238 14.501 6.823 14.501 14.928zM14.658 8.746v-2.729c-3.703 0.21-6.986 1.953-9.249 4.595l1.969 1.969-0.846 0.847-1.864-1.865c-1.517 2.141-2.42 4.748-2.42 7.573 0 0.126 0.018 0.299 0.018 0.299h2.896v1.197h-2.811c0.291 2.444 1.259 4.748 2.701 6.591l1.48-1.48 0.846 0.846-1.543 1.545c2.238 2.377 5.345 3.927 8.823 4.123v-3.25h1.196v3.266c3.56-0.121 6.753-1.659 9.050-4.061l-1.696-1.696 0.846-0.846 1.64 1.639c1.477-1.858 2.47-4.193 2.765-6.674h-3.037v-1.197h3.122c0.004-0.124 0.019-0.173 0.019-0.299 0-2.904-0.953-5.575-2.546-7.747l-1.963 1.963-0.846-0.846 2.056-2.054c-2.319-2.624-5.661-4.324-9.409-4.451v2.744h-1.197zM15.927 19.436h4.187c0.33 0 0.598 0.269 0.598 0.598 0 0.33-0.268 0.599-0.598 0.599h-4.785c-0.33 0-0.598-0.269-0.598-0.599v-8.297c0-0.33 0.268-0.598 0.598-0.598s0.598 0.268 0.598 0.598v7.7z"></path>
</svg>
