<!-- Generated by IcoMoon.io -->
<svg version="1.1" xmlns="http://www.w3.org/2000/svg" width="32" height="32" viewBox="0 0 32 32">
<title>circle</title>
<path d="M31.312 18.382c-0.953 6.729-6.225 12.059-12.93 13.097v1.195h-4.764v-1.195c-6.705-1.037-11.978-6.368-12.932-13.097h-1.36v-4.764h1.415c1.1-6.542 6.304-11.683 12.877-12.701v-1.591h4.764v1.591c6.574 1.017 11.775 6.159 12.877 12.701h1.415v4.764h-1.361zM14.809 31.483h2.382v-2.382h-2.382v2.382zM0.517 14.809v2.382h2.382v-2.382h-2.382zM17.191 0.517h-2.382v2.382h2.382v-2.382zM18.382 2.723v1.367h-4.764v-1.367c-5.586 0.981-10.005 5.339-11.066 10.895h1.539v4.764h-1.603c0.923 5.743 5.413 10.288 11.131 11.292v-1.764h4.764v1.764c5.718-1.005 10.208-5.549 11.131-11.292h-1.603v-4.764h1.539c-1.062-5.556-5.481-9.914-11.066-10.895zM31.483 14.809h-2.382v2.382h2.382v-2.382z"></path>
</svg>
