<!-- Generated by IcoMoon.io -->
<svg version="1.1" xmlns="http://www.w3.org/2000/svg" width="32" height="32" viewBox="0 0 32 32">
<title>clipboard1</title>
<path d="M6.357 5.309c0 0.655 0 2.374 0 2.374h16.69c0 0 0-1.719 0-2.374 0-0.656-0.53-1.187-1.186-1.187h-3.561c0 0 0.040-1.355 0.040-3.432 0-1.928-1.672-3.69-3.675-3.69s-3.547 1.675-3.547 3.679c0 1.928-0.014 3.443-0.014 3.443h-3.56c-0.656 0-1.187 0.531-1.187 1.187zM14.665 0.561c0.655 0 1.187 0.531 1.187 1.186 0 0.656-0.532 1.187-1.187 1.187s-1.187-0.531-1.187-1.187c0-0.655 0.532-1.186 1.187-1.186zM25.422 4.121v11.792c0 0 1.024-1.13 2.372-1.672v-11.306c0-1.311-1.137-2.374-2.447-2.374h-5.861v2.374h4.747c0.656 0 1.189 0.531 1.189 1.186zM12.216 32.681h-7.047c-0.655 0-1.186-0.53-1.186-1.186v-27.373c0-0.655 0.531-1.186 1.186-1.186h4.822v-2.374h-6.008c-1.311 0-2.374 1.064-2.374 2.374v29.746c0 1.311 1.062 2.375 2.374 2.375h10.815c-0.464-0.784-1.295-1.689-2.582-2.375zM25.422 31.495c0 0.656-0.532 1.186-1.187 1.186h-3.25c-0.598 0.8-1.161 1.596-1.679 2.375h6.043c1.31 0 2.447-1.064 2.447-2.375v-7.299c-0.786 0.647-1.582 1.377-2.372 2.179v3.934zM30.391 21.867c-1.337-2.973-0.572-5.387-0.381-8.174-7.835 3.9-12.804 15.605-12.804 15.605l-3.057-5.76-6.306 3.715c2.676 0.928 6.498 3.9 9.747 7.802 2.291-4.087 9.362-12.444 12.802-13.189z"></path>
</svg>
