<!-- Generated by IcoMoon.io -->
<svg version="1.1" xmlns="http://www.w3.org/2000/svg" width="32" height="32" viewBox="0 0 32 32">
<title>clipboard</title>
<path d="M25.528 35.104h-21.438c-1.316 0-2.382-1.064-2.382-2.377v-28.699c0-1.312 1.066-2.376 2.382-2.376h5.955v2.476h-4.764c-0.657 0-1.191 0.531-1.191 1.189v26.222c0 0.659 0.534 1.189 1.191 1.189h19.056c0.659 0 1.191-0.53 1.191-1.189v-26.222c0-0.657-0.532-1.189-1.191-1.189h-4.764v-2.476h5.955c1.315 0 2.382 1.065 2.382 2.376v28.699c0 1.314-1.067 2.377-2.382 2.377zM10.045 11.259h13.101v1.189h-13.101v-1.189zM10.045 14.825h13.101v1.189h-13.101v-1.189zM10.045 18.391h13.101v1.189h-13.101v-1.189zM10.045 21.957h13.101v1.189h-13.101v-1.189zM23.146 30.275h-13.101v-1.186h13.101v1.186zM10.045 25.523h13.101v1.189h-13.101v-1.189zM6.472 11.235h1.191v1.189h-1.191v-1.189zM6.472 14.801h1.191v1.189h-1.191v-1.189zM6.472 18.365h1.191v1.189h-1.191v-1.189zM6.472 21.931h1.191v1.189h-1.191v-1.189zM7.663 30.252h-1.191v-1.189h1.191v1.189zM6.472 25.498h1.191v1.189h-1.191v-1.189zM21.955 5.39c0.659 0 1.191 0.532 1.191 1.19 0 0.656 0 2.302 0 2.302h-16.674c0 0 0-1.646 0-2.302 0-0.657 0.532-1.19 1.191-1.19h3.573c0 0 0.014-1.69 0.014-3.622 0-2.006 1.548-3.683 3.559-3.683s3.612 1.763 3.612 3.694c0 2.081-0.039 3.61-0.039 3.61h3.573zM14.809 1.652c-0.659 0-1.191 0.531-1.191 1.187 0 0.657 0.532 1.189 1.191 1.189s1.191-0.531 1.191-1.189c0-0.656-0.532-1.187-1.191-1.187z"></path>
</svg>
