<!-- Generated by IcoMoon.io -->
<svg version="1.1" xmlns="http://www.w3.org/2000/svg" width="32" height="32" viewBox="0 0 32 32">
<title>clipboard6</title>
<path d="M11.248 4.16c0.343-2.344 2.34-4.123 4.752-4.123s4.409 1.779 4.749 4.097l0.003 0.026 3.248 0.64v1.6h1.6c1.767 0 3.2 1.433 3.2 3.2v0 19.2c0 1.767-1.433 3.2-3.2 3.2v0h-19.2c-1.767 0-3.2-1.433-3.2-3.2v0-19.2c0-1.76 1.44-3.2 3.2-3.2h1.6v-1.6l3.248-0.64zM8 9.6h-1.6v19.2h19.2v-19.2h-1.6v1.6h-16v-1.6zM16 6.4c0.884 0 1.6-0.716 1.6-1.6s-0.716-1.6-1.6-1.6v0c-0.884 0-1.6 0.716-1.6 1.6s0.716 1.6 1.6 1.6v0z"></path>
</svg>
