<!-- Generated by IcoMoon.io -->
<svg version="1.1" xmlns="http://www.w3.org/2000/svg" width="32" height="32" viewBox="0 0 32 32">
<title>clipboard2</title>
<path d="M27.91 35.056h-23.819c-1.316 0-2.382-1.065-2.382-2.377v-29.791c0-1.314 1.066-2.377 2.382-2.377h7.146v2.377h-5.955c-0.657 0-1.191 0.531-1.191 1.189v27.414c0 0.656 0.534 1.189 1.191 1.189h21.438c0.659 0 1.191-0.532 1.191-1.189v-27.414c0-0.657-0.532-1.189-1.191-1.189h-5.955v-2.377h7.146c1.315 0 2.382 1.065 2.382 2.377v29.791c0 1.312-1.067 2.377-2.382 2.377zM26.719 4.076v27.414h-21.438v-27.414h1.191v4.829h19.056v-4.829h1.191zM10.045 12.471h-1.191v1.189h1.191v-1.189zM10.045 14.848h-1.191v1.189h1.191v-1.189zM10.045 17.226h-1.191v1.189h1.191v-1.189zM10.045 19.603h-1.191v1.189h1.191v-1.189zM10.045 21.98h-1.191v1.189h1.191v-1.189zM10.045 24.358h-1.191v1.189h1.191v-1.189zM10.045 26.735h-1.191v1.189h1.191v-1.189zM23.146 12.471h-11.91v1.189h11.91v-1.189zM23.146 14.848h-11.91v1.189h11.91v-1.189zM23.146 17.226h-11.91v1.189h11.91v-1.189zM23.146 19.603h-11.91v1.189h11.91v-1.189zM23.146 21.98h-11.91v1.189h11.91v-1.189zM23.146 24.358h-11.91v1.189h11.91v-1.189zM23.146 26.735h-11.91v1.189h11.91v-1.189zM23.146 4.076c0.659 0 1.191 0.531 1.191 1.189 0 0.656 0 2.377 0 2.377h-16.674c0 0 0-1.721 0-2.377 0-0.657 0.532-1.189 1.191-1.189h3.573c0 0 0.014-1.517 0.014-3.449 0-2.006 1.548-3.683 3.559-3.683s3.612 1.763 3.612 3.696c0 2.079-0.039 3.436-0.039 3.436h3.573zM16 0.51c-0.659 0-1.191 0.531-1.191 1.189 0 0.656 0.532 1.189 1.191 1.189s1.191-0.532 1.191-1.189c0-0.657-0.532-1.189-1.191-1.189z"></path>
</svg>
