<!-- Generated by IcoMoon.io -->
<svg version="1.1" xmlns="http://www.w3.org/2000/svg" width="35" height="32" viewBox="0 0 35 32">
<title>cloudy1</title>
<path d="M22.257 17.228c0 0 0.57-7.675-6.463-8.55-6.029-0.616-7.863 4.987-7.863 4.987s-1.815-1.746-4.278-0.32c-2.204 1.361-1.814 3.852-1.814 3.852s-4.895 0.952-4.895 5.943c0.135 5.069 5.284 4.943 5.284 4.943l19.262 0.051c0 0 4.61 0.054 5.45-4.696 0.325-5.184-4.683-6.209-4.683-6.209zM34.167 12.465c0 0 0.571-7.675-6.462-8.551-6.029-0.616-7.937 5.060-7.937 5.060s3.512 2.038 3.661 7.546c2.233 0.671 4.613 2.513 4.688 6.83l5.283 0.019c0 0 4.61 0.054 5.45-4.696 0.325-5.187-4.683-6.209-4.683-6.209z"></path>
</svg>
