<!-- Generated by IcoMoon.io -->
<svg version="1.1" xmlns="http://www.w3.org/2000/svg" width="32" height="32" viewBox="0 0 32 32">
<title>cloud-upload1</title>
<path d="M27.008 14.56c2.872 0.671 4.978 3.21 4.978 6.24 0 3.53-2.857 6.392-6.385 6.4h-17.601c-0.002 0-0.005 0-0.008 0-4.418 0-8-3.582-8-8 0-3.855 2.726-7.073 6.356-7.831l0.052-0.009v-0.16c0-0.002 0-0.004 0-0.006 0-2.651 2.149-4.8 4.8-4.8 0.897 0 1.736 0.246 2.454 0.674l-0.022-0.012c1.438-1.422 3.417-2.3 5.6-2.3 4.401 0 7.968 3.567 7.968 7.968 0 0.027-0 0.053-0 0.080l0-0.004c0 0.608-0.064 1.184-0.192 1.76zM17.6 17.6h4.8l-6.4-6.4-6.4 6.4h4.8v4.8h3.2v-4.8z"></path>
</svg>
