<!-- Generated by IcoMoon.io -->
<svg version="1.1" xmlns="http://www.w3.org/2000/svg" width="38" height="32" viewBox="0 0 38 32">
<title>cloudy</title>
<path d="M22.257 18.108c0 0 0.57-7.675-6.462-8.551-6.029-0.616-7.863 4.987-7.863 4.987s-1.815-1.746-4.278-0.32c-2.204 1.361-1.814 3.852-1.814 3.852s-4.896 0.952-4.896 5.942c0.136 5.070 5.285 4.944 5.285 4.944l19.262 0.050c0 0 4.61 0.055 5.45-4.696 0.324-5.184-4.684-6.206-4.684-6.206zM35.516 18.804c0-4.934-3.998-8.932-8.932-8.932-0.835 0-2.609 0.272-4.36 1.178 0 0.002-1.094 0.747-1.094 0.747s1.733 1.573 1.882 5.742c0 0.074 4.59 1.252 4.59 6.016 0 3.275-1.739 4.176-1.739 4.176l0.722 0.007c0 0 8.932-1.86 8.932-8.932zM26.584 3.619l-2.512 5.025h5.025l-2.513-5.025zM37.316 8.034l-5.33 1.776 3.553 3.553 1.777-5.328zM36.707 21.352l5.025-2.512-5.025-2.512v5.024zM31.988 27.797l5.33 1.776-1.776-5.33-3.554 3.554z"></path>
</svg>
