<!-- Generated by IcoMoon.io -->
<svg version="1.1" xmlns="http://www.w3.org/2000/svg" width="32" height="32" viewBox="0 0 32 32">
<title>coffee1</title>
<path d="M32.655 15.462c-0.45-4.334-4.839-4.309-7.118-4.232 0.011-0.659 0.018-1.19 0.018-1.19l-26.234-0.008c0 0 0 3.59 0 3.679 0 5.099 2.912 9.509 7.159 11.682v1.272h11.932v-1.272c1.191-0.61 2.259-1.41 3.205-2.336 5.854-1.401 11.993-3.422 11.038-7.596zM23.444 20.842c1.337-2.054 2.127-4.496 2.127-7.132 0 0.020 0.001-0.035 0.002-0.138 2.126-0.070 4.472-0.282 5.003 1.834 0.534 2.328-3.355 4.224-7.133 5.436zM7.461 5.269c0 1.191-1.953 2.459-1.953 2.459s3.828-0.684 3.828-2.47-3.796-0.596-3.796-1.935 1.878-2.608 1.878-2.608-3.603 0.759-3.603 2.619 3.646 0.744 3.646 1.935zM13.416 6.46c0 1.191-1.953 2.459-1.953 2.459s3.828-0.684 3.828-2.47-3.796-0.596-3.796-1.935 1.878-2.608 1.878-2.608-3.604 0.759-3.604 2.619 3.647 0.744 3.647 1.935zM18.179 5.269c0 1.191-1.953 2.459-1.953 2.459s3.828-0.684 3.828-2.47-3.796-0.596-3.796-1.935 1.878-2.608 1.878-2.608-3.604 0.759-3.604 2.619 3.647 0.744 3.647 1.935zM-0.753 27.824c0 1.645 5.866 2.977 13.101 2.977s13.101-1.333 13.101-2.977c0 0.035-26.201 0.035-26.201 0z"></path>
</svg>
