<!-- Generated by IcoMoon.io -->
<svg version="1.1" xmlns="http://www.w3.org/2000/svg" width="32" height="32" viewBox="0 0 32 32">
<title>cog1</title>
<path d="M27.904 19.654h-1.577c-0.256 0.928-0.623 1.808-1.093 2.624l1.458 1.457c0.933 0.933 0.933 2.445 0 3.378l-0.844 0.844c-0.933 0.933-2.445 0.933-3.378 0l-1.467-1.466c-0.813 0.463-1.69 0.824-2.613 1.075v1.529c0 1.318-1.068 2.388-2.388 2.388h-1.193c-1.318 0-2.389-1.068-2.389-2.388v-1.529c-0.922-0.251-1.8-0.613-2.613-1.075l-1.466 1.466c-0.931 0.933-2.444 0.933-3.376 0l-0.846-0.844c-0.933-0.933-0.933-2.445 0-3.378l1.458-1.457c-0.47-0.817-0.837-1.696-1.094-2.624h-1.576c-1.32 0-2.388-1.068-2.388-2.387v-1.195c0-1.318 1.068-2.388 2.388-2.388h1.558c0.247-0.918 0.599-1.792 1.056-2.603l-1.402-1.401c-0.933-0.933-0.933-2.445 0-3.378l0.844-0.843c0.933-0.933 2.445-0.933 3.376 0l1.373 1.373c0.841-0.489 1.748-0.871 2.706-1.131v-1.605c0.001-1.32 1.072-2.388 2.39-2.388h1.193c1.318 0 2.388 1.068 2.388 2.388v1.604c0.96 0.262 1.866 0.643 2.706 1.133l1.373-1.373c0.933-0.933 2.445-0.933 3.378 0l0.844 0.843c0.933 0.933 0.933 2.445 0 3.378l-1.401 1.401c0.457 0.811 0.81 1.685 1.058 2.605h1.558c1.318 0 2.388 1.069 2.388 2.388v1.195c-0.001 1.317-1.069 2.386-2.389 2.386zM15.405 10.14c-3.627 0-6.567 2.941-6.567 6.567s2.941 6.567 6.567 6.567 6.567-2.941 6.567-6.567-2.941-6.567-6.567-6.567zM15.405 19.617c-1.648 0-2.986-1.335-2.986-2.985 0-1.648 1.337-2.985 2.986-2.985s2.985 1.336 2.985 2.985c0 1.65-1.336 2.985-2.985 2.985z"></path>
</svg>
