<!-- Generated by IcoMoon.io -->
<svg version="1.1" xmlns="http://www.w3.org/2000/svg" width="32" height="32" viewBox="0 0 32 32">
<title>cog2</title>
<path d="M28.592 14.214h2.295v3.573h-2.295c-0.156 1.139-0.445 2.234-0.874 3.26l1.988 1.148-1.786 3.094-2.022-1.167c-0.694 0.877-1.501 1.658-2.395 2.332l1.191 2.062-3.094 1.786-1.216-2.104c-1.011 0.394-2.078 0.669-3.193 0.802v2.484h-3.573v-2.552c-1.086-0.168-2.133-0.454-3.113-0.871l-1.295 2.241-3.094-1.786 1.326-2.296c-0.83-0.666-1.571-1.433-2.218-2.278l-2.336 1.348-1.786-3.094 2.357-1.361c-0.382-0.966-0.65-1.987-0.796-3.048h-2.74v-3.573h2.742c0.145-1.062 0.413-2.083 0.796-3.048l-2.357-1.361 1.786-3.094 2.336 1.348c0.647-0.846 1.387-1.613 2.218-2.28l-1.326-2.293 3.094-1.786 1.295 2.241c0.98-0.417 2.027-0.704 3.113-0.871v-2.552h3.573v2.483c1.115 0.132 2.182 0.407 3.193 0.801l1.216-2.104 3.094 1.786-1.191 2.063c0.894 0.674 1.701 1.455 2.395 2.332l2.022-1.167 1.786 3.094-1.988 1.148c0.428 1.025 0.717 2.121 0.873 3.26zM15.394 8.248c-4.276 0-7.741 3.466-7.741 7.741s3.466 7.741 7.741 7.741 7.741-3.466 7.741-7.741-3.466-7.741-7.741-7.741zM15.405 18.977c-1.645 0-2.977-1.333-2.977-2.977s1.333-2.977 2.977-2.977 2.977 1.333 2.977 2.977-1.333 2.977-2.977 2.977z"></path>
</svg>
