<!-- Generated by IcoMoon.io -->
<svg version="1.1" xmlns="http://www.w3.org/2000/svg" width="32" height="32" viewBox="0 0 32 32">
<title>cog5</title>
<path d="M6.304 10.4l-2.752-4.576 2.272-2.272 4.576 2.752c0.832-0.48 1.76-0.864 2.72-1.12l1.28-5.184h3.2l1.28 5.184c0.96 0.256 1.888 0.64 2.72 1.12l4.576-2.752 2.272 2.272-2.752 4.576c0.48 0.832 0.864 1.76 1.12 2.72l5.184 1.28v3.2l-5.184 1.28c-0.256 0.96-0.64 1.888-1.12 2.72l2.752 4.576-2.272 2.272-4.576-2.752c-0.832 0.48-1.76 0.864-2.72 1.12l-1.28 5.184h-3.2l-1.28-5.184c-0.96-0.256-1.888-0.64-2.72-1.12l-4.576 2.752-2.272-2.272 2.752-4.576c-0.48-0.832-0.864-1.76-1.12-2.72l-5.184-1.28v-3.2l5.184-1.28c0.256-0.96 0.64-1.888 1.12-2.72zM16 20.8c2.651 0 4.8-2.149 4.8-4.8s-2.149-4.8-4.8-4.8v0c-2.651 0-4.8 2.149-4.8 4.8s2.149 4.8 4.8 4.8v0z"></path>
</svg>
