<!-- Generated by IcoMoon.io -->
<svg version="1.1" xmlns="http://www.w3.org/2000/svg" width="32" height="32" viewBox="0 0 32 32">
<title>cogs</title>
<path d="M22.274 23.192l0.844-0.844c0.933-0.933 0.933-2.445 0-3.378l-1.458-1.457c0.469-0.817 0.837-1.696 1.093-2.624h1.577c1.318 0 2.388-1.069 2.388-2.388v-1.193c0-1.318-1.068-2.388-2.388-2.388h-1.558c-0.248-0.918-0.599-1.792-1.056-2.604l1.402-1.401c0.933-0.933 0.933-2.445 0-3.378l-0.844-0.843c-0.933-0.933-2.445-0.933-3.378 0l-1.373 1.373c-0.84-0.489-1.747-0.871-2.706-1.133v-1.604c-0.001-1.32-1.071-2.388-2.389-2.388h-1.193c-1.318 0-2.389 1.068-2.389 2.388v1.604c-0.959 0.262-1.865 0.643-2.706 1.133l-1.374-1.374c-0.931-0.933-2.444-0.933-3.376 0l-0.844 0.843c-0.933 0.933-0.933 2.445 0 3.378l1.401 1.402c-0.456 0.811-0.81 1.685-1.056 2.605h-1.557c-1.32-0.001-2.388 1.068-2.388 2.388v1.193c0 1.318 1.068 2.388 2.388 2.388h1.576c0.257 0.928 0.624 1.807 1.094 2.624l-1.458 1.457c-0.933 0.933-0.933 2.445 0 3.378l0.844 0.844c0.933 0.933 2.445 0.933 3.376 0l1.466-1.466c0.815 0.463 1.69 0.824 2.613 1.075v1.529c0 1.317 1.069 2.388 2.389 2.388h1.193c1.318 0 2.388-1.069 2.388-2.388v-1.529c0.923-0.251 1.801-0.613 2.613-1.075l1.466 1.466c0.935 0.931 2.446 0.931 3.38-0.001zM11.832 18.509c-3.627 0-6.567-2.939-6.567-6.567 0-3.627 2.941-6.567 6.567-6.567s6.567 2.941 6.567 6.567c0 3.628-2.941 6.567-6.567 6.567zM11.832 8.884c-1.65 0-2.986 1.336-2.986 2.985s1.336 2.985 2.986 2.985c1.648 0 2.985-1.336 2.985-2.985s-1.336-2.985-2.985-2.985zM26.793 31.318c-0.8 0-1.448 0.648-1.448 1.448 0 0.799 0.648 1.447 1.448 1.447 0.799 0 1.448-0.648 1.448-1.447 0-0.8-0.649-1.448-1.448-1.448zM32.855 31.336h-0.755c-0.12-0.445-0.292-0.869-0.513-1.264l0.679-0.679c0.453-0.453 0.453-1.186 0-1.638l-0.41-0.41c-0.453-0.453-1.185-0.453-1.638 0l-0.667 0.666c-0.407-0.237-0.848-0.422-1.312-0.549v-0.776c0-0.64-0.519-1.159-1.159-1.159h-0.579c-0.64 0-1.159 0.519-1.159 1.159v0.776c-0.466 0.127-0.905 0.312-1.312 0.549l-0.667-0.666c-0.453-0.453-1.186-0.453-1.638 0l-0.41 0.41c-0.453 0.451-0.453 1.185 0 1.638l0.679 0.679c-0.223 0.393-0.393 0.818-0.513 1.264h-0.755c-0.64 0-1.159 0.519-1.159 1.159v0.579c0 0.64 0.519 1.159 1.159 1.159h0.765c0.124 0.449 0.303 0.875 0.53 1.272l-0.706 0.706c-0.453 0.453-0.453 1.185 0 1.639l0.41 0.41c0.451 0.451 1.185 0.451 1.638 0l0.711-0.712c0.395 0.224 0.819 0.4 1.267 0.522v0.742c0 0.64 0.519 1.159 1.159 1.159h0.579c0.64 0 1.159-0.519 1.159-1.159v-0.742c0.448-0.121 0.872-0.297 1.266-0.522l0.712 0.712c0.453 0.451 1.185 0.451 1.638 0l0.41-0.41c0.453-0.454 0.453-1.186 0-1.639l-0.706-0.706c0.226-0.397 0.406-0.823 0.53-1.272h0.765c0.64 0 1.159-0.519 1.159-1.159v-0.579c0.005-0.641-0.514-1.159-1.154-1.159zM26.793 35.987c-1.759 0-3.185-1.426-3.185-3.186 0-1.759 1.426-3.185 3.185-3.185s3.185 1.426 3.185 3.185c0 1.76-1.426 3.186-3.185 3.186z"></path>
</svg>
