<!-- Generated by IcoMoon.io -->
<svg version="1.1" xmlns="http://www.w3.org/2000/svg" width="32" height="32" viewBox="0 0 32 32">
<title>coins</title>
<path d="M30.887 24.337h-14.585c0.428-0.737 0.755-1.536 0.972-2.382h13.613c0.659 0 1.191 0.532 1.191 1.191 0 0.657-0.532 1.191-1.191 1.191zM30.887 20.764h-13.382c0.049-0.391 0.082-0.787 0.082-1.191 0-0.405-0.033-0.8-0.082-1.191h13.382c0.659 0 1.191 0.532 1.191 1.191 0 0.657-0.532 1.191-1.191 1.191zM30.887 17.191h-13.613c-0.218-0.846-0.544-1.645-0.972-2.382h14.585c0.659 0 1.191 0.532 1.191 1.191 0 0.657-0.532 1.191-1.191 1.191zM30.887 13.618h-15.397c-0.774-0.966-1.73-1.778-2.821-2.382h18.218c0.659 0 1.191 0.532 1.191 1.191 0 0.657-0.532 1.191-1.191 1.191zM30.887 10.045h-19.056c-0.659 0-1.191-0.534-1.191-1.191 0-0.659 0.532-1.191 1.191-1.191h19.056c0.659 0 1.191 0.532 1.191 1.191 0 0.657-0.532 1.191-1.191 1.191zM30.887 6.472h-19.056c-0.659 0-1.191-0.534-1.191-1.191 0-0.659 0.532-1.191 1.191-1.191h19.056c0.659 0 1.191 0.532 1.191 1.191 0 0.657-0.532 1.191-1.191 1.191zM16.596 19.573c0 4.604-3.734 8.337-8.337 8.337-4.604 0-8.337-3.733-8.337-8.337s3.733-8.337 8.337-8.337c4.603 0 8.337 3.733 8.337 8.337zM11.21 20.479c-0.12-0.285-0.275-0.532-0.469-0.743s-0.414-0.392-0.662-0.543c-0.248-0.151-0.5-0.286-0.759-0.406-0.258-0.119-0.511-0.231-0.759-0.338-0.248-0.106-0.47-0.22-0.666-0.342-0.197-0.121-0.353-0.261-0.469-0.417s-0.175-0.341-0.175-0.555c0-0.143 0.026-0.279 0.077-0.407 0.052-0.127 0.131-0.238 0.238-0.33 0.106-0.090 0.239-0.163 0.398-0.214 0.158-0.052 0.345-0.077 0.559-0.077 0.273 0 0.523 0.032 0.751 0.099 0.227 0.068 0.429 0.14 0.603 0.223 0.174 0.081 0.32 0.156 0.439 0.225s0.206 0.102 0.261 0.102 0.098-0.014 0.13-0.044c0.031-0.030 0.057-0.076 0.074-0.142 0.018-0.064 0.029-0.146 0.037-0.245 0.007-0.1 0.011-0.223 0.011-0.367 0-0.129-0.002-0.237-0.007-0.323-0.005-0.087-0.014-0.16-0.025-0.217-0.013-0.057-0.027-0.104-0.044-0.138-0.019-0.035-0.051-0.076-0.101-0.125-0.050-0.050-0.151-0.112-0.305-0.185-0.154-0.074-0.33-0.141-0.528-0.199-0.199-0.060-0.412-0.106-0.64-0.141-0.046-0.007-0.094-0.005-0.14-0.011v-1.231h-1.172v1.231c-0.216 0.029-0.424 0.071-0.626 0.13-0.394 0.114-0.736 0.286-1.027 0.517s-0.522 0.522-0.692 0.869c-0.171 0.35-0.256 0.755-0.256 1.216 0 0.401 0.060 0.747 0.177 1.034 0.119 0.287 0.274 0.537 0.466 0.748s0.407 0.391 0.65 0.542c0.243 0.152 0.494 0.287 0.751 0.406 0.258 0.119 0.509 0.231 0.751 0.338s0.46 0.222 0.65 0.342c0.192 0.123 0.347 0.261 0.466 0.417 0.119 0.157 0.179 0.344 0.179 0.562 0 0.189-0.035 0.361-0.104 0.516-0.070 0.154-0.17 0.282-0.301 0.387s-0.291 0.185-0.479 0.242c-0.189 0.057-0.401 0.086-0.641 0.086-0.362 0-0.681-0.040-0.956-0.123s-0.512-0.173-0.711-0.273c-0.199-0.099-0.361-0.188-0.487-0.272-0.126-0.081-0.224-0.123-0.294-0.123-0.050 0-0.094 0.014-0.13 0.040-0.038 0.027-0.068 0.074-0.089 0.138-0.023 0.065-0.038 0.149-0.049 0.254s-0.015 0.233-0.015 0.387c0 0.229 0.014 0.404 0.040 0.525 0.027 0.123 0.074 0.216 0.138 0.279 0.064 0.064 0.169 0.137 0.316 0.222s0.329 0.163 0.547 0.239c0.218 0.075 0.47 0.14 0.755 0.195 0.285 0.054 0.594 0.080 0.927 0.080 0.014 0 0.027-0.002 0.043-0.002v1.147h1.171v-1.301c0.056-0.014 0.116-0.021 0.17-0.037 0.431-0.129 0.809-0.322 1.131-0.576s0.578-0.573 0.767-0.955c0.188-0.382 0.281-0.825 0.281-1.332 0.001-0.385-0.058-0.719-0.176-1.005zM15.49 25.528h15.397c0.659 0 1.191 0.532 1.191 1.191 0 0.657-0.532 1.191-1.191 1.191h-18.218c1.091-0.604 2.047-1.416 2.821-2.382z"></path>
</svg>
