<!-- Generated by IcoMoon.io -->
<svg version="1.1" xmlns="http://www.w3.org/2000/svg" width="32" height="32" viewBox="0 0 32 32">
<title>collapse</title>
<path d="M10.632 7.374l-4.114-4.112-3.174 3.174 4.114 4.112-3.085 3.085 9.286 0.005-0.020-9.271-3.007 3.007zM24.542 10.548l4.114-4.112-3.174-3.174-4.114 4.112-3.007-3.007-0.020 9.271 9.286-0.005-3.085-3.085zM7.458 21.452l-4.114 4.112 3.174 3.174 4.114-4.112 3.008 3.007 0.020-9.271-9.286 0.005 3.083 3.085zM27.626 18.368l-9.286-0.005 0.020 9.271 3.007-3.007 4.114 4.112 3.174-3.174-4.114-4.112 3.085-3.085z"></path>
</svg>
