<!-- Generated by IcoMoon.io -->
<svg version="1.1" xmlns="http://www.w3.org/2000/svg" width="32" height="32" viewBox="0 0 32 32">
<title>color-palette</title>
<path d="M14.4 32v-2.72l0.016-0.384 9.696-9.696h4.704c1.76 0 3.184 1.424 3.184 3.2v6.4c0 1.767-1.433 3.2-3.2 3.2v0h-14.4zM14.4 26.656v-18.112l3.328-3.312c0.577-0.579 1.375-0.937 2.256-0.937s1.679 0.358 2.256 0.937l4.528 4.528c0.575 0.578 0.931 1.376 0.931 2.256s-0.355 1.678-0.931 2.256l0-0-12.368 12.384zM0 3.184c0-1.744 1.424-3.184 3.2-3.184h6.4c1.767 0 3.2 1.433 3.2 3.2v0 25.6c0 1.767-1.433 3.2-3.2 3.2v0h-6.4c-1.767 0-3.2-1.433-3.2-3.2v0-25.6zM6.4 27.2c0.884 0 1.6-0.716 1.6-1.6s-0.716-1.6-1.6-1.6v0c-0.884 0-1.6 0.716-1.6 1.6s0.716 1.6 1.6 1.6v0z"></path>
</svg>
