<!-- Generated by IcoMoon.io -->
<svg version="1.1" xmlns="http://www.w3.org/2000/svg" width="34" height="32" viewBox="0 0 34 32">
<title>comments</title>
<path d="M26.876 12.624c0-6.151-6.702-11.138-14.966-11.138-8.265 0-14.966 4.987-14.966 11.138 0 3.697 2.42 6.972 6.145 8.998-0.011 0.032-2.968 5.413-2.968 5.413s9.030-3.444 9.055-3.459c0.886 0.123 1.8 0.185 2.733 0.185 8.264 0 14.966-4.987 14.966-11.137zM37.896 16.104c0-6.15-6.309-11.093-13.138-11.137 9.79 9.752-1.74 20.142-11.137 20.142 0 0 1.044 2.132 9.309 2.132 0.933 0 1.847-0.064 2.733-0.186 0.025 0.017 9.056 3.459 9.056 3.459s-2.958-5.38-2.968-5.412c3.724-2.026 6.144-5.302 6.144-8.998z"></path>
</svg>
