<!-- Generated by IcoMoon.io -->
<svg version="1.1" xmlns="http://www.w3.org/2000/svg" width="32" height="32" viewBox="0 0 32 32">
<title>compass1</title>
<path d="M31.483 18.977c0 8.551-6.931 15.483-15.483 15.483s-15.483-6.931-15.483-15.483c0-7.539 5.389-13.812 12.523-15.193-0.387-0.571-0.613-1.259-0.613-2.002 0-1.973 1.6-3.573 3.573-3.573 1.972 0 3.573 1.599 3.573 3.573 0 0.742-0.226 1.43-0.615 2.002 7.135 1.382 12.524 7.654 12.524 15.193zM16-0.078c-0.987 0-1.786 0.8-1.786 1.786s0.799 1.786 1.786 1.786c0.986 0 1.786-0.8 1.786-1.786s-0.8-1.786-1.786-1.786zM17.191 5.936v2.918h-2.382v-2.918c-6.456 0.582-11.546 5.995-11.879 12.521h3.542v2.307h-3.449c0.79 6.035 5.677 10.702 11.786 11.254v-2.917h2.382v2.917c6.082-0.549 10.953-5.255 11.774-11.254h-3.437v-2.382h3.544c-0.295-6.56-5.402-11.861-11.881-12.446zM8.274 26.912l4.666-10.562 10.492-4.596-4.579 10.473-10.579 4.684zM17.572 17.613c-0.93-0.93-2.439-0.93-3.369 0s-0.93 2.438 0 3.368 2.439 0.93 3.369 0c0.93-0.93 0.93-2.437 0-3.368z"></path>
</svg>
