<!-- Generated by IcoMoon.io -->
<svg version="1.1" xmlns="http://www.w3.org/2000/svg" width="32" height="32" viewBox="0 0 32 32">
<title>cord</title>
<path d="M29.002 18.999l-16.001-16.001c-0.698-0.698-0.698-1.829 0-2.526 0.698-0.698 1.828-0.698 2.526 0l3.79 3.79 4.633-4.632c0.698-0.698 1.828-0.698 2.526 0 0.698 0.697 0.698 1.828 0 2.526l-4.632 4.632 3.368 3.368 4.632-4.632c0.698-0.698 1.829-0.698 2.527 0 0.697 0.698 0.697 1.828 0 2.526l-4.633 4.633 3.791 3.79c0.697 0.698 0.697 1.828 0 2.526-0.698 0.698-1.829 0.698-2.527 0zM21.844 25.315c-1.545 1.544-8.421 1.684-8.421 1.684l-8.421-8.421c0 0 0.141-6.877 1.684-8.421 1.545-1.543 5.895-5.894 5.895-5.894l15.159 15.159c-0.001-0.001-4.352 4.349-5.895 5.894zM5.001 20.261l6.737 6.737c0.466 0.466 0.466 1.218 0 1.684s-1.22 0.466-1.685 0l-6.736-6.737c-0.466-0.466-0.466-1.218 0-1.684s1.218-0.464 1.684 0zM8.369 28.683c0 0-0.566 0.567-1.264 1.264-0.698 0.698-1.828 0.698-2.526 0l-0.422-0.422-3.369 3.368-1.684-1.684 3.369-3.368-0.42-0.42c-0.698-0.698-0.698-1.829 0-2.527s1.333-1.192 1.333-1.192l4.983 4.982z"></path>
</svg>
