<!-- Generated by IcoMoon.io -->
<svg version="1.1" xmlns="http://www.w3.org/2000/svg" width="32" height="32" viewBox="0 0 32 32">
<title>creative-commons1</title>
<path d="M12.242 18.605c-0.65 0-1.141-0.238-1.472-0.713-0.334-0.472-0.5-1.103-0.5-1.891 0-1.734 0.656-2.603 1.972-2.603 0.262 0 0.547 0.088 0.853 0.263s0.566 0.481 0.775 0.919l1.972-1.025c-0.787-1.419-2.094-2.128-3.916-2.128-1.245 0-2.275 0.412-3.087 1.234-0.816 0.825-1.225 1.937-1.225 3.341 0 1.438 0.405 2.559 1.209 3.366 0.806 0.806 1.869 1.206 3.181 1.206 0.825 0 1.578-0.206 2.261-0.616 0.683-0.413 1.217-0.978 1.605-1.697l-1.816-0.919c-0.35 0.841-0.955 1.263-1.813 1.263zM20.733 18.605c-0.65 0-1.14-0.238-1.472-0.713-0.334-0.472-0.5-1.103-0.5-1.891 0-1.734 0.656-2.603 1.972-2.603 0.278 0 0.572 0.088 0.878 0.263 0.308 0.175 0.566 0.481 0.778 0.919l1.944-1.025c-0.772-1.419-2.069-2.128-3.891-2.128-1.244 0-2.273 0.412-3.087 1.234-0.816 0.825-1.222 1.937-1.222 3.341 0 1.438 0.397 2.559 1.195 3.366 0.797 0.806 1.861 1.206 3.194 1.206 0.805 0 1.551-0.206 2.233-0.616 0.684-0.413 1.228-0.978 1.631-1.697l-1.841-0.919c-0.35 0.841-0.956 1.263-1.813 1.263zM26.901 5.094c-2.974-2.97-6.614-4.454-10.921-4.454-4.254 0-7.856 1.484-10.803 4.454-3.024 3.072-4.536 6.707-4.536 10.906s1.512 7.808 4.536 10.828c3.024 3.021 6.626 4.532 10.803 4.532 4.229 0 7.896-1.523 10.998-4.569 2.921-2.893 4.383-6.49 4.383-10.791s-1.487-7.937-4.459-10.906zM24.978 24.794c-2.538 2.509-5.524 3.763-8.959 3.763s-6.394-1.242-8.881-3.726c-2.486-2.482-3.729-5.427-3.729-8.831s1.255-6.375 3.768-8.909c2.409-2.458 5.357-3.687 8.842-3.687 3.487 0 6.447 1.229 8.883 3.687 2.461 2.432 3.691 5.401 3.691 8.909 0 3.533-1.205 6.464-3.614 8.794z"></path>
</svg>
