<!-- Generated by IcoMoon.io -->
<svg version="1.1" xmlns="http://www.w3.org/2000/svg" width="32" height="32" viewBox="0 0 32 32">
<title>creative-commons-noderivs</title>
<path d="M15.98 0.64c-4.255 0-7.856 1.484-10.803 4.454-3.025 3.072-4.537 6.707-4.537 10.906s1.512 7.808 4.537 10.828c3.024 3.022 6.626 4.532 10.803 4.532 4.229 0 7.895-1.523 10.997-4.569 2.922-2.893 4.383-6.49 4.383-10.791s-1.487-7.937-4.46-10.906c-2.974-2.97-6.614-4.454-10.92-4.454zM16.019 3.404c3.486 0 6.446 1.229 8.882 3.687 2.46 2.432 3.69 5.401 3.69 8.909 0 3.532-1.204 6.464-3.614 8.794-2.538 2.509-5.524 3.762-8.958 3.762s-6.395-1.241-8.882-3.725c-2.486-2.483-3.729-5.427-3.729-8.831 0-3.406 1.256-6.375 3.768-8.909 2.41-2.458 5.357-3.687 8.843-3.687z"></path>
<path d="M21.803 12.36h-11.165v2.645h11.165v-2.645zM21.803 17.296h-11.165v2.645h11.165v-2.645z"></path>
</svg>
