<!-- Generated by IcoMoon.io -->
<svg version="1.1" xmlns="http://www.w3.org/2000/svg" width="32" height="32" viewBox="0 0 32 32">
<title>creative-commons-attribution</title>
<path d="M20.133 12.197c0-0.548-0.445-0.992-0.992-0.992h-6.283c-0.548 0-0.992 0.444-0.992 0.992v6.283h1.752v7.44h4.761v-7.44h1.753v-6.283z"></path>
<path d="M18.149 8.229c0 1.187-0.962 2.149-2.149 2.149s-2.149-0.962-2.149-2.149c0-1.187 0.962-2.149 2.149-2.149s2.149 0.962 2.149 2.149z"></path>
<path d="M15.98 0.64c-4.255 0-7.857 1.485-10.804 4.454-3.025 3.072-4.537 6.707-4.537 10.906s1.512 7.808 4.537 10.829c3.024 3.021 6.626 4.531 10.804 4.531 4.229 0 7.895-1.523 10.996-4.569 2.922-2.892 4.383-6.489 4.383-10.79s-1.487-7.936-4.46-10.906c-2.974-2.969-6.614-4.454-10.919-4.454zM16.019 3.404c3.486 0 6.446 1.229 8.882 3.687 2.46 2.432 3.69 5.401 3.69 8.909 0 3.532-1.204 6.464-3.614 8.794-2.538 2.509-5.524 3.763-8.958 3.763s-6.396-1.241-8.882-3.725-3.729-5.427-3.729-8.832c0-3.405 1.256-6.374 3.768-8.909 2.41-2.458 5.357-3.687 8.843-3.687z"></path>
</svg>
