<!-- Generated by IcoMoon.io -->
<svg version="1.1" xmlns="http://www.w3.org/2000/svg" width="32" height="32" viewBox="0 0 32 32">
<title>creative-commons-noncommercial-us</title>
<path d="M15.98 0.64c4.306 0 7.946 1.485 10.92 4.454s4.46 6.605 4.46 10.906-1.462 7.898-4.383 10.791c-3.102 3.046-6.768 4.569-10.997 4.569-4.178 0-7.779-1.51-10.804-4.531s-4.537-6.631-4.537-10.829 1.512-7.834 4.537-10.906c2.948-2.97 6.549-4.454 10.804-4.454zM4.096 11.874c-0.458 1.296-0.688 2.671-0.688 4.126 0 3.405 1.243 6.349 3.729 8.832s5.446 3.725 8.881 3.725c3.435 0 6.421-1.254 8.959-3.763 0.849-0.821 1.549-1.717 2.098-2.687l-5.79-2.579c-0.393 1.948-2.129 3.264-4.228 3.419v2.368h-1.763v-2.368c-1.724-0.020-3.39-0.724-4.663-1.839l2.116-2.133c1.019 0.959 2.037 1.39 3.428 1.39 0.901 0 1.9-0.352 1.9-1.527 0-0.416-0.161-0.705-0.415-0.923l-3.288-1.464c-0.902-0.402-1.666-0.742-2.433-1.083l-7.845-3.494zM16.019 3.404c-3.486 0-6.433 1.229-8.842 3.687-0.656 0.661-1.226 1.353-1.711 2.074l5.872 2.614c0.531-1.628 2.078-2.616 3.958-2.727v-2.368h1.763v2.368c1.215 0.059 2.547 0.391 3.86 1.409l-2.017 2.074c-0.744-0.528-1.685-0.9-2.626-0.9-0.764 0-1.841 0.235-1.841 1.194 0 0.146 0.049 0.275 0.138 0.39l3.293 1.467c0.85 0.378 1.662 0.74 2.467 1.098l7.87 3.504c0.261-1.031 0.391-2.128 0.391-3.289 0-3.508-1.23-6.477-3.691-8.909-2.436-2.458-5.395-3.687-8.882-3.687z"></path>
</svg>
