<!-- Generated by IcoMoon.io -->
<svg version="1.1" xmlns="http://www.w3.org/2000/svg" width="32" height="32" viewBox="0 0 32 32">
<title>creative-commons-share</title>
<path d="M15.98 0.64c-4.254 0-7.856 1.484-10.803 4.454-3.024 3.072-4.536 6.707-4.536 10.906s1.512 7.808 4.536 10.828c3.024 3.021 6.626 4.532 10.803 4.532 4.229 0 7.895-1.523 10.998-4.569 2.921-2.893 4.383-6.49 4.383-10.791s-1.487-7.937-4.46-10.906c-2.974-2.97-6.614-4.454-10.921-4.454zM16.018 3.404c3.487 0 6.447 1.229 8.883 3.687 2.461 2.432 3.691 5.401 3.691 8.909 0 3.533-1.205 6.464-3.614 8.794-2.538 2.509-5.524 3.763-8.959 3.763s-6.394-1.242-8.881-3.726c-2.486-2.482-3.729-5.427-3.729-8.831s1.255-6.375 3.768-8.909c2.409-2.458 5.357-3.687 8.842-3.687z"></path>
<path d="M22.291 11.599h-3.36v-3.345c0-0.464-0.376-0.84-0.84-0.84h-8.384c-0.025-0.001-0.051-0.001-0.075 0-0.435 0.039-0.767 0.404-0.765 0.84v11.31c0 0.464 0.376 0.84 0.84 0.84h3.36v3.345c0 0.464 0.376 0.84 0.84 0.84h8.385c0.464 0 0.84-0.376 0.84-0.84v-11.31c0-0.464-0.376-0.84-0.84-0.84zM10.546 18.724v-9.63h6.705v2.505h-3.345c-0.030-0.001-0.060-0.001-0.090 0-0.428 0.046-0.753 0.409-0.75 0.84v6.285h-2.52zM21.451 13.279v9.63h-6.705v-9.63h6.705z"></path>
</svg>
