<!-- Generated by IcoMoon.io -->
<svg version="1.1" xmlns="http://www.w3.org/2000/svg" width="32" height="32" viewBox="0 0 32 32">
<title>creative-commons-remix</title>
<path d="M15.98 0.64c-4.254 0-7.856 1.484-10.803 4.454-3.024 3.072-4.536 6.707-4.536 10.906s1.512 7.807 4.536 10.828c3.024 3.021 6.626 4.532 10.803 4.532 4.229 0 7.895-1.523 10.998-4.569 2.921-2.893 4.383-6.49 4.383-10.79s-1.487-7.937-4.46-10.906c-2.974-2.97-6.614-4.454-10.921-4.454zM16.018 3.404c3.487 0 6.447 1.229 8.883 3.687 2.461 2.432 3.691 5.401 3.691 8.909 0 3.532-1.205 6.464-3.614 8.794-2.538 2.509-5.524 3.763-8.959 3.763s-6.394-1.242-8.881-3.726c-2.486-2.482-3.729-5.427-3.729-8.831s1.255-6.375 3.768-8.909c2.409-2.458 5.357-3.687 8.842-3.687z"></path>
<path d="M26.045 16.272l-3.058-1.271v-3.809l-9.394-3.911-4.188 1.839v4.356l0.044 0.019-3.694 1.537v3.948l3.948 1.692 3.969-1.642 0.268 0.107 8.22 3.39 0.18-0.075 4.005-1.71v-4.35l-0.3-0.12zM21.681 21.3l-0.038-0.015v0.023l-7.042-2.918v-2.777l7.042 2.878v0.090l0.038 0.016v2.703zM22.155 17.752l-2.233-0.956 2.404-1.030 2.293 0.953-2.465 1.033zM25.385 20.097l-2.745 1.182v-2.689l2.745-1.155v2.662z"></path>
</svg>
