<!-- Generated by IcoMoon.io -->
<svg version="1.1" xmlns="http://www.w3.org/2000/svg" width="32" height="32" viewBox="0 0 32 32">
<title>creative-commons-public-domain</title>
<path d="M15.98 0.64c-4.255 0-7.856 1.485-10.803 4.454-3.025 3.072-4.537 6.707-4.537 10.906s1.512 7.808 4.537 10.829c3.024 3.021 6.626 4.531 10.803 4.531 4.229 0 7.895-1.523 10.997-4.569 2.922-2.893 4.383-6.49 4.383-10.791s-1.487-7.936-4.46-10.906c-2.974-2.97-6.614-4.454-10.92-4.454zM16.019 3.404c3.486 0 6.446 1.229 8.882 3.687 2.46 2.432 3.69 5.401 3.69 8.909 0 3.532-1.204 6.464-3.614 8.794-2.538 2.509-5.524 3.763-8.958 3.763s-6.395-1.242-8.882-3.725c-2.486-2.483-3.729-5.427-3.729-8.832s1.256-6.374 3.768-8.909c2.41-2.458 5.357-3.687 8.843-3.687z"></path>
<path d="M10.911 13.246h1.729c0.966 0 1.371 0.465 1.371 1.312 0 0.656-0.346 1.288-1.312 1.288h-1.789v-2.599zM8.789 20.162h2.146v-2.743h1.657c2.91 0 3.541-1.741 3.541-2.873 0-1.681-0.847-2.874-3.136-2.874h-4.209v8.49z"></path>
<path d="M16.712 20.162h3.291c2.587 0 4.328-1.228 4.328-4.245s-1.74-4.245-4.328-4.245h-3.291v8.49zM18.834 13.46h1.205c1.598 0 2.17 1.085 2.17 2.456s-0.572 2.456-2.158 2.456h-1.217v-4.912z"></path>
</svg>
