<!-- Generated by IcoMoon.io -->
<svg version="1.1" xmlns="http://www.w3.org/2000/svg" width="32" height="32" viewBox="0 0 32 32">
<title>creative-commons-sharealike</title>
<path d="M15.98 0.64c-4.255 0-7.856 1.485-10.803 4.454-3.025 3.072-4.537 6.708-4.537 10.906s1.512 7.808 4.537 10.829c3.024 3.021 6.626 4.531 10.803 4.531 4.229 0 7.895-1.523 10.997-4.569 2.922-2.893 4.383-6.49 4.383-10.791s-1.487-7.936-4.46-10.906c-2.974-2.969-6.614-4.454-10.92-4.454zM16.019 3.404c3.486 0 6.446 1.229 8.882 3.687 2.46 2.432 3.69 5.401 3.69 8.909 0 3.532-1.204 6.464-3.614 8.794-2.538 2.509-5.524 3.763-8.958 3.763s-6.395-1.242-8.882-3.725c-2.486-2.483-3.729-5.427-3.729-8.832s1.256-6.374 3.768-8.909c2.41-2.458 5.357-3.687 8.843-3.687z"></path>
<path d="M9.172 13.832c0.613-3.864 3.333-5.931 6.742-5.931 4.904 0 7.892 3.559 7.892 8.303 0 4.63-3.18 8.227-7.969 8.227-3.295 0-6.244-2.028-6.781-6.007h3.87c0.115 2.066 1.456 2.793 3.371 2.793 2.183 0 3.601-2.028 3.601-5.128 0-3.252-1.226-4.974-3.525-4.974-1.685 0-3.141 0.612-3.448 2.716l1.125-0.006-3.046 3.045-3.046-3.045 1.212 0.006z"></path>
</svg>
