<!-- Generated by IcoMoon.io -->
<svg version="1.1" xmlns="http://www.w3.org/2000/svg" width="32" height="32" viewBox="0 0 32 32">
<title>creative-commons-noncommercial-eu</title>
<path d="M26.899 5.094c-2.974-2.97-6.613-4.454-10.919-4.454-4.255 0-7.856 1.484-10.804 4.454-3.025 3.072-4.537 6.707-4.537 10.906s1.511 7.808 4.537 10.828c3.024 3.022 6.625 4.532 10.804 4.532 4.229 0 7.895-1.523 10.996-4.569 2.922-2.893 4.384-6.49 4.384-10.791s-1.487-7.937-4.461-10.906zM24.977 24.794c-2.538 2.509-5.524 3.762-8.958 3.762s-6.396-1.241-8.882-3.725c-2.486-2.483-3.729-5.427-3.729-8.831 0-1.44 0.227-2.801 0.677-4.085l4.070 1.801h-0.293v1.825h1.44c0 0.258-0.026 0.515-0.026 0.772v0.438h-1.415v1.825h1.672c0.232 1.363 0.746 2.468 1.44 3.343 1.44 1.903 3.754 2.932 6.274 2.932 1.646 0 3.137-0.488 4.012-0.978l-0.618-2.854c-0.54 0.283-1.747 0.668-2.931 0.668-1.286 0-2.494-0.385-3.317-1.312-0.386-0.437-0.668-1.028-0.848-1.8h5.59l7.943 3.516c-0.55 0.975-1.249 1.876-2.102 2.701zM14.987 16.751l-0.034-0.026 0.058 0.026h-0.024zM19.769 15.542h0.23v-1.825h-4.354l-1.769-0.783c0.152-0.342 0.332-0.648 0.542-0.888 0.797-0.979 1.928-1.389 3.163-1.389 1.132 0 2.185 0.334 2.854 0.617l0.72-2.932c-0.926-0.411-2.288-0.771-3.857-0.771-2.417 0-4.474 0.977-5.94 2.622-0.325 0.376-0.607 0.798-0.863 1.244l-5.051-2.235c0.489-0.734 1.065-1.439 1.732-2.111 2.41-2.458 5.357-3.687 8.843-3.687s6.446 1.229 8.882 3.687c2.46 2.432 3.69 5.401 3.69 8.909 0 1.156-0.131 2.246-0.39 3.274l-8.432-3.732z"></path>
</svg>
