<!-- Generated by IcoMoon.io -->
<svg version="1.1" xmlns="http://www.w3.org/2000/svg" width="32" height="32" viewBox="0 0 32 32">
<title>currency-dollar</title>
<path d="M16 32c-8.837 0-16-7.163-16-16s7.163-16 16-16v0c8.837 0 16 7.163 16 16s-7.163 16-16 16v0zM17.6 24h1.6c2.651 0 4.8-2.149 4.8-4.8s-2.149-4.8-4.8-4.8v0h-6.416c-0.884 0-1.6-0.716-1.6-1.6s0.716-1.6 1.6-1.6v0h9.616v-3.2h-4.8v-3.2h-3.2v3.2h-1.6c-2.651 0-4.8 2.149-4.8 4.8s2.149 4.8 4.8 4.8v0h6.4c0.884 0 1.6 0.716 1.6 1.6s-0.716 1.6-1.6 1.6v0h-9.6v3.2h4.8v3.2h3.2v-3.2z"></path>
</svg>
