<!-- Generated by IcoMoon.io -->
<svg version="1.1" xmlns="http://www.w3.org/2000/svg" width="32" height="32" viewBox="0 0 32 32">
<title>dashboard1</title>
<path d="M16 32c-8.837 0-16-7.163-16-16s7.163-16 16-16v0c8.837 0 16 7.163 16 16s-7.163 16-16 16v0zM7.040 25.136c2.509-1.729 5.614-2.761 8.96-2.761s6.451 1.032 9.014 2.796l-0.054-0.035c2.371-2.325 3.84-5.561 3.84-9.141 0-7.069-5.731-12.8-12.8-12.8s-12.8 5.731-12.8 12.8c0 3.58 1.469 6.816 3.838 9.139l0.002 0.002zM16.832 12.912l4.832-4.832 2.256 2.256-4.832 4.832c0.070 0.25 0.11 0.537 0.11 0.834 0 1.767-1.433 3.2-3.2 3.2s-3.2-1.433-3.2-3.2c0-1.767 1.433-3.2 3.2-3.2 0.297 0 0.584 0.040 0.856 0.116l-0.023-0.005z"></path>
</svg>
