<!-- Generated by IcoMoon.io -->
<svg version="1.1" xmlns="http://www.w3.org/2000/svg" width="45" height="32" viewBox="0 0 45 32">
<title>dglasses</title>
<path d="M12.937 6.532c2.043 0 2.553 1.021 3.914 0.85 1.361-0.17 0.17-2.552-1.021-4.253s-3.912-0.85-5.955 0.341c-2.041 1.191-12.887 7.784-12.887 7.784h9.485c0-0.001 4.423-4.722 6.465-4.722zM-3.056 12.485v15.483c0 1.315 1.066 2.382 2.382 2.382 0 0 9.182 0 19.154 0 1.789 0 3.424-5.558 5.261-5.558 1.595 0 2.794 5.558 4.366 5.558 10.591 0 20.048 0 20.048 0 1.316 0 2.383-1.067 2.383-2.382v-15.483h-53.594zM18.382 23.205c0 1.972-1.601 3.573-3.573 3.573h-10.719c-1.973 0-3.573-1.601-3.573-3.573v-3.573c0-1.973 1.599-3.573 3.573-3.573h10.719c1.972 0 3.573 1.599 3.573 3.573v3.573zM46.965 23.205c0 1.972-1.601 3.573-3.573 3.573h-10.719c-1.973 0-3.573-1.601-3.573-3.573v-3.573c0-1.973 1.599-3.573 3.573-3.573h10.719c1.972 0 3.573 1.599 3.573 3.573v3.573zM30.631 7.382c1.361 0.17 1.871-0.85 3.914-0.85 2.041 0 6.466 4.721 6.466 4.721h9.485c0 0-10.846-6.593-12.888-7.784-2.043-1.191-4.764-2.041-5.955-0.341s-2.382 4.084-1.022 4.254z"></path>
</svg>
