<!-- Generated by IcoMoon.io -->
<svg version="1.1" xmlns="http://www.w3.org/2000/svg" width="32" height="32" viewBox="0 0 32 32">
<title>discout</title>
<path d="M33.938 16c0 2.531-1.461 4.677-3.633 5.528v2.775c0 0.655-0.531 1.186-1.185 1.186h-27.432c-0.656 0-1.186-0.531-1.186-1.186v-2.775c-2.172-0.852-3.632-2.998-3.632-5.528s1.461-4.677 3.634-5.528v-2.775c0-0.656 0.53-1.186 1.186-1.186h27.432c0.654 0 1.185 0.53 1.185 1.186v2.775c2.171 0.852 3.631 2.998 3.631 5.528zM11.179 16h-4.745v1.186h4.745v-1.186zM16.812 11.955c-0.335-0.368-0.794-0.551-1.378-0.551-0.58 0-1.037 0.183-1.371 0.551-0.335 0.367-0.503 0.931-0.503 1.694 0 0.766 0.168 1.332 0.503 1.7 0.333 0.367 0.573 0.55 1.166 0.55 0.572 0 1.249-0.183 1.584-0.55 0.333-0.368 0.501-0.934 0.501-1.7-0.001-0.762-0.169-1.328-0.503-1.694zM20.847 11.218l-6.086 9.554h1.205l6.056-9.554h-1.175zM22.742 16.699c-0.333-0.367-0.794-0.55-1.378-0.55-0.579 0-1.037 0.183-1.372 0.55-0.333 0.368-0.5 0.931-0.5 1.694 0 0.766 0.167 1.333 0.5 1.7 0.335 0.368 0.798 0.551 1.391 0.551 0.572 0 1.025-0.183 1.36-0.551 0.333-0.367 0.501-0.934 0.501-1.7-0.001-0.762-0.169-1.326-0.503-1.694zM21.353 19.725c-0.172 0-0.305-0.073-0.401-0.216-0.127-0.187-0.192-0.559-0.192-1.115s0.064-0.929 0.192-1.119c0.093-0.139 0.226-0.211 0.401-0.211s0.311 0.071 0.407 0.211c0.124 0.191 0.186 0.565 0.186 1.119s-0.064 0.929-0.192 1.119c-0.093 0.141-0.226 0.211-0.401 0.211zM15.424 14.982c-0.171 0-0.305-0.073-0.401-0.217-0.127-0.187-0.192-0.559-0.192-1.115s0.064-0.929 0.192-1.12c0.093-0.139 0.226-0.21 0.401-0.21s0.31 0.070 0.407 0.21c0.124 0.191 0.186 0.565 0.186 1.12s-0.064 0.929-0.192 1.12c-0.094 0.141-0.227 0.212-0.401 0.212z"></path>
</svg>
