<!-- Generated by IcoMoon.io -->
<svg version="1.1" xmlns="http://www.w3.org/2000/svg" width="32" height="32" viewBox="0 0 32 32">
<title>dollar</title>
<path d="M-3.056 26.719v-21.438h38.111v21.438h-38.111zM-0.674 7.589v16.747h33.347v-16.747h-33.347zM21.955 16c0-3.946-2.665-7.146-5.955-7.146h15.483v14.292h-15.483c3.289 0 5.955-3.2 5.955-7.146zM26.719 18.382c0.986 0 1.786-1.067 1.786-2.382s-0.8-2.382-1.786-2.382-1.786 1.067-1.786 2.382 0.8 2.382 1.786 2.382zM18.522 12.996c-0.018 0.065-0.043 0.112-0.074 0.142-0.032 0.030-0.075 0.044-0.13 0.044s-0.141-0.033-0.261-0.102c-0.119-0.070-0.266-0.144-0.438-0.225-0.174-0.081-0.374-0.155-0.603-0.223-0.229-0.067-0.479-0.099-0.751-0.099-0.214 0-0.4 0.025-0.559 0.077-0.158 0.051-0.292 0.124-0.398 0.214-0.107 0.092-0.186 0.203-0.238 0.33-0.051 0.127-0.077 0.264-0.077 0.407 0 0.214 0.058 0.399 0.175 0.555s0.273 0.295 0.469 0.417c0.197 0.123 0.418 0.236 0.667 0.342 0.247 0.107 0.5 0.22 0.759 0.338 0.258 0.12 0.511 0.255 0.759 0.406 0.249 0.151 0.47 0.332 0.663 0.543s0.349 0.459 0.469 0.743c0.119 0.286 0.177 0.621 0.177 1.009 0 0.506-0.093 0.949-0.281 1.332-0.189 0.381-0.444 0.7-0.768 0.955-0.323 0.256-0.699 0.448-1.13 0.576-0.055 0.017-0.114 0.024-0.17 0.037v1.301h-1.171v-1.147c-0.015 0-0.029 0.002-0.043 0.002-0.332 0-0.642-0.026-0.927-0.080-0.286-0.055-0.537-0.12-0.755-0.195-0.219-0.076-0.4-0.156-0.547-0.239s-0.251-0.157-0.316-0.222c-0.064-0.064-0.111-0.157-0.138-0.279-0.027-0.123-0.042-0.297-0.042-0.525 0-0.154 0.005-0.282 0.015-0.387s0.026-0.188 0.049-0.254 0.051-0.111 0.089-0.138c0.037-0.026 0.080-0.040 0.13-0.040 0.069 0 0.167 0.040 0.294 0.123 0.126 0.082 0.289 0.173 0.487 0.272 0.199 0.1 0.435 0.189 0.711 0.273 0.275 0.081 0.594 0.123 0.956 0.123 0.238 0 0.451-0.029 0.64-0.086s0.349-0.137 0.48-0.242 0.231-0.233 0.301-0.387c0.070-0.155 0.105-0.325 0.105-0.516 0-0.218-0.061-0.405-0.179-0.562-0.119-0.156-0.274-0.294-0.466-0.417-0.191-0.121-0.407-0.235-0.65-0.342s-0.493-0.22-0.751-0.338c-0.257-0.119-0.509-0.254-0.751-0.406-0.243-0.151-0.46-0.331-0.65-0.542s-0.347-0.461-0.464-0.748c-0.119-0.287-0.179-0.632-0.179-1.034 0-0.462 0.086-0.867 0.256-1.216 0.171-0.349 0.401-0.64 0.692-0.869s0.632-0.403 1.027-0.517c0.203-0.060 0.412-0.101 0.626-0.13v-1.231h1.171v1.231c0.046 0.006 0.093 0.004 0.139 0.011 0.227 0.035 0.442 0.081 0.64 0.141 0.199 0.058 0.374 0.124 0.529 0.199 0.154 0.074 0.255 0.135 0.305 0.185 0.050 0.049 0.082 0.091 0.101 0.125 0.017 0.035 0.031 0.081 0.044 0.138 0.012 0.057 0.021 0.129 0.025 0.217 0.005 0.086 0.007 0.194 0.007 0.323 0 0.144-0.004 0.267-0.011 0.367-0.011 0.094-0.023 0.177-0.040 0.242zM10.045 16c0 3.946 2.665 7.146 5.955 7.146h-15.483v-14.292h15.483c-3.289 0-5.955 3.2-5.955 7.146zM5.281 13.618c-0.987 0-1.786 1.067-1.786 2.382s0.799 2.382 1.786 2.382c0.986 0 1.786-1.067 1.786-2.382s-0.8-2.382-1.786-2.382z"></path>
</svg>
