<!-- Generated by IcoMoon.io -->
<svg version="1.1" xmlns="http://www.w3.org/2000/svg" width="38" height="32" viewBox="0 0 38 32">
<title>dollar1</title>
<path d="M39.822 24.349l0.068-20.352-36.98 0.023-0.001-2.334h39.293v22.665l-2.38-0.001zM38.623 27.93l-2.378-0.002 0.068-20.352-36.98 0.024-0.001-2.334h39.293v22.665zM35.119 30.316h-38.174v-21.473h38.174v21.473zM32.732 11.154h-33.402v16.776h33.401v-16.776zM29.154 26.141c0 0.211 0.052 0.407 0.12 0.596h-13.244c3.294 0 5.966-3.204 5.966-7.158s-2.671-7.158-5.966-7.158h13.242c-0.068 0.188-0.12 0.385-0.12 0.597 0 0.989 0.8 1.789 1.789 1.789 0.212 0 0.408-0.052 0.597-0.12v9.784c-0.188-0.067-0.385-0.12-0.597-0.12-0.987 0.001-1.788 0.803-1.788 1.791zM26.768 17.094c-0.989 0-1.789 1.067-1.789 2.386s0.8 2.386 1.789 2.386 1.789-1.067 1.789-2.386-0.8-2.386-1.789-2.386zM18.528 15.278c0.018 0.035 0.032 0.081 0.044 0.138 0.013 0.057 0.021 0.13 0.025 0.217 0.006 0.087 0.008 0.195 0.008 0.325 0 0.144-0.004 0.267-0.011 0.366-0.008 0.1-0.021 0.182-0.037 0.247-0.019 0.065-0.043 0.113-0.074 0.142-0.032 0.030-0.076 0.045-0.131 0.045s-0.141-0.035-0.261-0.104c-0.12-0.070-0.267-0.144-0.439-0.225s-0.375-0.156-0.604-0.223-0.479-0.1-0.753-0.1c-0.214 0-0.4 0.025-0.559 0.077-0.16 0.052-0.293 0.124-0.399 0.216-0.107 0.092-0.187 0.202-0.238 0.33-0.052 0.129-0.079 0.266-0.079 0.408 0 0.214 0.058 0.399 0.175 0.556 0.117 0.156 0.273 0.295 0.47 0.417 0.197 0.123 0.419 0.236 0.667 0.343s0.501 0.22 0.76 0.338c0.258 0.12 0.512 0.255 0.761 0.407 0.249 0.151 0.47 0.332 0.663 0.543 0.194 0.212 0.351 0.46 0.47 0.746s0.179 0.622 0.179 1.010c0 0.506-0.095 0.952-0.283 1.333-0.188 0.382-0.444 0.703-0.768 0.959s-0.7 0.448-1.133 0.576c-0.055 0.017-0.114 0.024-0.17 0.037v1.303h-1.173v-1.149c-0.015 0-0.029 0.004-0.044 0.004-0.332 0-0.642-0.027-0.928-0.081-0.286-0.055-0.538-0.12-0.756-0.195-0.219-0.076-0.401-0.157-0.548-0.241-0.148-0.083-0.252-0.157-0.317-0.222s-0.111-0.157-0.138-0.279-0.042-0.298-0.042-0.526c0-0.154 0.005-0.283 0.015-0.387 0.010-0.105 0.026-0.189 0.049-0.255 0.023-0.064 0.052-0.111 0.089-0.138 0.037-0.026 0.081-0.040 0.13-0.040 0.070 0 0.168 0.040 0.295 0.124 0.126 0.081 0.289 0.173 0.488 0.272s0.436 0.189 0.712 0.272c0.275 0.082 0.596 0.124 0.958 0.124 0.238 0 0.453-0.029 0.641-0.086 0.189-0.057 0.349-0.138 0.481-0.242 0.131-0.105 0.231-0.235 0.301-0.388 0.070-0.155 0.105-0.326 0.105-0.516 0-0.219-0.061-0.407-0.179-0.563-0.119-0.157-0.274-0.295-0.466-0.418-0.192-0.121-0.408-0.236-0.651-0.342-0.244-0.107-0.494-0.22-0.753-0.339s-0.51-0.255-0.753-0.406c-0.243-0.151-0.461-0.332-0.651-0.544-0.191-0.211-0.347-0.461-0.466-0.748-0.119-0.288-0.179-0.634-0.179-1.036 0-0.462 0.086-0.868 0.257-1.217 0.171-0.35 0.403-0.641 0.693-0.872 0.291-0.23 0.634-0.404 1.028-0.518 0.202-0.058 0.412-0.101 0.628-0.13v-1.233h1.173v1.233c0.046 0.006 0.093 0.004 0.139 0.011 0.229 0.035 0.443 0.081 0.642 0.141 0.198 0.060 0.374 0.125 0.528 0.2 0.155 0.074 0.256 0.135 0.307 0.185 0.046 0.044 0.080 0.086 0.098 0.121zM10.067 19.579c0 3.953 2.67 7.158 5.964 7.158h-13.242c0.067-0.188 0.12-0.385 0.12-0.596 0-0.989-0.801-1.79-1.789-1.79-0.212 0-0.408 0.054-0.597 0.12v-9.784c0.188 0.068 0.385 0.12 0.597 0.12 0.989 0 1.789-0.8 1.789-1.789 0-0.212-0.054-0.408-0.12-0.597h13.242c-3.294-0.001-5.964 3.204-5.964 7.157zM5.294 17.094c-0.989 0-1.789 1.067-1.789 2.386s0.801 2.386 1.789 2.386c0.989 0 1.789-1.067 1.789-2.386s-0.8-2.386-1.789-2.386z"></path>
</svg>
