<!-- Generated by IcoMoon.io -->
<svg version="1.1" xmlns="http://www.w3.org/2000/svg" width="32" height="32" viewBox="0 0 32 32">
<title>dots-horizontal-triple</title>
<path d="M16 19.2c-1.767 0-3.2-1.433-3.2-3.2s1.433-3.2 3.2-3.2v0c1.767 0 3.2 1.433 3.2 3.2s-1.433 3.2-3.2 3.2v0zM16 9.6c-1.767 0-3.2-1.433-3.2-3.2s1.433-3.2 3.2-3.2v0c1.767 0 3.2 1.433 3.2 3.2s-1.433 3.2-3.2 3.2v0zM16 28.8c-1.767 0-3.2-1.433-3.2-3.2s1.433-3.2 3.2-3.2v0c1.767 0 3.2 1.433 3.2 3.2s-1.433 3.2-3.2 3.2v0z"></path>
</svg>
