<!-- Generated by IcoMoon.io -->
<svg version="1.1" xmlns="http://www.w3.org/2000/svg" width="32" height="32" viewBox="0 0 32 32">
<title>download</title>
<path d="M22.669 6.472h-13.101l-7.86 10.719v5.955c0 1.315 1.067 2.382 2.382 2.382h23.819c1.315 0 2.382-1.067 2.382-2.382v-5.955l-7.622-10.719zM23.7 17.218l-2.444 3.575-10.228-0.024-2.623-3.566-4.866-0.029 6.743-9.498h11.673l6.669 9.498-4.925 0.043zM17.638 10.045c0-0.657-0.385-1.191-1.042-1.191-0.659 0-1.117 0.534-1.117 1.191v4.69l-2.902 0.074 4.020 4.54 3.945-4.54-2.904-0.074v-4.69z"></path>
</svg>
