<!-- Generated by IcoMoon.io -->
<svg version="1.1" xmlns="http://www.w3.org/2000/svg" width="32" height="32" viewBox="0 0 32 32">
<title>drink3</title>
<path d="M28.579 6.497l-12.5 10.972v14.219l6.956 3.367h-16.303l6.958-3.366v-14.22l-12.651-10.972h19.296l3.862-6.692 1.039 0.599-3.517 6.092h6.86zM25.66 7.622l-4.601 0.018-1.417 2.456h3.269l2.749-2.474zM16.079 14.891c0.704 0 1.273-0.57 1.273-1.274s-0.57-1.274-1.273-1.274-1.274 0.57-1.274 1.274c0 0.705 0.572 1.274 1.274 1.274zM3.959 7.622l2.771 2.474h11.527l1.415-2.45-15.714-0.024z"></path>
</svg>
