<!-- Generated by IcoMoon.io -->
<svg version="1.1" xmlns="http://www.w3.org/2000/svg" width="32" height="32" viewBox="0 0 32 32">
<title>drink</title>
<path d="M24.402 7.551c0.663 0 1.2 0.537 1.2 1.2l-2.176 23.93c0 0.663-0.537 1.2-1.201 1.2h-12.454c-0.663 0-1.2-0.537-1.2-1.2l-2.174-23.93c0-0.663 0.537-1.2 1.2-1.2h10.731l1.27-6.474 5.763-2.96-0.414 1.546-4.278 2.145-1.117 5.743h4.85zM17.803 15.954h4.798l-1.351 15.528h-10.502l-1.351-15.528h7.18l1.499-7.202h-10.481l2.175 23.93h12.453l2.176-23.93h-5.1l-1.498 7.202z"></path>
</svg>
