<!-- Generated by IcoMoon.io -->
<svg version="1.1" xmlns="http://www.w3.org/2000/svg" width="32" height="32" viewBox="0 0 32 32">
<title>drink1</title>
<path d="M26.078 7.641h-21.401l0.021-2.303h1.71l3.619-3.567h10.849l3.546 3.567h1.71l-0.055 2.303zM17.235 4.149h-3.567v1.189h3.567v-1.189zM24.167 17.227h-4.022c-0.887-1.728-2.667-2.923-4.742-2.923s-3.855 1.195-4.741 2.923h-3.952l-0.769-8.322h19.023l-0.797 8.322zM12.479 19.604c0-1.641 1.33-2.973 2.973-2.973 1.641 0 2.972 1.332 2.972 2.973s-1.33 2.973-2.971 2.973c-1.642 0-2.973-1.332-2.973-2.973zM15.402 25.005c2.137 0 3.966-1.261 4.823-3.072h3.491l-0.908 9.487h-14.787l-0.877-9.487h3.435c0.857 1.81 2.686 3.072 4.822 3.072z"></path>
</svg>
