<!-- Generated by IcoMoon.io -->
<svg version="1.1" xmlns="http://www.w3.org/2000/svg" width="32" height="32" viewBox="0 0 32 32">
<title>duplicate</title>
<path d="M9.6 9.6v-6.4c0-1.76 1.44-3.2 3.2-3.2h16c1.767 0 3.2 1.433 3.2 3.2v0 16c0 1.767-1.433 3.2-3.2 3.2v0h-6.4v6.4c0 1.767-1.433 3.2-3.2 3.2v0h-16c-1.767 0-3.2-1.433-3.2-3.2v0-16c0-1.76 1.44-3.2 3.2-3.2h6.4zM12.8 9.6h6.4c1.767 0 3.2 1.433 3.2 3.2v0 6.4h6.4v-16h-16v6.4zM3.2 12.8v16h16v-16h-16zM9.6 19.2v-3.2h3.2v3.2h3.2v3.2h-3.2v3.2h-3.2v-3.2h-3.2v-3.2h3.2z"></path>
</svg>
