<!-- Generated by IcoMoon.io -->
<svg version="1.1" xmlns="http://www.w3.org/2000/svg" width="32" height="32" viewBox="0 0 32 32">
<title>edit</title>
<path d="M9.665 18.628l-2.631 6.753 6.636-2.748-4.005-4.005zM28.928 4.206l-0.842-0.842c-0.929-0.93-2.438-0.93-3.368 0l-1.684 1.684 4.21 4.211 1.684-1.684c0.931-0.93 0.931-2.439 0-3.369zM9.799 18.284l0.603-0.603 4.21 4.21 11.791-11.791-4.21-4.21 0.842-0.843-13.235 13.236zM24.342 27.915l-20.277 0.007 0.004-20.277 14.198-0.005 2.225-2.358h-17.632c-0.657 0-1.191 0.532-1.191 1.191v22.628c0 0.659 0.534 1.191 1.191 1.191h22.628c0.659 0 1.191-0.532 1.191-1.191v-16.743l-2.4 2.355 0.064 13.202z"></path>
</svg>
