<!-- Generated by IcoMoon.io -->
<svg version="1.1" xmlns="http://www.w3.org/2000/svg" width="32" height="32" viewBox="0 0 32 32">
<title>edit-cut</title>
<path d="M15.632 18.4l8.544 6.256c0.704 0.528 1.984 0.944 2.864 0.944h4.96l-20.976-15.392c0.116-0.425 0.182-0.913 0.182-1.416 0-3.093-2.507-5.6-5.6-5.6s-5.6 2.507-5.6 5.6c0 3.093 2.507 5.6 5.6 5.6 1.195 0 2.303-0.374 3.212-1.012l-0.018 0.012 3.568 2.608-3.568 2.608c-0.895-0.634-2.010-1.014-3.214-1.014-3.093 0-5.6 2.507-5.6 5.6s2.507 5.6 5.6 5.6c3.093 0 5.6-2.507 5.6-5.6 0-0.498-0.065-0.981-0.187-1.441l0.009 0.039 4.64-3.392zM5.6 11.2c-1.325 0-2.4-1.075-2.4-2.4s1.075-2.4 2.4-2.4v0c1.325 0 2.4 1.075 2.4 2.4s-1.075 2.4-2.4 2.4v0zM5.6 25.6c-1.325 0-2.4-1.075-2.4-2.4s1.075-2.4 2.4-2.4v0c1.325 0 2.4 1.075 2.4 2.4s-1.075 2.4-2.4 2.4v0zM24.16 7.344c0.812-0.548 1.801-0.894 2.867-0.944l0.013-0h4.96l-12 8.8-3.28-2.4 7.44-5.456z"></path>
</svg>
