<!-- Generated by IcoMoon.io -->
<svg version="1.1" xmlns="http://www.w3.org/2000/svg" width="32" height="32" viewBox="0 0 32 32">
<title>eightball</title>
<path d="M16 1.708c-7.894 0-14.292 6.399-14.292 14.292s6.398 14.292 14.292 14.292c7.893 0 14.292-6.399 14.292-14.292s-6.399-14.292-14.292-14.292zM16 23.815c-4.276 0-7.741-3.466-7.741-7.741s3.466-7.741 7.741-7.741 7.741 3.466 7.741 7.741-3.466 7.741-7.741 7.741zM16.992 15.719c0.338-0.126 0.592-0.307 0.759-0.541s0.25-0.509 0.25-0.824c0-0.495-0.181-0.916-0.544-1.26-0.362-0.345-0.84-0.518-1.435-0.518-0.592 0-1.066 0.169-1.421 0.506-0.357 0.337-0.535 0.754-0.535 1.248 0 0.328 0.083 0.609 0.254 0.844 0.168 0.235 0.428 0.417 0.777 0.543-0.419 0.11-0.742 0.313-0.968 0.612-0.226 0.3-0.341 0.672-0.341 1.116 0 0.596 0.206 1.093 0.619 1.492 0.412 0.398 0.955 0.598 1.628 0.598 0.672 0 1.216-0.199 1.628-0.596 0.412-0.398 0.619-0.889 0.619-1.471 0-0.422-0.11-0.785-0.329-1.090s-0.541-0.524-0.961-0.661zM14.931 14.302c0-0.283 0.104-0.528 0.312-0.731 0.207-0.204 0.472-0.306 0.791-0.306 0.317 0 0.579 0.104 0.788 0.313 0.21 0.208 0.314 0.466 0.314 0.771 0 0.293-0.102 0.541-0.305 0.743s-0.466 0.304-0.788 0.304c-0.332 0-0.6-0.102-0.805-0.306s-0.307-0.466-0.307-0.787zM17.028 18.461c-0.258 0.258-0.587 0.386-0.989 0.386-0.256 0-0.497-0.061-0.719-0.183-0.224-0.123-0.392-0.295-0.503-0.519s-0.167-0.455-0.167-0.693c0-0.391 0.127-0.717 0.383-0.977s0.581-0.391 0.977-0.391c0.405 0 0.74 0.132 1.005 0.395s0.398 0.598 0.398 1c0.001 0.398-0.129 0.725-0.386 0.981z"></path>
</svg>
