<!-- Generated by IcoMoon.io -->
<svg version="1.1" xmlns="http://www.w3.org/2000/svg" width="32" height="32" viewBox="0 0 32 32">
<title>equalizer</title>
<path d="M4.090 30.292h3.573v-10.719h-3.573v10.719zM18.382 18.382h-5.955c-0.659 0-1.191 0.532-1.191 1.191v3.573c0 0.657 0.532 1.191 1.191 1.191h5.955c0.657 0 1.191-0.534 1.191-1.191v-3.573c0-0.659-0.534-1.191-1.191-1.191zM13.655 23.109h-1.191v-3.499h1.191v3.499zM15.963 23.109h-1.191v-3.499h1.191v3.499zM18.419 23.109h-1.191v-3.499h1.191v3.499zM17.191 1.708h-3.573v15.483h3.573v-15.483zM26.719 1.708h-3.573v5.955h3.573v-5.955zM7.663 1.708h-3.573v9.528h3.573v-9.528zM23.146 30.292h3.573v-14.292h-3.573v14.292zM13.618 30.292h3.573v-4.764h-3.573v4.764zM8.854 12.427h-5.955c-0.659 0-1.191 0.532-1.191 1.191v3.573c0 0.657 0.532 1.191 1.191 1.191h5.955c0.657 0 1.191-0.534 1.191-1.191v-3.573c0-0.659-0.534-1.191-1.191-1.191zM4.127 17.154h-1.191v-3.499h1.191v3.499zM6.509 17.154h-1.191v-3.499h1.191v3.499zM8.891 17.154h-1.191v-3.499h1.191v3.499zM27.91 8.854h-5.955c-0.659 0-1.191 0.532-1.191 1.191v3.573c0 0.657 0.532 1.191 1.191 1.191h5.955c0.657 0 1.191-0.534 1.191-1.191v-3.573c0-0.659-0.534-1.191-1.191-1.191zM23.183 13.581h-1.191v-3.499h1.191v3.499zM25.491 13.581h-1.191v-3.499h1.191v3.499zM27.947 13.581h-1.191v-3.499h1.191v3.499z"></path>
</svg>
