<!-- Generated by IcoMoon.io -->
<svg version="1.1" xmlns="http://www.w3.org/2000/svg" width="32" height="32" viewBox="0 0 32 32">
<title>error</title>
<path d="M28.505 29.101h-3.573c-0.329 0-0.596-0.267-0.596-0.596s0.267-0.596 0.596-0.596h2.977v-2.977c0-0.329 0.267-0.596 0.596-0.596 0.328 0 0.596 0.267 0.596 0.596v3.573c0 0.329-0.268 0.596-0.596 0.596zM28.505 21.955c-0.329 0-0.596-0.267-0.596-0.596v-3.573c0-0.329 0.267-0.596 0.596-0.596 0.328 0 0.596 0.267 0.596 0.596v3.573c0 0.329-0.268 0.596-0.596 0.596zM28.505 14.809c-0.329 0-0.596-0.267-0.596-0.595v-3.573c0-0.329 0.267-0.595 0.596-0.595 0.328 0 0.596 0.267 0.596 0.595v3.573c0 0.329-0.268 0.595-0.596 0.595zM28.505 7.663c-0.329 0-0.596-0.267-0.596-0.596v-2.977h-2.977c-0.329 0-0.596-0.267-0.596-0.596s0.267-0.595 0.596-0.595h3.573c0.328 0 0.596 0.267 0.596 0.595v3.573c0 0.329-0.268 0.596-0.596 0.596zM21.359 29.101h-3.573c-0.329 0-0.596-0.267-0.596-0.596s0.267-0.596 0.596-0.596h3.573c0.328 0 0.596 0.267 0.596 0.596s-0.268 0.596-0.596 0.596zM21.359 4.090h-3.573c-0.329 0-0.596-0.267-0.596-0.596s0.267-0.595 0.596-0.595h3.573c0.328 0 0.596 0.267 0.596 0.595s-0.268 0.596-0.596 0.596zM14.214 4.090h-3.573c-0.329 0-0.595-0.267-0.595-0.596s0.267-0.595 0.595-0.595h3.573c0.328 0 0.595 0.267 0.595 0.595s-0.268 0.596-0.595 0.596zM7.068 29.101h-3.573c-0.329 0-0.595-0.267-0.595-0.596v-3.573c0-0.329 0.267-0.596 0.595-0.596s0.596 0.267 0.596 0.596v2.977h2.977c0.329 0 0.596 0.267 0.596 0.596s-0.267 0.596-0.596 0.596zM7.068 4.090h-2.977v2.977c0 0.329-0.267 0.596-0.596 0.596s-0.595-0.267-0.595-0.596v-3.573c0-0.329 0.267-0.595 0.595-0.595h3.573c0.329 0 0.596 0.267 0.596 0.595s-0.267 0.596-0.596 0.596zM3.495 10.045c0.329 0 0.596 0.267 0.596 0.595v3.573c0 0.329-0.267 0.595-0.596 0.595s-0.595-0.267-0.595-0.595v-3.573c0-0.329 0.267-0.595 0.595-0.595zM3.495 17.191c0.329 0 0.596 0.267 0.596 0.596v3.573c0 0.329-0.267 0.596-0.596 0.596s-0.595-0.267-0.595-0.596v-3.573c0-0.329 0.267-0.596 0.595-0.596zM21.64 20.434l-1.208 1.208c-0.222 0.223-0.581 0.223-0.804 0l-3.418-3.418-3.418 3.418c-0.223 0.223-0.581 0.223-0.804 0l-1.206-1.208c-0.223-0.223-0.223-0.581 0-0.804l3.419-3.418-3.419-3.418c-0.223-0.222-0.223-0.581 0-0.804l1.206-1.206c0.223-0.223 0.581-0.223 0.804 0l3.418 3.418 3.418-3.418c0.223-0.223 0.582-0.223 0.804 0l1.208 1.206c0.222 0.223 0.222 0.582 0 0.804l-3.419 3.418 3.419 3.418c0.222 0.222 0.222 0.581 0 0.804zM10.641 27.91h3.573c0.328 0 0.595 0.267 0.595 0.596s-0.268 0.596-0.595 0.596h-3.573c-0.329 0-0.595-0.267-0.595-0.596s0.267-0.596 0.595-0.596z"></path>
</svg>
