<!-- Generated by IcoMoon.io -->
<svg version="1.1" xmlns="http://www.w3.org/2000/svg" width="32" height="32" viewBox="0 0 32 32">
<title>evernote</title>
<path d="M27.742 6.891c0-1.84-2.771-2.043-2.771-2.043l-6.51-0.41c0 0-0.139-1.771-1.454-2.387-1.315-0.613-2.762-0.426-3.802-0.416-1.040 0.011-1.285 1.336-1.285 2.587 0 1.25 0.022 2.694 0.022 3.6 0 1.629-0.715 2.318-2.506 2.318h-3.691c-1.032-0.066-1.835 0.102-1.835 0.938 0 0.837 1.214 7.957 2.882 9.6 0.968 0.954 6.888 1.622 8.134 1.622s0.83-3.682 1.178-3.682c0.347 0 0.726 2.078 2.691 2.565 1.962 0.491 4.582 0.4 4.722 1.797 0.181 1.843 0.347 4.227-0.866 4.397l-2.746 0.109c-1.882-0.134-1.376-2.19-0.546-2.19s1.246-0.030 1.246-0.030l0.104-2.25c0 0-4.309-0.509-4.491 2.397-0.168 2.656 0.288 3.909 0.622 4.181 0.334 0.275 0.914 0.806 6.19 0.806 7.435 0 4.71-21.669 4.71-23.509zM24.704 16.512c-0.291 0.314-1.347-0.512-2.355-0.512-1.010 0-2.098 0.534-2.354 0.181-0.256-0.35 0.234-3.184 2.134-3.184s2.869 3.206 2.574 3.515z"></path>
<path d="M9.286 6.666c0-0.366 0.093-4.774 0.093-4.774l-5.608 5.504c0 0 3.875 0 4.637 0 0.762-0.002 0.878-0.366 0.878-0.73z"></path>
</svg>
