<!-- Generated by IcoMoon.io -->
<svg version="1.1" xmlns="http://www.w3.org/2000/svg" width="32" height="32" viewBox="0 0 32 32">
<title>expand</title>
<path d="M13.399 4.077l-9.272 0.055 0.004 9.212 3.085-3.086 4.114 4.114 3.174-3.174-4.112-4.114 3.008-3.007zM11.33 17.608l-4.114 4.115-3.085-3.087-0.004 9.288 9.272-0.021-3.008-3.007 4.114-4.112-3.175-3.175zM20.671 14.372l4.112-4.114 3.085 3.086 0.005-9.212-9.272-0.055 3.008 3.007-4.114 4.114 3.175 3.174zM24.783 21.723l-4.112-4.115-3.175 3.175 4.114 4.112-3.008 3.007 9.272 0.021-0.005-9.288-3.085 3.087z"></path>
</svg>
