<!-- Generated by IcoMoon.io -->
<svg version="1.1" xmlns="http://www.w3.org/2000/svg" width="35" height="32" viewBox="0 0 35 32">
<title>eye1</title>
<path d="M17.384 2.114c-12.579 0-20.439 13.886-20.439 13.886s7.785 13.886 20.439 13.886c11.836 0 20.819-13.886 20.819-13.886s-8.91-13.886-20.819-13.886zM17.496 22.254c-3.447 0-6.238-2.793-6.238-6.238s2.793-6.239 6.238-6.239 6.239 2.794 6.239 6.239-2.794 6.238-6.239 6.238zM17.534 12.896c-1.715 0-3.105 1.391-3.105 3.105 0 1.715 1.39 3.105 3.105 3.105s3.105-1.39 3.105-3.105c0.001-1.714-1.389-3.105-3.105-3.105z"></path>
</svg>
