<!-- Generated by IcoMoon.io -->
<svg version="1.1" xmlns="http://www.w3.org/2000/svg" width="32" height="32" viewBox="0 0 32 32">
<title>eyedropper</title>
<path d="M26.185 13.394l-7.579-7.579c-0.464-0.466-0.464-1.218 0-1.684 0.466-0.466 1.22-0.466 1.685 0l0.842 0.842 3.791-3.79c1.627-1.628 4.266-1.628 5.894 0 1.628 1.627 1.628 4.267 0 5.894l-3.79 3.791 0.842 0.842c0.466 0.466 0.466 1.218 0 1.684s-1.221 0.466-1.685 0zM8.38 29.515c-0.737 0.737-2.578-0.788-3.368 0l-2.001 2.001c-0.697 0.698-1.828 0.698-2.526 0s-0.698-1.828 0-2.526l2.001-2.001c0.79-0.788-0.737-2.631 0-3.368 0.736-0.738 16.106-16.107 16.106-16.107l5.894 5.895c0 0-15.368 15.368-16.106 16.106zM22.802 13.41l-4.21-4.211c0 0-13.685 13.685-14.421 14.423-0.737 0.737 0.737 2.631 0 3.368l-2.843 2.842c-0.232 0.232-0.232 0.61 0 0.842s0.61 0.232 0.842 0l2.843-2.843c0.737-0.737 2.631 0.737 3.368 0s14.421-14.42 14.421-14.42z"></path>
</svg>
