<!-- Generated by IcoMoon.io -->
<svg version="1.1" xmlns="http://www.w3.org/2000/svg" width="32" height="32" viewBox="0 0 32 32">
<title>female</title>
<path d="M18.428 19.241v3.922h4.759v4.759h-4.759v4.759h-4.832v-4.759h-4.758v-4.759h4.758v-3.936c-4.091-1.066-7.114-4.775-7.114-9.198 0-5.256 4.261-9.517 9.517-9.517 5.257 0 9.516 4.261 9.516 9.517 0 4.441-2.973 8.161-7.087 9.212zM16 5.271c-2.628 0-4.759 2.129-4.759 4.758 0 2.627 2.131 4.758 4.759 4.758s4.759-2.131 4.759-4.758c0-2.628-2.131-4.758-4.759-4.758z"></path>
</svg>
