<!-- Generated by IcoMoon.io -->
<svg version="1.1" xmlns="http://www.w3.org/2000/svg" width="32" height="32" viewBox="0 0 32 32">
<title>files</title>
<path d="M17.172 16.056h-9.528v1.079h9.528v-1.079zM17.172 19.629h-9.528v1.154h9.528v-1.154zM11.255 1.727v3.592h-3.611v3.592h-3.517v22.555h16.637v-3.61h3.517v-3.499h3.592v-22.628h-16.618zM19.61 30.311h-14.329v-20.322h14.329v20.322zM23.127 26.775h-2.363v-17.865h-11.966v-2.438h14.329v20.302zM26.719 23.202h-2.438v-17.884h-11.873v-2.438h14.311v20.322zM17.172 26.756h-9.528v1.154h9.528v-1.154zM17.172 23.165h-9.528v1.154h9.528v-1.154zM17.19 12.446h-9.528v1.191h9.528v-1.191z"></path>
</svg>
