<!-- Generated by IcoMoon.io -->
<svg version="1.1" xmlns="http://www.w3.org/2000/svg" width="32" height="32" viewBox="0 0 32 32">
<title>file3</title>
<path d="M10.045 14.809h1.191v-1.191h-1.191v1.191zM10.045 18.382h1.191v-1.191h-1.191v1.191zM10.045 11.236h1.191v-1.191h-1.191v1.191zM10.045 21.955h1.191v-1.191h-1.191v1.191zM10.045 25.528h1.191v-1.191h-1.191v1.191zM12.427 18.382h9.528v-1.191h-9.528v1.191zM12.427 11.236h9.528v-1.191h-9.528v1.191zM21.881 1.708h-16.6v28.583h21.438v-23.819l-4.838-4.764zM24.337 27.836h-16.674v-23.746h11.91v3.499h4.764v20.247zM12.427 21.955h9.528v-1.191h-9.528v1.191zM12.427 14.809h9.528v-1.191h-9.528v1.191zM12.427 25.528h9.528v-1.191h-9.528v1.191z"></path>
</svg>
