<!-- Generated by IcoMoon.io -->
<svg version="1.1" xmlns="http://www.w3.org/2000/svg" width="32" height="32" viewBox="0 0 32 32">
<title>film5</title>
<path d="M0 6.4c0-1.76 1.44-3.2 3.2-3.2h25.6c1.767 0 3.2 1.433 3.2 3.2v0 19.2c0 1.767-1.433 3.2-3.2 3.2v0h-25.6c-1.767 0-3.2-1.433-3.2-3.2v0-19.2zM9.6 6.4v19.2h12.8v-19.2h-12.8zM3.2 8v3.2h3.2v-3.2h-3.2zM3.2 14.4v3.2h3.2v-3.2h-3.2zM3.2 20.8v3.2h3.2v-3.2h-3.2zM25.6 8v3.2h3.2v-3.2h-3.2zM25.6 14.4v3.2h3.2v-3.2h-3.2zM25.6 20.8v3.2h3.2v-3.2h-3.2zM12.8 11.2l8 4.8-8 4.8v-9.6z"></path>
</svg>
