<!-- Generated by IcoMoon.io -->
<svg version="1.1" xmlns="http://www.w3.org/2000/svg" width="32" height="32" viewBox="0 0 32 32">
<title>film3</title>
<path d="M25.528 17.191c-1.316 0-2.382 1.066-2.382 2.382v4.764h-5.955v-16.674h13.101v9.528h-4.764zM19.573 8.854h-1.191v2.382h1.191v-2.382zM19.573 20.764h-1.191v2.382h1.191v-2.382zM21.955 8.854h-1.191v2.382h1.191v-2.382zM21.955 20.764h-1.191v2.382h1.191v-2.382zM24.337 8.854h-1.191v2.382h1.191v-2.382zM26.719 8.854h-1.191v2.382h1.191v-2.382zM29.101 8.854h-1.191v2.382h1.191v-2.382zM1.708 4.090h15.483v2.382h-15.483v-2.382zM16 7.663v16.674h-13.101v-16.674h13.101zM17.191 27.91h-15.483v-2.382h15.483v2.382z"></path>
</svg>
