<!-- Generated by IcoMoon.io -->
<svg version="1.1" xmlns="http://www.w3.org/2000/svg" width="32" height="32" viewBox="0 0 32 32">
<title>film1</title>
<path d="M33.073 28.44c-0.152-0.263-0.641-0.344-1.466-0.241-1.518 0.197-2.621-0.299-3.309-1.49-0.52-0.9-0.655-1.805-0.404-2.715s0.996-2.208 2.232-3.897l0.773-1.077c2.296-3.172 2.767-5.93 1.412-8.277-1.378-2.389-5.359-2.188-8.221-0.96-2.315-4.775-7.193-8.075-12.854-8.075-7.894 0-14.292 6.399-14.292 14.292s6.398 14.292 14.292 14.292c7.893 0 14.292-6.399 14.292-14.292 0-1.75-0.33-3.419-0.905-4.968 0.966-0.347 2.121-0.598 3.211-0.638 1.432-0.052 2.727 0.248 3.242 1.139 1.147 1.988 0.593 4.336-1.661 7.042l-0.462 0.555c-2.637 3.164-3.267 5.936-1.895 8.315 0.555 0.96 1.437 1.645 2.65 2.057 1.212 0.411 2.238 0.372 3.079-0.114 0.417-0.241 0.513-0.557 0.287-0.948zM4.686 19.051c-1.645 0-2.977-1.333-2.977-2.977 0-1.644 1.333-2.977 2.977-2.977s2.977 1.333 2.977 2.977c0 1.645-1.333 2.977-2.977 2.977zM11.236 25.602c-1.645 0-2.977-1.333-2.977-2.977s1.333-2.977 2.977-2.977 2.977 1.333 2.977 2.977-1.333 2.977-2.977 2.977zM10.069 16.074c0-0.657 0.535-1.191 1.192-1.191s1.191 0.532 1.191 1.191c0 0.659-0.534 1.191-1.191 1.191s-1.192-0.532-1.192-1.191zM11.236 12.501c-1.645 0-2.977-1.333-2.977-2.977 0-1.644 1.333-2.977 2.977-2.977s2.977 1.333 2.977 2.977c0 1.645-1.333 2.977-2.977 2.977zM17.786 19.051c-1.645 0-2.977-1.333-2.977-2.977 0-1.644 1.333-2.977 2.977-2.977s2.977 1.333 2.977 2.977c0 1.645-1.333 2.977-2.977 2.977z"></path>
</svg>
