<!-- Generated by IcoMoon.io -->
<svg version="1.1" xmlns="http://www.w3.org/2000/svg" width="32" height="32" viewBox="0 0 32 32">
<title>film2</title>
<path d="M1.708 4.090v26.201h26.201v-26.201h-26.201zM6.472 27.91h-2.382v-2.382h2.382v2.382zM6.472 24.337h-2.382v-2.382h2.382v2.382zM6.472 20.764h-2.382v-2.382h2.382v2.382zM6.472 16h-2.382v-2.382h2.382v2.382zM6.472 12.427h-2.382v-2.382h2.382v2.382zM6.472 8.854h-2.382v-2.382h2.382v2.382zM20.764 27.91h-11.91v-9.528h11.91v9.528zM20.764 16h-11.91v-9.528h11.91v9.528zM25.528 27.91h-2.382v-2.382h2.382v2.382zM25.528 24.337h-2.382v-2.382h2.382v2.382zM25.528 20.764h-2.382v-2.382h2.382v2.382zM25.528 16h-2.382v-2.382h2.382v2.382zM25.528 12.427h-2.382v-2.382h2.382v2.382zM25.528 8.854h-2.382v-2.382h2.382v2.382z"></path>
</svg>
