<!-- Generated by IcoMoon.io -->
<svg version="1.1" xmlns="http://www.w3.org/2000/svg" width="35" height="32" viewBox="0 0 35 32">
<title>folder1</title>
<path d="M6.986 7.848h24.96c2.57 0 2.57-2.665 0.1-2.665h-17.252c-0.989 0-1.482-1.482-1.482-1.482s-0.692-2.174-2.076-2.174h-12.849c-1.877 0-1.384 2.174-1.384 2.174s2.867 24.379 3.064 25.862 1.73 1.92 1.73 1.92l3.36-21.56c0.248-1.58 1.334-2.025 1.828-2.075zM37.030 8.785h-29.254c-0.873 0-1.582 0.707-1.582 1.58l-3.063 19.532c0 0.874 0.709 1.582 1.582 1.582h29.254c0.872 0 1.582-0.707 1.582-1.582l3.063-19.532c0-0.873-0.706-1.58-1.582-1.58z"></path>
</svg>
