<!-- Generated by IcoMoon.io -->
<svg version="1.1" xmlns="http://www.w3.org/2000/svg" width="33" height="32" viewBox="0 0 33 32">
<title>football</title>
<path d="M23.507 28.378c-9.967 5.755-21.247 4.879-25.194-1.957-3.946-6.836 0.935-17.044 10.903-22.799s21.247-4.881 25.195 1.957c3.947 6.835-0.935 17.043-10.905 22.799zM-0.066 17.467c-0.933 2.806-0.871 5.552 0.435 7.815 1.307 2.262 3.653 3.688 6.55 4.283l-6.985-12.098zM21.311 2.269c-3.454 0.226-7.264 1.365-10.911 3.469-3.71 2.144-6.642 4.933-8.564 7.868l9.379 16.245c3.503-0.198 7.384-1.341 11.096-3.484 3.646-2.106 6.536-4.837 8.461-7.715l-9.461-16.383zM32.742 14.741c0.969-2.843 0.923-5.628-0.398-7.919-1.323-2.291-3.712-3.723-6.66-4.304l7.058 12.223zM17.435 19.348l-0.966 0.559-1.155-1.998-0.005 0.002-1.091 0.63 1.154 1.998-0.967 0.559-1.154-1.998-0.005 0.002-1.091 0.63 1.154 1.998-0.967 0.559-1.154-2-0.005 0.004-2.063 1.191-0.596-1.031 2.068-1.195-1.205-2.088 0.967-0.559 1.206 2.088 1.096-0.632-1.206-2.090 0.967-0.557 1.206 2.088 1.096-0.632-1.205-2.089 0.967-0.557 1.206 2.088 1.096-0.632-1.205-2.089 0.967-0.557 1.205 2.088 1.096-0.632-1.205-2.088 0.966-0.559 1.208 2.088 1.096-0.632-1.208-2.089 0.967-0.557 1.205 2.088 2.154-1.242 0.596 1.031-2.154 1.243 1.154 1.998-0.966 0.559-1.154-1.998-1.096 0.632 1.154 1.998-0.967 0.559-1.154-1.998-0.005 0.002-1.091 0.63 1.154 1.998-0.967 0.559-1.154-1.998-0.005 0.002-1.091 0.63 1.152 2z"></path>
</svg>
