<!-- Generated by IcoMoon.io -->
<svg version="1.1" xmlns="http://www.w3.org/2000/svg" width="32" height="32" viewBox="0 0 32 32">
<title>format-bold</title>
<path d="M4.8 30.4v-28.8h12.8c0.002 0 0.005 0 0.008 0 4.418 0 8 3.582 8 8 0 1.924-0.679 3.69-1.811 5.070l0.011-0.014c2.074 1.625 3.394 4.13 3.394 6.944 0 4.86-3.94 8.8-8.8 8.8-0.001 0-0.002 0-0.003 0h-13.6zM16.8 17.6h-5.6v8h5.6c2.209 0 4-1.791 4-4s-1.791-4-4-4v0zM11.2 6.4v6.4h4.8c1.767 0 3.2-1.433 3.2-3.2s-1.433-3.2-3.2-3.2v0h-4.8z"></path>
</svg>
