<!-- Generated by IcoMoon.io -->
<svg version="1.1" xmlns="http://www.w3.org/2000/svg" width="33" height="32" viewBox="0 0 33 32">
<title>gamepad</title>
<path d="M24.353 2.255c-1.686 0-4.962 2.382-7.741 2.382-2.779 0-6.253-2.382-7.741-2.382-10.222 0-16.078 27.49-8.436 27.49 6.452 0 7.32-8.039 16.152-8.039 7.146 0 11.339 7.941 16.103 7.941 7.641 0 1.886-27.392-8.337-27.392zM8.274 17.738c-2.96 0-5.359-2.401-5.359-5.359 0-2.96 2.4-5.359 5.359-5.359s5.359 2.4 5.359 5.359c0 2.958-2.399 5.359-5.359 5.359zM22.492 14.76c-0.659 0-1.191-0.532-1.191-1.191s0.532-1.191 1.191-1.191 1.191 0.532 1.191 1.191-0.532 1.191-1.191 1.191zM26.14 18.333c-0.659 0-1.191-0.532-1.191-1.191s0.532-1.191 1.191-1.191 1.191 0.532 1.191 1.191-0.534 1.191-1.191 1.191zM26.14 11.187c-0.659 0-1.191-0.532-1.191-1.191s0.532-1.191 1.191-1.191 1.191 0.532 1.191 1.191-0.534 1.191-1.191 1.191zM29.713 14.76c-0.659 0-1.191-0.532-1.191-1.191s0.532-1.191 1.191-1.191 1.191 0.532 1.191 1.191-0.534 1.191-1.191 1.191zM8.274 9.401c-1.644 0-2.977 1.333-2.977 2.977s1.334 2.977 2.977 2.977c1.645 0 2.977-1.333 2.977-2.977s-1.333-2.977-2.977-2.977z"></path>
</svg>
