<!-- Generated by IcoMoon.io -->
<svg version="1.1" xmlns="http://www.w3.org/2000/svg" width="32" height="32" viewBox="0 0 32 32">
<title>gift2</title>
<path d="M23.728 6.4h8.272v9.6h-1.6v16h-28.8v-16h-1.6v-9.6h8.272c-0.177-0.48-0.279-1.034-0.279-1.613 0-2.651 2.149-4.8 4.8-4.8 1.235 0 2.361 0.466 3.211 1.232l-0.004-0.004c0.846-0.762 1.972-1.229 3.207-1.229 2.651 0 4.8 2.149 4.8 4.8 0 0.578-0.102 1.133-0.29 1.646l0.011-0.033zM12.8 16h-8v12.8h8v-12.8zM19.2 16v12.8h8v-12.8h-8zM12.8 9.6h-9.6v3.2h9.6v-3.2zM19.2 9.6v3.2h9.6v-3.2h-9.6zM12.8 6.4c0.884 0 1.6-0.716 1.6-1.6s-0.716-1.6-1.6-1.6v0c-0.884 0-1.6 0.716-1.6 1.6s0.716 1.6 1.6 1.6v0zM19.2 6.4c0.884 0 1.6-0.716 1.6-1.6s-0.716-1.6-1.6-1.6v0c-0.884 0-1.6 0.716-1.6 1.6s0.716 1.6 1.6 1.6v0z"></path>
</svg>
