<!-- Generated by IcoMoon.io -->
<svg version="1.1" xmlns="http://www.w3.org/2000/svg" width="32" height="32" viewBox="0 0 32 32">
<title>globe</title>
<path d="M23.929 10.031h6.16c0.825 1.835 1.318 3.846 1.403 5.969h-7.067c-0.030-2.244-0.216-4.221-0.495-5.969zM21.238 1.584c3.534 1.373 6.434 3.972 8.251 7.253h-5.76c-0.654-3.341-1.647-5.715-2.491-7.253zM16.081 8.837v-8.332c1.27 0.056 2.503 0.257 3.683 0.587 0.893 1.504 2.047 4.016 2.775 7.745h-6.457zM8.246 23.163c-0.279-1.75-0.472-3.715-0.501-5.969h7.143v5.969h-6.642zM8.234 10.031h6.654v5.969h-7.151c0.030-2.246 0.218-4.22 0.497-5.969zM11.222 1.066c1.175-0.317 2.4-0.518 3.666-0.559v8.33h-6.457c0.732-3.749 1.895-6.27 2.792-7.771zM1.305 8.837c1.847-3.335 4.838-5.947 8.451-7.302-0.852 1.536-1.857 3.924-2.518 7.302h-5.933zM6.544 16h-7.217c0.079-2.121 0.556-4.137 1.379-5.969h6.331c-0.278 1.75-0.464 3.725-0.493 5.969zM7.052 23.163h-6.3c-0.827-1.838-1.357-3.84-1.434-5.969h7.23c0.029 2.255 0.224 4.217 0.504 5.969zM7.248 24.356c0.666 3.411 1.686 5.796 2.542 7.315-3.627-1.349-6.618-3.972-8.468-7.315h5.926zM14.888 24.356v8.33c-1.253-0.039-2.462-0.237-3.627-0.548-0.899-1.472-2.068-4.005-2.806-7.782h6.432zM22.516 24.356c-0.735 3.754-1.896 6.278-2.792 7.756-1.166 0.323-2.389 0.498-3.643 0.554v-8.309h6.435zM16.081 17.193h7.143c-0.027 2.255-0.224 4.218-0.503 5.969h-6.641v-5.969zM23.232 16h-7.151v-5.969h6.653c0.28 1.75 0.468 3.723 0.498 5.969zM24.42 17.193h7.058c-0.079 2.128-0.603 4.13-1.426 5.969h-6.136c0.279-1.752 0.474-3.715 0.504-5.969zM29.479 24.356c-1.811 3.294-4.725 5.894-8.274 7.265 0.852-1.52 1.859-3.89 2.517-7.265h5.757z"></path>
</svg>
