<!-- Generated by IcoMoon.io -->
<svg version="1.1" xmlns="http://www.w3.org/2000/svg" width="32" height="32" viewBox="0 0 32 32">
<title>globe4</title>
<path d="M16 32c-8.837 0-16-7.163-16-16s7.163-16 16-16v0c8.837 0 16 7.163 16 16s-7.163 16-16 16v0zM19.2 28.4c2.563-0.678 4.743-2.059 6.388-3.922l0.012-0.014v-10.064c-1.767 0-3.2-1.433-3.2-3.2v0-6.288c-1.382-0.809-3.006-1.376-4.737-1.594l-0.063-0.006v1.488c0 1.767-1.433 3.2-3.2 3.2v0 1.6c0 1.767-1.433 3.2-3.2 3.2v0 3.2h4.8c1.767 0 3.2 1.433 3.2 3.2v0 9.2zM12.8 28.4v-4.4c-1.767 0-3.2-1.433-3.2-3.2v0-1.6h-0.8c-1.325 0-2.4-1.075-2.4-2.4v0-4h-2.8c-0.257 0.958-0.404 2.058-0.404 3.193 0 5.937 4.037 10.931 9.515 12.387l0.089 0.020z"></path>
</svg>
