<!-- Generated by IcoMoon.io -->
<svg version="1.1" xmlns="http://www.w3.org/2000/svg" width="32" height="32" viewBox="0 0 32 32">
<title>globe1</title>
<path d="M15.405-0.674c-9.537 0-17.269 7.732-17.269 17.269s7.732 17.269 17.269 17.269 17.269-7.732 17.269-17.269-7.732-17.269-17.269-17.269zM9.75 1.534c-0.85 1.535-1.857 3.924-2.517 7.302h-5.935c1.847-3.334 4.838-5.947 8.451-7.302zM0.701 10.030h6.331c-0.279 1.748-0.466 3.725-0.494 5.969h-7.217c0.080-2.121 0.557-4.137 1.38-5.969zM-0.688 17.192h7.232c0.027 2.255 0.224 4.217 0.503 5.969h-6.3c-0.827-1.838-1.355-3.84-1.434-5.969zM1.315 24.355h5.927c0.666 3.411 1.686 5.796 2.542 7.315-3.628-1.351-6.618-3.973-8.469-7.315zM14.883 32.684c-1.253-0.039-2.462-0.237-3.627-0.548-0.899-1.472-2.068-4.005-2.806-7.782h6.432v8.33zM14.883 23.161h-6.643c-0.279-1.75-0.472-3.715-0.501-5.969h7.143v5.969zM14.883 15.999h-7.151c0.030-2.246 0.218-4.22 0.497-5.969h6.654v5.969zM14.883 8.836h-6.457c0.732-3.749 1.895-6.272 2.792-7.771 1.175-0.317 2.4-0.518 3.666-0.56v8.331zM31.486 15.999h-7.066c-0.030-2.244-0.217-4.221-0.495-5.969h6.16c0.825 1.835 1.32 3.847 1.402 5.969zM29.484 8.836h-5.761c-0.654-3.342-1.646-5.717-2.49-7.253 3.534 1.374 6.434 3.972 8.251 7.253zM16.075 0.504c1.271 0.056 2.503 0.257 3.683 0.587 0.894 1.504 2.048 4.016 2.776 7.745h-6.459v-8.332zM16.075 10.030h6.654c0.279 1.75 0.467 3.723 0.497 5.969h-7.151v-5.969zM16.075 17.192h7.143c-0.027 2.255-0.223 4.22-0.501 5.969h-6.642v-5.969zM16.075 32.663v-8.309h6.434c-0.735 3.754-1.895 6.278-2.79 7.756-1.165 0.324-2.388 0.498-3.643 0.554zM21.201 31.618c0.85-1.52 1.858-3.89 2.515-7.265h5.758c-1.813 3.294-4.725 5.895-8.274 7.265zM30.048 23.161h-6.136c0.279-1.752 0.474-3.715 0.504-5.969h7.059c-0.080 2.128-0.605 4.13-1.427 5.969z"></path>
</svg>
