<!-- Generated by IcoMoon.io -->
<svg version="1.1" xmlns="http://www.w3.org/2000/svg" width="42" height="32" viewBox="0 0 42 32">
<title>graduate</title>
<path d="M35.817 17.859c0 0-5.469-5.576-13.005-5.576-7.364 0-14.643 5.576-14.643 5.576l-4.089-1.707v5.007c0.644 0.219 1.116 0.812 1.116 1.53 0 0.725-0.481 1.32-1.135 1.534l1.209 3.372h-3.568l1.22-3.4c-0.586-0.249-0.996-0.828-0.996-1.505 0-0.663 0.398-1.228 0.966-1.485v-5.549l-5.947-2.48 26.164-11.744 24.005 11.892-11.298 4.535zM22.513 15.108c7.582 0 11.298 4.014 11.298 4.014v8.325c0 0-3.865 3.122-11.892 3.122s-10.703-3.122-10.703-3.122v-8.325c0 0 3.716-4.014 11.298-4.014zM22.365 28.784c5.255 0 9.515-1.066 9.515-2.378s-4.26-2.378-9.515-2.378-9.514 1.066-9.514 2.378 4.259 2.378 9.514 2.378z"></path>
</svg>
