<!-- Generated by IcoMoon.io -->
<svg version="1.1" xmlns="http://www.w3.org/2000/svg" width="32" height="32" viewBox="0 0 32 32">
<title>hand</title>
<path d="M21.839 25.544l3.524-4.745 4.139-3.954c0 0-1.379-1.645-3.085-1.645-0.766 0-1.467 0.219-2.108 0.657-0.637 0.437-1.218 1.093-1.742 1.971-0.732 0.256-1.303 0.5-1.713 0.732-0.090-0.912-0.2-1.588-0.328-2.025l2.377-9.228c0.563-2.225 0.698-3.349-0.642-3.945s-2.709 1.047-3.415 3.141l-2.255 7.126 0.068-9.163c0-2.25-0.71-3.374-2.129-3.374-1.434 0-2.15 0.997-2.15 2.989v9.161l-2.306-8.025c-0.572-1.42-1.578-2.818-2.918-2.371s-1.277 2.651-0.905 4.062l2.054 7.824-3.313-5.473c-1.014-1.757-2.762-2.096-3.157-1.686-0.63 0.654-1.052 2.045 0.092 4.042l3.655 6.363 3.263 11.305v2.197h9.528v-2.833c1.106-0.759 2.063-1.794 3.465-3.105v0z"></path>
</svg>
