<!-- Generated by IcoMoon.io -->
<svg version="1.1" xmlns="http://www.w3.org/2000/svg" width="32" height="32" viewBox="0 0 32 32">
<title>hand-stop</title>
<path d="M27.2 25.6c0 3.535-2.865 6.4-6.4 6.4v0h-9.6c0 0 0 0-0 0-3.535 0-6.4-2.865-6.4-6.4 0-0.006 0-0.011 0-0.017v0.001-19.184c0-0.884 0.716-1.6 1.6-1.6v0c0.884 0 1.6 0.716 1.6 1.6v0 9.6h1.6v-12.8c0-0.884 0.716-1.6 1.6-1.6v0c0.884 0 1.6 0.716 1.6 1.6v0 12.8h1.6v-14.4c0-0.884 0.716-1.6 1.6-1.6s1.6 0.716 1.6 1.6v0 14.4h1.6v-12.8c0-0.884 0.716-1.6 1.6-1.6v0c0.884 0 1.6 0.716 1.6 1.6v0 20.8h1.6v-9.6c0-0.884 0.716-1.6 1.6-1.6v0h1.6v12.8z"></path>
</svg>
