<!-- Generated by IcoMoon.io -->
<svg version="1.1" xmlns="http://www.w3.org/2000/svg" width="32" height="32" viewBox="0 0 32 32">
<title>hard-drive</title>
<path d="M3.2 3.2c0-1.76 1.44-3.2 3.2-3.2h19.2c1.767 0 3.2 1.433 3.2 3.2v0 25.6c0 1.767-1.433 3.2-3.2 3.2v0h-19.2c-1.767 0-3.2-1.433-3.2-3.2v0-25.6zM19.84 12.16c-1.109-0.618-2.432-0.982-3.84-0.982-4.418 0-8 3.582-8 8s3.582 8 8 8c4.411 0 7.988-3.569 8-7.977v-11.201l-4.16 4.16zM16 22.4c-1.767 0-3.2-1.433-3.2-3.2s1.433-3.2 3.2-3.2v0c1.767 0 3.2 1.433 3.2 3.2s-1.433 3.2-3.2 3.2v0zM9.6 4.8v3.2h6.4v-3.2h-6.4zM6.4 4.8c0.884 0 1.6-0.716 1.6-1.6s-0.716-1.6-1.6-1.6v0c-0.884 0-1.6 0.716-1.6 1.6s0.716 1.6 1.6 1.6v0zM6.4 30.4c0.884 0 1.6-0.716 1.6-1.6s-0.716-1.6-1.6-1.6v0c-0.884 0-1.6 0.716-1.6 1.6s0.716 1.6 1.6 1.6v0zM25.6 30.4c0.884 0 1.6-0.716 1.6-1.6s-0.716-1.6-1.6-1.6v0c-0.884 0-1.6 0.716-1.6 1.6s0.716 1.6 1.6 1.6v0zM25.6 4.8c0.884 0 1.6-0.716 1.6-1.6s-0.716-1.6-1.6-1.6v0c-0.884 0-1.6 0.716-1.6 1.6s0.716 1.6 1.6 1.6v0z"></path>
</svg>
