<!-- Generated by IcoMoon.io -->
<svg version="1.1" xmlns="http://www.w3.org/2000/svg" width="32" height="32" viewBox="0 0 32 32">
<title>headphones1</title>
<path d="M25.528 30.292v-2.382h-0.030c0.011-0.198 0.030-0.394 0.030-0.596v-13.101c0-5.59-4.533-10.123-10.123-10.123s-10.123 4.533-10.123 10.123v13.101c0 0.201 0.019 0.398 0.030 0.596h-0.030v2.382c0 0-5.955-0.1-5.955-6.55 0-3.659 1.914-5.272 3.573-5.985v-3.543c0-6.906 5.599-12.505 12.505-12.505s12.505 5.599 12.505 12.505v3.543c1.659 0.713 3.573 2.326 3.573 5.985 0 6.45-5.955 6.55-5.955 6.55zM7.663 30.292h-1.191v-13.101h1.191v13.101zM24.337 30.292h-1.191v-13.101h1.191v13.101z"></path>
</svg>
