<!-- Generated by IcoMoon.io -->
<svg version="1.1" xmlns="http://www.w3.org/2000/svg" width="32" height="32" viewBox="0 0 32 32">
<title>health</title>
<path d="M29.101 30.329h-2.382v2.308h-4.764v-2.308h-13.101v2.308h-4.764v-2.308h-2.382c-1.316 0-2.382-1.067-2.382-2.382v-20.247c0-1.316 1.066-2.382 2.382-2.382h27.392c1.315 0 2.382 1.067 2.382 2.382v20.247c0 1.316-1.067 2.382-2.382 2.382zM21.954 16.037h-4.763v-4.764h-3.573v4.764h-4.764v3.573h4.764v4.764h3.573v-4.764h4.763v-3.573zM19.573 1.72h-7.146v2.407h-2.382v-1.166h1.191v-3.598h9.478v3.573h1.241v1.191h-2.382v-2.407z"></path>
</svg>
