<!-- Generated by IcoMoon.io -->
<svg version="1.1" xmlns="http://www.w3.org/2000/svg" width="32" height="32" viewBox="0 0 32 32">
<title>heart3</title>
<path d="M25.528 12.4c-4.604 0-8.337 3.761-8.337 8.402 0 2.644 1.215 4.998 3.107 6.54-2.449 1.816-4.298 2.963-4.298 2.963s-16.674-10.304-16.674-18.605c0-5.002 3.076-10.003 8.932-10.003 5.359 0 7.741 5.116 7.741 5.116s2.084-5.116 7.741-5.116 8.832 4.901 8.832 10.003c0 1.141-0.324 2.314-0.853 3.492-1.526-1.71-3.733-2.792-6.193-2.792zM25.528 13.599c3.946 0 7.146 3.224 7.146 7.202s-3.2 7.203-7.146 7.203c-3.947 0-7.146-3.225-7.146-7.203s3.199-7.202 7.146-7.202zM21.955 22.001h7.146v-2.401h-7.146v2.401z"></path>
</svg>
