<!-- Generated by IcoMoon.io -->
<svg version="1.1" xmlns="http://www.w3.org/2000/svg" width="32" height="32" viewBox="0 0 32 32">
<title>hour-glass1</title>
<path d="M4.8 28.8c0-0.003 0-0.006 0-0.009 0-4.441 2.585-8.279 6.333-10.090l0.067-0.029v-5.344c-3.815-1.84-6.4-5.678-6.4-10.119 0-0.003 0-0.006 0-0.009v0h-3.2v-3.2h28.8v3.2h-3.2c0 0.003 0 0.006 0 0.009 0 4.441-2.585 8.279-6.333 10.090l-0.067 0.029v5.344c3.815 1.84 6.4 5.678 6.4 10.119 0 0.003 0 0.006 0 0.009v-0h3.2v3.2h-28.8v-3.2h3.2zM8 3.2c0 0 0 0.001 0 0.002 0 3.852 2.722 7.068 6.348 7.829l0.052 0.009v4.96h3.2v-4.96c3.678-0.77 6.4-3.986 6.4-7.838 0-0.001 0-0.001 0-0.002v0h-16z"></path>
</svg>
