<!-- Generated by IcoMoon.io -->
<svg version="1.1" xmlns="http://www.w3.org/2000/svg" width="32" height="32" viewBox="0 0 32 32">
<title>hourglass</title>
<path d="M26.123 30.292c0.328 0 0.596 0.267 0.596 0.596s0 1.786 0 1.786h-22.628c0 0 0-1.458 0-1.786s0.267-0.596 0.596-0.596h1.989c0.099-7.929 5.278-10.485 5.278-13.69 0-3.222-5.275-3.436-5.325-13.702h-1.942c-0.329 0-0.596-0.267-0.596-0.596s0-1.786 0-1.786h22.628c0 0 0 1.458 0 1.786s-0.268 0.596-0.596 0.596h-1.822c-0.050 10.266-5.325 10.481-5.325 13.702 0 3.205 5.181 5.761 5.28 13.69h1.867zM17.323 16.601c0-3.235 5.276-3.436 5.325-13.702h-14.367c0.049 10.266 5.325 10.467 5.325 13.702 0 3.11-5.182 5.731-5.28 13.69h0.903c0.212-0.706 0.916-1.555 2.132-2.184l1.58-0.806c0.993-0.513 1.589-0.86 1.786-1.039s0.422-0.579 0.672-1.2c0.263 0.621 0.488 1.021 0.679 1.2s0.779 0.525 1.767 1.039l1.572 0.806c1.209 0.629 1.91 1.478 2.119 2.184h1.065c-0.098-7.959-5.278-10.581-5.278-13.69zM16.083 14.853c-0.143 0.281-0.263 0.816-0.358 1.604-0.024 0.238-0.076 0.597-0.161 1.074-0.083-0.478-0.137-0.836-0.161-1.074-0.096-0.788-0.217-1.322-0.361-1.604-0.144-0.28-0.55-0.784-1.221-1.514l-1.49-1.629c-1.018-1.098-1.671-1.886-1.958-2.363 1.767 1.125 3.493 1.689 5.177 1.689s3.416-0.563 5.195-1.689c-0.298 0.476-0.953 1.265-1.964 2.363l-1.484 1.629c-0.667 0.73-1.073 1.234-1.215 1.514z"></path>
</svg>
