<!-- Generated by IcoMoon.io -->
<svg version="1.1" xmlns="http://www.w3.org/2000/svg" width="32" height="32" viewBox="0 0 32 32">
<title>icecream</title>
<path d="M21.721 9.738c1.725-4.311-2.131-5.022-2.131-4.971 1.217-3.044-1.217-5.074-3.449-5.074s-2.131 1.016-2.131 1.016 1.217-0.254 1.217 0.71c0 0.965-1.117 0.913-2.232 2.029-1.117 1.116-0.584 0.965-0.66 0.965 2.32-0.152 3.678 2.245 6.239 1.368-2.537 1.268-3.145-0.748-5.885-0.849-0.355 0-2.384-0.393-2.384 3.487 2.968 0.343 4.261 2.384 8.269 1.928-4.515 1.673-10.171-5.251-10.957 2.333 0 1.623 1.216 2.439 1.216 2.439s14.052 0 14.002 0c2.789-1.217 1.421-5.636-1.116-5.382zM16.086 33.865l6.346-17.947h-12.83l6.485 17.947z"></path>
</svg>
