<!-- Generated by IcoMoon.io -->
<svg version="1.1" xmlns="http://www.w3.org/2000/svg" width="32" height="32" viewBox="0 0 32 32">
<title>image</title>
<path d="M30.292 31.483v-1.191h-1.191v-1.191h-1.191v-15.483h1.191v-1.191h1.191v-1.191h1.191v20.247h-1.191zM29.101 12.427h-1.191v1.191h-23.819v-1.191h-1.191v-1.191h-1.191v-1.191h28.583v1.191h-1.191v1.191zM2.899 12.427v1.191h1.191v15.483h-1.191v1.191h-1.191v1.191h-1.191v-20.247h1.191v1.191h1.191zM2.899 30.292h1.191v-1.191h23.819v1.191h1.191v1.191h1.191v1.191h-28.583v-1.191h1.191v-1.191zM12.256 24.315l2.723-4.403 2.723 2.744 3.743-5.634 3.913 9.697h-17.355l2.212-4.424 2.041 2.021zM10.63 19.584c-0.987 0-1.786-0.8-1.786-1.786s0.799-1.786 1.786-1.786c0.986 0 1.786 0.8 1.786 1.786s-0.8 1.786-1.786 1.786zM26.719 10.045l-8.72-6.491c-0.41 0.33-0.923 0.536-1.489 0.536-0.787 0-1.482-0.387-1.914-0.978l-9.315 6.933h-1.191l10.115-7.763c-0.045-0.185-0.076-0.375-0.076-0.574 0-1.315 1.066-2.382 2.381-2.382 1.316 0 2.382 1.067 2.382 2.382 0 0.428-0.123 0.824-0.32 1.172l9.338 7.165h-1.191z"></path>
</svg>
