<!-- Generated by IcoMoon.io -->
<svg version="1.1" xmlns="http://www.w3.org/2000/svg" width="32" height="32" viewBox="0 0 32 32">
<title>inbox2</title>
<path d="M22.669 6.472h-13.101l-7.86 11.91v5.955c0 1.315 1.067 2.382 2.382 2.382h23.819c1.315 0 2.382-1.067 2.382-2.382v-5.955l-7.622-11.91zM23.7 18.409l-2.444 4.766-10.229-0.024-2.621-4.758-4.866-0.027 6.743-10.689h11.673l6.669 10.689-4.925 0.043zM11.236 21.955h9.528v-1.191h-9.528v1.191zM11.037 8.851l-5.259 8.34h20.742l-5.359-8.34h-10.123zM10.045 19.573h11.91v-1.191h-11.91v1.191z"></path>
</svg>
