<!-- Generated by IcoMoon.io -->
<svg version="1.1" xmlns="http://www.w3.org/2000/svg" width="32" height="32" viewBox="0 0 32 32">
<title>infinity</title>
<path d="M25.443 8.96c-3.326 0-6.973 1.853-9.443 4.666-2.472-2.813-6.12-4.666-9.446-4.666-3.168 0-6.554 1.85-6.554 7.040s3.386 7.037 6.554 7.040v0c3.326 0 6.973-1.853 9.445-4.666 2.47 2.813 6.117 4.666 9.443 4.666 3.17 0 6.558-1.85 6.558-7.040s-3.389-7.040-6.557-7.040zM6.554 20.226c-2.419 0-3.674-1.422-3.674-4.226s1.254-4.226 3.674-4.226c2.677 0 5.782 1.738 7.691 4.226-1.909 2.488-5.014 4.226-7.691 4.226zM25.443 20.226c-2.677 0-5.782-1.738-7.691-4.226 1.907-2.488 5.016-4.226 7.691-4.226 2.419 0 3.677 1.422 3.677 4.226s-1.258 4.226-3.677 4.226z"></path>
</svg>
