<!-- Generated by IcoMoon.io -->
<svg version="1.1" xmlns="http://www.w3.org/2000/svg" width="32" height="32" viewBox="0 0 32 32">
<title>info1</title>
<path d="M16.294 2.581c0 2.006 1.514 3.365 3.382 3.365s3.385-1.36 3.385-3.365c0-2.007-1.515-3.366-3.385-3.366-1.867 0-3.382 1.359-3.382 3.366zM8.969 14.065c0 0.398-0.073 1.385 0.010 1.979l2.952-3.553c0.611-0.669 1.317-1.137 1.678-1.011 0.362 0.126 0.56 0.551 0.442 0.947l-4.887 16.185c-0.563 1.891 0.501 3.749 3.095 4.173 3.798 0 6.055-2.57 8.275-5.901 0-0.398 0.132-1.445 0.052-2.040l-2.952 3.551c-0.612 0.669-1.371 1.137-1.733 1.012-0.333-0.117-0.529-0.488-0.463-0.859l4.921-16.26c0.41-2.065-0.703-3.944-3.054-4.185-2.472 0.001-6.117 2.631-8.337 5.961z"></path>
</svg>
