<!-- Generated by IcoMoon.io -->
<svg version="1.1" xmlns="http://www.w3.org/2000/svg" width="32" height="32" viewBox="0 0 32 32">
<title>info2</title>
<path d="M16 0.517c-8.551 0-15.483 6.931-15.483 15.483s6.931 15.483 15.483 15.483 15.483-6.931 15.483-15.483-6.931-15.483-15.483-15.483zM18.428 21.696c-1.168 1.754-2.357 3.106-4.357 3.106-1.365-0.223-1.926-1.201-1.63-2.197l2.572-8.52c0.063-0.208-0.042-0.431-0.232-0.499-0.189-0.067-0.561 0.18-0.883 0.532l-1.555 1.871c-0.042-0.314-0.005-0.834-0.005-1.043 1.168-1.754 3.088-3.138 4.39-3.138 1.237 0.126 1.823 1.116 1.608 2.203l-2.59 8.562c-0.035 0.193 0.068 0.389 0.243 0.451 0.191 0.067 0.591-0.18 0.914-0.532l1.554-1.87c0.042 0.314-0.029 0.865-0.029 1.074zM18.082 10.568c-0.984 0-1.782-0.717-1.782-1.772s0.798-1.771 1.782-1.771 1.782 0.717 1.782 1.771c0 1.056-0.798 1.772-1.782 1.772z"></path>
</svg>
