<!-- Generated by IcoMoon.io -->
<svg version="1.1" xmlns="http://www.w3.org/2000/svg" width="32" height="32" viewBox="0 0 32 32">
<title>injection</title>
<path d="M25.718 7.91c0.45 0.449 0.45 1.178 0 1.628-0.45 0.449-0.816 0.815-0.816 0.815l0.816 0.815c0.899 0.899 0.899 2.357 0 3.257l-12.213 12.211c-0.9 0.9-2.358 0.9-3.257 0l-0.815-0.815-3.256 3.259 1.628 1.628c0.45 0.449 0.45 1.177 0 1.628-0.45 0.449-1.179 0.449-1.628 0l-6.515-6.516c-0.449-0.449-0.449-1.177 0-1.628 0.45-0.449 1.179-0.449 1.628 0l1.628 1.628 3.257-3.256-0.815-0.815c-0.9-0.898-0.9-2.357 0-3.256l12.215-12.212c0.9-0.9 2.357-0.9 3.256 0l0.815 0.815c0 0 0.366-0.366 0.815-0.815 0.45-0.45 1.179-0.45 1.628 0l0.407 0.407 6.515-6.515v1.628l-5.7 5.7 0.407 0.408zM20.018 7.095c-0.449-0.45-1.178-0.45-1.628 0l-2.443 2.443 1.628 1.628-0.815 0.815-1.628-1.628-2.443 2.443 1.628 1.629-0.815 0.815-1.629-1.629-0.815 0.815 3.257 3.256-0.815 0.815-3.257-3.256-2.44 2.44 3.256 3.256-0.815 0.815-3.256-3.256-0.815 0.815c-0.45 0.449-0.45 1.179 0 1.628l4.885 4.885c0.45 0.451 1.179 0.451 1.629 0l12.212-12.212c0.451-0.449 0.451-1.178 0-1.628l-4.884-4.887zM16.762 8.723l0.815-0.815 3.256 3.256-0.815 0.815-3.256-3.256zM16.762 15.237l-3.256-3.257 0.815-0.815 3.256 3.257-0.815 0.815zM8.62 16.866l0.815-0.815 1.628 1.628-0.815 0.815-1.628-1.628zM32.605 8.123c0 0.863-0.7 1.563-1.563 1.563-0.865 0-1.564-0.7-1.564-1.563 0-0.865 1.564-3.225 1.564-3.225s1.563 2.362 1.563 3.225z"></path>
</svg>
