<!-- Generated by IcoMoon.io -->
<svg version="1.1" xmlns="http://www.w3.org/2000/svg" width="32" height="32" viewBox="0 0 32 32">
<title>instagram1</title>
<path d="M27.2 1.6h-22.4c-1.76 0-3.2 1.44-3.2 3.2v22.4c0 1.762 1.44 3.2 3.2 3.2h22.4c1.76 0 3.2-1.438 3.2-3.2v-22.4c0-1.76-1.44-3.2-3.2-3.2zM15.974 24.837c4.894 0 8.861-3.97 8.861-8.862 0-0.541-0.069-1.062-0.165-1.574h2.53v11.546c0 0.611-0.496 1.104-1.109 1.104h-20.182c-0.613 0-1.109-0.493-1.109-1.104v-11.546h2.478c-0.098 0.512-0.166 1.034-0.166 1.574 0 4.894 3.97 8.862 8.862 8.862zM10.437 15.974c0-3.059 2.48-5.538 5.539-5.538 3.058 0 5.539 2.478 5.539 5.538s-2.482 5.539-5.539 5.539c-3.061 0-5.539-2.48-5.539-5.539zM26.091 9.6h-2.584c-0.611 0-1.107-0.499-1.107-1.107v-2.587c0-0.611 0.496-1.106 1.106-1.106h2.584c0.614 0 1.11 0.494 1.11 1.106v2.586c0 0.61-0.496 1.109-1.109 1.109z"></path>
</svg>
