<!-- Generated by IcoMoon.io -->
<svg version="1.1" xmlns="http://www.w3.org/2000/svg" width="32" height="32" viewBox="0 0 32 32">
<title>ipod1</title>
<path d="M23.146 1.708h-14.292c-1.316 0-2.382 1.067-2.382 2.382v23.819c0 1.315 1.066 2.382 2.382 2.382h14.292c1.315 0 2.382-1.067 2.382-2.382v-23.819c0-1.315-1.067-2.382-2.382-2.382zM16 27.91c-2.303 0-4.168-1.866-4.168-4.168 0-2.303 1.865-4.168 4.168-4.168 2.302 0 4.168 1.865 4.168 4.168 0 2.302-1.866 4.168-4.168 4.168zM23.146 17.191h-14.292l0.025-13.101h14.267v13.101zM16 21.359c-1.315 0-2.382 1.067-2.382 2.382s1.067 2.382 2.382 2.382 2.382-1.067 2.382-2.382-1.067-2.382-2.382-2.382z"></path>
</svg>
