<!-- Generated by IcoMoon.io -->
<svg version="1.1" xmlns="http://www.w3.org/2000/svg" width="32" height="32" viewBox="0 0 32 32">
<title>justice</title>
<path d="M25.604 4.785l-4.494 9.974h-1.308l4.792-10.619h-7.4v24.738c1.524 0.056 9.305 2.581 9.305 2.581v1.215h-20.913v-1.297c0 0 7.953-2.5 9.151-2.5v-24.736h-7.164l4.794 10.619h-1.308l-4.494-9.974-4.494 9.974h-1.308l4.821-10.678v-1.231h8.044c0-1.611 1.080-2.927 2.34-2.927 1.333 0 2.34 1.391 2.34 2.927h8.192v1.056l4.902 10.853h-1.308l-4.494-9.974zM12.451 15.975c0 3.207-2.225 6.291-5.882 6.291-3.575 0-5.882-3.083-5.882-6.291-0.001 0.005 11.764 0.005 11.764 0zM19.885 15.975c0 0.006 11.766 0.006 11.766 0 0 3.207-2.225 6.291-5.882 6.291-3.576 0-5.883-3.083-5.883-6.291z"></path>
</svg>
