<!-- Generated by IcoMoon.io -->
<svg version="1.1" xmlns="http://www.w3.org/2000/svg" width="32" height="32" viewBox="0 0 32 32">
<title>key1</title>
<path d="M18.188 17.836l-11.968 11.968c-0.927 0.927-2.433 0.924-3.363-0.006-0.93-0.929-0.933-2.436-0.006-3.362l0.91-0.91-2.578-2.58c-0.466-0.464-0.467-1.217-0.004-1.682 0.464-0.464 1.216-0.462 1.682 0.004l2.58 2.58 0.84-0.84-0.896-0.896c-0.466-0.466-0.467-1.217-0.002-1.682 0.463-0.463 1.216-0.463 1.682 0.002l0.894 0.896 0.84-0.84-2.58-2.58c-0.466-0.466-0.467-1.216-0.002-1.68 0.463-0.464 1.216-0.463 1.682 0.002l2.578 2.58 4.346-4.346c-2.817-3.924-3.167-8.608-0.572-11.202 3.013-3.013 8.85-2.063 13.035 2.123s5.137 10.022 2.122 13.035c-2.598 2.598-7.291 2.241-11.219-0.586zM24.752 7.904c-1.86-1.86-4.309-2.43-5.468-1.27s-0.591 3.606 1.27 5.468c1.86 1.86 4.308 2.428 5.468 1.27s0.59-3.607-1.27-5.468z"></path>
</svg>
