<!-- Generated by IcoMoon.io -->
<svg version="1.1" xmlns="http://www.w3.org/2000/svg" width="32" height="32" viewBox="0 0 32 32">
<title>key4</title>
<path d="M19.616 18.784l-3.616 3.616h-3.2v3.2h-3.2v3.2l-3.2 3.2h-6.4v-6.4l13.216-13.216c-0.262-0.834-0.413-1.793-0.413-2.787 0-5.302 4.298-9.6 9.6-9.6s9.6 4.298 9.6 9.6c0 5.302-4.298 9.6-9.6 9.6-0.994 0-1.953-0.151-2.855-0.432l0.068 0.018zM27.392 11.392c0.867-0.868 1.404-2.068 1.404-3.392 0-2.649-2.147-4.798-4.796-4.8h-0c-1.325 0.001-2.524 0.539-3.392 1.408l-0 0 6.784 6.784z"></path>
</svg>
