<!-- Generated by IcoMoon.io -->
<svg version="1.1" xmlns="http://www.w3.org/2000/svg" width="32" height="32" viewBox="0 0 32 32">
<title>keyboard4</title>
<path d="M0 9.6c0-1.76 1.44-3.2 3.2-3.2h25.6c1.767 0 3.2 1.433 3.2 3.2v0 12.8c0 1.767-1.433 3.2-3.2 3.2v0h-25.6c-1.767 0-3.2-1.433-3.2-3.2v0-12.8zM3.2 9.6v3.2h3.2v-3.2h-3.2zM4.8 14.4v3.2h3.2v-3.2h-3.2zM3.2 19.2v3.2h3.2v-3.2h-3.2zM8 19.2v3.2h16v-3.2h-16zM25.6 19.2v3.2h3.2v-3.2h-3.2zM9.6 14.4v3.2h3.2v-3.2h-3.2zM14.4 14.4v3.2h3.2v-3.2h-3.2zM19.2 14.4v3.2h3.2v-3.2h-3.2zM24 14.4v3.2h3.2v-3.2h-3.2zM8 9.6v3.2h3.2v-3.2h-3.2zM12.8 9.6v3.2h3.2v-3.2h-3.2zM17.6 9.6v3.2h3.2v-3.2h-3.2zM22.4 9.6v3.2h6.4v-3.2h-6.4z"></path>
</svg>
