<!-- Generated by IcoMoon.io -->
<svg version="1.1" xmlns="http://www.w3.org/2000/svg" width="32" height="32" viewBox="0 0 32 32">
<title>keyboard1</title>
<path d="M30.252 30.273h-28.506c-1.312 0-2.375-1.065-2.375-2.376v-13.064c0-1.314 1.064-2.376 2.375-2.376l1.256-0.067c0-1.94 0.591-3.126 1.772-4.447s2.646-1.983 4.397-1.983c0.83 0 1.751 0.141 2.759 0.422 0 0 2.194 0.729 3.717 0.729 2.324 0 3.91-1.018 4.752-3.056 0.395-0.98 0.798-1.471 1.208-1.471 0.586 0 0.881 0.274 0.881 0.821 0 0.968-0.523 2.039-1.57 3.211-1.405 1.592-3.133 2.389-5.188 2.389-1.595 0-4.328-0.748-4.328-0.748-1.11-0.269-1.902-0.403-2.374-0.403-1.135 0-2.109 0.485-2.919 1.457s-1.216 1.757-1.216 3.097l25.357 0.050c1.312 0 2.377 1.064 2.377 2.376v13.065c0 1.311-1.066 2.375-2.377 2.375zM31.441 14.833c0-0.657-0.532-1.189-1.189-1.189h-28.506c-0.656 0-1.187 0.531-1.187 1.189v13.065c0 0.656 0.531 1.189 1.187 1.189h28.506c0.656 0 1.189-0.532 1.189-1.189v-13.065zM26.684 20.808h-2.338v2.301h-2.375v-2.301h-2.377v2.301h-2.45v-2.301h-2.301v2.301h-2.376v-2.301h-2.375v2.301h-2.377v-2.301h-2.412v2.301h-2.375v-2.338h2.412v-2.376h-2.412v-2.338h2.375v2.301h2.412v-2.301h2.376v2.301h2.375v-2.301h2.376v2.301h2.301v-2.301h2.45v2.301h2.377v-2.301h2.375v2.301h2.338v-2.301h2.375v2.338h-2.338v2.376h2.338v2.338h-2.375v-2.301zM10.093 18.395h-2.413v2.376h2.412v-2.376zM14.807 18.395h-2.376v2.376h2.376v-2.376zM19.556 18.395h-2.375v2.376h2.375v-2.376zM24.309 18.395h-2.378v2.376h2.377v-2.376zM24.42 26.709h-16.777v-2.339h16.777v2.339z"></path>
</svg>
