<!-- Generated by IcoMoon.io -->
<svg version="1.1" xmlns="http://www.w3.org/2000/svg" width="32" height="32" viewBox="0 0 32 32">
<title>keyboard2</title>
<path d="M29.101 31.502h-26.201c-1.316 0-2.382-1.067-2.382-2.382v-15.483c0-1.315 1.066-2.382 2.382-2.382l1.26 0.007c0-1.946 0.592-3.208 1.777-4.534 1.184-1.324 2.655-1.987 4.409-1.987 0.832 0 1.755 0.141 2.767 0.422 0 0 2.2 0.731 3.727 0.731 2.331 0 3.919-1.022 4.765-3.066 0.397-0.983 0.8-1.474 1.211-1.474 0.588 0 0.884 0.274 0.884 0.823 0 0.971-0.525 2.045-1.574 3.219-1.408 1.597-3.142 2.396-5.201 2.396-1.599 0-4.34-0.75-4.34-0.75-1.114-0.269-1.907-0.404-2.38-0.404-1.14 0-2.115 0.486-2.927 1.46-0.813 0.973-1.218 1.834-1.218 3.179l23.043-0.023c1.315 0 2.382 1.067 2.382 2.382v15.483c0 1.315-1.067 2.382-2.382 2.382zM30.292 13.637c0-0.659-0.534-1.191-1.191-1.191h-26.201c-0.659 0-1.191 0.532-1.191 1.191v15.483c0 0.657 0.532 1.191 1.191 1.191h26.201c0.657 0 1.191-0.534 1.191-1.191v-15.483zM20.767 21.987h7.167v2.359h-7.167v-2.359zM23.132 18.414h4.789v2.359h-4.789v-2.359zM25.536 14.828h2.386v2.434h-2.386v-2.434zM21.999 14.828h2.336v2.434h-2.336v-2.434zM19.582 18.414h2.359v2.359h-2.359v-2.359zM18.412 14.828h2.384v2.434h-2.384v-2.434zM15.945 18.414h2.434v2.359h-2.434v-2.359zM14.776 14.828h2.434v2.434h-2.434v-2.434zM11.238 14.828h2.409v2.434h-2.409v-2.434zM7.577 14.828h2.459v2.434h-2.459v-2.434zM4.090 14.828h2.434v2.434h-2.434v-2.434zM11.258 20.775h-7.167v-2.359h7.167v2.359zM6.525 27.973h-2.434v-2.434h2.434v2.434zM4.103 21.987h4.789v2.359h-4.789v-2.359zM10.087 27.973h-2.436v-2.434h2.436v2.434zM16.005 24.348h-2.436v-2.359h2.436v2.359zM12.443 24.348h-2.434v-2.359h2.434v2.359zM14.819 20.775h-2.436v-2.359h2.436v2.359zM19.566 21.987v2.359h-2.359v-2.359h2.359zM20.772 27.973h-9.484v-2.434h9.484v2.434zM24.334 27.973h-2.436v-2.434h2.436v2.434zM27.895 27.973h-2.359v-2.434h2.359v2.434z"></path>
</svg>
