<!-- Generated by IcoMoon.io -->
<svg version="1.1" xmlns="http://www.w3.org/2000/svg" width="32" height="32" viewBox="0 0 32 32">
<title>lab</title>
<path d="M19.968 19.622c0 0-1.982 2.531-4.514 0-2.456-2.382-4.242 0-4.242 0l-5.916 11.66c-0.171 0.635 0.206 1.287 0.841 1.458h19.647c0.635-0.17 1.012-0.822 0.842-1.458l-6.659-11.66zM29.028 30.685l-9.503-15.992v-0.030l-0.017-9.372h0.656c0.984 0 1.784-0.799 1.784-1.785 0-0.985-0.8-1.784-1.784-1.784h-9.522c-0.985 0-1.784 0.799-1.784 1.784 0 0.986 0.799 1.785 1.784 1.785h0.574l-0.019 9.374-8.227 16.020c-0.51 1.904 0.621 3.861 2.524 4.371h21.010c1.906-0.51 3.036-2.466 2.524-4.371zM26.186 33.862l-20.375-0.023c-1.268-0.341-2.021-1.646-1.682-2.913l8.274-16.216 0.025-10.609h-1.784c-0.328 0-0.594-0.267-0.594-0.596 0-0.328 0.267-0.594 0.594-0.594h9.522c0.328 0 0.593 0.267 0.593 0.594 0 0.329-0.266 0.596-0.593 0.596h-1.784l0.030 10.57 9.455 16.276c0.341 1.271-0.413 2.576-1.68 2.916zM16.572-0.064c0 0.657 0.534 1.191 1.191 1.191s1.191-0.534 1.191-1.191-0.532-1.191-1.191-1.191-1.191 0.532-1.191 1.191zM17.763-3.041c0.986 0 1.786-0.799 1.786-1.786s-0.8-1.786-1.786-1.786-1.786 0.799-1.786 1.786 0.8 1.786 1.786 1.786zM12.999-0.064c0.659 0 1.191-0.534 1.191-1.191s-0.532-1.191-1.191-1.191-1.191 0.534-1.191 1.191 0.532 1.191 1.191 1.191z"></path>
</svg>
