<!-- Generated by IcoMoon.io -->
<svg version="1.1" xmlns="http://www.w3.org/2000/svg" width="32" height="32" viewBox="0 0 32 32">
<title>lamp1</title>
<path d="M17.278 14.805v4.771c0.659 0 1.192 0.534 1.192 1.193v1.192c0 0 3.653 1.491 3.653 4.696s-2.634 6.038-2.634 6.038h-6.833c0 0-2.534-2.833-2.608-6.038 0-3.28 3.652-4.696 3.652-4.696v-1.192c0-0.66 0.534-1.193 1.192-1.193v-4.771h-7.453v7.963c0.511 0.135 0.896 0.579 0.896 1.133 0 0.659-0.535 1.192-1.193 1.192s-1.192-0.534-1.192-1.192c0-0.554 0.383-0.998 0.894-1.133v-7.963h-3.877l9.093-14.312h8.153l8.822 14.312h-11.756z"></path>
</svg>
