<!-- Generated by IcoMoon.io -->
<svg version="1.1" xmlns="http://www.w3.org/2000/svg" width="32" height="32" viewBox="0 0 32 32">
<title>lamp4</title>
<path d="M22.318 8.146c0.635-0.171 1.012-0.823 0.842-1.459s-0.823-1.014-1.459-0.842l-12.018 3.698c-0.636 0.17-1.012 0.823-0.843 1.459 0.17 0.635 0.823 1.014 1.459 0.842l0.992-0.305 1.136 2.070h-1.191c-1.315 0-2.382 1.067-2.382 2.382v4.963l2.382 3.374h9.528l2.382-3.374v-4.963c0-1.315-1.067-2.382-2.382-2.382h-1.191l2.4-5.357 0.345-0.106zM17.191 13.609h-2.382l-1.48-2.696 5.881-1.81-2.019 4.507zM21.701 2.273l-12.018 3.698c-0.636 0.17-1.012 0.823-0.843 1.459 0.17 0.635 0.823 1.014 1.459 0.842l12.018-3.698c0.635-0.171 1.012-0.823 0.842-1.459s-0.823-1.014-1.458-0.842zM10.299 4.699l12.018-3.698c0.635-0.171 1.012-0.823 0.842-1.459s-0.823-1.014-1.459-0.842l-12.017 3.698c-0.636 0.17-1.012 0.823-0.843 1.459 0.17 0.635 0.824 1.012 1.459 0.842zM20.168 25.518h-8.337c-0.329 0-0.595 0.267-0.595 0.596s0.267 0.596 0.595 0.596h8.337c0.328 0 0.596-0.267 0.596-0.596s-0.268-0.596-0.596-0.596zM20.168 27.9h-8.337c-0.329 0-0.595 0.267-0.595 0.596s0.267 0.596 0.595 0.596h8.337c0.328 0 0.596-0.267 0.596-0.596s-0.268-0.596-0.596-0.596zM20.168 30.282h-8.337c-0.329 0-0.595 0.267-0.595 0.596s0.267 0.596 0.595 0.596h8.337c0.328 0 0.596-0.267 0.596-0.596s-0.268-0.596-0.596-0.596zM14.214 32.664c-0.12 0.979 0.8 1.786 1.786 1.786s1.786-0.8 1.786-1.786c0 0.051-3.573 0.126-3.573 0zM10.368 1.18l7.956-2.493c0.628-0.197 0.977-0.866 0.78-1.492-0.197-0.628-0.865-0.978-1.492-0.781l-7.956 2.493c-0.628 0.197-0.977 0.866-0.78 1.493 0.197 0.626 0.865 0.977 1.492 0.78z"></path>
</svg>
