<!-- Generated by IcoMoon.io -->
<svg version="1.1" xmlns="http://www.w3.org/2000/svg" width="32" height="32" viewBox="0 0 32 32">
<title>lamp5</title>
<path d="M18.081 13.638c-1.489 0.669-4.79-0.971-4.79-0.971-3.868-2.319 1.453 7.233 1.453 7.233s0.111 2.981 0.78 3.353c5.582-7.816 4.046-10.285 2.557-9.615zM16.071 21.050c-0.451 0-2.349-5.692-2.125-6.883 1.49 0.149 2.869 0.711 3.688 0.264 2.307-1.046-1.043 6.618-1.564 6.618zM20.707 25.465c0.137-8.7 4.819-12.048 4.819-17.229 0-4.421-3.025-10.064-9.373-10.064-6.347 0-9.678 5.399-9.678 10.104 0 5.283 4.756 8.604 4.756 17.243h4.815c0 0 4.523-0.055 4.661-0.055zM12.2 24.361c0-8.064-4.607-11.163-4.607-16.094 0-4.392 2.989-8.999 8.543-8.999s8.275 4.835 8.275 8.961c0 4.835-4.542 8.030-4.664 16.15-0.121 0-3.705-0.019-3.705-0.019h-3.842zM20.174 26.735h-8.337c-0.329 0-0.596 0.267-0.596 0.596s0.267 0.596 0.596 0.596h8.337c0.328 0 0.596-0.267 0.596-0.596s-0.268-0.596-0.596-0.596zM20.174 29.117h-8.337c-0.329 0-0.596 0.267-0.596 0.596s0.267 0.596 0.596 0.596h8.337c0.328 0 0.596-0.267 0.596-0.596s-0.268-0.596-0.596-0.596zM12.424 31.534c0 0 0 0.398 0 1.072s0.529 1.221 1.181 1.221h4.801c0.654 0 1.181-0.547 1.181-1.221s-0.074-1.072-0.074-1.072h-7.090z"></path>
</svg>
