<!-- Generated by IcoMoon.io -->
<svg version="1.1" xmlns="http://www.w3.org/2000/svg" width="32" height="32" viewBox="0 0 32 32">
<title>lamp2</title>
<path d="M17.87 18.522c-1.903-1.555-3.118-3.921-3.118-6.571 0-1.332 0.333-2.575 0.88-3.697l-1.308-1.307-7.944 7.945c1.477 1.162 1.328 2.299-0.4 3.406l10.613 10.612h5.201c0.669 0 1.212 0.543 1.212 1.212v1.212h-5.679l-0.013 0.013-0.013-0.013h-8.835v-1.211c0-0.669 0.543-1.212 1.212-1.212h5.201l-10.011-10.010c-1.978 0.848-2.955 0.029-2.913-2.489 0.045-2.679 1.18-3.393 3.381-2.188l8.133-8.133-0.805-0.804c-0.473-0.472-0.473-1.24 0-1.713l2.57-2.57c0.473-0.473 1.241-0.473 1.714 0l3.097 3.099c0.986-0.401 2.059-0.631 3.189-0.631 2.789 0 5.266 1.197 6.811 3.278 0.052 0.013-12.132 11.791-12.177 11.772zM27.246 10.943c0 0 2.045 2.574 0 4.619s-4.594-0.025-4.594-0.025l4.594-4.594z"></path>
</svg>
