<!-- Generated by IcoMoon.io -->
<svg version="1.1" xmlns="http://www.w3.org/2000/svg" width="32" height="32" viewBox="0 0 32 32">
<title>lamp3</title>
<path d="M16.155-0.934c-6.397 0-9.754 5.045-9.754 9.635 0 5.15 4.792 8.388 4.792 16.809h4.853c0 0 4.558 0.021 4.696 0.021 0.138-8.483 4.857-11.82 4.857-16.871 0.001-4.31-3.048-9.594-9.444-9.594zM20.137 26.756h-8.337c-0.329 0-0.595 0.267-0.595 0.596s0.267 0.596 0.595 0.596h8.337c0.328 0 0.596-0.267 0.596-0.596s-0.268-0.596-0.596-0.596zM20.137 29.138h-8.337c-0.329 0-0.595 0.267-0.595 0.596s0.267 0.596 0.595 0.596h8.337c0.328 0 0.596-0.267 0.596-0.596s-0.268-0.596-0.596-0.596zM12.396 31.52c0 0 0 0.532 0 1.191 0 0.657 0.532 1.191 1.191 1.191h4.781c0.659 0 1.191-0.534 1.191-1.191 0-0.659 0-1.191 0-1.191h-7.163z"></path>
</svg>
