<!-- Generated by IcoMoon.io -->
<svg version="1.1" xmlns="http://www.w3.org/2000/svg" width="32" height="32" viewBox="0 0 32 32">
<title>layout6</title>
<path d="M0.517 1.708v29.774h29.774v-29.774h-29.774zM10.045 30.292h-8.337v-8.337h8.337v8.337zM10.045 20.764h-8.337v-8.337h8.337v8.337zM10.045 11.236h-8.337v-8.337h8.337v8.337zM19.573 30.292h-8.337v-8.337h8.337v8.337zM19.573 20.764h-8.337v-8.337h8.337v8.337zM19.573 11.236h-8.337v-8.337h8.337v8.337zM29.101 30.292h-8.337v-8.337h8.337v8.337zM29.101 20.764h-8.337v-8.337h8.337v8.337zM29.101 11.236h-8.337v-8.337h8.337v8.337z"></path>
</svg>
