<!-- Generated by IcoMoon.io -->
<svg version="1.1" xmlns="http://www.w3.org/2000/svg" width="32" height="32" viewBox="0 0 32 32">
<title>library</title>
<path d="M1.024 13.562c0 0 28.747 0 28.789 0 0.694-0.304 0.663-0.955 0.013-1.387-0.651-0.435-14.433-10.383-14.433-10.383s-13.675 9.948-14.369 10.383c-0.693 0.432-0.737 1.084 0 1.387zM15.393 6.704c1.149 0 2.082 0.931 2.082 2.081s-0.933 2.082-2.082 2.082-2.081-0.933-2.081-2.082 0.931-2.081 2.081-2.081zM1.74 29.020h27.354v-1.164h-27.354v1.164zM7.663 26.643v-10.603h1.165v-1.314h-5.947v1.195h1.165v10.721h3.617zM17.227 26.643v-10.678h1.165v-1.165h-5.945v1.119h1.164v10.721h3.617zM0.553 31.399h29.73v-1.089h-29.73v1.089zM26.716 26.643v-10.678h1.165v-1.165h-5.947v1.119h1.166v10.721h3.616z"></path>
</svg>
