<!-- Generated by IcoMoon.io -->
<svg version="1.1" xmlns="http://www.w3.org/2000/svg" width="32" height="32" viewBox="0 0 32 32">
<title>light-bulb1</title>
<path d="M11.2 21.328c-3.815-1.84-6.4-5.678-6.4-10.119 0-6.186 5.014-11.2 11.2-11.2s11.2 5.014 11.2 11.2c0 4.441-2.585 8.279-6.333 10.090l-0.067 0.029v4.272h-9.6v-4.272zM11.2 27.2h9.6v2.4c0 1.328-1.072 2.4-2.4 2.4h-4.8c-1.325 0-2.4-1.075-2.4-2.4v0-2.4zM14.4 19.040v3.36h3.2v-3.36c3.678-0.77 6.4-3.986 6.4-7.838 0-4.418-3.582-8-8-8s-8 3.582-8 8c0 3.852 2.722 7.068 6.348 7.829l0.052 0.009z"></path>
</svg>
