<!-- Generated by IcoMoon.io -->
<svg version="1.1" xmlns="http://www.w3.org/2000/svg" width="32" height="32" viewBox="0 0 32 32">
<title>link4</title>
<path d="M14.816 20.8c-0.267-0.458-0.425-1.007-0.425-1.594 0-0.598 0.164-1.158 0.45-1.636l-0.008 0.015c2.478-0.208 4.411-2.27 4.411-4.784 0-2.651-2.149-4.8-4.8-4.8-0.015 0-0.030 0-0.045 0l0.002-0h-6.4c-2.651 0-4.8 2.149-4.8 4.8s2.149 4.8 4.8 4.8v0h0.128c-0.085 0.481-0.133 1.035-0.133 1.6s0.048 1.119 0.141 1.658l-0.008-0.058h-0.128c-4.418 0-8-3.582-8-8s3.582-8 8-8v0h6.4c0.062-0.002 0.135-0.003 0.208-0.003 4.42 0 8.003 3.583 8.003 8.003 0 4.347-3.465 7.884-7.784 8l-0.011 0zM17.184 11.2c0.267 0.458 0.425 1.007 0.425 1.594 0 0.598-0.164 1.158-0.45 1.636l0.008-0.015c-2.478 0.208-4.411 2.27-4.411 4.784 0 2.651 2.149 4.8 4.8 4.8 0.015 0 0.030-0 0.045-0l-0.002 0h6.4c2.651 0 4.8-2.149 4.8-4.8s-2.149-4.8-4.8-4.8v0h-0.128c0.085-0.481 0.133-1.035 0.133-1.6s-0.048-1.119-0.141-1.658l0.008 0.058h0.128c4.418 0 8 3.582 8 8s-3.582 8-8 8v0h-6.4c-0.062 0.002-0.135 0.003-0.208 0.003-4.42 0-8.003-3.583-8.003-8.003 0-4.347 3.465-7.884 7.784-8l0.011-0z"></path>
</svg>
