<!-- Generated by IcoMoon.io -->
<svg version="1.1" xmlns="http://www.w3.org/2000/svg" width="32" height="32" viewBox="0 0 32 32">
<title>link1</title>
<path d="M13.762 4.394l-8.932 15.471c-0.493 0.855 1.17 2.738 1.17 2.738l10.719-18.565c0 0-2.463-0.499-2.956 0.356zM16.596 14.969c0.854 0.493 1.947 0.2 2.44-0.654l4.764-8.251c0.493-0.855 0.2-1.947-0.654-2.441-0.854-0.493-1.947-0.2-2.44 0.654l-4.764 8.251c-0.493 0.855-0.2 1.948 0.654 2.441zM15.405 17.031c-0.855-0.493-1.947-0.2-2.44 0.654l-4.764 8.252c-0.493 0.854-0.201 1.947 0.654 2.44 0.854 0.493 1.947 0.2 2.44-0.654l4.764-8.252c0.493-0.855 0.2-1.947-0.654-2.44zM25.999 9.397l-10.719 18.565c0 0 2.463 0.499 2.956-0.356l8.932-15.471c0.494-0.855-1.169-2.738-1.169-2.738z"></path>
</svg>
