<!-- Generated by IcoMoon.io -->
<svg version="1.1" xmlns="http://www.w3.org/2000/svg" width="32" height="32" viewBox="0 0 32 32">
<title>linkedin1</title>
<path d="M8 4.8c0 1.699-1.136 3.162-3.202 3.162-1.944 0-3.198-1.379-3.198-3.078 0-1.744 1.216-3.283 3.2-3.283s3.162 1.456 3.2 3.2zM1.6 30.4v-20.8h6.4v20.8h-6.4z"></path>
<path d="M11.2 16.71c0-2.472-0.082-4.538-0.163-6.322h5.75l0.285 2.757h0.122c0.81-1.298 2.794-3.2 6.115-3.2 4.051 0 7.091 2.712 7.091 8.547v11.907h-6.4v-10.978c0-2.55-0.971-4.496-3.2-4.496-1.699 0-2.55 1.376-2.997 2.51-0.163 0.406-0.203 0.973-0.203 1.541v11.422h-6.4v-13.69z"></path>
</svg>
