<!-- Generated by IcoMoon.io -->
<svg version="1.1" xmlns="http://www.w3.org/2000/svg" width="32" height="32" viewBox="0 0 32 32">
<title>link</title>
<path d="M27.112 8.664l-4.168 7.22c-0.659 1.139-2.114 1.529-3.254 0.871l-1.030-0.596 1.191-2.062c0.569 0.328 1.298 0.133 1.626-0.436l2.977-5.157c0.329-0.571 0.133-1.298-0.435-1.627l-4.127-2.382c-0.57-0.329-1.298-0.133-1.626 0.436l-2.977 5.157c-0.33 0.57-0.135 1.298 0.435 1.627l-1.191 2.062-1.030-0.595c-1.14-0.657-1.53-2.114-0.872-3.253l4.168-7.22c0.659-1.14 2.114-1.529 3.254-0.872l6.187 3.573c1.14 0.657 1.53 2.114 0.872 3.254zM13.023 21.157c-0.571-0.329-0.766-1.058-0.436-1.627l4.764-8.251c0.329-0.57 1.058-0.766 1.627-0.436s0.766 1.058 0.435 1.627l-4.764 8.251c-0.328 0.569-1.055 0.763-1.626 0.436zM12.151 17.904v0c-0.571-0.329-1.298-0.133-1.627 0.435l-2.977 5.157c-0.329 0.57-0.133 1.298 0.436 1.627l4.127 2.382c0.569 0.329 1.298 0.133 1.626-0.436l2.977-5.157c0.329-0.569 0.133-1.298-0.435-1.627v0l1.191-2.062 1.030 0.596c1.14 0.657 1.53 2.113 0.872 3.253l-4.168 7.22c-0.659 1.14-2.114 1.529-3.254 0.872l-6.188-3.573c-1.14-0.659-1.53-2.114-0.872-3.254l4.168-7.22c0.659-1.14 2.115-1.53 3.255-0.872l1.030 0.595-1.191 2.064z"></path>
</svg>
