<!-- Generated by IcoMoon.io -->
<svg version="1.1" xmlns="http://www.w3.org/2000/svg" width="32" height="32" viewBox="0 0 32 32">
<title>location-restroom</title>
<path d="M19.2 25.6h-4.8l3.2-7.2v-4c0-1.76 1.44-3.2 3.2-3.2h3.2c1.767 0 3.2 1.433 3.2 3.2v0 4l3.2 7.2h-4.8v6.4h-6.4v-6.4zM11.2 20.8h3.2v-6.4c0-1.767-1.433-3.2-3.2-3.2v0h-6.4c-1.767 0-3.2 1.433-3.2 3.2v0 6.4h3.2v11.2h6.4v-11.2zM8 9.6c-2.651 0-4.8-2.149-4.8-4.8s2.149-4.8 4.8-4.8v0c2.651 0 4.8 2.149 4.8 4.8s-2.149 4.8-4.8 4.8v0zM22.4 9.6c-2.651 0-4.8-2.149-4.8-4.8s2.149-4.8 4.8-4.8v0c2.651 0 4.8 2.149 4.8 4.8s-2.149 4.8-4.8 4.8v0z"></path>
</svg>
