<!-- Generated by IcoMoon.io -->
<svg version="1.1" xmlns="http://www.w3.org/2000/svg" width="32" height="32" viewBox="0 0 32 32">
<title>location-gas-station</title>
<path d="M20.8 28.8h1.6v3.2h-22.4v-3.2h1.6v-25.6c0-1.76 1.44-3.2 3.2-3.2h12.8c1.767 0 3.2 1.433 3.2 3.2v0 25.6zM4.8 3.2v9.6h12.8v-9.6h-12.8zM20.8 16h1.6c1.767 0 3.2 1.433 3.2 3.2v0 4.8c0 0.884 0.716 1.6 1.6 1.6s1.6-0.716 1.6-1.6v0-8l-3.2-3.2v-3.2l-3.2-3.2 1.6-1.6 8 8v11.2c0 2.651-2.149 4.8-4.8 4.8s-4.8-2.149-4.8-4.8v0-4.8h-1.6v-3.2z"></path>
</svg>
