<!-- Generated by IcoMoon.io -->
<svg version="1.1" xmlns="http://www.w3.org/2000/svg" width="32" height="32" viewBox="0 0 32 32">
<title>location-park</title>
<path d="M8.528 20.432c-0.656 0.249-1.415 0.393-2.207 0.393-3.535 0-6.4-2.865-6.4-6.4 0-2.995 2.057-5.509 4.835-6.207l0.044-0.009v-0.208c0-0.002 0-0.004 0-0.006 0-3.535 2.865-6.4 6.4-6.4 0.994 0 1.935 0.227 2.774 0.631l-0.038-0.017c1.033-1.353 2.647-2.218 4.463-2.218 2.837 0 5.181 2.109 5.55 4.845l0.003 0.029c1.661 0.327 2.938 1.648 3.197 3.305l0.003 0.023c2.796 0.726 4.828 3.228 4.828 6.204 0 3.535-2.865 6.4-6.4 6.4-0.999 0-1.944-0.229-2.786-0.637l0.038 0.017c-0.866 1.391-2.107 2.477-3.581 3.132l-0.051 0.020v5.472l3.2 1.6v1.6h-12.8v-1.6l3.2-1.6v-4.8l-4.272-3.568zM8 16l4.8 4.8v-4.8h-4.8z"></path>
</svg>
