<!-- Generated by IcoMoon.io -->
<svg version="1.1" xmlns="http://www.w3.org/2000/svg" width="32" height="32" viewBox="0 0 32 32">
<title>location-food</title>
<path d="M28.8 17.6v11.2c0 1.767-1.433 3.2-3.2 3.2s-3.2-1.433-3.2-3.2v0-8h-3.2v-16c0-2.651 2.149-4.8 4.8-4.8v0h4.8v17.6zM6.4 16c-1.767 0-3.2-1.433-3.2-3.2v0-11.2c0-0.884 0.716-1.6 1.6-1.6s1.6 0.716 1.6 1.6v0 6.4h1.6v-6.4c0-0.884 0.716-1.6 1.6-1.6s1.6 0.716 1.6 1.6v0 6.4h1.6v-6.4c0-0.884 0.716-1.6 1.6-1.6s1.6 0.716 1.6 1.6v0 11.2c0 1.767-1.433 3.2-3.2 3.2v0 12.8c0 1.767-1.433 3.2-3.2 3.2s-3.2-1.433-3.2-3.2v0-12.8z"></path>
</svg>
