<!-- Generated by IcoMoon.io -->
<svg version="1.1" xmlns="http://www.w3.org/2000/svg" width="32" height="32" viewBox="0 0 32 32">
<title>locked1</title>
<path d="M1.708 33.865v-19.056h3.573v-5.955c0-5.262 4.265-9.528 9.528-9.528h1.191c5.262 0 9.528 4.266 9.528 9.528v5.955h3.573v19.056h-27.392zM14.504 24.083l-0.886 6.209h3.573l-0.887-6.209c0.868-0.355 1.483-1.206 1.483-2.203 0-1.315-1.067-2.382-2.382-2.382-1.316 0-2.382 1.067-2.382 2.382 0 0.997 0.613 1.848 1.482 2.203zM21.955 9.45c0-3.618-2.933-6.55-6.55-6.55-3.618 0-6.55 2.932-6.55 6.55v5.359h13.101v-5.359z"></path>
</svg>
