<!-- Generated by IcoMoon.io -->
<svg version="1.1" xmlns="http://www.w3.org/2000/svg" width="32" height="32" viewBox="0 0 32 32">
<title>locked2</title>
<path d="M16 33.865c-6.249 0-11.314-5.066-11.314-11.314 0-4.061 2.146-7.611 5.359-9.608v-7.066c0-3.618 2.933-6.55 6.55-6.55s6.55 2.932 6.55 6.55v7.904c2.543 2.075 4.168 5.231 4.168 8.769 0 6.248-5.065 11.314-11.314 11.314zM20.764 5.877c0-2.302-1.865-4.168-4.168-4.168-2.302 0-4.168 1.866-4.168 4.168v5.944c1.124-0.374 2.322-0.585 3.573-0.585 1.705 0 3.314 0.387 4.764 1.062v-6.422zM16 13.023c-5.262 0-9.528 4.266-9.528 9.528s4.266 9.528 9.528 9.528 9.528-4.266 9.528-9.528-4.266-9.528-9.528-9.528zM16 31.483c-4.934 0-8.932-3.998-8.932-8.932s3.998-8.932 8.932-8.932c4.934 0 8.932 3.998 8.932 8.932s-3.998 8.932-8.932 8.932zM17.786 20.168c0-0.986-0.8-1.786-1.786-1.786s-1.786 0.8-1.786 1.786c0 0.847 0.6 1.521 1.39 1.708l-1.39 5.438h3.647l-1.565-5.42c0.84-0.144 1.491-0.844 1.491-1.726z"></path>
</svg>
