<!-- Generated by IcoMoon.io -->
<svg version="1.1" xmlns="http://www.w3.org/2000/svg" width="32" height="32" viewBox="0 0 32 32">
<title>lockedheart</title>
<path d="M16.039 32.678c0 0-13.145-8.138-13.145-14.695 0-3.636 2.078-7.23 6.005-7.787v-2.555c0-3.939 3.2-7.129 7.146-7.129 3.947 0 7.146 3.192 7.146 7.129v2.556c3.79 0.566 5.916 4.090 5.916 7.784-0.001 6.638-13.067 14.697-13.067 14.697zM14.184 25.465h3.647l-1.546-4.133c0.867-0.121 1.546-0.835 1.546-1.734 0-0.984-0.8-1.783-1.786-1.783s-1.786 0.799-1.786 1.783c0 0.855 0.617 1.536 1.422 1.709l-1.496 4.158zM20.808 7.642c0-2.625-2.133-4.753-4.764-4.753s-4.764 2.128-4.764 4.753v2.599c3.275 0.723 4.758 3.883 4.758 3.883s1.322-3.197 4.769-3.891v-2.59z"></path>
</svg>
