<!-- Generated by IcoMoon.io -->
<svg version="1.1" xmlns="http://www.w3.org/2000/svg" width="32" height="32" viewBox="0 0 32 32">
<title>magnet</title>
<path d="M15.405 32.711c-5.199 0-12.478-5.423-12.478-10.843 0-2.322 0.436-5.398 0.935-8.244h6.111c-0.323 2.5-0.584 5.307-0.584 8.095 0.445 2.525 4.010 4.455 6.016 4.455s5.423-1.857 6.016-4.455c0-2.804-0.27-5.606-0.604-8.095h6.088c0.519 2.887 0.977 6.007 0.977 8.317 0.001 5.349-7.278 10.77-12.477 10.77zM19.563 6.494h5.868c0 0 0.641 2.646 1.266 5.942h-6.038c-0.513-3.468-1.096-5.942-1.096-5.942zM19.563 1.739h5.941v1.189h-5.941v-1.189zM11.171 6.494c0 0-0.556 2.483-1.047 5.942h-6.062c0.612-3.3 1.241-5.942 1.241-5.942h5.868zM8.868 5.23h-1.187v-2.376h-2.377v-1.189h2.377v-2.376h1.187v2.376h2.377v1.189h-2.377v2.376z"></path>
</svg>
