<!-- Generated by IcoMoon.io -->
<svg version="1.1" xmlns="http://www.w3.org/2000/svg" width="32" height="32" viewBox="0 0 32 32">
<title>male</title>
<path d="M17.074 4.095h10.868l-0.024 10.991-3.727-3.725-3.512 3.512c0.788 1.386 1.242 2.986 1.242 4.694 0 5.262-4.264 9.528-9.528 9.528-5.262 0-9.528-4.266-9.528-9.528s4.266-9.528 9.528-9.528c1.816 0 3.509 0.518 4.954 1.401l3.475-3.52-3.749-3.824zM7.631 19.568c0 2.631 2.133 4.764 4.764 4.764s4.764-2.133 4.764-4.764-2.133-4.764-4.764-4.764-4.764 2.133-4.764 4.764z"></path>
</svg>
