<!-- Generated by IcoMoon.io -->
<svg version="1.1" xmlns="http://www.w3.org/2000/svg" width="32" height="32" viewBox="0 0 32 32">
<title>map2</title>
<path d="M20.557 0.775l-9.601 5.32-10.956-6.095v24.404l11.245 6.096 9.065-5.344 10.356 5.704v-24.361l-10.109-5.724zM28 16.312l-6.667-3.416v-8.371l6.667 3.571v8.216zM12 8.405l6.667-3.809v8.363l-6.667 3.809v-8.363zM12 18.305l6.667-3.811v8.365l-6.667 3.807v-8.361zM9.333 8.405v8.313l-6.667-4.009v-8.115l6.667 3.811zM2.667 14.267l6.667 4.009v8.391l-6.667-3.807v-8.593zM21.333 22.833v-8.439l6.667 3.416v8.593l-6.667-3.571z"></path>
</svg>
