<!-- Generated by IcoMoon.io -->
<svg version="1.1" xmlns="http://www.w3.org/2000/svg" width="32" height="32" viewBox="0 0 32 32">
<title>marvin</title>
<path d="M16 1.708c-7.893 0-14.292 6.399-14.292 14.292 0 7.894 6.399 14.292 14.292 14.292 7.894 0 14.292-6.398 14.292-14.292 0-7.893-6.398-14.292-14.292-14.292zM25.022 18.163l-2.815 3.132-0.606-4.403c-3.647-1.117-7.815-1.128-11.686-0.012l-0.376 4.458c0 0-3.056-3.145-3.111-3.145-1.43 0.509-2.981 1.628-2.981 1.628l-0.074-0.967c0 0 11.811-8.238 24.714 0l-0.074 0.967c-0.002 0.001-1.427-1.211-2.991-1.658z"></path>
</svg>
