<!-- Generated by IcoMoon.io -->
<svg version="1.1" xmlns="http://www.w3.org/2000/svg" width="32" height="32" viewBox="0 0 32 32">
<title>medal1</title>
<path d="M7.893 20.808c-1.489 0-1.686-0.696-1.686-0.696l-5.806 11.409 4.656-0.522 2.575 3.871c0 0 5.359-11.187 5.359-11.112-2.775-0.067-1.673-2.876-5.097-2.951zM20.981 22.032c0.723-1.215 1.791-1.831 3.205-1.85 1.412-0.019 2.128-0.735 2.147-2.148 0.019-1.412 0.635-2.481 1.85-3.203s1.477-1.701 0.786-2.933-0.691-2.466 0-3.699 0.428-2.21-0.786-2.933-1.831-1.79-1.85-3.204c-0.019-1.412-0.735-2.128-2.147-2.147-1.415-0.019-2.482-0.635-3.205-1.85-0.721-1.215-1.701-1.477-2.933-0.786s-2.465 0.691-3.698 0-2.21-0.428-2.933 0.786c-0.723 1.215-1.79 1.831-3.204 1.85-1.412 0.020-2.128 0.736-2.147 2.148-0.019 1.414-0.635 2.481-1.85 3.204s-1.477 1.701-0.786 2.933c0.691 1.233 0.691 2.466 0 3.699s-0.428 2.21 0.786 2.933c1.215 0.723 1.83 1.791 1.85 3.202 0.019 1.414 0.735 2.129 2.147 2.148 1.414 0.019 2.481 0.635 3.204 1.85 0.722 1.215 1.701 1.476 2.933 0.786s2.465-0.69 3.698 0 2.212 0.428 2.933-0.787zM17.808 16.005h-2.121v-8.010c-0.775 0.725-1.691 1.261-2.745 1.609v-1.926c0.554-0.181 1.156-0.524 1.807-1.030s1.096-1.096 1.337-1.77h1.722v11.127zM25.718 20.559c-4.242 0.447-3.38 1.496-4.347 2.314-1.117 1.191-2.509 0.961-2.509 0.961l6.55 11.261 1.608-4.168 4.58 0.596-5.882-10.963z"></path>
</svg>
