<!-- Generated by IcoMoon.io -->
<svg version="1.1" xmlns="http://www.w3.org/2000/svg" width="32" height="32" viewBox="0 0 32 32">
<title>medal</title>
<path d="M15.999 13.059c-5.411 0-9.798 4.388-9.798 9.798s4.388 9.798 9.798 9.798c5.412 0 9.798-4.388 9.798-9.798s-4.386-9.798-9.798-9.798zM15.999 31.224c-4.578 0-8.29-3.712-8.29-8.293 0-4.578 3.712-8.289 8.29-8.289 4.58 0 8.29 3.711 8.29 8.289 0 4.58-3.71 8.293-8.29 8.293zM20.926 5.222l3.363-5.877h-16.581l3.415 5.877h9.803zM22.685 15.227l6.005-9.883-4.027-5.829-7.563 13.297c3.318 0.278 5.584 2.414 5.584 2.414zM14.872 12.739l-7.536-13.223-4.026 5.829 5.829 10.057c-0.001 0 2.115-2.182 5.733-2.662zM14.652 20.673c-0.456 0.356-0.877 0.596-1.265 0.723v1.347c0.737-0.242 1.378-0.617 1.921-1.125v5.611h1.489v-7.8h-1.208c-0.169 0.472-0.481 0.889-0.937 1.245z"></path>
</svg>
