<!-- Generated by IcoMoon.io -->
<svg version="1.1" xmlns="http://www.w3.org/2000/svg" width="32" height="32" viewBox="0 0 32 32">
<title>megaphone</title>
<path d="M30.381 18.526v9.404c0 0.657-0.372 1.19-1.189 1.19-0.198 0-0.687-0.422-1.289-1.056v-25.241c0.601-0.635 1.091-1.056 1.289-1.056 0.891 0 1.189 0.532 1.189 1.189v9.642c1.611 0.045 3.112 1.352 3.112 2.964 0 1.614-1.501 2.92-3.112 2.966zM11.254 20.819c0.074 0 0-10.753 0-10.753 8.167 0 13.008-3.585 15.559-6.043v22.839c-2.551-2.457-7.392-6.043-15.559-6.043zM6.497 30.235l-2.378-9.441h-2.38c0 0-0.707-1.605-1.029-3.568-0.606 0-1.136 0-1.351 0-0.656 0-1.189-0.532-1.189-1.19v-1.189c0-0.657 0.532-1.19 1.189-1.19 0.214 0 0.744 0 1.351 0 0.323-1.963 1.029-3.567 1.029-3.567h8.325v10.703h-2.378l0.3 1.189h1.187l0.594 2.38h-1.184l1.48 5.873h-3.567z"></path>
</svg>
