<!-- Generated by IcoMoon.io -->
<svg version="1.1" xmlns="http://www.w3.org/2000/svg" width="32" height="32" viewBox="0 0 32 32">
<title>megaphone1</title>
<path d="M30.887 29.101c-0.986 0-1.786-0.8-1.786-1.786v-21.438c0-0.986 0.8-1.786 1.786-1.786s1.786 0.8 1.786 1.786v21.438c0 0.986-0.8 1.786-1.786 1.786zM21.955 26.719c0 1.315-1.067 2.382-2.382 2.382h-10.719c-1.315 0-2.382-1.067-2.382-2.382v-4.715l-4.753-1.058v-8.61l26.23-5.78v20.227l-5.994-1.333v1.267zM20.764 25.186l-13.101-2.917v4.449c0 0.657 0.534 1.191 1.191 1.191h10.719c0.659 0 1.191-0.534 1.191-1.191v-1.533zM-0.674 21.955c-0.657 0-1.191-0.534-1.191-1.191v-8.337c0-0.659 0.534-1.191 1.191-1.191s1.191 0.532 1.191 1.191v8.337c0 0.657-0.534 1.191-1.191 1.191z"></path>
</svg>
