<!-- Generated by IcoMoon.io -->
<svg version="1.1" xmlns="http://www.w3.org/2000/svg" width="32" height="32" viewBox="0 0 32 32">
<title>mic2</title>
<path d="M14.4 28.8v-1.696c-6.347-0.823-11.2-6.194-11.2-12.7 0-0.002 0-0.003 0-0.005v0h3.2c0 5.302 4.298 9.6 9.6 9.6s9.6-4.298 9.6-9.6v0h3.2c0 0.001 0 0.003 0 0.004 0 6.505-4.853 11.877-11.136 12.693l-0.064 0.007v1.696h4.8v3.2h-12.8v-3.2h4.8zM9.6 6.4c0-3.535 2.865-6.4 6.4-6.4s6.4 2.865 6.4 6.4v0 8c0 3.535-2.865 6.4-6.4 6.4s-6.4-2.865-6.4-6.4v0-8z"></path>
</svg>
