<!-- Generated by IcoMoon.io -->
<svg version="1.1" xmlns="http://www.w3.org/2000/svg" width="32" height="32" viewBox="0 0 32 32">
<title>microphone2</title>
<path d="M16.476 27.834v3.565c3.563 0.192 6.318 1.371 6.318 2.471 0 0.027-14.611 0.027-14.611 0 0-1.059 2.551-2.202 5.923-2.456v-3.594c-4.304-0.617-7.625-4.284-7.625-8.758v-1.852h1.185v1.852c0 4.252 3.447 7.7 7.698 7.701h0.005c4.252-0.001 7.698-3.449 7.698-7.701v-1.852h1.26v1.852c-0.001 4.527-3.474 8.221-7.852 8.773zM15.405 25.474c-3.615 0-6.543-2.929-6.543-6.543v-2.95h5.353v-1.19h-5.353v-1.19h5.353v-1.189h-5.353v-1.19h5.353v-1.19h-5.353v-1.19h5.353v-1.19h-5.353v-1.884c0-3.613 2.929-6.469 6.543-6.469 3.613 0 6.543 2.855 6.543 6.469v1.884h-5.355v1.19h5.355v1.19h-5.355v1.19h5.355v1.19h-5.355v1.189h5.355v1.19h-5.355v1.19h5.355v2.95c0 3.615-2.93 6.543-6.543 6.543z"></path>
</svg>
