<!-- Generated by IcoMoon.io -->
<svg version="1.1" xmlns="http://www.w3.org/2000/svg" width="32" height="32" viewBox="0 0 32 32">
<title>microphone3</title>
<path d="M18.681 12.315c0.735-2.5 0.424-5.24-0.931-7.535 0.030 0.042-12.957 13.133-13.049 13.051 2.257 1.333 4.997 1.708 7.464 1.019-0.018-0.063 6.465-6.544 6.517-6.535zM16.364 2.692c-1.75-1.725-4.253-2.894-6.9-2.894-5.351 0-9.69 4.349-9.69 9.714 0 2.618 1.191 5.152 2.87 6.899 0.004 0 13.638-13.607 13.72-13.719zM30.068 28.465c0 0 0.317-2.737-0.473-3.526-0.052-0.052-9.106-11.106-9.106-11.106l-6.737 6.737 11.053 9.157c0.737 0.842 3.579 0.422 3.579 0.422l2.263 2.053 1.579-1.579-2.158-2.158z"></path>
</svg>
