<!-- Generated by IcoMoon.io -->
<svg version="1.1" xmlns="http://www.w3.org/2000/svg" width="36" height="32" viewBox="0 0 36 32">
<title>microwave</title>
<path d="M38.628 30.292h-9.527v-27.392h9.527c0.659 0 1.191 0.532 1.191 1.191v25.010c0 0.657-0.532 1.191-1.191 1.191zM33.866 25.528h1.191v-1.191h-1.191v1.191zM33.866 23.146h1.191v-1.191h-1.191v1.191zM33.866 20.764h1.191v-1.191h-1.191v1.191zM31.484 25.528h1.19v-1.191h-1.19v1.191zM31.484 23.146h1.19v-1.191h-1.19v1.191zM31.484 20.764h1.19v-1.191h-1.19v1.191zM37.439 7.663h-5.955v3.573h5.955v-3.573zM37.439 19.573h-1.191v1.191h1.191v-1.191zM37.439 21.955h-1.191v1.191h1.191v-1.191zM37.439 24.337h-1.191v1.191h1.191v-1.191zM-3.056 29.101v-25.010c0-0.659 0.534-1.191 1.192-1.191h29.774v27.392h-29.774c-0.659 0-1.192-0.534-1.192-1.191zM25.574 17.797c0.659 0 1.191-0.534 1.191-1.191 0-0.659-0.532-1.191-1.191-1.191-0.657 0-1.191 0.532-1.191 1.191 0 0.657 0.534 1.191 1.191 1.191zM1.708 24.337c0 0.657 0.534 1.191 1.192 1.191h19.054c0.659 0 1.191-0.534 1.191-1.191v-15.483c0-0.659-0.532-1.191-1.191-1.191h-19.054c-0.659 0-1.192 0.532-1.192 1.191v15.483z"></path>
</svg>
