<!-- Generated by IcoMoon.io -->
<svg version="1.1" xmlns="http://www.w3.org/2000/svg" width="32" height="32" viewBox="0 0 32 32">
<title>microphone1</title>
<path d="M16.478 27.804v3.567c3.567 0.193 6.326 1.374 6.326 2.475 0 0.027-14.628 0.027-14.628 0 0-1.061 2.553-2.204 5.93-2.458v-3.598c-4.31-0.618-7.634-4.288-7.634-8.769v-1.778h1.186v1.778c0 4.257 3.45 7.708 7.707 7.709h0.005c4.257-0.001 7.781-3.451 7.781-7.709v-1.778h1.186v1.778c0 4.533-3.476 8.231-7.859 8.783zM15.366 25.469c-3.601 0-6.524-2.921-6.524-6.524v-1.704h13.122v1.704c0 3.603-2.997 6.524-6.598 6.524zM8.842 5.847c0-3.603 2.921-6.523 6.524-6.523s6.598 2.92 6.598 6.523v10.209h-13.122v-10.209z"></path>
</svg>
