<!-- Generated by IcoMoon.io -->
<svg version="1.1" xmlns="http://www.w3.org/2000/svg" width="32" height="32" viewBox="0 0 32 32">
<title>microphone</title>
<path d="M24.337 19.020v-1.778h-1.186v1.778c0 4.257-3.524 7.708-7.781 7.709h-0.005c-4.257-0.001-7.707-3.451-7.707-7.709v-1.778h-1.186v1.778c0 4.482 3.324 8.151 7.634 8.768v3.598c-3.378 0.255-5.93 1.398-5.93 2.458 0 0.027 14.628 0.027 14.628 0 0-1.1-2.758-2.282-6.325-2.475v-3.567c4.382-0.551 7.858-4.249 7.858-8.782zM15.366 25.469c3.603 0 6.598-2.921 6.598-6.524v-1.704h-13.122v1.704c0 3.603 2.921 6.524 6.524 6.524zM21.964 5.847c0-3.603-2.995-6.523-6.598-6.523-3.601 0-6.524 2.92-6.524 6.523v10.209h13.122v-10.209zM17.786 1.723c0.328 0 0.596 0.267 0.596 0.596s-0.268 0.596-0.596 0.596c-0.329 0-0.596-0.267-0.596-0.596s0.267-0.596 0.596-0.596zM15.405 1.723c0.328 0 0.595 0.267 0.595 0.596s-0.268 0.596-0.595 0.596c-0.329 0-0.595-0.267-0.595-0.596s0.267-0.596 0.595-0.596zM13.023 1.723c0.328 0 0.595 0.267 0.595 0.596s-0.268 0.596-0.595 0.596c-0.329 0-0.595-0.267-0.595-0.596s0.267-0.596 0.595-0.596zM10.641 14.823c-0.329 0-0.595-0.267-0.595-0.595s0.267-0.595 0.595-0.595c0.328 0 0.595 0.267 0.595 0.595s-0.268 0.595-0.595 0.595zM10.641 12.441c-0.329 0-0.595-0.267-0.595-0.595s0.267-0.595 0.595-0.595c0.328 0 0.595 0.267 0.595 0.595s-0.268 0.595-0.595 0.595zM10.641 10.059c-0.329 0-0.595-0.267-0.595-0.596s0.267-0.595 0.595-0.595c0.328 0 0.595 0.267 0.595 0.595s-0.268 0.596-0.595 0.596zM10.641 7.678c-0.329 0-0.595-0.267-0.595-0.596s0.267-0.596 0.595-0.596c0.328 0 0.595 0.267 0.595 0.596s-0.268 0.596-0.595 0.596zM11.832 5.296c-0.329 0-0.595-0.267-0.595-0.596s0.267-0.596 0.595-0.596c0.328 0 0.595 0.267 0.595 0.596s-0.268 0.596-0.595 0.596zM13.023 14.823c-0.329 0-0.595-0.267-0.595-0.595s0.267-0.595 0.595-0.595c0.328 0 0.595 0.267 0.595 0.595s-0.268 0.595-0.595 0.595zM13.023 12.441c-0.329 0-0.595-0.267-0.595-0.595s0.267-0.595 0.595-0.595c0.328 0 0.595 0.267 0.595 0.595s-0.268 0.595-0.595 0.595zM13.023 10.059c-0.329 0-0.595-0.267-0.595-0.596s0.267-0.595 0.595-0.595c0.328 0 0.595 0.267 0.595 0.595s-0.268 0.596-0.595 0.596zM13.023 7.678c-0.329 0-0.595-0.267-0.595-0.596s0.267-0.596 0.595-0.596c0.328 0 0.595 0.267 0.595 0.596s-0.268 0.596-0.595 0.596zM14.214 5.296c-0.329 0-0.595-0.267-0.595-0.596s0.267-0.596 0.595-0.596c0.328 0 0.595 0.267 0.595 0.596s-0.268 0.596-0.595 0.596zM15.405 14.823c-0.329 0-0.595-0.267-0.595-0.595s0.267-0.595 0.595-0.595c0.328 0 0.595 0.267 0.595 0.595s-0.268 0.595-0.595 0.595zM15.405 12.441c-0.329 0-0.595-0.267-0.595-0.595s0.267-0.595 0.595-0.595c0.328 0 0.595 0.267 0.595 0.595s-0.268 0.595-0.595 0.595zM15.405 10.059c-0.329 0-0.595-0.267-0.595-0.596s0.267-0.595 0.595-0.595c0.328 0 0.595 0.267 0.595 0.595s-0.268 0.596-0.595 0.596zM15.405 7.678c-0.329 0-0.595-0.267-0.595-0.596s0.267-0.596 0.595-0.596c0.328 0 0.595 0.267 0.595 0.596s-0.268 0.596-0.595 0.596zM16.596 5.296c-0.329 0-0.596-0.267-0.596-0.596s0.267-0.596 0.596-0.596c0.328 0 0.596 0.267 0.596 0.596s-0.268 0.596-0.596 0.596zM17.786 14.823c-0.329 0-0.596-0.267-0.596-0.595s0.267-0.595 0.596-0.595c0.328 0 0.596 0.267 0.596 0.595s-0.268 0.595-0.596 0.595zM17.786 12.441c-0.329 0-0.596-0.267-0.596-0.595s0.267-0.595 0.596-0.595c0.328 0 0.596 0.267 0.596 0.595s-0.268 0.595-0.596 0.595zM17.786 10.059c-0.329 0-0.596-0.267-0.596-0.596s0.267-0.595 0.596-0.595c0.328 0 0.596 0.267 0.596 0.595s-0.268 0.596-0.596 0.596zM17.786 7.678c-0.329 0-0.596-0.267-0.596-0.596s0.267-0.596 0.596-0.596c0.328 0 0.596 0.267 0.596 0.596s-0.268 0.596-0.596 0.596zM18.977 5.296c-0.329 0-0.596-0.267-0.596-0.596s0.267-0.596 0.596-0.596c0.328 0 0.596 0.267 0.596 0.596s-0.268 0.596-0.596 0.596zM20.168 14.823c-0.329 0-0.596-0.267-0.596-0.595s0.267-0.595 0.596-0.595c0.328 0 0.596 0.267 0.596 0.595s-0.268 0.595-0.596 0.595zM20.168 12.441c-0.329 0-0.596-0.267-0.596-0.595s0.267-0.595 0.596-0.595c0.328 0 0.596 0.267 0.596 0.595s-0.268 0.595-0.596 0.595zM20.168 10.059c-0.329 0-0.596-0.267-0.596-0.596s0.267-0.595 0.596-0.595c0.328 0 0.596 0.267 0.596 0.595s-0.268 0.596-0.596 0.596zM20.168 7.678c-0.329 0-0.596-0.267-0.596-0.596s0.267-0.596 0.596-0.596c0.328 0 0.596 0.267 0.596 0.596s-0.268 0.596-0.596 0.596z"></path>
</svg>
