<!-- Generated by IcoMoon.io -->
<svg version="1.1" xmlns="http://www.w3.org/2000/svg" width="32" height="32" viewBox="0 0 32 32">
<title>minus3</title>
<path d="M7.068 2.899h-3.573c-0.329 0-0.595 0.267-0.595 0.595v3.573c0 0.329 0.267 0.596 0.595 0.596s0.596-0.267 0.596-0.596v-2.977h2.977c0.329 0 0.596-0.267 0.596-0.596s-0.267-0.595-0.596-0.595zM10.641 4.090h3.573c0.328 0 0.595-0.267 0.595-0.596s-0.268-0.595-0.595-0.595h-3.573c-0.329 0-0.595 0.267-0.595 0.595s0.267 0.596 0.595 0.596zM21.359 2.899h-3.573c-0.329 0-0.596 0.267-0.596 0.595s0.267 0.596 0.596 0.596h3.573c0.328 0 0.596-0.267 0.596-0.596s-0.268-0.595-0.596-0.595zM28.505 2.899h-3.573c-0.329 0-0.596 0.267-0.596 0.595s0.267 0.596 0.596 0.596h2.977v2.977c0 0.329 0.267 0.596 0.596 0.596 0.328 0 0.596-0.267 0.596-0.596v-3.573c0-0.329-0.268-0.595-0.596-0.595zM28.505 10.045c-0.329 0-0.596 0.267-0.596 0.595v3.573c0 0.329 0.267 0.595 0.596 0.595 0.328 0 0.596-0.267 0.596-0.595v-3.573c0-0.329-0.268-0.595-0.596-0.595zM28.505 17.191c-0.329 0-0.596 0.267-0.596 0.596v3.573c0 0.329 0.267 0.596 0.596 0.596 0.328 0 0.596-0.267 0.596-0.596v-3.573c0-0.329-0.268-0.596-0.596-0.596zM28.505 24.337c-0.329 0-0.596 0.267-0.596 0.596v2.977h-2.977c-0.329 0-0.596 0.267-0.596 0.596s0.267 0.596 0.596 0.596h3.573c0.328 0 0.596-0.267 0.596-0.596v-3.573c0-0.329-0.268-0.596-0.596-0.596zM21.359 27.91h-3.573c-0.329 0-0.596 0.267-0.596 0.596s0.267 0.596 0.596 0.596h3.573c0.328 0 0.596-0.267 0.596-0.596s-0.268-0.596-0.596-0.596zM14.214 27.91h-3.573c-0.329 0-0.595 0.267-0.595 0.596s0.267 0.596 0.595 0.596h3.573c0.328 0 0.595-0.267 0.595-0.596s-0.268-0.596-0.595-0.596zM7.068 27.91h-2.977v-2.977c0-0.329-0.267-0.596-0.596-0.596s-0.595 0.267-0.595 0.596v3.573c0 0.329 0.267 0.596 0.595 0.596h3.573c0.329 0 0.596-0.267 0.596-0.596s-0.267-0.596-0.596-0.596zM3.495 21.955c0.329 0 0.596-0.267 0.596-0.596v-3.573c0-0.329-0.267-0.596-0.596-0.596s-0.595 0.267-0.595 0.596v3.573c0 0.329 0.267 0.596 0.595 0.596zM3.495 14.809c0.329 0 0.596-0.267 0.596-0.595v-3.573c0-0.329-0.267-0.595-0.596-0.595s-0.595 0.267-0.595 0.595v3.573c0 0.329 0.267 0.595 0.595 0.595zM11.162 17.191h9.528c0.659 0 1.191-0.534 1.191-1.191 0-0.659-0.532-1.191-1.191-1.191h-9.528c-0.659 0-1.191 0.532-1.191 1.191 0 0.657 0.532 1.191 1.191 1.191z"></path>
</svg>
