<!-- Generated by IcoMoon.io -->
<svg version="1.1" xmlns="http://www.w3.org/2000/svg" width="32" height="32" viewBox="0 0 32 32">
<title>minus2</title>
<path d="M16 0.517c-8.551 0-15.483 6.931-15.483 15.483s6.931 15.483 15.483 15.483 15.483-6.931 15.483-15.483-6.931-15.483-15.483-15.483zM16 27.91c-6.577 0-11.91-5.333-11.91-11.91 0-6.578 5.333-11.91 11.91-11.91 6.578 0 11.91 5.332 11.91 11.91 0 6.577-5.332 11.91-11.91 11.91zM20.452 14.809h-9.528c-0.659 0-1.191 0.534-1.191 1.191 0 0.659 0.532 1.191 1.191 1.191h9.528c0.659 0 1.191-0.532 1.191-1.191 0-0.657-0.532-1.191-1.191-1.191z"></path>
</svg>
