<!-- Generated by IcoMoon.io -->
<svg version="1.1" xmlns="http://www.w3.org/2000/svg" width="32" height="32" viewBox="0 0 32 32">
<title>mobile-devices</title>
<path d="M27.2 9.6v-1.6h-3.2v-4.8h-19.2v22.4h8v6.4h4.8c-1.767 0-3.2-1.433-3.2-3.2v0-16c0-1.767 1.433-3.2 3.2-3.2v0h9.6zM18 32h-13.2c-1.767 0-3.2-1.433-3.2-3.2v0-25.6c0-1.76 1.44-3.2 3.2-3.2h19.2c1.767 0 3.2 1.433 3.2 3.2v0 6.4c1.767 0 3.2 1.433 3.2 3.2v0 16c0 1.767-1.433 3.2-3.2 3.2v0h-9.2zM17.6 12.8v12.8h9.6v-12.8h-9.6zM22.4 30.4c0.884 0 1.6-0.716 1.6-1.6s-0.716-1.6-1.6-1.6v0c-0.884 0-1.6 0.716-1.6 1.6s0.716 1.6 1.6 1.6v0z"></path>
</svg>
