<!-- Generated by IcoMoon.io -->
<svg version="1.1" xmlns="http://www.w3.org/2000/svg" width="32" height="32" viewBox="0 0 32 32">
<title>moneybag</title>
<path d="M13.638 8.023h4.685v-1.758h-4.685v1.758zM18.289 8.608h-4.651c0 0-7.652 7.542-7.652 14.937 0 7.835 8.018 8.458 8.018 8.458s2.391 0.397 3.879 0c0 0 8.13-0.953 8.13-8.42 0.001-7.47-7.723-14.975-7.723-14.975zM18.633 24.483c-0.188 0.381-0.442 0.7-0.766 0.955-0.323 0.256-0.7 0.448-1.13 0.576-0.055 0.017-0.114 0.023-0.17 0.037v1.301h-1.171v-1.148c-0.014 0.001-0.029 0.004-0.043 0.004-0.332 0-0.641-0.026-0.927-0.080-0.285-0.055-0.536-0.12-0.755-0.195-0.219-0.076-0.401-0.156-0.547-0.239-0.146-0.083-0.252-0.157-0.317-0.222-0.065-0.064-0.111-0.157-0.138-0.279-0.026-0.123-0.040-0.297-0.040-0.525 0-0.154 0.005-0.282 0.015-0.387s0.025-0.188 0.049-0.254c0.023-0.065 0.051-0.111 0.088-0.138 0.037-0.026 0.081-0.040 0.13-0.040 0.070 0 0.168 0.040 0.294 0.123s0.288 0.173 0.487 0.272c0.199 0.1 0.435 0.189 0.711 0.273 0.275 0.081 0.594 0.123 0.956 0.123 0.238 0 0.451-0.029 0.64-0.086s0.349-0.137 0.48-0.242c0.132-0.105 0.232-0.233 0.301-0.387 0.070-0.155 0.105-0.325 0.105-0.516 0-0.218-0.061-0.405-0.179-0.562-0.119-0.156-0.275-0.294-0.466-0.417-0.191-0.121-0.407-0.235-0.65-0.342s-0.494-0.22-0.751-0.338c-0.258-0.119-0.509-0.254-0.751-0.406-0.243-0.151-0.461-0.331-0.651-0.542s-0.345-0.461-0.466-0.748c-0.119-0.287-0.177-0.632-0.177-1.034 0-0.462 0.086-0.867 0.256-1.216 0.171-0.349 0.403-0.64 0.692-0.869 0.291-0.23 0.632-0.403 1.027-0.517 0.203-0.058 0.412-0.101 0.626-0.129v-1.233h1.171v1.231c0.048 0.006 0.094 0.004 0.141 0.011 0.227 0.035 0.442 0.081 0.64 0.141 0.198 0.058 0.374 0.125 0.528 0.199s0.256 0.135 0.305 0.185c0.051 0.049 0.083 0.090 0.102 0.125 0.017 0.035 0.030 0.081 0.044 0.138 0.012 0.057 0.021 0.129 0.025 0.217 0.005 0.086 0.007 0.194 0.007 0.323 0 0.144-0.005 0.267-0.012 0.367-0.007 0.099-0.019 0.181-0.037 0.245-0.017 0.065-0.042 0.112-0.074 0.142s-0.074 0.044-0.13 0.044c-0.054 0-0.142-0.033-0.261-0.102-0.119-0.070-0.266-0.144-0.437-0.225-0.174-0.081-0.374-0.155-0.603-0.223-0.23-0.067-0.48-0.099-0.751-0.099-0.214 0-0.4 0.025-0.559 0.077-0.16 0.051-0.292 0.124-0.399 0.214-0.106 0.092-0.186 0.203-0.237 0.33-0.052 0.127-0.077 0.264-0.077 0.407 0 0.214 0.058 0.399 0.174 0.555s0.273 0.295 0.469 0.417c0.195 0.123 0.418 0.236 0.667 0.342 0.248 0.107 0.5 0.22 0.759 0.338 0.258 0.12 0.51 0.255 0.759 0.406s0.47 0.332 0.663 0.543 0.349 0.459 0.468 0.743c0.119 0.286 0.179 0.621 0.179 1.009-0.001 0.503-0.096 0.946-0.285 1.328zM18.252 5.679l2.38-5.858c0 0-1.501 1.246-2.38 1.246s-2.271-1.209-2.271-1.209-1.501 1.209-2.38 1.209c-0.878 0-2.307-1.172-2.307-1.172l2.416 5.785h4.541z"></path>
</svg>
