<!-- Generated by IcoMoon.io -->
<svg version="1.1" xmlns="http://www.w3.org/2000/svg" width="32" height="32" viewBox="0 0 32 32">
<title>monitor1</title>
<path d="M17.191 26.645h-3.573v1.86l-3.573 0.596v1.191h10.645v-1.117l-3.499-0.669v-1.86zM29.101 1.708h-27.392c-1.316 0-2.382 1.066-2.382 2.382v16.674c0 1.315 1.066 2.382 2.382 2.382h27.392c1.316 0 2.382-1.067 2.382-2.382v-16.674c0-1.316-1.066-2.382-2.382-2.382zM15.256 21.359c-0.657 0-1.191-0.534-1.191-1.191 0-0.659 0.534-1.191 1.191-1.191 0.659 0 1.191 0.532 1.191 1.191 0 0.657-0.534 1.191-1.191 1.191zM29.101 17.191h-27.392v-13.101h27.392v13.101z"></path>
</svg>
