<!-- Generated by IcoMoon.io -->
<svg version="1.1" xmlns="http://www.w3.org/2000/svg" width="32" height="32" viewBox="0 0 32 32">
<title>mood-neutral-outline</title>
<path d="M16 32c-8.837 0-16-7.163-16-16s7.163-16 16-16v0c8.837 0 16 7.163 16 16s-7.163 16-16 16v0zM16 28.8c7.069 0 12.8-5.731 12.8-12.8s-5.731-12.8-12.8-12.8v0c-7.069 0-12.8 5.731-12.8 12.8s5.731 12.8 12.8 12.8v0zM10.4 14.4c-1.325 0-2.4-1.075-2.4-2.4s1.075-2.4 2.4-2.4v0c1.325 0 2.4 1.075 2.4 2.4s-1.075 2.4-2.4 2.4v0zM21.6 14.4c-1.325 0-2.4-1.075-2.4-2.4s1.075-2.4 2.4-2.4v0c1.325 0 2.4 1.075 2.4 2.4s-1.075 2.4-2.4 2.4v0zM11.2 20.8h9.6c0.884 0 1.6 0.716 1.6 1.6s-0.716 1.6-1.6 1.6v0h-9.6c-0.884 0-1.6-0.716-1.6-1.6s0.716-1.6 1.6-1.6v0z"></path>
</svg>
