<!-- Generated by IcoMoon.io -->
<svg version="1.1" xmlns="http://www.w3.org/2000/svg" width="32" height="32" viewBox="0 0 32 32">
<title>moonandstar</title>
<path d="M19.79 28.3c-6.711 0-12.219-5.545-12.219-12.3 0-6.806 5.406-12.3 12.354-12.3 2.382 0 4.764 0.96 4.764 0.96-2.712-1.906-5.532-2.857-8.461-2.857-3.98 0-7.36 1.378-10.142 4.135s-4.172 6.111-4.172 10.063c0 3.927 1.385 7.274 4.154 10.045s6.117 4.154 10.045 4.154c5.076 0 8.184-2.621 8.576-2.877 0 0-2.517 0.979-4.898 0.979zM22.613 16.786l-1.267 3.935 3.343-2.418 3.324 2.418-1.267-3.935 3.343-2.406h-4.133l-1.268-3.928-1.286 3.928h-4.131l3.343 2.406z"></path>
</svg>
