<!-- Generated by IcoMoon.io -->
<svg version="1.1" xmlns="http://www.w3.org/2000/svg" width="32" height="32" viewBox="0 0 32 32">
<title>mouse1</title>
<path d="M24.284 33.831h-5.936c-3.935 0-7.123-3.189-7.123-7.123v-10.685h7.198v2.375c0 1.311 0.989 2.374 2.301 2.374h1.186c1.312 0 2.375-1.064 2.375-2.374v-2.375h7.197v10.685c0 3.934-3.264 7.123-7.198 7.123zM24.284 13.648c0-1.311-1.064-2.375-2.375-2.375v0-7.049c0 0-1.558-0.074 2.301-0.074s7.272 2.522 7.272 7.123c0 2.362 0 3.213 0 3.487h-7.198v-1.112zM20.809 3.346c0-2.295-1.080-3.573-3.243-3.573-2.288 0-4.039 1.648-5.251 4.944l-0.249 0.675c-1.418 3.853-3.498 5.78-6.235 5.78-1.105 0-2.137-0.422-3.095-1.262-0.959-0.842-1.437-1.746-1.437-2.714 0-0.479 0.224-0.719 0.674-0.719 0.304 0 0.617 0.382 0.94 1.146 0.586 1.41 1.565 2.115 2.935 2.115 1.037 0 1.885-0.335 2.546-1.006 0.661-0.671 1.412-1.96 2.253-3.869l0.543-1.204c1.595-3.563 3.743-5.345 6.442-5.345 3.093 0 4.639 1.765 4.639 5.034h-1.461zM23.097 14.241v3.561c0 0.984-0.797 1.78-1.78 1.78s-1.78-0.797-1.78-1.78v-3.561c0-0.984 0.797-1.782 1.78-1.782s1.78 0.798 1.78 1.782zM18.422 4.15c3.858 0 2.374 0.074 2.374 0.074v7.049c-1.311 0-2.374 1.064-2.374 2.375v1.114h-7.198c0-0.274 0-1.125 0-3.487 0-4.602 3.34-7.124 7.198-7.124z"></path>
</svg>
