<!-- Generated by IcoMoon.io -->
<svg version="1.1" xmlns="http://www.w3.org/2000/svg" width="32" height="32" viewBox="0 0 32 32">
<title>mug</title>
<path d="M27.625 26.725h-3.244v2.577c0 1.841-1.641 3.332-3.482 3.332h-12.277c-1.841 0-3.334-1.491-3.334-3.332v-17.984h3.571v17.751h2.368l0.002-17.751c0.636 0.459 1.589 0.799 2.391 0.98v16.772h2.368v-16.703c0.887-0.146 1.701-0.48 2.401-0.961v17.665h2.368v-17.753h6.867c1.472 0 2.667 1.193 2.667 2.667v10.072c0.001 1.473-1.193 2.668-2.665 2.668zM27.899 13.63h-3.519v10.701h3.519v-10.701zM22.219 10.214c-1.166 0-2.219-0.466-2.998-1.216-0.967 1.366-2.551 2.265-4.351 2.265-1.735 0-3.261-0.842-4.236-2.125-0.772 0.713-1.796 1.159-2.93 1.159-2.090 0-3.834-1.48-4.242-3.449-0.636-0.417-1.056-1.134-1.056-1.95 0-1.289 1.044-2.333 2.333-2.333 0.095 0 0.187 0.017 0.279 0.027 0.721-0.573 1.619-0.935 2.607-0.954 0.444-1.317 1.677-2.274 3.145-2.274 1.13 0 2.125 0.566 2.729 1.426 0.438-0.119 0.894-0.193 1.371-0.193 0.498 0 0.972 0.083 1.428 0.213 0.601-0.872 1.605-1.446 2.744-1.446 1.437 0 2.651 0.915 3.119 2.189 0.020 0 0.037-0.006 0.057-0.006 2.394 0 4.334 1.94 4.334 4.333s-1.94 4.333-4.333 4.333z"></path>
</svg>
