<!-- Generated by IcoMoon.io -->
<svg version="1.1" xmlns="http://www.w3.org/2000/svg" width="32" height="32" viewBox="0 0 32 32">
<title>music1</title>
<path d="M29.039 1.158c-6.386 0.126-13.784 1.233-20.172 3.32-0.004-0.042 0.024 18.97 0.024 18.97-1.153-0.261-2.456-0.11-3.824 0.514-2.539 1.154-3.924 3.487-3.093 5.21 0.831 1.726 3.563 2.189 6.103 1.033 2.321-1.245 3.068-2.37 3.144-3.998l0.057-16.474c5.033-1.48 10.355-2.358 15.391-2.63v14.728c-1.166-0.286-2.711-0.142-4.11 0.493-2.539 1.156-3.924 3.49-3.093 5.213 0.831 1.726 3.563 2.187 6.104 1.033 1.805-0.821 3.25-2.238 3.505-3.607 0.001-0.001-0.061-23.837-0.036-23.805z"></path>
</svg>
