<!-- Generated by IcoMoon.io -->
<svg version="1.1" xmlns="http://www.w3.org/2000/svg" width="32" height="32" viewBox="0 0 32 32">
<title>music-artist</title>
<path d="M25.2 12.8l-5.984-6c-0.010-0.133-0.015-0.287-0.015-0.443 0-3.526 2.858-6.384 6.384-6.384 1.777 0 3.385 0.726 4.543 1.899l0.001 0.001c1.168 1.16 1.891 2.766 1.891 4.542 0 3.535-2.865 6.4-6.4 6.4-0.147 0-0.294-0.005-0.438-0.015l0.020 0.001zM2.96 24.48l14.72-14.704 4.528 4.528-14.72 14.72-4.512-4.544zM0.72 29.008l3.376-3.392 2.272 2.272-3.392 3.392-2.272-2.272zM16 24l3.2-3.2v11.2h-3.2v-8z"></path>
</svg>
