<!-- Generated by IcoMoon.io -->
<svg version="1.1" xmlns="http://www.w3.org/2000/svg" width="32" height="32" viewBox="0 0 32 32">
<title>music-notes</title>
<path d="M32 4v-4l-22.4 3.2v19.472c-0.474-0.172-1.022-0.272-1.593-0.272-0.002 0-0.005 0-0.008 0h-3.2c-2.651 0-4.8 2.149-4.8 4.8s2.149 4.8 4.8 4.8v0h3.2c2.651 0 4.8-2.149 4.8-4.8v0-18.064l16-2.256v12.608c-0.474-0.172-1.022-0.272-1.593-0.272-0.003 0-0.005 0-0.008 0h-3.2c-2.651 0-4.8 2.149-4.8 4.8s2.149 4.8 4.8 4.8h3.2c2.651 0 4.8-2.149 4.8-4.8v0-20.016z"></path>
</svg>
