<!-- Generated by IcoMoon.io -->
<svg version="1.1" xmlns="http://www.w3.org/2000/svg" width="32" height="32" viewBox="0 0 32 32">
<title>mute</title>
<path d="M16 30.85c-8.202 0-14.85-6.648-14.85-14.85s6.648-14.85 14.85-14.85c8.201 0 14.85 6.648 14.85 14.85s-6.649 14.85-14.85 14.85zM11.233 8.226c-1.025 0-1.857 1.108-1.857 2.475 0 1.366 0.83 2.475 1.857 2.475 1.024 0 1.857-1.109 1.857-2.475 0-1.368-0.832-2.475-1.857-2.475zM11.056 18.848l-0.619 1.072 4.358 2.517-4.436 2.559 0.619 1.071 5.055-2.917 5.055 2.917 0.619-1.071-4.436-2.559 4.358-2.517-0.619-1.072-4.977 2.874-4.975-2.874zM20.82 8.236c-1.023 0-1.855 1.109-1.855 2.475 0 1.367 0.831 2.475 1.855 2.475 1.025 0 1.858-1.108 1.858-2.475-0.001-1.366-0.832-2.475-1.858-2.475z"></path>
</svg>
