<!-- Generated by IcoMoon.io -->
<svg version="1.1" xmlns="http://www.w3.org/2000/svg" width="33" height="32" viewBox="0 0 33 32">
<title>navigation</title>
<path d="M34.609 13.544c-0.605 0-2.062 0.671-3.1 1.191h-2.364c-0.143-3.029-1.359-5.77-3.281-7.86l1.563-1.564c1.11-0.363 2.742-0.952 3.191-1.401 0.698-0.698 0.698-1.829 0-2.527-0.698-0.697-1.828-0.697-2.526 0-0.428 0.428-0.984 1.934-1.349 3.035l-1.671 1.67c-2.1-1.912-4.847-3.111-7.879-3.237v-2.212c0.526-1.042 1.265-2.613 1.265-3.248 0-0.986-0.8-1.786-1.786-1.786s-1.786 0.8-1.786 1.786c0 0.605 0.671 2.062 1.191 3.1v2.364c-3.029 0.143-5.771 1.358-7.862 3.281l-1.563-1.564c-0.363-1.11-0.953-2.743-1.402-3.192-0.697-0.697-1.828-0.697-2.526 0-0.698 0.698-0.698 1.829 0 2.527 0.428 0.429 1.933 0.984 3.033 1.349l1.671 1.671c-1.895 2.083-3.089 4.803-3.231 7.806h-2.364c-1.037-0.52-2.494-1.191-3.1-1.191-0.987 0-1.786 0.8-1.786 1.786s0.799 1.786 1.786 1.786c0.635 0 2.206-0.738 3.248-1.265h2.213c0.125 3.032 1.326 5.78 3.236 7.879l-1.67 1.671c-1.102 0.366-2.606 0.921-3.035 1.349-0.698 0.698-0.698 1.829 0 2.526 0.698 0.698 1.829 0.698 2.526 0 0.449-0.448 1.037-2.079 1.402-3.189l1.564-1.564c2.090 1.922 4.832 3.138 7.86 3.281v2.364c-0.52 1.037-1.191 2.495-1.191 3.1 0 0.986 0.8 1.786 1.786 1.786s1.786-0.8 1.786-1.786c0-0.635-0.738-2.206-1.265-3.248v-2.213c3.032-0.124 5.78-1.324 7.879-3.235l1.671 1.67c0.366 1.1 0.921 2.606 1.349 3.033 0.698 0.698 1.828 0.698 2.526 0 0.698-0.697 0.698-1.828 0-2.526-0.449-0.449-2.081-1.037-3.191-1.402l-1.563-1.563c1.939-2.108 3.158-4.877 3.285-7.935h2.213c1.042 0.528 2.612 1.265 3.248 1.265 0.986 0 1.786-0.8 1.786-1.786s-0.801-1.785-1.788-1.785zM9.11 8.614l4.23 4.23c-0.407 0.544-0.678 1.187-0.78 1.89h-5.983c0.137-2.345 1.067-4.472 2.533-6.12zM6.572 15.851h5.981c0.093 0.732 0.367 1.403 0.788 1.965l-4.232 4.23c-1.48-1.665-2.415-3.821-2.538-6.195zM16.074 25.423c-2.372-0.138-4.52-1.089-6.176-2.584l4.228-4.228c0.556 0.431 1.218 0.722 1.948 0.827v5.986zM16.074 11.222c-0.73 0.105-1.392 0.397-1.948 0.828l-4.228-4.228c1.657-1.495 3.804-2.446 6.176-2.584v5.985zM26.763 14.735h-5.985c-0.105-0.729-0.395-1.392-0.827-1.948l4.228-4.228c1.495 1.655 2.445 3.804 2.583 6.176zM23.386 7.77l-4.23 4.231c-0.563-0.422-1.233-0.696-1.965-0.788v-5.981c2.375 0.123 4.53 1.058 6.195 2.538zM17.191 25.427v-5.98c0.732-0.093 1.403-0.367 1.965-0.787l4.23 4.23c-1.665 1.48-3.821 2.415-6.195 2.537zM24.178 22.101l-4.228-4.228c0.447-0.574 0.74-1.265 0.835-2.022h5.98c-0.12 2.402-1.075 4.578-2.587 6.25z"></path>
</svg>
