<!-- Generated by IcoMoon.io -->
<svg version="1.1" xmlns="http://www.w3.org/2000/svg" width="32" height="32" viewBox="0 0 32 32">
<title>network1</title>
<path d="M16 32c-8.837 0-16-7.163-16-16s7.163-16 16-16v0c8.837 0 16 7.163 16 16s-7.163 16-16 16v0zM28.4 19.2c0.258-0.96 0.406-2.063 0.406-3.2s-0.148-2.24-0.426-3.289l0.020 0.089h-6.112c0.071 0.957 0.111 2.074 0.111 3.2s-0.040 2.243-0.12 3.348l0.009-0.148h6.112zM27.088 22.4h-5.152c-0.297 2.096-0.829 3.989-1.577 5.768l0.057-0.152c2.852-1.072 5.161-3.040 6.639-5.556l0.033-0.060zM12.928 19.2h6.144c0.083-0.958 0.13-2.074 0.13-3.2s-0.047-2.242-0.14-3.344l0.010 0.144h-6.144c-0.083 0.958-0.13 2.074-0.13 3.2s0.047 2.242 0.14 3.344l-0.010-0.144zM13.328 22.4c0.656 3.84 1.808 6.4 2.672 6.4s2.016-2.56 2.672-6.4h-5.344zM3.6 19.2h6.112c-0.071-0.957-0.111-2.074-0.111-3.2s0.040-2.243 0.12-3.348l-0.009 0.148h-6.112c-0.258 0.96-0.406 2.063-0.406 3.2s0.148 2.24 0.426 3.289l-0.020-0.089zM4.912 22.4c1.511 2.576 3.82 4.544 6.584 5.587l0.088 0.029c-0.672-1.536-1.184-3.456-1.52-5.616h-5.152zM27.088 9.6c-1.511-2.576-3.82-4.544-6.584-5.587l-0.088-0.029c0.672 1.536 1.184 3.456 1.52 5.616h5.152zM13.328 9.6h5.344c-0.656-3.84-1.808-6.4-2.672-6.4s-2.016 2.56-2.672 6.4zM4.912 9.6h5.152c0.32-2.16 0.848-4.080 1.52-5.616-2.852 1.072-5.161 3.040-6.639 5.556l-0.033 0.060z"></path>
</svg>
