<!-- Generated by IcoMoon.io -->
<svg version="1.1" xmlns="http://www.w3.org/2000/svg" width="32" height="32" viewBox="0 0 32 32">
<title>notifications</title>
<path d="M6.4 12.8c0-0.001 0-0.003 0-0.004 0-4.173 2.662-7.724 6.381-9.047l0.067-0.021c-0.025-0.152-0.040-0.326-0.040-0.504 0-1.767 1.433-3.2 3.2-3.2s3.2 1.433 3.2 3.2c0 0.178-0.015 0.353-0.043 0.523l0.003-0.019c3.777 1.349 6.432 4.895 6.432 9.062 0 0.003 0 0.007 0 0.010v-0.001 9.6l4.8 3.2v1.6h-28.8v-1.6l4.8-3.2v-9.6zM19.2 28.8c0 1.767-1.433 3.2-3.2 3.2s-3.2-1.433-3.2-3.2v0h6.4z"></path>
</svg>
