<!-- Generated by IcoMoon.io -->
<svg version="1.1" xmlns="http://www.w3.org/2000/svg" width="32" height="32" viewBox="0 0 32 32">
<title>notice</title>
<path d="M15.405 1.113c-8.551 0-15.483 6.931-15.483 15.483s6.931 15.483 15.483 15.483 15.483-6.931 15.483-15.483-6.931-15.483-15.483-15.483zM15.405 25.379c-0.987 0-1.786-0.8-1.786-1.786s0.799-1.786 1.786-1.786c0.986 0 1.786 0.8 1.786 1.786s-0.8 1.786-1.786 1.786zM17.191 17.638c0 0.986-0.8 1.786-1.786 1.786-0.987 0-1.786-0.8-1.786-1.786v-8.337c0-0.987 0.799-1.786 1.786-1.786 0.986 0 1.786 0.799 1.786 1.786v8.337z"></path>
</svg>
