<!-- Generated by IcoMoon.io -->
<svg version="1.1" xmlns="http://www.w3.org/2000/svg" width="32" height="32" viewBox="0 0 32 32">
<title>number14</title>
<path d="M16 0.517c-8.551 0-15.483 6.931-15.483 15.483s6.931 15.483 15.483 15.483 15.483-6.931 15.483-15.483-6.931-15.483-15.483-15.483zM20.223 21.574c-0.999 1.354-2.386 2.031-4.159 2.031-1.417 0-2.572-0.38-3.467-1.142-0.893-0.763-1.428-1.789-1.603-3.075l2.941-0.305c0.083 0.666 0.331 1.191 0.742 1.577 0.411 0.388 0.884 0.581 1.42 0.581 0.613 0 1.13-0.249 1.557-0.747 0.423-0.498 0.636-1.249 0.636-2.255 0-0.941-0.212-1.647-0.634-2.118-0.423-0.47-0.974-0.706-1.653-0.706-0.846 0-1.605 0.372-2.276 1.117l-2.378-0.344 1.508-7.993h7.778v2.754h-5.548l-0.473 2.611c0.659-0.325 1.33-0.489 2.016-0.489 1.309 0 2.418 0.475 3.329 1.424 0.91 0.949 1.365 2.182 1.365 3.696-0.001 1.265-0.368 2.393-1.1 3.384z"></path>
</svg>
