<!-- Generated by IcoMoon.io -->
<svg version="1.1" xmlns="http://www.w3.org/2000/svg" width="32" height="32" viewBox="0 0 32 32">
<title>number1</title>
<path d="M16 0.517c-8.551 0-15.483 6.931-15.483 15.483s6.931 15.483 15.483 15.483 15.483-6.931 15.483-15.483-6.931-15.483-15.483-15.483zM16 29.101c-7.235 0-13.101-5.866-13.101-13.101s5.866-13.101 13.101-13.101 13.101 5.866 13.101 13.101-5.866 13.101-13.101 13.101zM17.863 18.116c0.723-0.662 1.223-1.17 1.501-1.522 0.418-0.532 0.723-1.042 0.917-1.527 0.192-0.486 0.288-0.998 0.288-1.535 0-0.944-0.337-1.735-1.010-2.37s-1.598-0.953-2.776-0.953c-1.074 0-1.97 0.274-2.687 0.822s-1.143 1.451-1.278 2.709l2.28 0.227c0.043-0.667 0.206-1.143 0.488-1.43 0.281-0.287 0.661-0.43 1.139-0.43 0.482 0 0.861 0.137 1.134 0.411 0.274 0.274 0.412 0.667 0.412 1.177 0 0.461-0.158 0.928-0.472 1.401-0.232 0.342-0.866 0.993-1.896 1.953-1.281 1.189-2.139 2.143-2.572 2.862-0.435 0.719-0.696 1.479-0.781 2.283h8.020v-2.121h-4.548c0.12-0.206 0.275-0.418 0.469-0.636 0.191-0.218 0.649-0.657 1.373-1.321z"></path>
</svg>
