<!-- Generated by IcoMoon.io -->
<svg version="1.1" xmlns="http://www.w3.org/2000/svg" width="32" height="32" viewBox="0 0 32 32">
<title>number8</title>
<path d="M16 0.517c-8.551 0-15.483 6.931-15.483 15.483s6.931 15.483 15.483 15.483 15.483-6.931 15.483-15.483-6.931-15.483-15.483-15.483zM16 29.101c-7.235 0-13.101-5.866-13.101-13.101s5.866-13.101 13.101-13.101 13.101 5.866 13.101 13.101-5.866 13.101-13.101 13.101zM15.534 10.447c-1.114 0-2.029 0.37-2.75 1.111-0.719 0.741-1.078 1.717-1.078 2.927 0 1.162 0.341 2.106 1.021 2.83 0.681 0.724 1.492 1.087 2.431 1.087 0.863 0 1.582-0.335 2.158-1.003-0.092 1.368-0.304 2.27-0.634 2.705-0.331 0.433-0.731 0.651-1.204 0.651-0.374 0-0.674-0.11-0.903-0.326s-0.369-0.553-0.423-1.004l-2.213 0.244c0.163 0.992 0.531 1.738 1.106 2.235 0.575 0.499 1.33 0.749 2.263 0.749 1.298 0 2.35-0.484 3.158-1.452 0.809-0.967 1.214-2.543 1.214-4.726 0-2.146-0.388-3.687-1.165-4.625-0.776-0.936-1.771-1.405-2.982-1.405zM16.661 16.206c-0.3 0.348-0.669 0.522-1.109 0.522-0.455 0-0.835-0.18-1.139-0.542s-0.455-0.928-0.455-1.698c0-0.76 0.139-1.308 0.418-1.641 0.28-0.333 0.63-0.5 1.054-0.5 0.444 0 0.835 0.204 1.174 0.611 0.338 0.407 0.509 0.98 0.509 1.719 0 0.673-0.15 1.183-0.453 1.53z"></path>
</svg>
