<!-- Generated by IcoMoon.io -->
<svg version="1.1" xmlns="http://www.w3.org/2000/svg" width="32" height="32" viewBox="0 0 32 32">
<title>number11</title>
<path d="M16 0.517c-8.551 0-15.483 6.931-15.483 15.483s6.931 15.483 15.483 15.483 15.483-6.931 15.483-15.483-6.931-15.483-15.483-15.483zM21.171 21.271v2.736h-10.309c0.111-1.033 0.445-2.010 1.004-2.936 0.557-0.924 1.659-2.152 3.304-3.68 1.323-1.235 2.135-2.072 2.436-2.512 0.405-0.607 0.607-1.208 0.607-1.801 0-0.656-0.175-1.161-0.525-1.514s-0.834-0.529-1.452-0.529c-0.61 0-1.096 0.186-1.457 0.556s-0.569 0.985-0.623 1.845l-2.941-0.294c0.174-1.619 0.721-2.781 1.641-3.487 0.919-0.705 2.071-1.058 3.451-1.058 1.512 0 2.701 0.408 3.566 1.224 0.865 0.817 1.297 1.832 1.297 3.045 0 0.691-0.124 1.348-0.372 1.972s-0.64 1.279-1.177 1.962c-0.356 0.453-0.999 1.106-1.931 1.958-0.93 0.85-1.52 1.415-1.767 1.694-0.248 0.28-0.448 0.551-0.601 0.817h5.848z"></path>
</svg>
