<!-- Generated by IcoMoon.io -->
<svg version="1.1" xmlns="http://www.w3.org/2000/svg" width="32" height="32" viewBox="0 0 32 32">
<title>number19</title>
<path d="M16.879 10.614c-0.278-0.226-0.596-0.341-0.954-0.341s-0.678 0.114-0.959 0.341c-0.281 0.227-0.499 0.634-0.654 1.22-0.204 0.761-0.305 2.041-0.305 3.842s0.090 3.038 0.273 3.711 0.413 1.121 0.69 1.346c0.278 0.224 0.596 0.333 0.954 0.333s0.676-0.113 0.959-0.339 0.498-0.634 0.654-1.22c0.202-0.754 0.305-2.031 0.305-3.831s-0.090-3.038-0.274-3.711c-0.182-0.673-0.411-1.123-0.688-1.351zM16 0.517c-8.551 0-15.483 6.931-15.483 15.483s6.931 15.483 15.483 15.483 15.483-6.931 15.483-15.483-6.931-15.483-15.483-15.483zM19.404 21.935c-0.831 1.047-1.991 1.57-3.479 1.57-1.495 0-2.7-0.573-3.615-1.721s-1.372-3.194-1.372-6.138c0-2.889 0.503-4.969 1.509-6.238 0.831-1.047 1.991-1.57 3.479-1.57s2.651 0.53 3.49 1.591c0.998 1.256 1.498 3.338 1.498 6.249-0.001 2.902-0.505 4.989-1.51 6.257z"></path>
</svg>
