<!-- Generated by IcoMoon.io -->
<svg version="1.1" xmlns="http://www.w3.org/2000/svg" width="32" height="32" viewBox="0 0 32 32">
<title>number7</title>
<path d="M16 0.517c-8.551 0-15.483 6.931-15.483 15.483s6.931 15.483 15.483 15.483 15.483-6.931 15.483-15.483-6.931-15.483-15.483-15.483zM16 29.101c-7.235 0-13.101-5.866-13.101-13.101s5.866-13.101 13.101-13.101 13.101 5.866 13.101 13.101-5.866 13.101-13.101 13.101zM17.436 15.277c0.52-0.227 0.924-0.557 1.212-0.99s0.431-0.924 0.431-1.478c0-0.891-0.314-1.626-0.94-2.207-0.628-0.58-1.509-0.871-2.643-0.871-1.146 0-2.028 0.291-2.65 0.871-0.622 0.581-0.933 1.316-0.933 2.207 0 0.522 0.135 1 0.403 1.437 0.27 0.437 0.699 0.78 1.291 1.030-0.688 0.294-1.192 0.711-1.513 1.252-0.319 0.541-0.479 1.135-0.479 1.782 0 1.174 0.425 2.1 1.277 2.773 0.721 0.57 1.624 0.856 2.709 0.856 1.166 0 2.101-0.345 2.804-1.036 0.703-0.69 1.054-1.586 1.054-2.69 0-0.669-0.173-1.259-0.517-1.77s-0.846-0.899-1.508-1.166zM14.474 11.938c0.261-0.261 0.61-0.391 1.049-0.391 0.423 0 0.763 0.129 1.021 0.387 0.257 0.257 0.386 0.601 0.386 1.030 0 0.456-0.13 0.813-0.391 1.071-0.261 0.258-0.607 0.387-1.041 0.387-0.429 0-0.771-0.127-1.029-0.382-0.257-0.255-0.386-0.611-0.386-1.067 0-0.429 0.13-0.774 0.391-1.035zM16.736 19.588c-0.311 0.339-0.701 0.51-1.173 0.51-0.482 0-0.886-0.175-1.21-0.529-0.323-0.354-0.483-0.847-0.483-1.477 0-0.451 0.137-0.871 0.412-1.258 0.274-0.386 0.691-0.579 1.249-0.579 0.483 0 0.883 0.17 1.198 0.51 0.314 0.341 0.472 0.791 0.472 1.349 0 0.641-0.155 1.133-0.464 1.473z"></path>
</svg>
