<!-- Generated by IcoMoon.io -->
<svg version="1.1" xmlns="http://www.w3.org/2000/svg" width="32" height="32" viewBox="0 0 32 32">
<title>number12</title>
<path d="M16 0.517c-8.551 0-15.483 6.931-15.483 15.483s6.931 15.483 15.483 15.483 15.483-6.931 15.483-15.483-6.931-15.483-15.483-15.483zM19.567 22.38c-0.984 0.949-2.208 1.422-3.675 1.422-1.389 0-2.54-0.399-3.454-1.197-0.916-0.798-1.446-1.84-1.592-3.129l2.848-0.344c0.091 0.723 0.335 1.276 0.734 1.659 0.397 0.382 0.879 0.574 1.445 0.574 0.607 0 1.118-0.231 1.535-0.693 0.414-0.461 0.622-1.083 0.622-1.865 0-0.74-0.199-1.328-0.597-1.761-0.399-0.433-0.884-0.649-1.457-0.649-0.378 0-0.828 0.074-1.353 0.219l0.324-2.378c0.796 0.021 1.403-0.151 1.821-0.517s0.626-0.852 0.626-1.458c0-0.516-0.152-0.925-0.459-1.233-0.307-0.306-0.713-0.46-1.221-0.46-0.501 0-0.928 0.174-1.283 0.522-0.355 0.349-0.57 0.857-0.648 1.526l-2.717-0.46c0.188-0.931 0.473-1.676 0.854-2.233s0.911-0.994 1.591-1.314 1.443-0.478 2.288-0.478c1.445 0 2.603 0.461 3.475 1.383 0.719 0.754 1.078 1.605 1.078 2.555 0 1.347-0.737 2.422-2.213 3.225 0.88 0.188 1.584 0.611 2.11 1.266 0.528 0.656 0.791 1.447 0.791 2.375 0.001 1.348-0.491 2.495-1.474 3.443z"></path>
</svg>
