<!-- Generated by IcoMoon.io -->
<svg version="1.1" xmlns="http://www.w3.org/2000/svg" width="32" height="32" viewBox="0 0 32 32">
<title>number2</title>
<path d="M16 0.517c-8.551 0-15.483 6.931-15.483 15.483s6.931 15.483 15.483 15.483 15.483-6.931 15.483-15.483-6.931-15.483-15.483-15.483zM16 29.101c-7.235 0-13.101-5.866-13.101-13.101s5.866-13.101 13.101-13.101 13.101 5.866 13.101 13.101-5.866 13.101-13.101 13.101zM17.486 15.070c1.147-0.625 1.719-1.463 1.719-2.511 0-0.74-0.279-1.402-0.84-1.989-0.68-0.717-1.584-1.075-2.709-1.075-0.659 0-1.253 0.124-1.783 0.37s-0.943 0.587-1.241 1.018c-0.295 0.431-0.518 1.009-0.666 1.732l2.112 0.36c0.061-0.523 0.23-0.919 0.507-1.192 0.279-0.273 0.615-0.408 1.006-0.408 0.398 0 0.718 0.12 0.958 0.358 0.239 0.239 0.36 0.561 0.36 0.964 0 0.474-0.164 0.853-0.492 1.14-0.325 0.286-0.802 0.42-1.423 0.404l-0.254 1.864c0.41-0.114 0.76-0.171 1.054-0.171 0.445 0 0.823 0.168 1.134 0.504s0.466 0.792 0.466 1.366c0 0.606-0.162 1.089-0.485 1.446-0.324 0.357-0.723 0.536-1.196 0.536-0.441 0-0.817-0.149-1.125-0.447-0.311-0.298-0.5-0.729-0.57-1.293l-2.214 0.269c0.114 1.004 0.526 1.816 1.239 2.438s1.608 0.931 2.689 0.931c1.14 0 2.094-0.368 2.859-1.106 0.767-0.737 1.149-1.629 1.149-2.676 0-0.721-0.205-1.336-0.613-1.846-0.412-0.509-0.958-0.837-1.64-0.984z"></path>
</svg>
