<!-- Generated by IcoMoon.io -->
<svg version="1.1" xmlns="http://www.w3.org/2000/svg" width="32" height="32" viewBox="0 0 32 32">
<title>number4</title>
<path d="M16 0.517c-8.551 0-15.483 6.931-15.483 15.483s6.931 15.483 15.483 15.483 15.483-6.931 15.483-15.483-6.931-15.483-15.483-15.483zM16 29.101c-7.235 0-13.101-5.866-13.101-13.101s5.866-13.101 13.101-13.101 13.101 5.866 13.101 13.101-5.866 13.101-13.101 13.101zM16.308 13.486c-0.532 0-1.055 0.127-1.564 0.382l0.363-2.029h4.314v-2.14h-6.048l-1.173 6.216 1.854 0.27c0.522-0.584 1.11-0.874 1.767-0.874 0.526 0 0.954 0.183 1.283 0.55s0.493 0.917 0.493 1.651c0 0.782-0.167 1.367-0.497 1.757-0.331 0.389-0.736 0.582-1.215 0.582-0.418 0-0.787-0.15-1.108-0.451-0.322-0.3-0.513-0.709-0.579-1.223l-2.278 0.236c0.136 0.999 0.55 1.794 1.246 2.386 0.696 0.591 1.594 0.886 2.696 0.886 1.379 0 2.456-0.525 3.234-1.58 0.57-0.771 0.854-1.648 0.854-2.632 0-1.178-0.353-2.137-1.059-2.876-0.709-0.74-1.57-1.109-2.584-1.109z"></path>
</svg>
