<!-- Generated by IcoMoon.io -->
<svg version="1.1" xmlns="http://www.w3.org/2000/svg" width="32" height="32" viewBox="0 0 32 32">
<title>number17</title>
<path d="M16.255 16.788c-0.719 0-1.254 0.249-1.607 0.749-0.353 0.499-0.528 1.040-0.528 1.623 0 0.817 0.207 1.453 0.622 1.91s0.933 0.686 1.554 0.686c0.607 0 1.11-0.222 1.508-0.661s0.597-1.073 0.597-1.904c0-0.724-0.203-1.307-0.607-1.746-0.405-0.438-0.918-0.657-1.539-0.657zM16.213 14.461c0.556 0 1-0.167 1.334-0.498 0.332-0.332 0.5-0.792 0.5-1.379 0-0.553-0.166-0.994-0.495-1.327s-0.766-0.498-1.308-0.498c-0.563 0-1.011 0.168-1.345 0.503-0.333 0.336-0.5 0.78-0.5 1.333 0 0.587 0.166 1.046 0.494 1.374 0.331 0.328 0.771 0.492 1.32 0.492zM16 0.517c-8.551 0-15.483 6.931-15.483 15.483s6.931 15.483 15.483 15.483 15.483-6.931 15.483-15.483-6.931-15.483-15.483-15.483zM19.948 22.787c-0.904 0.889-2.106 1.333-3.604 1.333-1.396 0-2.556-0.368-3.485-1.103-1.094-0.868-1.642-2.057-1.642-3.568 0-0.831 0.206-1.596 0.619-2.291 0.412-0.696 1.062-1.233 1.95-1.611-0.761-0.32-1.315-0.761-1.659-1.322-0.347-0.561-0.519-1.174-0.519-1.844 0-1.142 0.399-2.085 1.198-2.831 0.799-0.744 1.935-1.117 3.407-1.117 1.459 0 2.592 0.373 3.397 1.117 0.807 0.746 1.21 1.689 1.21 2.831 0 0.711-0.185 1.342-0.555 1.896-0.372 0.553-0.891 0.977-1.561 1.268 0.849 0.343 1.495 0.843 1.937 1.501s0.663 1.416 0.663 2.276c0 1.423-0.453 2.577-1.355 3.466z"></path>
</svg>
