<!-- Generated by IcoMoon.io -->
<svg version="1.1" xmlns="http://www.w3.org/2000/svg" width="32" height="32" viewBox="0 0 32 32">
<title>number9</title>
<path d="M16 0.517c-8.551 0-15.483 6.931-15.483 15.483s6.931 15.483 15.483 15.483 15.483-6.931 15.483-15.483-6.931-15.483-15.483-15.483zM16 29.101c-7.235 0-13.101-5.866-13.101-13.101s5.866-13.101 13.101-13.101 13.101 5.866 13.101 13.101-5.866 13.101-13.101 13.101zM15.993 9.732c-1.159 0-2.059 0.407-2.706 1.222-0.782 0.989-1.173 2.606-1.173 4.852 0 2.29 0.356 3.883 1.067 4.776s1.65 1.339 2.812 1.339c1.156 0 2.059-0.407 2.705-1.221 0.782-0.987 1.174-2.611 1.174-4.869 0-2.263-0.388-3.884-1.166-4.862-0.651-0.824-1.557-1.237-2.713-1.237zM17.245 18.809c-0.121 0.456-0.289 0.772-0.507 0.949-0.219 0.176-0.468 0.264-0.744 0.264-0.279 0-0.525-0.087-0.741-0.261s-0.394-0.522-0.536-1.046-0.212-1.486-0.212-2.886 0.079-2.396 0.237-2.987c0.119-0.456 0.288-0.772 0.507-0.948 0.218-0.176 0.466-0.264 0.744-0.264 0.276 0 0.523 0.088 0.74 0.264 0.216 0.176 0.393 0.526 0.535 1.050s0.214 1.486 0.214 2.886-0.079 2.391-0.237 2.977z"></path>
</svg>
