<!-- Generated by IcoMoon.io -->
<svg version="1.1" xmlns="http://www.w3.org/2000/svg" width="32" height="32" viewBox="0 0 32 32">
<title>number</title>
<path d="M16 0.517c-8.551 0-15.483 6.931-15.483 15.483s6.931 15.483 15.483 15.483 15.483-6.931 15.483-15.483-6.931-15.483-15.483-15.483zM16 29.101c-7.235 0-13.101-5.866-13.101-13.101s5.866-13.101 13.101-13.101 13.101 5.866 13.101 13.101-5.866 13.101-13.101 13.101zM14.604 12.081c-0.701 0.545-1.351 0.917-1.947 1.112v2.075c1.135-0.374 2.121-0.952 2.958-1.733v8.469h2.438v-11.91h-2.008c-0.26 0.729-0.741 1.44-1.441 1.987z"></path>
</svg>
