<!-- Generated by IcoMoon.io -->
<svg version="1.1" xmlns="http://www.w3.org/2000/svg" width="32" height="32" viewBox="0 0 32 32">
<title>number5</title>
<path d="M16 0.517c-8.551 0-15.483 6.931-15.483 15.483s6.931 15.483 15.483 15.483 15.483-6.931 15.483-15.483-6.931-15.483-15.483-15.483zM16 29.101c-7.235 0-13.101-5.866-13.101-13.101s5.866-13.101 13.101-13.101 13.101 5.866 13.101 13.101-5.866 13.101-13.101 13.101zM16.619 14.434c-0.847 0-1.554 0.336-2.125 1.010 0.087-1.371 0.297-2.272 0.63-2.705s0.741-0.649 1.224-0.649c0.363 0 0.659 0.108 0.886 0.325s0.369 0.551 0.423 1.006l2.214-0.244c-0.163-0.965-0.542-1.7-1.136-2.207-0.594-0.506-1.345-0.76-2.251-0.76-1.292 0-2.343 0.482-3.151 1.449-0.809 0.966-1.212 2.543-1.212 4.731 0 2.133 0.387 3.668 1.165 4.604 0.775 0.936 1.766 1.405 2.973 1.405 1.124 0 2.045-0.37 2.761-1.109 0.718-0.74 1.075-1.721 1.075-2.944 0-1.153-0.342-2.093-1.022-2.82-0.68-0.73-1.498-1.093-2.453-1.093zM17.43 20.002c-0.281 0.331-0.635 0.497-1.058 0.497-0.438 0-0.829-0.202-1.171-0.607s-0.512-0.98-0.512-1.726c0-0.674 0.151-1.185 0.455-1.53s0.675-0.519 1.115-0.519c0.455 0 0.835 0.181 1.139 0.543s0.456 0.931 0.456 1.71c0 0.757-0.142 1.302-0.424 1.633z"></path>
</svg>
