<!-- Generated by IcoMoon.io -->
<svg version="1.1" xmlns="http://www.w3.org/2000/svg" width="32" height="32" viewBox="0 0 32 32">
<title>number6</title>
<path d="M16 0.517c-8.551 0-15.483 6.931-15.483 15.483s6.931 15.483 15.483 15.483 15.483-6.931 15.483-15.483-6.931-15.483-15.483-15.483zM16 29.101c-7.235 0-13.101-5.866-13.101-13.101s5.866-13.101 13.101-13.101 13.101 5.866 13.101 13.101-5.866 13.101-13.101 13.101zM12.122 12.774h5.206c-1.074 1.353-1.933 2.888-2.575 4.605-0.643 1.716-0.984 3.401-1.021 5.053h2.206c-0.006-1.054 0.167-2.25 0.517-3.587 0.349-1.339 0.859-2.602 1.524-3.792 0.667-1.189 1.322-2.101 1.969-2.736v-1.665h-7.825v2.121z"></path>
</svg>
