<!-- Generated by IcoMoon.io -->
<svg version="1.1" xmlns="http://www.w3.org/2000/svg" width="32" height="32" viewBox="0 0 32 32">
<title>number15</title>
<path d="M16.074 16.044c-0.567 0-1.044 0.222-1.435 0.665-0.392 0.443-0.587 1.097-0.587 1.962 0 0.956 0.22 1.694 0.661 2.213 0.439 0.52 0.942 0.78 1.509 0.78 0.544 0 0.999-0.214 1.362-0.64s0.544-1.122 0.544-2.093c0-0.998-0.195-1.728-0.586-2.193s-0.881-0.694-1.468-0.694zM16 0.517c-8.551 0-15.483 6.931-15.483 15.483s6.931 15.483 15.483 15.483 15.483-6.931 15.483-15.483-6.931-15.483-15.483-15.483zM19.629 22.678c-0.921 0.949-2.106 1.422-3.549 1.422-1.551 0-2.825-0.601-3.823-1.805-0.999-1.204-1.498-3.176-1.498-5.919 0-2.812 0.522-4.839 1.563-6.081 1.040-1.242 2.391-1.863 4.054-1.863 1.166 0 2.132 0.328 2.896 0.983 0.766 0.656 1.253 1.607 1.462 2.854l-2.848 0.313c-0.070-0.584-0.253-1.016-0.545-1.293-0.294-0.279-0.675-0.418-1.145-0.418-0.623 0-1.15 0.278-1.58 0.835-0.43 0.556-0.701 1.715-0.813 3.478 0.732-0.865 1.645-1.297 2.736-1.297 1.229 0 2.282 0.467 3.158 1.401s1.315 2.14 1.315 3.618c0 1.57-0.461 2.827-1.383 3.774z"></path>
</svg>
