<!-- Generated by IcoMoon.io -->
<svg version="1.1" xmlns="http://www.w3.org/2000/svg" width="32" height="32" viewBox="0 0 32 32">
<title>open</title>
<path d="M30.292 33.865h-28.583c-1.973 0-3.573-1.601-3.573-3.573v-16.674c0-1.973 1.599-3.573 3.573-3.573h28.583c1.972 0 3.573 1.599 3.573 3.573v16.674c0 1.972-1.601 3.573-3.573 3.573zM6.472 18.431c-1.973 0-3.573 1.866-3.573 4.168 0 2.303 1.599 4.168 3.573 4.168 1.972 0 3.573-1.865 3.573-4.168 0-2.302-1.601-4.168-3.573-4.168zM15.738 19.451c-0.137-0.282-0.32-0.503-0.545-0.659-0.226-0.157-0.507-0.263-0.842-0.319-0.238-0.044-0.584-0.065-1.036-0.065h-2.123v8.234h1.2v-2.401h1.003c0.965 0 1.629-0.424 2-0.825 0.368-0.403 0.553-2.158 0.553-2.738-0.001-0.336-0.070-0.944-0.208-1.227zM21.983 25.462h-3.642v-2.391h3.521v-1.108h-3.52v-2.447h3.633v-1.108h-4.758v8.234h4.767v-1.18zM29.046 18.409h-1.089v6.324l-3.587-6.324h-1.223v8.234h1.164v-6.028l3.587 6.028h1.149v-8.234zM13.407 23.063h-1.016v-3.546h0.998c0.408 0 0.688 0.020 0.841 0.061 0.235 0.065 0.425 0.198 0.569 0.4s0.217 0.447 0.217 0.73c0 0.393-0.123 1.813-0.368 2.029s-0.659 0.325-1.241 0.325zM6.472 25.677c-1.315 0-2.382-1.333-2.382-2.977s1.067-2.977 2.382-2.977 2.382 1.333 2.382 2.977-1.067 2.977-2.382 2.977zM26.719 10.045l-8.72-6.491c-0.41 0.33-0.923 0.536-1.489 0.536-0.788 0-1.482-0.387-1.914-0.978l-9.315 6.933h-1.191l10.115-7.763c-0.045-0.185-0.077-0.375-0.077-0.574 0-1.315 1.067-2.382 2.382-2.382 1.316 0 2.382 1.067 2.382 2.382 0 0.428-0.123 0.824-0.32 1.172l9.338 7.165h-1.191z"></path>
</svg>
