<!-- Generated by IcoMoon.io -->
<svg version="1.1" xmlns="http://www.w3.org/2000/svg" width="32" height="32" viewBox="0 0 32 32">
<title>oven</title>
<path d="M32.674 31.483h-34.538c-0.659 0-1.191-0.534-1.191-1.191v-20.247h36.92v20.247c0 0.657-0.534 1.191-1.191 1.191zM29.101 13.618c0-0.659-0.534-1.191-1.191-1.191h-25.010c-0.659 0-1.191 0.532-1.191 1.191v14.292c0 0.657 0.532 1.191 1.191 1.191h25.010c0.657 0 1.191-0.534 1.191-1.191v-14.292zM7.663 14.809h15.483v1.191h-15.483v-1.191zM-3.056 4.090c0-0.659 0.532-1.191 1.191-1.191h2.382c0 0 0.267-1.191 0.594-1.191h9.529c0.328 0 0.595 1.191 0.595 1.191h8.337c0 0 0.267-1.191 0.596-1.191h9.528c0.328 0 0.596 1.191 0.596 1.191h2.382c0.657 0 1.191 0.532 1.191 1.191v4.764h-36.92v-4.764zM30.862 7.688c0.987 0 1.786-0.799 1.786-1.786 0-0.986-0.799-1.786-1.786-1.786-0.986 0-1.786 0.8-1.786 1.786 0 0.987 0.799 1.786 1.786 1.786zM26.172 7.688c0.986 0 1.786-0.799 1.786-1.786 0-0.986-0.8-1.786-1.786-1.786s-1.786 0.8-1.786 1.786c0 0.987 0.8 1.786 1.786 1.786zM21.408 7.688c0.987 0 1.786-0.799 1.786-1.786 0-0.986-0.799-1.786-1.786-1.786-0.986 0-1.786 0.8-1.786 1.786 0 0.987 0.8 1.786 1.786 1.786zM16.644 7.688c0.986 0 1.786-0.799 1.786-1.786 0-0.986-0.8-1.786-1.786-1.786s-1.786 0.8-1.786 1.786c0 0.987 0.8 1.786 1.786 1.786z"></path>
</svg>
