<!-- Generated by IcoMoon.io -->
<svg version="1.1" xmlns="http://www.w3.org/2000/svg" width="32" height="32" viewBox="0 0 32 32">
<title>paint</title>
<path d="M27.91 12.427h-11.91v2.382h-2.382v-3.573h14.292v-7.146h-1.191v3.573c0 0.657-0.534 1.191-1.191 1.191h-21.438c-0.659 0-1.191-0.534-1.191-1.191v-4.764c0-0.659 0.532-1.191 1.191-1.191h21.438c0.657 0 1.191 0.532 1.191 1.191h2.382v9.528h-1.191zM24.337 2.899h-19.056v1.191h19.056v-1.191zM17.191 27.91c0 1.315-1.067 2.382-2.382 2.382s-2.382-1.067-2.382-2.382v-11.91h4.764v11.91zM14.809 26.222c-0.659 0-1.191 0.534-1.191 1.191 0 0.659 0.532 1.191 1.191 1.191 0.657 0 1.191-0.532 1.191-1.191 0-0.657-0.534-1.191-1.191-1.191z"></path>
</svg>
