<!-- Generated by IcoMoon.io -->
<svg version="1.1" xmlns="http://www.w3.org/2000/svg" width="32" height="32" viewBox="0 0 32 32">
<title>patch</title>
<path d="M0.245 22.49c-1.396 1.396-1.396 3.657 0 5.053l4.211 4.21c1.395 1.396 3.656 1.396 5.052 0l5.895-5.894-9.262-9.263-5.896 5.894zM6.983 15.753l9.263 9.263 7.578-7.579-9.262-9.263-7.579 7.579zM11.236 17.191h-1.191v-1.191h1.191v1.191zM13.618 19.573h-1.191v-1.191h1.191v1.191zM13.618 17.191h-1.191v-1.191h1.191v1.191zM13.618 14.809h-1.191v-1.191h1.191v1.191zM19.573 16h1.191v1.191h-1.191v-1.191zM17.191 13.618h1.191v1.191h-1.191v-1.191zM17.191 16h1.191v1.191h-1.191v-1.191zM17.191 18.382h1.191v1.191h-1.191v-1.191zM14.809 11.236h1.191v1.191h-1.191v-1.191zM14.809 13.618h1.191v1.191h-1.191v-1.191zM14.809 16h1.191v1.191h-1.191v-1.191zM14.809 18.382h1.191v1.191h-1.191v-1.191zM14.809 20.764h1.191v1.191h-1.191v-1.191zM30.564 5.648l-4.211-4.21c-1.396-1.396-3.657-1.396-5.053 0l-5.895 5.894 9.262 9.263 5.896-5.895c1.395-1.395 1.395-3.658 0.001-5.052z"></path>
</svg>
