<!-- Generated by IcoMoon.io -->
<svg version="1.1" xmlns="http://www.w3.org/2000/svg" width="32" height="32" viewBox="0 0 32 32">
<title>pen</title>
<path d="M4.835 18.434l-3.886 11.834 5.194-5.213c-0.357-0.902-0.269-2.441 0.461-3.17 0.978-0.979 2.588-0.956 3.566 0.023 0.979 0.979 1.031 2.618 0.054 3.597-0.744 0.744-2.38 0.787-3.292 0.401l-5.149 5.163 11.554-4.059 4.208-7.579-5.126-5.057-7.583 4.061zM24.314 0.933c0 0-7.159 7.158-8.263 8.263-1.106 1.105-1.684 5.263-1.684 5.263l3.21 3.211c0 0 4.053-0.579 5.21-1.738 1.159-1.158 8.263-8.263 8.263-8.263l-6.736-6.736z"></path>
</svg>
