<!-- Generated by IcoMoon.io -->
<svg version="1.1" xmlns="http://www.w3.org/2000/svg" width="32" height="32" viewBox="0 0 32 32">
<title>pen1</title>
<path d="M31.511 4.685l-2.938 2.938-4.196-4.196 2.938-2.938c1.159-1.159 3.038-1.159 4.196 0s1.159 3.037 0 4.196zM29.832 8.041c0.232-0.231 0.609-0.231 0.84 0 0.232 0.232 0.232 0.609 0 0.84l-10.909 10.911c-0.232 0.231-0.609 0.231-0.84 0s-0.231-0.607 0-0.838l7.134-7.134-5.876-5.876 2.518-2.517 5.875 5.875 1.259-1.26zM20.181 7.623l4.196 4.196-16.786 16.786-4.196-4.196 16.786-16.786zM-0.381 32.381l2.937-7.133 4.196 4.196-7.133 2.937z"></path>
</svg>
