<!-- Generated by IcoMoon.io -->
<svg version="1.1" xmlns="http://www.w3.org/2000/svg" width="32" height="32" viewBox="0 0 32 32">
<title>pencil1</title>
<path d="M3.592 20.828l17.729-17.729 7.585 7.585-17.729 17.729-7.585-7.585zM22.137 7.375l-0.831-0.83-14.269 14.268 0.831 0.831 14.269-14.269zM23.8 9.038l-0.831-0.831-14.269 14.27 0.83 0.83 14.27-14.269zM25.462 10.7l-0.831-0.831-14.269 14.269 0.831 0.831 14.269-14.269zM24.717-0.25c0.93-0.933 2.436-0.939 3.359-0.015l4.183 4.183c0.923 0.923 0.917 2.427-0.014 3.359l-2.584 2.584-7.527-7.527 2.584-2.583zM3.009 21.816l7.182 7.182-6.293 2.235-3.124-3.124 2.235-6.293zM2.705 31.622l-3.652 1.33 1.33-3.652 2.321 2.321z"></path>
</svg>
