<!-- Generated by IcoMoon.io -->
<svg version="1.1" xmlns="http://www.w3.org/2000/svg" width="32" height="32" viewBox="0 0 32 32">
<title>phone2</title>
<path d="M15.203 20.478c-0.031-0.021-3.613-6.044-3.625-6.122-0.741-1.619-1.339-3.274-0.093-4.009l-5.17-8.718c-1.34 1.002-5.13 6.437 1.964 18.755 7.472 12.982 14.583 12.442 16.009 11.563l-5.038-8.51c-1.191 0.7-2.194-0.454-4.047-2.961zM27.745 28.645l0.001-0.007c0 0-3.934-6.629-3.936-6.631-0.312-0.525-0.983-0.691-1.505-0.386l-2.411 1.426 5.052 8.535c0 0 2.411-1.418 2.409-1.423h0.005c0.554-0.329 0.681-1.008 0.385-1.513zM14.554 8.54v-0.005c0.554-0.328 0.684-1.006 0.387-1.507l0.002-0.007c0 0-4.047-6.823-4.049-6.824-0.311-0.528-0.984-0.691-1.504-0.386l-2.411 1.426 5.164 8.723c0 0 2.409-1.416 2.411-1.42z"></path>
</svg>
