<!-- Generated by IcoMoon.io -->
<svg version="1.1" xmlns="http://www.w3.org/2000/svg" width="32" height="32" viewBox="0 0 32 32">
<title>phone3</title>
<path d="M27.91 35.056h-25.010c-1.316 0-2.382-1.067-2.382-2.382v-28.583c0-1.316 1.066-2.382 2.382-2.382v28.583c0 1.315 1.067 2.382 2.382 2.382h4.764c1.316 0 2.382-1.067 2.382-2.382v-28.583h15.483c1.316 0 2.382 1.067 2.382 2.382v28.583c0 1.315-1.066 2.382-2.382 2.382zM21.955 31.483h2.382v-2.382h-2.382v2.382zM21.955 27.91h2.382v-2.382h-2.382v2.382zM21.955 24.337h2.382v-2.382h-2.382v2.382zM21.955 20.764h2.382v-2.382h-2.382v2.382zM18.382 31.483h2.382v-2.382h-2.382v2.382zM18.382 27.91h2.382v-2.382h-2.382v2.382zM18.382 24.337h2.382v-2.382h-2.382v2.382zM18.382 20.764h2.382v-2.382h-2.382v2.382zM27.91 5.281c0-0.659-0.532-1.191-1.191-1.191h-10.719c-0.657 0-1.191 0.532-1.191 1.191v4.764c0 0.657 0.534 1.191 1.191 1.191h10.719c0.659 0 1.191-0.534 1.191-1.191v-4.764zM27.91 18.382h-2.382v2.382h2.382v-2.382zM27.91 21.955h-2.382v2.382h2.382v-2.382zM27.91 25.528h-2.382v2.382h2.382v-2.382zM27.91 29.101h-2.382v2.382h2.382v-2.382zM10.045 31.483h-4.764c-0.657 0-1.191-0.532-1.191-1.191v-29.774c0-0.659 0.534-1.191 1.191-1.191h2.308v-2.382h1.265v2.382h1.191c0.657 0 1.191 0.532 1.191 1.191v29.774c0 0.659-0.534 1.191-1.191 1.191z"></path>
</svg>
