<!-- Generated by IcoMoon.io -->
<svg version="1.1" xmlns="http://www.w3.org/2000/svg" width="32" height="32" viewBox="0 0 32 32">
<title>phone1</title>
<path d="M23.145 1.708h-14.292c-1.315 0-2.381 1.067-2.381 2.382v23.819c0 1.315 1.066 2.382 2.381 2.382h14.292c1.316 0 2.383-1.067 2.383-2.382v-23.819c0-1.315-1.067-2.382-2.383-2.382zM12.427 2.899h5.955l0.074 1.191h-6.029v-1.191zM15.975 28.505c-0.657 0-1.191-0.532-1.191-1.191s0.534-1.191 1.191-1.191c0.659 0 1.191 0.532 1.191 1.191s-0.534 1.191-1.191 1.191zM23.145 24.337h-14.292l0.025-19.056h14.267v19.056z"></path>
</svg>
