<!-- Generated by IcoMoon.io -->
<svg version="1.1" xmlns="http://www.w3.org/2000/svg" width="32" height="32" viewBox="0 0 32 32">
<title>phone7</title>
<path d="M32 29.36v1.040c0 0.884-0.716 1.6-1.6 1.6v0h-3.2c-15.022 0-27.2-12.178-27.2-27.2v0-3.2c0-0.884 0.716-1.6 1.6-1.6v0h6.4c0.884 0 1.6 0.716 1.6 1.6v0 6.4c0 0.896-0.496 2.096-1.12 2.72l-3.424 3.424c2.432 5.76 7.040 10.368 12.8 12.8l3.392-3.392c0.64-0.64 1.84-1.136 2.72-1.136h6.432c0.877 0.009 1.584 0.722 1.584 1.6 0 0 0 0 0 0v0 5.36z"></path>
</svg>
