<!-- Generated by IcoMoon.io -->
<svg version="1.1" xmlns="http://www.w3.org/2000/svg" width="32" height="32" viewBox="0 0 32 32">
<title>php-elephant</title>
<path d="M16 19.2v12.8c-8.832-0.006-15.99-7.167-15.99-16 0-7.798 5.578-14.293 12.962-15.712l0.1-0.016 2.928 2.928h8c0 0 0 0 0 0 4.413 0 7.991 3.573 8 7.983v14.433c-0.009 3.528-2.871 6.384-6.4 6.384 0 0 0 0 0 0v0-3.2c1.767 0 3.2-1.433 3.2-3.2s-1.433-3.2-3.2-3.2v0h-6.4l-3.2-3.2zM24.8 14.4c1.325 0 2.4-1.075 2.4-2.4s-1.075-2.4-2.4-2.4v0c-1.325 0-2.4 1.075-2.4 2.4s1.075 2.4 2.4 2.4v0z"></path>
</svg>
