<!-- Generated by IcoMoon.io -->
<svg version="1.1" xmlns="http://www.w3.org/2000/svg" width="33" height="32" viewBox="0 0 33 32">
<title>pictures1</title>
<path d="M28.629 32.182l-3.125-0.858-0.007-8.644 2.989 0.841 4.31-16.089-21.833-5.85-1.439 5.367h-2.463l2.219-8.28 26.431 7.082-7.083 26.431zM24.383 35.056h-27.439v-27.365h27.439v27.365zM22.004 10.070h-22.68v16.656h22.68v-16.656zM6.292 21.947l2.719-4.397 2.719 2.74 3.738-5.63 3.91 9.687h-17.336l2.209-4.419 2.040 2.018zM4.667 17.293c-0.986 0-1.785-0.798-1.785-1.784s0.799-1.784 1.785-1.784 1.784 0.798 1.784 1.784-0.798 1.784-1.784 1.784z"></path>
</svg>
