<!-- Generated by IcoMoon.io -->
<svg version="1.1" xmlns="http://www.w3.org/2000/svg" width="32" height="32" viewBox="0 0 32 32">
<title>pictures</title>
<path d="M29.974 20.329l-1.567 5.852-0.044 0.012-1.713 6.392-11.071-2.966-0.132 0.035-11.657-3.123-0.020-0.076-3.102-0.832 0.587-2.193 0.038 0.011 5.751-21.464-0.038-0.011 0.606-2.259 20.372 5.459 0.019-0.067 5.611 1.503-3.659 13.649 0.020 0.077zM30.747 8.256l-21.465-5.751-4.237 15.816 21.463 5.75 4.24-15.815zM11.515 12.894l1.422 2.436 3.7-3.484 1.885 3.294 4.984-4.394 1.247 10.194-16.462-4.414 3.223-3.633zM12.578 10.498c-0.935-0.251-1.491-1.214-1.24-2.148 0.25-0.936 1.212-1.492 2.148-1.241 0.935 0.251 1.491 1.214 1.24 2.148-0.25 0.936-1.212 1.492-2.148 1.241zM22.717 2.279l-0.493 0.132-4.52-1.211 6.667-1.786 1.031 3.848-2.608-0.699-0.077-0.283zM1.252 8.031l1.479 5.52-1.211 4.519-3.132-11.693 6.75-1.809-0.699 2.608-3.187 0.855zM5.35 32.359l-1.212-4.523 9.048 2.425-7.835 2.098z"></path>
</svg>
