<!-- Generated by IcoMoon.io -->
<svg version="1.1" xmlns="http://www.w3.org/2000/svg" width="32" height="32" viewBox="0 0 32 32">
<title>pictures2</title>
<path d="M30.292 6.472v19.056c0 1.315-1.067 2.382-2.382 2.382h-25.010c0 1.315 1.067 2.382 2.382 2.382h25.010c1.315 0 2.382-1.067 2.382-2.382v-19.056c0-1.315-1.067-2.382-2.382-2.382zM29.101 24.337v-19.056c0-1.315-1.067-2.382-2.382-2.382h-25.010c-1.315 0-2.382 1.067-2.382 2.382v19.056c0 1.315 1.067 2.382 2.382 2.382h25.010c1.315 0 2.382-1.067 2.382-2.382zM1.708 5.281h25.010v19.056h-25.010v-19.056zM15.556 17.561l-3.559-3.788-3.56 6.079-2.67-2.79-2.893 6.109h22.694l-5.118-13.392-4.895 7.784zM6.472 13.618c1.315 0 2.382-1.067 2.382-2.382s-1.067-2.382-2.382-2.382-2.382 1.067-2.382 2.382 1.067 2.382 2.382 2.382z"></path>
</svg>
