<!-- Generated by IcoMoon.io -->
<svg version="1.1" xmlns="http://www.w3.org/2000/svg" width="32" height="32" viewBox="0 0 32 32">
<title>pig</title>
<path d="M26.33 23.037c0 0 3.966-2.713 3.966-8.064 0-7.965-8.442-10.911-12.98-10.832-4.54 0.080-5.893 1.274-5.893 1.274s-1.545-1.123-3.182-2.064c-1.253-0.488-1.543-0.559-2.414-0.279-0.697 0-0.258 1.16 0.021 1.578 0.278 0.418 1.627 2.727 1.627 2.727s-2.832 2.917-3.042 4.834c0-0.035-1.334-0.011-2.065-0.011s-0.662 0.797-0.662 0.797l0.020 5.614c0 0-0.045 0.797 0.618 0.797 0.662 0 2.070 0.015 2.070 0.015s1.981 2.876 3.236 3.399c0 0.035-1.085 2.981-1.085 2.981s-0.523 0.906 0.418 1.255c0.941 0.348 3.395 1.378 4.441 1.692 1.044 0.313 1.195-0.398 1.195-0.398l1.035-2.235 6.771 0.011 1.035 2.305c0 0 0.199 1.069 1.592 0.478 1.395-0.592 2.917-1.295 4.067-1.887 1.149-0.592 0.393-1.698 0.393-1.698l-1.181-2.29zM8.047 13.337c-0.635 0-1.149-0.516-1.149-1.15s0.514-1.149 1.149-1.149 1.15 0.514 1.15 1.149-0.516 1.15-1.15 1.15zM24.247 9.755c-0.367 0.435-0.606 0.114-0.902 0.027 0 0-1.252-1.161-3.091-1.703-1.904-0.56-3.909-0.289-3.909-0.289-0.295-0.087-0.654-0.096-0.656-0.553 0.015-0.563 0.699-0.568 0.691-0.587 0 0 2.256-0.208 4.143 0.347 1.857 0.545 3.275 1.732 3.275 1.732s0.759 0.523 0.448 1.027z"></path>
</svg>
