<!-- Generated by IcoMoon.io -->
<svg version="1.1" xmlns="http://www.w3.org/2000/svg" width="32" height="32" viewBox="0 0 32 32">
<title>pil</title>
<path d="M3.615 19.122c-2.325 2.326-2.325 6.097 0 8.423l0.843 0.842c2.325 2.324 6.095 2.324 8.421 0l6.736-6.739-9.263-9.263-6.737 6.737zM12.036 27.544c-1.86 1.86-4.877 1.86-6.736 0l-0.842-0.842c-1.86-1.86-1.86-4.878 0-6.739l5.894-5.894 7.579 7.578-5.895 5.896zM27.195 5.648l-0.842-0.842c-2.325-2.326-6.095-2.326-8.421 0l-6.737 6.736 9.263 9.263 6.737-6.736c2.326-2.326 2.326-6.097 0-8.421z"></path>
</svg>
