<!-- Generated by IcoMoon.io -->
<svg version="1.1" xmlns="http://www.w3.org/2000/svg" width="32" height="32" viewBox="0 0 32 32">
<title>pin</title>
<path d="M21.359 14.809h-10.719c-1.315 0-2.382 1.067-2.382 2.382s1.067 2.382 2.382 2.382h10.719c1.315 0 2.382-1.067 2.382-2.382s-1.067-2.382-2.382-2.382zM13.121 6.472l-1.29 7.146h8.337l-1.291-7.146h-5.756zM16 31.483l1.786-10.719h-3.573l1.786 10.719zM12.427 5.281h7.146c0.986 0 1.786-0.8 1.786-1.786s-0.8-1.786-1.786-1.786h-7.146c-0.987 0-1.786 0.8-1.786 1.786s0.799 1.786 1.786 1.786z"></path>
</svg>
