<!-- Generated by IcoMoon.io -->
<svg version="1.1" xmlns="http://www.w3.org/2000/svg" width="32" height="32" viewBox="0 0 32 32">
<title>pin1</title>
<path d="M19.541 18.146l-9.282-5.359c-1.139-0.659-2.596-0.268-3.254 0.871-0.657 1.14-0.267 2.596 0.872 3.254l9.281 5.359c1.14 0.659 2.596 0.268 3.254-0.872 0.66-1.139 0.269-2.595-0.871-3.253zM11.885 12.351l7.22 4.168 2.456-6.834-4.985-2.877-4.69 5.543zM6.563 29.906l6.906-8.389-3.094-1.786-3.812 10.176zM24.544 5.907l-6.187-3.573c-0.855-0.493-1.947-0.201-2.44 0.654-0.494 0.855-0.2 1.947 0.654 2.44l6.188 3.573c0.855 0.493 1.947 0.201 2.44-0.654s0.2-1.947-0.655-2.44z"></path>
</svg>
