<!-- Generated by IcoMoon.io -->
<svg version="1.1" xmlns="http://www.w3.org/2000/svg" width="32" height="32" viewBox="0 0 32 32">
<title>play-outline</title>
<path d="M4.688 27.312c-3.014-2.914-4.885-6.993-4.885-11.509 0-8.837 7.163-16 16-16 4.516 0 8.595 1.871 11.504 4.88l0.004 0.005c2.779 2.874 4.491 6.795 4.491 11.115 0 8.837-7.163 16-16 16-4.32 0-8.241-1.712-11.12-4.496l0.005 0.004zM25.056 25.056c2.318-2.318 3.751-5.519 3.751-9.056 0-7.073-5.734-12.807-12.807-12.807-3.537 0-6.738 1.434-9.056 3.751v0c-2.318 2.318-3.751 5.519-3.751 9.056 0 7.073 5.734 12.807 12.807 12.807 3.537 0 6.738-1.433 9.056-3.751v0zM11.2 9.6l12.8 6.4-12.8 6.4v-12.8z"></path>
</svg>
