<!-- Generated by IcoMoon.io -->
<svg version="1.1" xmlns="http://www.w3.org/2000/svg" width="32" height="32" viewBox="0 0 32 32">
<title>plugin</title>
<path d="M32 22.4v6.4c0 1.767-1.433 3.2-3.2 3.2v0h-6.4v-3.2c0-1.767-1.433-3.2-3.2-3.2v0c-1.767 0-3.2 1.433-3.2 3.2v0 3.2h-6.4c-1.767 0-3.2-1.433-3.2-3.2v0-6.4h-3.2c-1.767 0-3.2-1.433-3.2-3.2v0c0-1.767 1.433-3.2 3.2-3.2v0h3.2v-6.4c0-1.76 1.44-3.2 3.2-3.2h6.4v-3.2c0-1.767 1.433-3.2 3.2-3.2v0c1.767 0 3.2 1.433 3.2 3.2v0 3.2h6.4c1.767 0 3.2 1.433 3.2 3.2v0 6.4h-3.2c-1.767 0-3.2 1.433-3.2 3.2v0c0 1.767 1.433 3.2 3.2 3.2v0h3.2z"></path>
</svg>
