<!-- Generated by IcoMoon.io -->
<svg version="1.1" xmlns="http://www.w3.org/2000/svg" width="32" height="32" viewBox="0 0 32 32">
<title>plus2</title>
<path d="M16 31.483c-8.551 0-15.483-6.931-15.483-15.483s6.931-15.483 15.483-15.483 15.483 6.931 15.483 15.483-6.931 15.483-15.483 15.483zM16 4.090c-6.577 0-11.91 5.332-11.91 11.91 0 6.577 5.333 11.91 11.91 11.91 6.578 0 11.91-5.333 11.91-11.91 0-6.578-5.332-11.91-11.91-11.91zM20.75 17.191h-3.573v3.573c0 0.659-0.534 1.191-1.191 1.191-0.659 0-1.191-0.532-1.191-1.191v-3.573h-3.573c-0.659 0-1.191-0.534-1.191-1.191s0.532-1.191 1.191-1.191h3.573v-3.573c0-0.659 0.532-1.191 1.191-1.191 0.657 0 1.191 0.532 1.191 1.191v3.573h3.573c0.657 0 1.191 0.534 1.191 1.191s-0.534 1.191-1.191 1.191z"></path>
</svg>
