<!-- Generated by IcoMoon.io -->
<svg version="1.1" xmlns="http://www.w3.org/2000/svg" width="32" height="32" viewBox="0 0 32 32">
<title>plus1</title>
<path d="M15.405 32.078c-8.551 0-15.483-6.931-15.483-15.483s6.931-15.483 15.483-15.483 15.483 6.931 15.483 15.483-6.931 15.483-15.483 15.483zM23.072 15.926c0-0.657-0.534-1.191-1.191-1.191h-4.764v-4.764c0-0.657-0.532-1.191-1.191-1.191h-1.191c-0.659 0-1.191 0.534-1.191 1.191v4.764h-4.764c-0.659 0-1.191 0.534-1.191 1.191v1.191c0 0.659 0.532 1.191 1.191 1.191h4.764v4.764c0 0.659 0.532 1.191 1.191 1.191h1.191c0.659 0 1.191-0.532 1.191-1.191v-4.764h4.764c0.657 0 1.191-0.532 1.191-1.191v-1.191z"></path>
</svg>
