<!-- Generated by IcoMoon.io -->
<svg version="1.1" xmlns="http://www.w3.org/2000/svg" width="32" height="32" viewBox="0 0 32 32">
<title>position</title>
<path d="M16.596 26.060v-1.186c3.992 0.118 7.138 1.398 7.138 2.962 0 1.642-3.461 3.049-7.732 3.049s-7.732-1.407-7.732-3.049c0-1.564 3.145-2.845 7.136-2.962v1.186c-3.334 0.082-5.947 0.846-5.947 1.776 0 0.985 2.929 1.933 6.542 1.933 3.612 0 6.541-0.948 6.541-1.933-0.001-0.93-2.613-1.692-5.947-1.776zM9.469 7.657c0-3.612 3.002-6.542 6.617-6.542 3.613 0 6.542 2.93 6.542 6.542 0 3.105-2.165 5.7-5.069 6.369l-1.559 15.743-1.564-15.788c-2.813-0.732-4.968-3.282-4.968-6.325zM16 5.905c0-0.986-0.799-1.784-1.784-1.784-0.986 0-1.785 0.798-1.785 1.784 0 0.985 0.799 1.784 1.785 1.784s1.784-0.798 1.784-1.784z"></path>
</svg>
