<!-- Generated by IcoMoon.io -->
<svg version="1.1" xmlns="http://www.w3.org/2000/svg" width="32" height="32" viewBox="0 0 32 32">
<title>presentation</title>
<path d="M29.103 2.905h-27.398c-0.656 0-1.187-0.532-1.187-1.191 0-0.657 0.531-1.19 1.187-1.19h12.548v-1.191c0-0.657 0.532-1.19 1.189-1.19s1.187 0.532 1.187 1.19v1.191h12.474c0.657 0 1.189 0.534 1.189 1.19 0 0.659-0.531 1.191-1.189 1.191zM29.103 21.952h-27.398v-17.857h27.398v17.857zM5.281 12.465c0 2.636 2.133 4.772 4.764 4.772s4.764-2.137 4.764-4.772h-4.764v-4.775c-2.631 0-4.764 2.138-4.764 4.775zM18.411 7.667h-1.187v1.19h1.187v-1.19zM18.411 10.048h-1.187v1.19h1.187v-1.19zM18.411 12.428h-1.187v1.19h1.187v-1.19zM18.411 14.809h-1.187v1.191h1.187v-1.191zM18.411 17.191h-1.187v1.191h1.187v-1.191zM25.54 7.667h-5.939v1.19h5.939v-1.19zM25.54 10.048h-5.939v1.19h5.939v-1.19zM25.54 12.428h-5.939v1.19h5.939v-1.19zM25.54 14.809h-5.939v1.191h5.939v-1.191zM25.54 17.191h-5.939v1.191h5.939v-1.191zM12.166 27.905h2.681v-5.952h1.189v5.952h2.639l-2.639-5.952h2.376l4.751 10.714h-2.375l-1.584-3.573h-3.168v5.952h-1.189v-5.952h-3.217l-1.609 3.573h-2.376l4.826-10.714h2.376l-2.681 5.952zM16.036 21.952v0 0 0zM14.847 21.952v0 0 0z"></path>
</svg>
