<!-- Generated by IcoMoon.io -->
<svg version="1.1" xmlns="http://www.w3.org/2000/svg" width="32" height="32" viewBox="0 0 32 32">
<title>printer</title>
<path d="M27.91 24.337h-2.382v-2.382h1.191v-2.382h-22.628v2.382h1.191v2.382h-2.382c-0.657 0-1.191-0.534-1.191-1.191v-11.91c0-1.152 4.764-2.382 13.101-2.382 0.442 0 0.832 0 1.191 0 8.263 0 13.101 1.203 13.101 2.382v11.91c0 0.657-0.532 1.191-1.191 1.191zM24.932 12.427c-0.986 0-1.786 0.8-1.786 1.786s0.8 1.786 1.786 1.786 1.786-0.8 1.786-1.786-0.8-1.786-1.786-1.786zM6.472 1.708c0-0.659 0.534-1.191 1.191-1.191h15.483c0.659 0 1.191 0.532 1.191 1.191v5.955h-17.865v-5.955zM24.337 31.483c0 0.657-0.532 1.191-1.191 1.191h-15.483c-0.657 0-1.191-0.534-1.191-1.191v-10.719h17.865v10.719zM21.955 21.955h-13.101v1.191h13.101v-1.191zM21.955 24.337h-13.101v1.191h13.101v-1.191zM21.955 26.719h-13.101v1.191h13.101v-1.191zM21.955 29.101h-13.101v1.191h13.101v-1.191z"></path>
</svg>
