<!-- Generated by IcoMoon.io -->
<svg version="1.1" xmlns="http://www.w3.org/2000/svg" width="32" height="32" viewBox="0 0 32 32">
<title>profile2</title>
<path d="M30.292 26.719h-3.573v-1.191c0.659 0 1.191-0.534 1.191-1.191 0-0.659-0.532-1.191-1.191-1.191h-2.382c-0.659 0-1.191 0.532-1.191 1.191 0 0.657 0.532 1.191 1.191 1.191v1.191h-15.483v-1.191c0.659 0 1.191-0.534 1.191-1.191 0-0.659-0.532-1.191-1.191-1.191h-2.382c-0.659 0-1.191 0.532-1.191 1.191 0 0.657 0.532 1.191 1.191 1.191v1.191h-4.764c-1.315 0-2.382-1.067-2.382-2.382v-16.674c0-1.315 1.067-2.382 2.382-2.382h28.583c1.315 0 2.382 1.067 2.382 2.382v16.674c0 1.315-1.067 2.382-2.382 2.382zM8.854 8.63c-1.439 0-2.606 1.533-2.606 3.424s1.167 3.424 2.606 3.424 2.606-1.533 2.606-3.424-1.167-3.424-2.606-3.424zM13.011 16.819c-0.642-0.428-2.49-0.712-2.49-0.712s-1.198 1.28-1.707 1.28c-0.51 0-1.708-1.28-1.708-1.28s-1.848 0.283-2.489 0.712c-0.642 0.426-0.925 2.693-0.925 2.693h10.26c0.001-0.001-0.187-2.191-0.941-2.693zM27.91 10.045h-10.719v1.191h10.719v-1.191zM27.91 12.427h-10.719v1.191h10.719v-1.191zM27.91 14.809h-10.719v1.191h10.719v-1.191zM27.91 17.191h-10.719v1.191h10.719v-1.191z"></path>
</svg>
