<!-- Generated by IcoMoon.io -->
<svg version="1.1" xmlns="http://www.w3.org/2000/svg" width="32" height="32" viewBox="0 0 32 32">
<title>profile1</title>
<path d="M24.337 10.082c0-0.659-0.534-1.191-1.191-1.191h-3.573c0 0 0.039-1.434 0.039-3.518 0-1.935-1.603-3.702-3.612-3.702s-3.559 1.68-3.559 3.691c0 1.935-0.014 3.53-0.014 3.53h-3.573c-0.659 0-1.191 0.532-1.191 1.191 0 0.657 0 2.308 0 2.308h16.674c0-0.001 0-1.652 0-2.309zM16 7.626c-0.659 0-1.191-0.534-1.191-1.191 0-0.659 0.532-1.191 1.191-1.191 0.657 0 1.191 0.532 1.191 1.191 0 0.657-0.534 1.191-1.191 1.191zM30.292 10.082l-4.764-0.074 0.025 3.697h-19.081v-3.548l-4.764-0.074c-1.315 0-2.382 1.067-2.382 2.382v16.674c0 1.315 1.067 2.382 2.382 2.382h28.583c1.315 0 2.382-1.067 2.382-2.382v-16.674c0-1.316-1.067-2.383-2.382-2.383zM8.854 17.005c1.439 0 2.606 1.533 2.606 3.424s-1.167 3.424-2.606 3.424-2.606-1.533-2.606-3.424 1.167-3.424 2.606-3.424zM3.694 27.885c0 0 0.282-2.265 0.924-2.693 0.641-0.428 2.489-0.712 2.489-0.712s1.198 1.28 1.708 1.28c0.509 0 1.707-1.28 1.707-1.28s1.848 0.283 2.49 0.712c0.754 0.503 0.942 2.693 0.942 2.693h-10.26zM27.91 26.756h-10.719v-1.191h10.719v1.191zM27.91 24.374h-10.719v-1.191h10.719v1.191zM27.91 21.992h-10.719v-1.191h10.719v1.191zM27.91 19.61h-10.719v-1.191h10.719v1.191z"></path>
</svg>
