<!-- Generated by IcoMoon.io -->
<svg version="1.1" xmlns="http://www.w3.org/2000/svg" width="32" height="32" viewBox="0 0 32 32">
<title>profile</title>
<path d="M30.292 7.663h-2.332v-3.499l-4.814-0.074 0.025 3.573h-14.466l0.099-3.573-4.714 0.074v3.573l-2.382-0.074c-1.315 0-2.382 1.067-2.382 2.382v16.674c0 1.315 1.067 2.382 2.382 2.382h28.583c1.315 0 2.382-1.067 2.382-2.382v-16.674c0-1.315-1.067-2.382-2.382-2.382zM24.337 5.281h2.382v4.764h-2.382v-4.764zM8.854 13.394c1.439 0 2.606 1.533 2.606 3.424s-1.167 3.424-2.606 3.424-2.606-1.533-2.606-3.424 1.167-3.424 2.606-3.424zM5.281 5.281h2.382v4.764h-2.382v-4.764zM3.694 24.275c0 0 0.282-2.265 0.924-2.693 0.641-0.428 2.489-0.712 2.489-0.712s1.198 1.28 1.708 1.28c0.509 0 1.707-1.28 1.707-1.28s1.848 0.283 2.49 0.712c0.754 0.503 0.942 2.693 0.942 2.693h-10.26zM27.91 23.146h-10.719v-1.191h10.719v1.191zM27.91 20.764h-10.719v-1.191h10.719v1.191zM27.91 18.382h-10.719v-1.191h10.719v1.191zM27.91 16h-10.719v-1.191h10.719v1.191z"></path>
</svg>
