<!-- Generated by IcoMoon.io -->
<svg version="1.1" xmlns="http://www.w3.org/2000/svg" width="32" height="32" viewBox="0 0 32 32">
<title>question1</title>
<path d="M16 32c-8.837 0-16-7.163-16-16s7.163-16 16-16v0c8.837 0 16 7.163 16 16s-7.163 16-16 16v0zM19.2 11.2c0 0.448-0.336 1.28-0.672 1.6l-2.528 2.528c-0.912 0.928-1.6 2.56-1.6 3.872v1.6h3.2v-1.6c0-0.464 0.336-1.28 0.672-1.6l2.528-2.528c0.912-0.928 1.6-2.56 1.6-3.872 0-3.535-2.865-6.4-6.4-6.4s-6.4 2.865-6.4 6.4v0h3.2c0-1.767 1.433-3.2 3.2-3.2s3.2 1.433 3.2 3.2v0zM14.4 24v3.2h3.2v-3.2h-3.2z"></path>
</svg>
