<!-- Generated by IcoMoon.io -->
<svg version="1.1" xmlns="http://www.w3.org/2000/svg" width="32" height="32" viewBox="0 0 32 32">
<title>quote1</title>
<path d="M16 0.517c-8.551 0-15.483 6.931-15.483 15.483s6.931 15.483 15.483 15.483 15.483-6.931 15.483-15.483-6.931-15.483-15.483-15.483zM16 29.101c-7.235 0-13.101-5.866-13.101-13.101s5.866-13.101 13.101-13.101 13.101 5.866 13.101 13.101-5.866 13.101-13.101 13.101zM14.323 11.443c0.499-0.263 0.748-0.592 0.748-0.986 0-0.249-0.085-0.456-0.255-0.621-0.171-0.164-0.387-0.247-0.649-0.247-0.656 0-1.56 0.381-2.713 1.142-1.364 0.893-2.447 1.979-3.253 3.26s-1.209 2.545-1.209 3.793c0 0.591 0.112 1.178 0.335 1.763 0.223 0.584 0.524 1.079 0.904 1.488 0.799 0.88 1.755 1.32 2.869 1.32 1.166 0 2.116-0.401 2.85-1.203 0.301-0.328 0.54-0.719 0.718-1.172 0.176-0.454 0.266-0.903 0.266-1.349 0-0.946-0.262-1.753-0.785-2.424s-1.212-1.064-2.063-1.181l-0.314-0.019-0.236-0.040c-0.392-0.052-0.59-0.204-0.59-0.453 0-0.263 0.256-0.676 0.768-1.241 0.534-0.575 1.403-1.186 2.608-1.829zM23.729 11.443c0.5-0.263 0.749-0.592 0.749-0.986 0-0.249-0.085-0.456-0.256-0.621-0.17-0.164-0.387-0.247-0.65-0.247-0.656 0-1.563 0.381-2.718 1.142-1.365 0.893-2.455 1.979-3.268 3.26s-1.221 2.545-1.221 3.793c0 0.591 0.112 1.178 0.335 1.763 0.224 0.584 0.524 1.079 0.905 1.488 0.802 0.88 1.765 1.32 2.894 1.32 1.156 0 2.108-0.401 2.856-1.203 0.301-0.328 0.542-0.716 0.719-1.162 0.176-0.448 0.266-0.9 0.266-1.36 0-0.946-0.267-1.75-0.798-2.413-0.532-0.663-1.226-1.060-2.081-1.191l-0.297-0.019-0.256-0.040c-0.393-0.052-0.591-0.204-0.591-0.453 0-0.263 0.263-0.676 0.788-1.241 0.551-0.603 1.426-1.212 2.623-1.829z"></path>
</svg>
