<!-- Generated by IcoMoon.io -->
<svg version="1.1" xmlns="http://www.w3.org/2000/svg" width="32" height="32" viewBox="0 0 32 32">
<title>quote</title>
<path d="M16 0.517c-8.551 0-15.483 6.931-15.483 15.483s6.931 15.483 15.483 15.483 15.483-6.931 15.483-15.483-6.931-15.483-15.483-15.483zM16 29.101c-7.235 0-13.101-5.866-13.101-13.101s5.866-13.101 13.101-13.101 13.101 5.866 13.101 13.101-5.866 13.101-13.101 13.101zM14.395 10.963c-0.803-0.88-1.766-1.32-2.895-1.32-1.155 0-2.108 0.4-2.855 1.202-0.301 0.329-0.542 0.716-0.719 1.162-0.176 0.447-0.266 0.9-0.266 1.359 0 0.946 0.267 1.751 0.798 2.414 0.532 0.663 1.226 1.060 2.081 1.191l0.297 0.019 0.256 0.040c0.394 0.052 0.592 0.204 0.592 0.453 0 0.263-0.263 0.676-0.79 1.241-0.553 0.604-1.427 1.216-2.624 1.832-0.5 0.263-0.749 0.591-0.749 0.985 0 0.25 0.085 0.457 0.256 0.621 0.17 0.164 0.387 0.245 0.65 0.245 0.656 0 1.563-0.38 2.718-1.142 1.365-0.893 2.456-1.979 3.269-3.261 0.815-1.279 1.221-2.544 1.221-3.792 0-0.591-0.112-1.178-0.335-1.763-0.223-0.584-0.525-1.079-0.905-1.486zM23.769 10.963c-0.798-0.88-1.754-1.32-2.868-1.32-1.166 0-2.116 0.4-2.85 1.202-0.303 0.329-0.541 0.719-0.718 1.172-0.177 0.454-0.266 0.903-0.266 1.349 0 0.946 0.262 1.754 0.785 2.424s1.212 1.064 2.063 1.181l0.314 0.019 0.235 0.040c0.393 0.052 0.59 0.204 0.59 0.453 0 0.263-0.256 0.676-0.767 1.241-0.537 0.578-1.409 1.189-2.613 1.832-0.499 0.263-0.748 0.591-0.748 0.985 0 0.25 0.086 0.457 0.256 0.621 0.172 0.164 0.387 0.245 0.649 0.245 0.655 0 1.56-0.38 2.712-1.142 1.364-0.893 2.449-1.979 3.254-3.261 0.805-1.279 1.209-2.544 1.209-3.792 0-0.591-0.111-1.178-0.333-1.763-0.22-0.584-0.522-1.079-0.903-1.486z"></path>
</svg>
