<!-- Generated by IcoMoon.io -->
<svg version="1.1" xmlns="http://www.w3.org/2000/svg" width="32" height="32" viewBox="0 0 32 32">
<title>radar</title>
<path d="M19.2 16c-0.008 1.762-1.437 3.187-3.2 3.187-0.88 0-1.678-0.355-2.256-0.931l0 0c-0.575-0.578-0.931-1.376-0.931-2.256 0-1.763 1.425-3.192 3.186-3.2h0.001v-12.8c0.014-0 0.031-0 0.048-0 8.81 0 15.952 7.142 15.952 15.952 0 0.017-0 0.034-0 0.051v-0.003h-12.8zM31.84 18.256c-1.144 7.813-7.799 13.744-15.84 13.744-8.837 0-16-7.163-16-16 0-8.041 5.931-14.696 13.657-15.83l0.087-0.010v3.248c-6.028 1.114-10.534 6.33-10.534 12.598 0 7.069 5.731 12.8 12.8 12.8 6.268 0 11.484-4.506 12.586-10.455l0.012-0.079h3.232zM25.328 18.256c-1.058 4.238-4.832 7.327-9.327 7.327-5.302 0-9.6-4.298-9.6-9.6 0-4.495 3.089-8.269 7.261-9.313l0.066-0.014v3.36c-2.436 0.936-4.134 3.257-4.134 5.974 0 1.775 0.724 3.38 1.893 4.537l0.001 0.001c1.157 1.15 2.751 1.86 4.511 1.86 2.72 0 5.043-1.696 5.97-4.089l0.015-0.044h3.36z"></path>
</svg>
