<!-- Generated by IcoMoon.io -->
<svg version="1.1" xmlns="http://www.w3.org/2000/svg" width="32" height="32" viewBox="0 0 32 32">
<title>radio3</title>
<path d="M32 14.4v14.4c0 1.767-1.433 3.2-3.2 3.2v0h-25.6c-1.767 0-3.2-1.433-3.2-3.2v0-16c0-1.76 1.44-3.2 3.2-3.2h22.080l-24.096-6.448 0.832-3.104 29.984 8.048v6.304zM24 28.8c2.651 0 4.8-2.149 4.8-4.8s-2.149-4.8-4.8-4.8v0c-2.651 0-4.8 2.149-4.8 4.8s2.149 4.8 4.8 4.8v0zM3.2 12.8v3.2h25.6v-3.2h-25.6zM5.6 28.8c1.325 0 2.4-1.075 2.4-2.4s-1.075-2.4-2.4-2.4v0c-1.325 0-2.4 1.075-2.4 2.4s1.075 2.4 2.4 2.4v0zM13.6 28.8c1.325 0 2.4-1.075 2.4-2.4s-1.075-2.4-2.4-2.4v0c-1.325 0-2.4 1.075-2.4 2.4s1.075 2.4 2.4 2.4v0zM24 27.2c-1.767 0-3.2-1.433-3.2-3.2s1.433-3.2 3.2-3.2v0c1.767 0 3.2 1.433 3.2 3.2s-1.433 3.2-3.2 3.2v0z"></path>
</svg>
