<!-- Generated by IcoMoon.io -->
<svg version="1.1" xmlns="http://www.w3.org/2000/svg" width="32" height="32" viewBox="0 0 32 32">
<title>radioactive</title>
<path d="M16 32.624c-9.181 0-16.624-7.442-16.624-16.624s7.442-16.624 16.624-16.624c9.181 0 16.625 7.442 16.625 16.624s-7.444 16.624-16.625 16.624zM24.242 3.557c-4.434-2.976-8.193-2.487-8.193-2.487l-0.004 10.728c-1.511 0.038-2.811 0.872-3.523 2.097l-9.084-5.819c0 0-2.407 2.357-2.407 7.698s2.307 7.922 2.307 7.922l9.198-5.569c0.716 1.214 2.009 2.035 3.51 2.073l0.004 10.878c0 0 3.76 0.489 8.193-2.486 4.436-2.976 5.14-6.039 5.14-6.039l-9.506-4.629c0.303-0.579 0.488-1.228 0.488-1.926 0-0.631-0.149-1.223-0.398-1.761l9.616-4.542c-0.001-0.001-0.905-3.164-5.341-6.139zM16.15 18.407c-1.329 0-2.407-1.078-2.407-2.407s1.078-2.407 2.407-2.407c1.329 0 2.406 1.078 2.406 2.407s-1.077 2.407-2.406 2.407z"></path>
</svg>
