<!-- Generated by IcoMoon.io -->
<svg version="1.1" xmlns="http://www.w3.org/2000/svg" width="33" height="32" viewBox="0 0 33 32">
<title>radio1</title>
<path d="M33.865 31.487h-34.538c-1.315 0-2.382-1.065-2.382-2.376v-20.204c0-1.314 1.067-2.377 2.382-2.377h25.234l-9.845-5.351c-0.214 0.394-0.617 0.672-1.098 0.672-0.699 0-1.265-0.566-1.265-1.262s0.566-1.262 1.265-1.262 1.265 0.566 1.265 1.264c0 0.167-0.036 0.323-0.095 0.469l14.164 5.473h4.913c1.315 0 2.382 1.065 2.382 2.377v20.204c0 1.31-1.067 2.375-2.382 2.375zM30.292 27.947c1.315 0 2.382-1.065 2.382-2.377s-1.067-2.376-2.382-2.376c-1.316 0-2.382 1.065-2.382 2.376 0 1.314 1.066 2.377 2.382 2.377zM23.146 27.923c1.315 0 2.382-1.065 2.382-2.377s-1.067-2.376-2.382-2.376-2.382 1.065-2.382 2.376c0 1.312 1.067 2.377 2.382 2.377zM9.45 10.096c-4.933 0-8.932 3.991-8.932 8.912 0 4.923 3.999 8.913 8.932 8.913 4.934 0 8.932-3.991 8.932-8.913 0-4.921-3.998-8.912-8.932-8.912zM32.674 10.096h-11.91v3.565h6.55l1.191-2.376 1.191 2.376h2.977v-3.565zM16 20.791h0.964c-0.098 0.411-0.23 0.806-0.391 1.189h-0.573v-1.189zM16 18.415h1.13c0.017 0.199 0.061 0.389 0.061 0.593s-0.044 0.395-0.061 0.594h-1.13v-1.187zM16 16.038h0.586c0.161 0.379 0.273 0.781 0.372 1.189h-0.958v-1.189zM13.618 14.85v-1.189h1.191v1.189h-1.191zM11.236 25.546h1.191v0.57c-0.382 0.158-0.78 0.287-1.191 0.387v-0.958zM11.236 23.17h1.191v1.189h-1.191v-1.189zM11.236 20.791h1.191v1.189h-1.191v-1.189zM11.236 18.415h1.191v1.187h-1.191v-1.187zM11.236 16.038h1.191v1.189h-1.191v-1.189zM11.236 13.661h1.191v1.189h-1.191v-1.189zM11.236 11.517c0.41 0.1 0.809 0.229 1.191 0.387v0.569h-1.191v-0.956zM8.854 26.671v-1.125h1.191v1.146c-0.198 0.015-0.393 0.043-0.596 0.043-0.205 0-0.395-0.046-0.596-0.063zM8.854 23.17h1.191v1.189h-1.191v-1.189zM8.854 20.791h1.191v1.189h-1.191v-1.189zM8.854 18.415h1.191v1.187h-1.191v-1.187zM8.854 16.038h1.191v1.189h-1.191v-1.189zM8.854 13.661h1.191v1.189h-1.191v-1.189zM8.854 11.348c0.2-0.017 0.391-0.063 0.595-0.063 0.203 0 0.398 0.027 0.596 0.043v1.146h-1.191v-1.125zM6.472 25.546h1.191v0.948c-0.407-0.101-0.811-0.217-1.191-0.378v-0.57zM6.472 23.17h1.191v1.189h-1.191v-1.189zM6.472 20.791h1.191v1.189h-1.191v-1.189zM6.472 18.415h1.191v1.187h-1.191v-1.187zM6.472 16.038h1.191v1.189h-1.191v-1.189zM6.472 13.661h1.191v1.189h-1.191v-1.189zM6.472 11.907c0.38-0.163 0.784-0.278 1.191-0.38v0.947h-1.191v-0.567zM4.090 23.17h1.191v1.189h-1.191v-1.189zM4.090 20.791h1.191v1.189h-1.191v-1.189zM4.090 18.415h1.191v1.187h-1.191v-1.187zM4.090 16.038h1.191v1.189h-1.191v-1.189zM4.090 13.661h1.191v1.189h-1.191v-1.189zM14.809 17.227h-1.191v-1.189h1.191v1.189zM14.809 19.603h-1.191v-1.187h1.191v1.187zM14.809 21.98h-1.191v-1.189h1.191v1.189zM14.809 24.358h-1.191v-1.189h1.191v1.189zM1.936 20.791h0.964v1.189h-0.572c-0.161-0.382-0.294-0.778-0.392-1.189zM1.708 19.008c0-0.204 0.045-0.394 0.061-0.593h1.13v1.187h-1.13c-0.017-0.199-0.061-0.391-0.061-0.594zM2.313 16.038h0.586v1.189h-0.958c0.099-0.407 0.211-0.809 0.372-1.189zM6.472 32.676c0 0.656-0.532 1.189-1.191 1.189h-2.382c-0.657 0-1.191-0.532-1.191-1.189s0-1.189 0-1.189h4.764c0 0 0 0.532 0 1.189zM31.483 32.676c0 0.656-0.532 1.189-1.191 1.189h-2.382c-0.659 0-1.191-0.532-1.191-1.189s0-1.189 0-1.189h4.764c0 0 0 0.532 0 1.189z"></path>
</svg>
