<!-- Generated by IcoMoon.io -->
<svg version="1.1" xmlns="http://www.w3.org/2000/svg" width="32" height="32" viewBox="0 0 32 32">
<title>radio</title>
<path d="M33.825 11.065c-0.213-4.638-2.070-9.265-5.679-12.806-3.615-3.547-8.338-5.37-13.071-5.574l-0.261-2.636c5.475 0.328 10.805 2.455 15 6.571 4.204 4.127 6.397 9.348 6.724 14.732l-2.714-0.287zM30.262 11.634l-2.613-0.361c0.043-3.218-1.16-6.477-3.662-8.932-2.453-2.407-5.692-3.59-8.907-3.597l-0.472-2.586c3.983 0.096 7.962 1.61 11.001 4.591 3.092 3.039 4.609 6.904 4.653 10.884zM23.958 11.479l-2.319-0.642c0.273-1.641-0.603-3.075-1.892-4.342-1.171-1.149-2.744-1.665-4.274-1.551l-0.897-2.572c2.446-0.158 4.945 0.68 6.815 2.515 1.844 1.81 2.7 4.223 2.568 6.592zM19.044 10.056c0 1.669-1.378 3.022-3.079 3.022-0.587 0-1.13-0.17-1.597-0.45l-1.323 1.301 9.575 9.297c-0.235 0.276-0.48 0.554-0.763 0.831-5.369 5.269-14.074 5.269-19.444 0-5.37-5.271-5.37-13.814 0-19.083 0.245-0.243 0.491-0.447 0.736-0.653l9.019 8.757 1.295-1.271c-0.361-0.494-0.578-1.096-0.578-1.751 0-1.669 1.379-3.022 3.080-3.022s3.079 1.352 3.079 3.022zM7.294 28.086c-0.113 0 3.129 6.97 3.129 6.97h-13.478l4.65-10.768c0 0 1.411 2.057 5.7 3.798z"></path>
</svg>
