<!-- Generated by IcoMoon.io -->
<svg version="1.1" xmlns="http://www.w3.org/2000/svg" width="32" height="32" viewBox="0 0 32 32">
<title>rain</title>
<path d="M26.305 10.274c0 0 0.57-7.675-6.462-8.551-6.029-0.616-7.863 4.987-7.863 4.987s-1.814-1.746-4.278-0.32c-2.204 1.361-1.814 3.852-1.814 3.852s-4.895 0.953-4.895 5.943c0.11 4.985 5.316 5.035 5.316 5.035h19.153c0 0 4.845 0.005 5.527-4.737 0.323-5.185-4.685-6.209-4.685-6.209zM8.564 24.274c-0.213-0.422-0.404-0.99-0.571-1.702-0.164 0.712-0.354 1.279-0.567 1.702-0.448 0.89-1.164 1.582-1.164 1.582-0.571 0.635-0.855 1.271-0.855 1.907 0 0.703 0.255 1.304 0.763 1.808 0.509 0.503 1.116 0.754 1.821 0.754 0.71 0 1.317-0.251 1.826-0.754 0.51-0.504 0.763-1.105 0.763-1.808 0-0.635-0.285-1.271-0.854-1.907 0 0-0.715-0.692-1.164-1.582zM16.9 24.274c-0.213-0.422-0.404-0.99-0.57-1.702-0.166 0.712-0.354 1.279-0.567 1.702-0.448 0.89-1.165 1.582-1.165 1.582-0.569 0.635-0.854 1.271-0.854 1.907 0 0.703 0.254 1.304 0.763 1.808 0.507 0.503 1.115 0.754 1.821 0.754 0.71 0 1.317-0.251 1.826-0.754 0.51-0.504 0.763-1.105 0.763-1.808 0-0.635-0.285-1.271-0.855-1.907 0 0-0.715-0.692-1.162-1.582zM25.237 24.274c-0.213-0.422-0.404-0.99-0.57-1.702-0.166 0.712-0.354 1.279-0.567 1.702-0.449 0.89-1.165 1.582-1.165 1.582-0.569 0.635-0.854 1.271-0.854 1.907 0 0.703 0.254 1.304 0.763 1.808 0.507 0.503 1.115 0.754 1.821 0.754 0.71 0 1.317-0.251 1.826-0.754 0.51-0.504 0.763-1.105 0.763-1.808 0-0.635-0.285-1.271-0.854-1.907 0 0-0.716-0.692-1.164-1.582z"></path>
</svg>
