<!-- Generated by IcoMoon.io -->
<svg version="1.1" xmlns="http://www.w3.org/2000/svg" width="32" height="32" viewBox="0 0 32 32">
<title>refresh3</title>
<path d="M16 4.8v3.2c-0.004 0-0.009 0-0.014 0-4.418 0-8 3.582-8 8 0 2.213 0.898 4.216 2.35 5.664l0 0-2.256 2.256c-2.027-2.027-3.281-4.827-3.281-7.92 0-6.186 5.014-11.2 11.2-11.2 0 0 0.001 0 0.001 0h-0zM23.92 8.080c2.027 2.027 3.281 4.827 3.281 7.92 0 6.186-5.014 11.2-11.2 11.2-0 0-0.001 0-0.001 0h0v-3.2c0.004 0 0.009 0 0.014 0 4.418 0 8-3.582 8-8 0-2.213-0.898-4.216-2.35-5.664l-0-0 2.256-2.256zM16 32l-6.4-6.4 6.4-6.4v12.8zM16 12.8v-12.8l6.4 6.4-6.4 6.4z"></path>
</svg>
