<!-- Generated by IcoMoon.io -->
<svg version="1.1" xmlns="http://www.w3.org/2000/svg" width="32" height="32" viewBox="0 0 32 32">
<title>reload1</title>
<path d="M23.456 25.056c-2.317 2.319-5.519 3.754-9.056 3.754-7.069 0-12.8-5.731-12.8-12.8s5.731-12.8 12.8-12.8c7.066 0 12.794 5.725 12.8 12.789v0.001h-3.2c0-0.002 0-0.005 0-0.008 0-5.302-4.298-9.6-9.6-9.6s-9.6 4.298-9.6 9.6c0 5.302 4.298 9.6 9.6 9.6 2.649 0 5.047-1.073 6.784-2.808l-0 0 2.272 2.272zM19.2 16h12.8l-6.4 6.4-6.4-6.4z"></path>
</svg>
