<!-- Generated by IcoMoon.io -->
<svg version="1.1" xmlns="http://www.w3.org/2000/svg" width="32" height="32" viewBox="0 0 32 32">
<title>rotate1</title>
<path d="M27.95 16.913l-4.871-4.871h2.854c-0.026-0.071-0.054-0.142-0.081-0.212-1.692-4.29-5.875-7.324-10.766-7.324-6.39 0-11.57 5.181-11.57 11.57 0 6.391 5.181 11.572 11.57 11.572 4.701 0 8.746-2.804 10.557-6.828 0.018-0.037 0.029-0.079 0.045-0.118l3.102 3.083c-0.020 0.036-0.035 0.076-0.056 0.114-0.005 0.008-0.010 0.017-0.014 0.024-2.738 4.731-7.853 7.912-13.712 7.912-8.742-0.002-15.83-7.091-15.83-15.835s7.089-15.833 15.833-15.833c7.31 0 13.462 4.952 15.284 11.686 0.018 0.062 0.023 0.127 0.038 0.189h2.49l-4.872 4.871z"></path>
</svg>
