<!-- Generated by IcoMoon.io -->
<svg version="1.1" xmlns="http://www.w3.org/2000/svg" width="32" height="32" viewBox="0 0 32 32">
<title>rotate</title>
<path d="M4.050 16.913l4.871-4.871h-2.855c0.026-0.071 0.054-0.142 0.080-0.212 1.694-4.29 5.876-7.324 10.766-7.324 6.391 0 11.572 5.181 11.572 11.57 0 6.391-5.181 11.572-11.572 11.572-4.7 0-8.745-2.804-10.556-6.828-0.018-0.037-0.029-0.079-0.046-0.118l-3.102 3.083c0.021 0.036 0.036 0.076 0.057 0.114 0.005 0.008 0.010 0.017 0.014 0.024 2.738 4.731 7.853 7.912 13.712 7.912 8.744 0 15.833-7.089 15.833-15.833s-7.090-15.835-15.834-15.835c-7.31 0-13.462 4.952-15.284 11.686-0.018 0.062-0.024 0.127-0.038 0.189h-2.49l4.872 4.871z"></path>
</svg>
