<!-- Generated by IcoMoon.io -->
<svg version="1.1" xmlns="http://www.w3.org/2000/svg" width="32" height="32" viewBox="0 0 32 32">
<title>sad</title>
<path d="M16 1.708c-7.894 0-14.292 6.398-14.292 14.292 0 7.893 6.398 14.292 14.292 14.292 7.893 0 14.292-6.399 14.292-14.292 0-7.894-6.399-14.292-14.292-14.292zM20.69 8.483c0.986 0 1.786 1.067 1.786 2.382s-0.8 2.382-1.786 2.382-1.786-1.067-1.786-2.382 0.799-2.382 1.786-2.382zM11.162 8.483c0.986 0 1.786 1.067 1.786 2.382s-0.8 2.382-1.786 2.382-1.786-1.067-1.786-2.382 0.799-2.382 1.786-2.382zM15.917 21.072c-5.508 0-7.215 2.881-7.215 2.881s1.588-4.978 7.223-4.978c5.669 0 7.072 5.149 7.072 5.149s-1.572-3.051-7.080-3.051z"></path>
</svg>
