<!-- Generated by IcoMoon.io -->
<svg version="1.1" xmlns="http://www.w3.org/2000/svg" width="32" height="32" viewBox="0 0 32 32">
<title>safe</title>
<path d="M29.101 31.483l-2.381-0.074v2.456h-3.573v-2.382h-14.218l-0.074 2.382h-3.573v-2.308l-2.383-0.074c-1.315 0-2.382-1.067-2.382-2.382v-28.583c0-1.315 1.067-2.382 2.382-2.382h26.201c1.315 0 2.382 1.067 2.382 2.382v28.583c0 1.315-1.067 2.382-2.382 2.382zM27.91 1.708h-23.819v4.714l-1.166-0.024v3.672h1.166v9.429h-1.191v3.647h1.191v4.764h23.819v-26.201zM26.719 26.719h-21.438v-3.573h1.191v-3.647h-1.191v-9.454h1.191l0.025-3.623h-1.216v-3.523h21.438v23.819zM14.287 9.523c-2.631 0-4.764 2.133-4.764 4.764s2.133 4.764 4.764 4.764c2.632 0 4.764-2.133 4.764-4.764s-2.132-4.764-4.764-4.764zM24.932 10.662c0-0.659-0.532-1.191-1.191-1.191-0.657 0-1.191 0.532-1.191 1.191 0 0.436 0.247 0.802 0.596 1.009v6.299c-0.349 0.207-0.596 0.572-0.596 1.009 0 0.657 0.534 1.191 1.191 1.191 0.659 0 1.191-0.534 1.191-1.191 0-0.469-0.276-0.865-0.669-1.059v-6.199c0.393-0.195 0.669-0.591 0.669-1.059zM14.214 16.298c-0.986 0-1.786-0.8-1.786-1.786 0-0.987 0.8-1.786 1.786-1.786 0.987 0 1.786 0.799 1.786 1.786 0 0.986-0.799 1.786-1.786 1.786z"></path>
</svg>
