<!-- Generated by IcoMoon.io -->
<svg version="1.1" xmlns="http://www.w3.org/2000/svg" width="32" height="32" viewBox="0 0 32 32">
<title>sale</title>
<path d="M30.292 33.865h-28.583c-1.973 0-3.573-1.601-3.573-3.573v-16.674c0-1.973 1.599-3.573 3.573-3.573h2.382l10.115-7.763c-0.045-0.185-0.076-0.375-0.076-0.574 0-1.315 1.067-2.382 2.382-2.382s2.381 1.067 2.381 2.382c0 0.428-0.121 0.824-0.32 1.172l9.338 7.165h2.382c1.972 0 3.573 1.599 3.573 3.573v16.674c0 1.972-1.601 3.573-3.573 3.573zM17.276 26.222h4.801v-0.903h-3.787v-6.774h-1.015v7.677zM10.406 26.222l0.841-2.326h3.225l0.884 2.326h1.158l-3.13-7.676h-1.1l-2.951 7.676h1.074zM3.307 19.447c-0.219 0.338-0.329 0.701-0.329 1.089 0 0.354 0.089 0.672 0.269 0.958s0.453 0.523 0.818 0.717c0.281 0.15 0.773 0.31 1.476 0.479s1.156 0.294 1.362 0.374c0.32 0.124 0.55 0.273 0.692 0.453s0.213 0.388 0.213 0.629c0 0.236-0.073 0.456-0.217 0.657s-0.364 0.36-0.661 0.475c-0.295 0.117-0.636 0.174-1.022 0.174-0.435 0-0.825-0.075-1.173-0.229-0.349-0.151-0.605-0.351-0.769-0.599s-0.272-0.565-0.317-0.949l-0.959 0.083c0.014 0.513 0.155 0.972 0.422 1.378 0.267 0.407 0.634 0.712 1.102 0.915 0.469 0.202 1.049 0.304 1.742 0.304 0.545 0 1.037-0.1 1.474-0.301 0.437-0.2 0.772-0.479 1.005-0.841 0.233-0.361 0.35-0.744 0.35-1.153 0-0.411-0.107-0.773-0.32-1.089-0.213-0.317-0.543-0.576-0.991-0.781-0.308-0.139-0.873-0.303-1.695-0.488-0.823-0.187-1.332-0.37-1.526-0.549-0.199-0.176-0.298-0.404-0.298-0.679 0-0.319 0.141-0.59 0.42-0.815s0.725-0.338 1.337-0.338c0.588 0 1.033 0.124 1.333 0.369 0.301 0.247 0.476 0.611 0.529 1.092l0.977-0.074c-0.018-0.45-0.143-0.853-0.375-1.208-0.233-0.355-0.567-0.624-1-0.807s-0.934-0.274-1.502-0.274c-0.516 0-0.984 0.087-1.405 0.262-0.424 0.174-0.744 0.429-0.964 0.767zM17.998 3.554c-0.41 0.33-0.922 0.536-1.488 0.536-0.788 0-1.482-0.387-1.915-0.978l-9.315 6.933h21.438l-8.72-6.491zM29.024 25.319h-4.708v-2.614h4.242v-0.903h-4.242v-2.355h4.532v-0.903h-5.545v7.676h5.723v-0.902zM12.801 19.347c0.124 0.42 0.305 0.953 0.544 1.599l0.809 2.122h-2.619l0.852-2.247c0.175-0.485 0.313-0.977 0.414-1.474z"></path>
</svg>
