<!-- Generated by IcoMoon.io -->
<svg version="1.1" xmlns="http://www.w3.org/2000/svg" width="33" height="32" viewBox="0 0 33 32">
<title>satellite</title>
<path d="M-3.056 21.792l13.264 13.264c0 0 3.167-7.516-1.29-11.973-4.408-4.408-11.974-1.291-11.974-1.291zM32.525 22.846l-6.736 6.736 0.842 0.842 6.736-6.736-0.842-0.842zM35.893 24.53l-7.578-7.581c-0.93-0.928-2.44-0.928-3.368 0l-0.665 0.665-1.858-1.858 3.331-3.331c0.93-0.93 0.825-2.544-0.105-3.474l-4.105-4.105c-0.93-0.93-2.438-0.93-3.368 0l-3.029 2.923-1.596-1.596 0.108-0.107c0.93-0.93 0.93-2.439 0-3.369l-7.579-7.581c-0.93-0.93-2.438-0.93-3.369 0l-5.052 5.053c-0.93 0.93-0.93 2.439 0 3.369l7.579 7.579c0.93 0.93 2.438 0.93 3.369 0l1.657-1.657 1.641 1.655-3.048 3.048c-0.93 0.93-0.579 6.107-0.579 6.107l2.052 2.052c0 0 5.176 0.351 6.106-0.579l2.637-2.636 1.858 1.858-1.041 1.041c-0.93 0.93-0.93 2.438 0 3.368l7.581 7.578c0.93 0.93 2.438 0.93 3.368 0l5.052-5.052c0.93-0.934 0.93-2.441 0-3.372zM-1.498 1.010l5.053-5.053c0.464-0.466 1.218-0.466 1.684 0l-6.737 6.737c-0.466-0.464-0.466-1.22 0-1.684zM-0.656 3.537l6.737-6.737 0.842 0.842-6.737 6.737-0.842-0.842zM1.028 5.221l6.737-6.737 0.842 0.843-6.736 6.736-0.843-0.842zM2.713 6.906l6.736-6.737 0.843 0.842-6.737 6.737-0.842-0.842zM4.398 8.59l6.737-6.737 0.842 0.842-6.737 6.737-0.842-0.842zM7.766 10.274c-0.464 0.466-1.218 0.466-1.684 0l6.737-6.737c0.466 0.466 0.466 1.22 0 1.684l-5.053 5.053zM11.127 16.593l-0.631-0.632 8.706-8.706 0.632 0.631-8.707 8.707zM20.734 22.846l5.055-5.055c0.466-0.463 1.218-0.463 1.684 0l-6.739 6.739c-0.466-0.466-0.466-1.218 0-1.684zM35.051 27.056l-5.052 5.052c-0.466 0.466-1.218 0.466-1.684 0l-5.053-5.053 6.736-6.736-0.842-0.842-6.739 6.736-0.842-0.842 6.739-6.739 6.736 6.739c0.467 0.467 0.467 1.221 0.001 1.685zM34.209 24.53l-6.736 6.736 0.842 0.842 6.736-6.736-0.842-0.842zM30.841 21.162l-6.736 6.736 0.842 0.842 6.736-6.736-0.842-0.842z"></path>
</svg>
