<!-- Generated by IcoMoon.io -->
<svg version="1.1" xmlns="http://www.w3.org/2000/svg" width="32" height="32" viewBox="0 0 32 32">
<title>scissors</title>
<path d="M22.55 21.941c2.303 0 4.168 2.401 4.168 5.359 0 2.961-1.865 5.359-4.168 5.359s-4.168-2.399-4.168-5.359c0-1.784 0.686-3.354 1.729-4.329l-4.111-5.901-4.112 5.901c1.044 0.975 1.73 2.545 1.73 4.329 0 2.961-1.866 5.359-4.168 5.359s-4.168-2.399-4.168-5.359c0-2.958 1.866-5.359 4.168-5.359 0.237 0 0.467 0.042 0.693 0.090l4.139-7.429-4.324-6.207c-3.526-6.109-0.738-9.056-0.738-9.056l6.781 12.178 6.781-12.177c0 0 2.788 2.948-0.738 9.056l-4.324 6.207 4.139 7.429c0.225-0.050 0.456-0.092 0.693-0.092zM9.45 24.3c-1.315 0-2.382 1.333-2.382 2.977s1.067 2.977 2.382 2.977 2.382-1.333 2.382-2.977-1.067-2.977-2.382-2.977zM16 13.705c-0.657 0-1.191 0.532-1.191 1.191 0 0.657 0.534 1.191 1.191 1.191 0.659 0 1.191-0.534 1.191-1.191 0-0.659-0.532-1.191-1.191-1.191zM20.168 27.277c0 1.645 1.067 2.977 2.382 2.977s2.382-1.333 2.382-2.977-1.067-2.977-2.382-2.977-2.382 1.333-2.382 2.977z"></path>
</svg>
