<!-- Generated by IcoMoon.io -->
<svg version="1.1" xmlns="http://www.w3.org/2000/svg" width="32" height="32" viewBox="0 0 32 32">
<title>screwdriver</title>
<path d="M29.569 0.117l-4.342 2.642-0.031 2.388-9.585 9.561-1.314-1.314c-0.466-0.466-1.22-0.466-1.685 0-0.464 0.464-0.894 0.788-0.894 0.788l0.488 0.488c-0.005-0.005-0.011-0.010-0.015-0.014-2.368 2.366-3.894 3.051-3.894 3.051l-7.429 7.528c-0.466 0.467-0.466 1.217 0 1.684l4.211 4.211c0.464 0.466 1.218 0.466 1.684 0l7.428-7.528c0 0 0.684-1.524 3.054-3.896l0.422 0.422c0 0 0.375-0.376 0.842-0.842 0.466-0.466 0.466-1.218 0-1.684l-1.277-1.277 9.549-9.596 2.438-0.001 2.624-4.34-2.272-2.272zM1.683 26.007l7.56-7.56 0.842 0.841-7.56 7.561-0.842-0.842zM3.367 27.744l7.56-7.563 0.842 0.844-7.56 7.56-0.842-0.842zM5.893 30.27l-0.842-0.842 7.56-7.561 0.843 0.842-7.561 7.561z"></path>
</svg>
