<!-- Generated by IcoMoon.io -->
<svg version="1.1" xmlns="http://www.w3.org/2000/svg" width="32" height="32" viewBox="0 0 32 32">
<title>servers</title>
<path d="M0 3.2c0-1.76 1.44-3.2 3.2-3.2h25.6c1.767 0 3.2 1.433 3.2 3.2v0 3.2c0 1.767-1.433 3.2-3.2 3.2v0h-25.6c-1.767 0-3.2-1.433-3.2-3.2v0-3.2zM0 14.4c0-1.76 1.44-3.2 3.2-3.2h25.6c1.767 0 3.2 1.433 3.2 3.2v0 3.2c0 1.767-1.433 3.2-3.2 3.2v0h-25.6c-1.767 0-3.2-1.433-3.2-3.2v0-3.2zM0 25.6c0-1.76 1.44-3.2 3.2-3.2h25.6c1.767 0 3.2 1.433 3.2 3.2v0 3.2c0 1.767-1.433 3.2-3.2 3.2v0h-25.6c-1.767 0-3.2-1.433-3.2-3.2v0-3.2zM19.2 3.2v3.2h3.2v-3.2h-3.2zM25.6 3.2v3.2h3.2v-3.2h-3.2zM19.2 14.4v3.2h3.2v-3.2h-3.2zM25.6 14.4v3.2h3.2v-3.2h-3.2zM19.2 25.6v3.2h3.2v-3.2h-3.2zM25.6 25.6v3.2h3.2v-3.2h-3.2z"></path>
</svg>
