<!-- Generated by IcoMoon.io -->
<svg version="1.1" xmlns="http://www.w3.org/2000/svg" width="32" height="32" viewBox="0 0 32 32">
<title>share-alt1</title>
<path d="M8.128 19.456c-0.862 0.843-2.042 1.363-3.344 1.363-2.642 0-4.784-2.142-4.784-4.784 0-0.012 0-0.025 0-0.037v0.002c0.002-2.65 2.15-4.797 4.8-4.797 1.293 0 2.466 0.511 3.33 1.342l-0.002-0.001 14.304-7.152c-0.024-0.18-0.038-0.389-0.038-0.6 0-2.651 2.149-4.8 4.8-4.8s4.8 2.149 4.8 4.8c0 2.651-2.149 4.8-4.8 4.8-1.29 0-2.461-0.509-3.324-1.337l0.002 0.002-14.304 7.152c0.023 0.178 0.036 0.383 0.036 0.592s-0.013 0.414-0.039 0.616l0.002-0.024 14.304 7.152c0.862-0.843 2.042-1.363 3.344-1.363 2.642 0 4.784 2.142 4.784 4.784 0 0.012-0 0.025-0 0.037v-0.002c-0.023 2.634-2.163 4.76-4.8 4.76-2.651 0-4.8-2.149-4.8-4.8 0-0.194 0.012-0.386 0.034-0.575l-0.002 0.023-14.304-7.152z"></path>
</svg>
