<!-- Generated by IcoMoon.io -->
<svg version="1.1" xmlns="http://www.w3.org/2000/svg" width="32" height="32" viewBox="0 0 32 32">
<title>shield2</title>
<path d="M30.4 17.6c-0.227 4.005-2.385 7.462-5.551 9.475l-0.049 0.029-8.8 4.896-8.8-4.896c-3.215-2.042-5.373-5.499-5.599-9.472l-0.001-0.032v-12.8c5.408 0 10.4-1.792 14.4-4.8 4 3.024 8.992 4.8 14.4 4.8v12.8zM16 19.328l4.672 3.264-1.648-5.456 4.544-3.44-5.696-0.128-1.872-5.376-1.872 5.376-5.696 0.128 4.528 3.424-1.648 5.44 4.688-3.216z"></path>
</svg>
