<!-- Generated by IcoMoon.io -->
<svg version="1.1" xmlns="http://www.w3.org/2000/svg" width="32" height="32" viewBox="0 0 32 32">
<title>shipping</title>
<path d="M16.86 22.983c-0.543-0.515-1.177-0.91-1.869-1.156l-1.451-5.649 17.276-4.833 1.851 7.213-15.808 4.426zM11.36 7.686l11.518-3.222 1.852 7.215-11.517 3.222-1.853-7.215zM11.877 21.718c-0.322 0.090-0.621 0.219-0.911 0.361l-5.078-19.788h-1.91c-0.192 0.418-0.593 0.712-1.067 0.712h-2.384c-0.659 0-1.192-0.559-1.192-1.246s0.534-1.245 1.192-1.245h2.384c0.4 0 0.736 0.219 0.953 0.532h3.668v0.061l0.055-0.017 5.252 20.465c-0.32 0.030-0.641 0.076-0.961 0.164zM12.185 22.921c2.226-0.623 4.514 0.756 5.11 3.082 0.597 2.324-0.724 4.713-2.951 5.336-2.226 0.621-4.514-0.759-5.11-3.082s0.725-4.713 2.951-5.336zM11.558 27.688c0.255 0.996 1.236 1.586 2.19 1.318s1.52-1.291 1.265-2.287c-0.255-0.996-1.236-1.586-2.19-1.321-0.955 0.268-1.521 1.292-1.265 2.289zM32.519 22.79l-13.915 3.892c-0.025-0.332-0.071-0.668-0.157-1.003-0.085-0.335-0.207-0.649-0.344-0.952l13.843-3.871 0.574 1.933z"></path>
</svg>
