<!-- Generated by IcoMoon.io -->
<svg version="1.1" xmlns="http://www.w3.org/2000/svg" width="32" height="32" viewBox="0 0 32 32">
<title>shopping-cart2</title>
<path d="M6.4 3.2h25.6l-4.8 14.4h-20.8c-0.884 0-1.6 0.716-1.6 1.6s0.716 1.6 1.6 1.6v0h20.8v3.2h-20.8c-2.651 0-4.8-2.149-4.8-4.8s2.149-4.8 4.8-4.8v0h0.528l-2.128-6.4-1.6-4.8h-3.2v-3.2h4.8c0.884 0 1.6 0.716 1.6 1.6v0 1.6zM8 32c-1.767 0-3.2-1.433-3.2-3.2s1.433-3.2 3.2-3.2v0c1.767 0 3.2 1.433 3.2 3.2s-1.433 3.2-3.2 3.2v0zM24 32c-1.767 0-3.2-1.433-3.2-3.2s1.433-3.2 3.2-3.2v0c1.767 0 3.2 1.433 3.2 3.2s-1.433 3.2-3.2 3.2v0z"></path>
</svg>
