<!-- Generated by IcoMoon.io -->
<svg version="1.1" xmlns="http://www.w3.org/2000/svg" width="32" height="32" viewBox="0 0 32 32">
<title>shuffle2</title>
<path d="M10.544 20.528l-3.504 3.472c-0.928 0.928-2.544 1.6-3.84 1.6h-3.2v-3.2h3.2c0.464 0 1.28-0.32 1.6-0.656l3.472-3.488 2.272 2.272zM25.6 6.4v-4.8l6.4 6.4-6.4 6.4v-4.8h-3.2c-0.464 0-1.28 0.32-1.6 0.656l-3.472 3.488-2.288-2.272 3.52-3.472c0.928-0.928 2.544-1.6 3.856-1.6h3.2zM25.6 22.4v-4.8l6.4 6.4-6.4 6.4v-4.8h-3.2c-1.312 0-2.928-0.672-3.856-1.6l-13.76-13.744c-0.304-0.32-1.104-0.656-1.584-0.656h-3.2v-3.2h3.2c1.312 0 2.928 0.672 3.856 1.6l13.76 13.744c0.32 0.32 1.12 0.656 1.584 0.656h3.2z"></path>
</svg>
