<!-- Generated by IcoMoon.io -->
<svg version="1.1" xmlns="http://www.w3.org/2000/svg" width="32" height="32" viewBox="0 0 32 32">
<title>skeletor</title>
<path d="M20.729 14.335c0.688-0.105 1.984-0.562 2.44-0.918 0.498-0.291 0.756-0.636 0.772-1.039 0.049-0.613 0.021-1.209-0.083-1.788-0.105-0.58-0.223-1.24-0.351-1.981-1.401 2.207-3.3 3.696-5.7 4.469l-0.267 0.579c1.128 0.725 2.191 0.95 3.189 0.678v0zM12.927 13.079c-2.415-0.773-4.324-2.262-5.725-4.469-0.113 0.741-0.225 1.401-0.338 1.981-0.113 0.579-0.137 1.174-0.073 1.788 0.032 0.419 0.289 0.765 0.773 1.039 0.364 0.3 1.8 0.861 2.415 0.918 0.998 0.273 2.060 0.048 3.189-0.676l-0.242-0.58zM13.639 17.209c-0.185 0.483-0.149 1.235 0.11 1.879h1.121v-3.547c-0.468 0.629-1.046 1.184-1.23 1.667zM16.063 19.088h1.081c0.064-0.176 0.113-0.522 0.145-0.66s0.049-0.286 0.049-0.447c0-0.435-0.094-0.829-0.28-1.184-0.186-0.354-0.672-0.772-0.996-1.256v3.547zM28.586 7.251c0.242 0.95 0.323 1.916 0.242 2.899-0.161 1.965-0.998 3.937-2.512 5.483l1.329 2.537-1.958 2.222c-2.77-1.322-3.648 0.052-3.648 1.981v7.919h-1.247v-7.103h-1.127v7.103h-1.296v-7.103h-1.117v7.103h-1.232v-7.103h-1.117v7.103h-1.23v-7.082l-1.118-0.021v7.103h-1.298v-7.103h-1.123v7.103h-1.233v-7.919c0-1.935-1.033-3.4-3.809-1.981l-2.004-2.222 1.401-2.537c-1.514-1.546-2.324-3.515-2.501-5.494-0.089-0.992-0.017-1.962 0.217-2.912 1.187-4.831 5.355-5.595 6.172-5.725 4.651-0.644 9.311-0.644 13.978 0 0.797 0.137 5.018 0.975 6.231 5.749z"></path>
</svg>
