<!-- Generated by IcoMoon.io -->
<svg version="1.1" xmlns="http://www.w3.org/2000/svg" width="32" height="32" viewBox="0 0 32 32">
<title>smiley1</title>
<path d="M16 1.708c-7.894 0-14.292 6.399-14.292 14.292s6.398 14.292 14.292 14.292c7.893 0 14.292-6.399 14.292-14.292s-6.399-14.292-14.292-14.292zM20.764 8.63c0.986 0 1.786 1.067 1.786 2.382s-0.8 2.382-1.786 2.382-1.786-1.067-1.786-2.382 0.8-2.382 1.786-2.382zM11.147 8.646c0.986 0 1.786 1.067 1.786 2.382s-0.8 2.382-1.786 2.382-1.786-1.067-1.786-2.382 0.8-2.382 1.786-2.382zM15.851 24.708c-4.889 0-8.167-3.2-8.756-8.523h1.154c0.935 4.118 3.466 6.179 7.592 6.179s6.658-2.059 7.592-6.179h1.191c-0.588 5.324-3.885 8.523-8.774 8.523z"></path>
</svg>
