<!-- Generated by IcoMoon.io -->
<svg version="1.1" xmlns="http://www.w3.org/2000/svg" width="32" height="32" viewBox="0 0 32 32">
<title>snow</title>
<path d="M26.305 9.725c0 0 0.57-7.675-6.462-8.551-6.029-0.616-7.863 4.987-7.863 4.987s-1.813-1.746-4.277-0.319c-2.205 1.361-1.814 3.852-1.814 3.852s-4.896 0.952-4.896 5.942c0.11 4.985 5.316 5.035 5.316 5.035h19.153c0 0 4.845 0.005 5.527-4.737 0.323-5.185-4.685-6.209-4.685-6.209zM8.649 26.209c1.538-2.372 1.178-2.706-1.078-1.004-0.591-2.764-1.081-2.748-1.472 0.052-2.372-1.538-2.707-1.178-1.005 1.078-2.764 0.591-2.748 1.081 0.052 1.473-1.538 2.371-1.177 2.706 1.079 1.004 0.59 2.764 1.080 2.748 1.472-0.052 2.372 1.538 2.707 1.178 1.004-1.079 2.765-0.59 2.748-1.080-0.052-1.472zM16.986 26.209c1.538-2.372 1.178-2.706-1.078-1.004-0.591-2.764-1.081-2.748-1.472 0.052-2.372-1.538-2.707-1.178-1.005 1.078-2.764 0.591-2.748 1.081 0.052 1.473-1.538 2.371-1.177 2.706 1.079 1.004 0.59 2.764 1.080 2.748 1.472-0.052 2.372 1.538 2.707 1.178 1.004-1.079 2.765-0.59 2.748-1.080-0.052-1.472zM25.323 26.209c1.538-2.372 1.178-2.706-1.078-1.004-0.591-2.764-1.081-2.748-1.472 0.052-2.372-1.538-2.707-1.178-1.005 1.078-2.764 0.591-2.748 1.081 0.052 1.473-1.538 2.371-1.178 2.706 1.078 1.004 0.591 2.764 1.081 2.748 1.473-0.052 2.371 1.538 2.706 1.178 1.004-1.079 2.765-0.59 2.748-1.080-0.052-1.472z"></path>
</svg>
