<!-- Generated by IcoMoon.io -->
<svg version="1.1" xmlns="http://www.w3.org/2000/svg" width="32" height="32" viewBox="0 0 32 32">
<title>soccer</title>
<path d="M31.231 9.036c-0.007-0.018-0.017-0.036-0.025-0.055l0.035 0.006-0.010 0.049zM27.016 23.404l-5.559 0.231-2.904-5.103 3.005-5.426 5.82 0.193 2.484 5.072-2.846 5.033zM12.079 18.459l-2.917-5.277 3.049-5.087 6.218-0.095 3.054 5.065-3.001 5.415-6.403-0.021zM12.208 8.009l-2.299-3.958 3.054-3.725 5.33-0.17 2.84 3.518-2.719 4.24-6.206 0.095zM9.3 23.442l-4.925-0.481-2.372-4.744 2.070-4.809 5.008-0.192 2.918 5.28-2.699 4.946zM26.494 4.28l0.472-0.937c1.786 1.549 3.236 3.468 4.241 5.639l-1.765-0.281-2.948-4.421zM21.222 3.644l-2.845-3.522c0.070-0.086 0.449-0.547 0.456-0.554-2.55-0.426-4.876-0.208-6.409 0.151 0.011 0.007 0.38 0.474 0.456 0.571l-3.055 3.725-4.555 0.767-0.406-1.242-0.070 0.021c2.97-2.677 6.891-4.322 11.206-4.322 4.166 0 7.966 1.528 10.897 4.043l-0.481 0.958-5.194-0.597zM2.469 9.119l-1.915 0.451 0.021 0.083 1.882-0.443 1.548 4.135-2.077 4.827c-0.281-0.027-2.455-0.236-2.455-0.104 0.381 3.198 1.595 5.98 3.685 8.582l1.227-3.6 4.916 0.48 3.105 4.712-2.144 3.491c-6.425-2.347-11.024-8.495-11.024-15.733 0-4.938 2.147-9.361 5.544-12.429l0.412 1.265-2.726 4.283zM18.214 28.428l2.556 3.579 0.073-0.051-2.54-3.553 3.156-4.681 5.555-0.23c0.112 0.251 1.535 3.451 1.526 3.451 2.343-2.743 3.519-5.492 3.945-8.625-0.005 0-2.28 0.010-2.547 0.012l-2.487-5.083 2.006-4.455 1.77 0.282 0.005-0.037c0.972 2.122 1.528 4.476 1.528 6.964 0 9.256-7.504 16.761-16.759 16.761-1.988 0-3.885-0.364-5.654-0.999l2.14-3.484 5.73 0.149zM10.324 31.801l-0.074-0.045 0.014-0.024c0.027 0.011 0.056 0.020 0.083 0.030l-0.024 0.039zM4.782 3.566l0.013-0.005c-0.005 0.004-0.008 0.007-0.011 0.010l-0.002-0.005zM26.914 3.251l0.076 0.038-0.025 0.054c-0.024-0.020-0.044-0.040-0.068-0.061l0.017-0.031z"></path>
</svg>
