<!-- Generated by IcoMoon.io -->
<svg version="1.1" xmlns="http://www.w3.org/2000/svg" width="33" height="32" viewBox="0 0 33 32">
<title>spaceinvaders</title>
<path d="M32.63 26.697v-7.083h-3.466v7.109h-3.617v3.517h-8.394v-3.543h8.394v-3.54h-17.854v3.541l7.182 0.025v3.541h-7.207v-3.515h-3.616v-7.158h-3.467v7.083h-3.641v-10.723h3.567v-3.443h3.541v-3.641h3.641v-3.566h3.566v3.576l10.698 0.029v-3.605h3.566v3.616h3.641v3.542h3.517v3.541h3.59v10.697h-3.641zM11.259 12.433h-3.566v3.567h3.566v-3.567zM25.523 12.433h-3.566v3.567h3.566v-3.567zM4.052 1.736h3.641v3.566h-3.641v-3.566zM29.164 1.736v3.566h-3.641v-3.566h3.641z"></path>
</svg>
