<!-- Generated by IcoMoon.io -->
<svg version="1.1" xmlns="http://www.w3.org/2000/svg" width="32" height="32" viewBox="0 0 32 32">
<title>square1</title>
<path d="M30.292 25.528v4.764h-4.764v-1.191h-7.146v1.191h-4.764v-1.191h-7.146v1.191h-4.764v-4.764h1.191v-7.146h-1.191v-4.764h1.191v-7.146h-1.191v-4.764h4.764v1.191h7.146v-1.191h4.764v1.191h7.146v-1.191h4.764v4.764h-1.191v7.146h1.191v4.764h-1.191v7.146h1.191zM14.809 29.101h2.382v-2.382h-2.382v2.382zM2.899 29.101h2.382v-2.382h-2.382v2.382zM2.899 17.191h2.382v-2.382h-2.382v2.382zM5.281 2.899h-2.382v2.382h2.382v-2.382zM17.191 2.899h-2.382v2.382h2.382v-2.382zM25.528 5.281h-7.146v1.191h-4.764v-1.191h-7.146v1.191h-1.191v7.146h1.191v4.764h-1.191v7.146h1.191v1.191h7.146v-1.191h4.764v1.191h7.146v-1.191h1.191v-7.146h-1.191v-4.764h1.191v-7.146h-1.191v-1.191zM29.101 2.899h-2.382v2.382h2.382v-2.382zM29.101 14.809h-2.382v2.382h2.382v-2.382zM26.719 26.719v2.382h2.382v-2.382h-2.382z"></path>
</svg>
