<!-- Generated by IcoMoon.io -->
<svg version="1.1" xmlns="http://www.w3.org/2000/svg" width="32" height="32" viewBox="0 0 32 32">
<title>stand-by</title>
<path d="M6.656 6.656l2.272 2.272c-2.535 2.067-4.141 5.19-4.141 8.688 0 6.177 5.007 11.184 11.184 11.184 0.010 0 0.021 0 0.031-0h-0.002c6.179-0.009 11.184-5.020 11.184-11.2 0-3.487-1.594-6.602-4.093-8.656l-0.019-0.015 2.272-2.272c3.098 2.657 5.048 6.576 5.048 10.95 0 7.953-6.447 14.4-14.4 14.4s-14.4-6.447-14.4-14.4c0-4.374 1.95-8.293 5.029-10.934l0.019-0.016zM14.4 0h3.2v12.8h-3.2v-12.8z"></path>
</svg>
