<!-- Generated by IcoMoon.io -->
<svg version="1.1" xmlns="http://www.w3.org/2000/svg" width="32" height="32" viewBox="0 0 32 32">
<title>station</title>
<path d="M14.4 18.768c-0.963-0.564-1.6-1.593-1.6-2.771 0-1.767 1.433-3.2 3.2-3.2s3.2 1.433 3.2 3.2c0 1.178-0.637 2.208-1.585 2.763l-0.015 0.008v13.232h-3.2v-13.232zM22.784 22.784l-2.256-2.256c1.173-1.158 1.9-2.766 1.9-4.544 0-3.526-2.858-6.384-6.384-6.384-0.015 0-0.031 0-0.046 0h0.002c-0.002 0-0.003 0-0.005 0-3.535 0-6.4 2.865-6.4 6.4 0 1.769 0.717 3.37 1.877 4.528l0 0-2.256 2.256c-1.735-1.737-2.808-4.135-2.808-6.784 0-5.302 4.298-9.6 9.6-9.6s9.6 4.298 9.6 9.6c0 2.649-1.073 5.048-2.808 6.785l0-0zM27.312 27.312l-2.256-2.256c2.318-2.317 3.752-5.518 3.752-9.054 0-7.069-5.731-12.8-12.8-12.8s-12.8 5.731-12.8 12.8c0 3.536 1.434 6.737 3.752 9.054l0 0-2.272 2.256c-2.896-2.896-4.688-6.896-4.688-11.315 0-8.837 7.163-16 16-16s16 7.163 16 16c0 4.419-1.792 8.42-4.688 11.315l-0 0z"></path>
</svg>
