<!-- Generated by IcoMoon.io -->
<svg version="1.1" xmlns="http://www.w3.org/2000/svg" width="32" height="32" viewBox="0 0 32 32">
<title>stethoscope1</title>
<path d="M27.2 16.432v-8.448c0-0.884-0.716-1.6-1.6-1.6s-1.6 0.716-1.6 1.6v0 16.016c0 4.418-3.582 8-8 8s-8-3.582-8-8v0-1.728c-4.569-0.794-8-4.729-8-9.466 0-0.002 0-0.004 0-0.007v0-9.6c0-1.76 1.44-3.2 3.2-3.2h1.6c0.884 0 1.6 0.716 1.6 1.6v0c0 0.884-0.716 1.6-1.6 1.6v0h-1.6v9.6c0 3.535 2.865 6.4 6.4 6.4s6.4-2.865 6.4-6.4v0-9.6h-1.6c-0.884 0-1.6-0.716-1.6-1.6v0c0-0.884 0.716-1.6 1.6-1.6v0h1.6c1.767 0 3.2 1.433 3.2 3.2v0 9.6c0 0.002 0 0.004 0 0.006 0 4.737-3.431 8.672-7.943 9.457l-0.057 0.008v1.728c0 2.651 2.149 4.8 4.8 4.8s4.8-2.149 4.8-4.8v0-16c0-2.651 2.149-4.8 4.8-4.8s4.8 2.149 4.8 4.8v0 8.432c0.963 0.564 1.6 1.593 1.6 2.771 0 1.767-1.433 3.2-3.2 3.2s-3.2-1.433-3.2-3.2c0-1.178 0.637-2.208 1.585-2.763l0.015-0.008z"></path>
</svg>
