<!-- Generated by IcoMoon.io -->
<svg version="1.1" xmlns="http://www.w3.org/2000/svg" width="32" height="32" viewBox="0 0 32 32">
<title>stop1</title>
<path d="M22.624-0.674h-13.757l-9.839 9.812v13.721l9.839 9.814 13.757-0.087 9.752-9.727v-13.721l-9.752-9.812zM31.185 22.37l-9.056 9.031-12.773 0.081-9.136-9.112v-12.742l9.136-9.111h12.774l9.056 9.111v12.742zM25.755 15.973c0.229-0.061 0.42-0.168 0.572-0.322 0.136-0.138 0.236-0.288 0.298-0.451 0.063-0.164 0.094-0.354 0.094-0.572 0-0.237-0.040-0.443-0.124-0.619-0.082-0.174-0.207-0.318-0.374-0.429-0.146-0.095-0.316-0.163-0.51-0.202s-0.435-0.061-0.723-0.061h-0.763v2.745h0.628c0.373 0 0.674-0.030 0.903-0.089zM20.767 13.886c-0.182-0.239-0.404-0.419-0.663-0.538s-0.55-0.179-0.873-0.179c-0.335 0-0.628 0.058-0.878 0.174-0.25 0.118-0.472 0.298-0.665 0.543-0.182 0.236-0.323 0.532-0.422 0.889-0.098 0.357-0.146 0.761-0.146 1.211 0 0.91 0.191 1.607 0.572 2.089 0.382 0.482 0.894 0.723 1.538 0.723 0.642 0 1.154-0.241 1.534-0.723s0.57-1.179 0.57-2.089c0-0.46-0.050-0.866-0.149-1.22-0.099-0.355-0.238-0.648-0.418-0.88zM9.6 1.113l-8.785 8.761v12.25l8.785 8.762 12.283-0.077 8.707-8.685v-12.25l-8.707-8.761h-12.283zM9.452 18.281c-0.111 0.263-0.266 0.486-0.463 0.669-0.224 0.201-0.476 0.357-0.757 0.466-0.281 0.11-0.632 0.163-1.055 0.163-0.504 0-0.93-0.052-1.283-0.156s-0.684-0.231-0.993-0.383v-1.154h0.065c0.305 0.283 0.649 0.504 1.034 0.66s0.756 0.233 1.114 0.233c0.51 0 0.894-0.106 1.155-0.318 0.262-0.213 0.392-0.492 0.392-0.84 0-0.274-0.069-0.5-0.206-0.673s-0.355-0.301-0.654-0.385c-0.216-0.063-0.411-0.114-0.587-0.154-0.177-0.040-0.4-0.095-0.667-0.164-0.239-0.062-0.455-0.141-0.643-0.237-0.189-0.095-0.358-0.222-0.504-0.376-0.143-0.152-0.255-0.331-0.333-0.537-0.079-0.207-0.119-0.444-0.119-0.716 0-0.562 0.219-1.031 0.657-1.412s0.998-0.57 1.678-0.57c0.388 0 0.756 0.039 1.103 0.117s0.668 0.187 0.964 0.329v1.099h-0.070c-0.222-0.199-0.504-0.372-0.849-0.522s-0.709-0.224-1.087-0.224c-0.429 0-0.775 0.1-1.040 0.3s-0.397 0.462-0.397 0.787c0 0.294 0.077 0.528 0.233 0.701s0.381 0.301 0.676 0.381c0.195 0.052 0.435 0.113 0.718 0.179s0.518 0.127 0.705 0.183c0.478 0.146 0.828 0.367 1.048 0.662 0.222 0.294 0.331 0.657 0.331 1.089 0 0.272-0.055 0.538-0.166 0.803zM15.865 13.485h-2.252v5.964h-1.145v-5.964h-2.177v-1.042h5.574v1.042zM23.304 12.516h1.74c0.41 0 0.759 0.035 1.047 0.102 0.288 0.069 0.543 0.179 0.763 0.33 0.257 0.176 0.46 0.401 0.605 0.672 0.145 0.273 0.219 0.6 0.219 0.984 0 0.301-0.054 0.586-0.161 0.854-0.107 0.269-0.255 0.498-0.444 0.686-0.238 0.236-0.52 0.414-0.842 0.535-0.323 0.121-0.73 0.181-1.223 0.181h-0.781v2.587h-0.921v-6.93zM22.294 15.985c0 0.563-0.071 1.071-0.214 1.524s-0.349 0.834-0.621 1.142c-0.282 0.323-0.612 0.562-0.989 0.716-0.378 0.154-0.792 0.23-1.246 0.23-0.469 0-0.891-0.079-1.266-0.237s-0.698-0.394-0.968-0.709c-0.267-0.308-0.472-0.687-0.615-1.137-0.143-0.451-0.214-0.961-0.214-1.529 0-0.584 0.073-1.097 0.217-1.538 0.144-0.442 0.35-0.821 0.617-1.137 0.268-0.308 0.59-0.542 0.967-0.701 0.376-0.161 0.799-0.241 1.265-0.241 0.472 0 0.897 0.082 1.276 0.248 0.378 0.164 0.698 0.395 0.959 0.694 0.264 0.305 0.469 0.681 0.616 1.133 0.144 0.45 0.217 0.965 0.217 1.542z"></path>
</svg>
