<!-- Generated by IcoMoon.io -->
<svg version="1.1" xmlns="http://www.w3.org/2000/svg" width="32" height="32" viewBox="0 0 32 32">
<title>store-front</title>
<path d="M28.8 15.792v16.208h-25.6v-16.208c0.481 0.122 1.033 0.191 1.601 0.191 1.171 0 2.273-0.296 3.235-0.817l-0.036 0.018v7.216h16v-7.2c0.922 0.496 2.017 0.787 3.18 0.787 0.575 0 1.134-0.071 1.667-0.205l-0.047 0.010zM4.8 0h6.4l-1.072 9.648c-0.37 2.661-2.603 4.695-5.322 4.752l-0.006 0c-2.656 0-4.128-2.032-3.28-4.56l3.28-9.84zM12.8 0h6.4l1.12 10.080c0.272 2.4-1.456 4.32-3.872 4.32h-0.896c-0.029 0.001-0.064 0.001-0.099 0.001-2.103 0-3.808-1.705-3.808-3.808 0-0.181 0.013-0.359 0.037-0.533l-0.002 0.020 1.12-10.080zM20.8 0h6.4l3.28 9.84c0.848 2.528-0.64 4.56-3.28 4.56-2.728-0.050-4.965-2.088-5.325-4.724l-0.003-0.028-1.072-9.648z"></path>
</svg>
