<!-- Generated by IcoMoon.io -->
<svg version="1.1" xmlns="http://www.w3.org/2000/svg" width="32" height="32" viewBox="0 0 32 32">
<title>streetlight</title>
<path d="M21.992 20.741v-4.764l3.499-3.499h-3.499v-4.838l3.499-3.499h-3.499v-2.009c0 0-3.95-1.667-6.671-1.667-2.639 0-6.43 1.667-6.43 1.667v2.010h-3.573l3.573 3.573v4.838l-3.573-0.074 3.573 3.573v4.764h-3.647l3.647 3.647v5.881h4.69l0.074 2.382 3.573-0.074v-2.308h4.764v-6.029l3.573-3.573h-3.573zM15.49 27.936c-1.972 0-3.573-1.599-3.573-3.573 0-1.972 1.601-3.572 3.573-3.572 1.973 0 3.573 1.599 3.573 3.572 0 1.975-1.599 3.573-3.573 3.573zM15.49 19.674c-1.972 0-3.573-1.599-3.573-3.573 0-1.972 1.601-3.573 3.573-3.573 1.973 0 3.573 1.601 3.573 3.573 0 1.973-1.599 3.573-3.573 3.573zM15.49 11.263c-1.972 0-3.573-1.601-3.573-3.574 0-1.972 1.601-3.573 3.573-3.573 1.973 0 3.573 1.601 3.573 3.573 0 1.975-1.599 3.574-3.573 3.574z"></path>
</svg>
