<!-- Generated by IcoMoon.io -->
<svg version="1.1" xmlns="http://www.w3.org/2000/svg" width="32" height="32" viewBox="0 0 32 32">
<title>suitcase</title>
<path d="M29.101 31.483h-4.764v-25.010h4.764c1.315 0 2.382 1.067 2.382 2.382v20.247c0 1.315-1.067 2.382-2.382 2.382zM8.854 6.472v0-2.382c0-1.316 1.067-2.382 2.382-2.382h8.337c1.315 0 2.382 1.066 2.382 2.382v27.392h-13.101v-25.010zM11.236 6.472h8.337c0 0 0-0.534 0-1.191 0-0.659-0.534-1.191-1.191-1.191h-5.955c-0.659 0-1.191 0.532-1.191 1.191 0 0.657 0 1.191 0 1.191zM-0.674 29.101v-20.247c0-1.315 1.067-2.382 2.382-2.382h4.764v25.010h-4.764c-1.315 0-2.382-1.067-2.382-2.382z"></path>
</svg>
