<!-- Generated by IcoMoon.io -->
<svg version="1.1" xmlns="http://www.w3.org/2000/svg" width="32" height="32" viewBox="0 0 32 32">
<title>suitcase2</title>
<path d="M30.292 31.483h-28.583c-1.315 0-2.382-1.067-2.382-2.382v-10.719h4.764v3.573h4.764v-3.573h14.292v3.573h4.764v-3.573h4.764v10.719c0 1.315-1.067 2.382-2.382 2.382zM24.337 20.764v-4.764h2.382v4.764h-2.382zM5.281 20.764v-4.764h2.382v4.764h-2.382zM27.91 14.809h-4.764v2.382h-14.292v-2.382h-4.764v2.382h-4.764v-8.337c0-1.315 1.067-2.382 2.382-2.382h28.583c1.315 0 2.382 1.067 2.382 2.382v8.337h-4.764v-2.382zM19.573 2.874h-7.146v2.407h-2.382v-1.166h1.191v-3.598h9.553v3.573h1.166v1.191h-2.382v-2.407z"></path>
</svg>
