<!-- Generated by IcoMoon.io -->
<svg version="1.1" xmlns="http://www.w3.org/2000/svg" width="32" height="32" viewBox="0 0 32 32">
<title>suitcase1</title>
<path d="M29.101 31.483h-27.392c-1.316 0-2.382-1.067-2.382-2.382v-14.292c0 0 6.218 3.198 11.91 4.507v1.448c0 0.659 0.532 1.191 1.191 1.191h5.955c0.657 0 1.191-0.532 1.191-1.191v-1.448c5.691-1.309 11.91-4.507 11.91-4.507v14.292c0 1.315-1.067 2.382-2.382 2.382zM17.191 17.191c0.657 0 1.191 0.532 1.191 1.191v1.191c0 0.659-0.534 1.191-1.191 1.191h-3.573c-0.659 0-1.191-0.532-1.191-1.191v-1.191c0-0.659 0.532-1.191 1.191-1.191h3.573zM19.573 17.191c0-0.659-0.534-1.191-1.191-1.191h-5.955c-0.659 0-1.191 0.532-1.191 1.191v1.067c-5.692-1.348-11.91-4.64-11.91-4.64v-4.764c0-1.315 1.066-2.382 2.382-2.382h7.146v-2.382c0-1.315 1.067-2.382 2.382-2.382h8.337c1.315 0 2.382 1.067 2.382 2.382v2.382h7.146c1.315 0 2.382 1.067 2.382 2.382v4.764c0 0-6.219 3.292-11.91 4.64v-1.067zM19.573 5.281c0-0.659-0.534-1.191-1.191-1.191h-5.955c-0.659 0-1.191 0.532-1.191 1.191 0 0.657 0 1.191 0 1.191h8.337c0 0 0-0.534 0-1.191z"></path>
</svg>
