<!-- Generated by IcoMoon.io -->
<svg version="1.1" xmlns="http://www.w3.org/2000/svg" width="32" height="32" viewBox="0 0 32 32">
<title>sun</title>
<path d="M6.509 16.596c0 4.934 3.999 8.932 8.932 8.932 4.934 0 8.932-3.998 8.932-8.932s-3.998-8.932-8.932-8.932c-4.933 0-8.932 3.998-8.932 8.932zM15.441 1.411l-2.512 5.025h5.025l-2.513-5.025zM26.174 5.825l-5.33 1.776 3.551 3.553 1.778-5.328zM10.038 7.601l-5.328-1.776 1.776 5.33 3.553-3.554zM5.244 14.046l-5.025 2.513 5.025 2.512v-5.025zM25.565 19.145l5.025-2.512-5.025-2.512v5.024zM15.441 31.78l2.512-5.025h-5.025l2.513 5.025zM20.845 25.59l5.33 1.776-1.777-5.33-3.553 3.554zM4.71 27.365l5.33-1.776-3.553-3.553-1.777 5.328z"></path>
</svg>
