<!-- Generated by IcoMoon.io -->
<svg version="1.1" xmlns="http://www.w3.org/2000/svg" width="32" height="32" viewBox="0 0 32 32">
<title>switch1</title>
<path d="M1.708-0.674v33.347h27.392v-33.347h-27.392zM4.686 30.936c-0.659 0-1.191-0.532-1.191-1.191 0-0.657 0.532-1.191 1.191-1.191 0.657 0 1.191 0.534 1.191 1.191 0 0.659-0.534 1.191-1.191 1.191zM4.711 3.495c-0.657 0-1.191-0.534-1.191-1.191 0-0.659 0.534-1.191 1.191-1.191 0.659 0 1.191 0.532 1.191 1.191 0 0.657-0.534 1.191-1.191 1.191zM21.955 27.91h-13.101v-23.819h13.101v23.819zM26.073 30.837c-0.657 0-1.191-0.534-1.191-1.191s0.534-1.191 1.191-1.191 1.191 0.534 1.191 1.191-0.534 1.191-1.191 1.191zM26.098 3.495c-0.657 0-1.191-0.534-1.191-1.191 0-0.659 0.534-1.191 1.191-1.191 0.659 0 1.191 0.532 1.191 1.191 0 0.657-0.534 1.191-1.191 1.191zM19.573 6.472h-8.337v11.91h8.337v-11.91zM19.573 19.573h-8.337v5.955h8.337v-5.955z"></path>
</svg>
