<!-- Generated by IcoMoon.io -->
<svg version="1.1" xmlns="http://www.w3.org/2000/svg" width="32" height="32" viewBox="0 0 32 32">
<title>switch2</title>
<path d="M15.405 33.938c-8.222 0-14.887-6.666-14.887-14.887 0-6.33 3.958-11.724 9.528-13.876v5.299c-2.857 1.79-4.764 4.957-4.764 8.577 0 5.59 4.533 10.123 10.123 10.123s10.123-4.533 10.123-10.123c0-3.092-1.389-5.854-3.573-7.712v-5.64c4.934 2.425 8.337 7.484 8.337 13.353 0 8.221-6.666 14.886-14.887 14.886zM16 17.265c-1.315 0-2.382-1.067-2.382-2.382v-13.248c0-1.315 1.067-2.382 2.382-2.382s2.382 1.067 2.382 2.382v13.25c0 1.315-1.067 2.381-2.382 2.381z"></path>
</svg>
