<!-- Generated by IcoMoon.io -->
<svg version="1.1" xmlns="http://www.w3.org/2000/svg" width="32" height="32" viewBox="0 0 32 32">
<title>tablet</title>
<path d="M24.338 1.708h-17.865c-1.316 0-2.383 1.067-2.383 2.382v23.819c0 1.315 1.067 2.382 2.383 2.382h17.865c1.315 0 2.381-1.067 2.381-2.382v-23.819c0-1.315-1.066-2.382-2.381-2.382zM15.405 29.101c-0.657 0-1.19-0.532-1.19-1.191s0.532-1.191 1.19-1.191c0.659 0 1.192 0.532 1.192 1.191s-0.534 1.191-1.192 1.191zM24.326 25.454h-17.896v-21.333h17.896v21.333z"></path>
</svg>
