<!-- Generated by IcoMoon.io -->
<svg version="1.1" xmlns="http://www.w3.org/2000/svg" width="32" height="32" viewBox="0 0 32 32">
<title>tag1</title>
<path d="M29.571 16.133l-14.56-14.46h-13.269l-0.031 13.252 14.385 14.684c0.946 0.946 2.466 0.959 3.398 0.027l10.104-10.105c0.93-0.93 0.918-2.452-0.027-3.398zM5.26 7.668c0-1.315 1.067-2.382 2.382-2.382s2.382 1.067 2.382 2.382c0 1.316-1.067 2.382-2.382 2.382s-2.382-1.066-2.382-2.382zM18.219 24.28l-9.263-9.263 0.842-0.842 9.263 9.263-0.842 0.842zM20.745 21.754l-9.263-9.263 0.843-0.842 9.262 9.263-0.842 0.842zM23.271 19.226l-9.262-9.263 0.842-0.842 9.262 9.263-0.842 0.842z"></path>
</svg>
