<!-- Generated by IcoMoon.io -->
<svg version="1.1" xmlns="http://www.w3.org/2000/svg" width="32" height="32" viewBox="0 0 32 32">
<title>tags</title>
<path d="M27.903 16.172l-14.56-14.56-14.017 0.054 0.021 12.899 15.080 15.080c0.946 0.947 2.468 0.96 3.399 0.029l10.104-10.105c0.93-0.93 0.918-2.451-0.029-3.397zM5.378 9.988c-1.315 0-2.382-1.067-2.382-2.382s1.067-2.382 2.382-2.382c1.316 0 2.382 1.067 2.382 2.382s-1.066 2.382-2.382 2.382zM31.299 16.2l-14.56-14.56-1.752 0.006 14.613 14.538c0.947 0.947 0.959 2.466 0.027 3.398l-10.104 10.105c-0.247 0.247-0.537 0.422-0.844 0.537 0.859 0.33 1.859 0.161 2.543-0.522l10.107-10.105c0.93-0.931 0.917-2.452-0.030-3.398z"></path>
</svg>
