<!-- Generated by IcoMoon.io -->
<svg version="1.1" xmlns="http://www.w3.org/2000/svg" width="32" height="32" viewBox="0 0 32 32">
<title>target3</title>
<path d="M30.437 1.213l-2.557 2.26-1.552 0.024-3.251 3.4c2.096 2.227 3.39 5.22 3.39 8.52 0 6.875-5.575 12.452-12.452 12.452-6.875 0-12.45-5.576-12.45-12.452 0-6.877 5.575-12.452 12.45-12.452 3.15 0 6.018 1.178 8.211 3.106l3.138-3.138 0.002-1.383 2.408-2.781-0.002 2.476 2.665-0.033zM21.818 8.156l-3.166 3.167c1.072 1.164 1.742 2.704 1.742 4.41 0 3.603-2.919 6.522-6.522 6.522s-6.523-2.919-6.523-6.522c0-3.601 2.92-6.523 6.523-6.523 1.466 0 2.805 0.501 3.896 1.318l3.199-3.199c-1.869-1.608-4.293-2.586-6.953-2.586-5.894 0-10.672 4.779-10.672 10.673s4.778 10.671 10.672 10.671 10.672-4.778 10.672-10.671c-0.001-2.808-1.094-5.356-2.869-7.261zM13.823 17.61c-0.981 0-1.778-0.796-1.778-1.778s0.797-1.779 1.778-1.779c0.124 0 0.233 0.046 0.351 0.071l2.755-2.755c-0.867-0.609-1.916-0.972-3.056-0.972-2.948 0-5.336 2.39-5.336 5.337s2.389 5.336 5.336 5.336 5.336-2.389 5.336-5.336c0-1.379-0.537-2.624-1.397-3.572l-2.602 2.604c0.23 0.3 0.392 0.66 0.392 1.067 0.001 0.981-0.796 1.777-1.778 1.777zM8.681 28.801c0.354 0.179 0.717 0.339 1.090 0.484l-2.106 3.647c-0.164 0.283-0.526 0.379-0.811 0.217-0.282-0.163-0.38-0.525-0.217-0.81l2.044-3.537zM14.638 29.733v1.661c0 0.328-0.267 0.593-0.593 0.593-0.328 0-0.593-0.266-0.593-0.593v-1.661c0.198 0.010 0.393 0.030 0.593 0.030s0.395-0.020 0.593-0.030zM21.896 32.339c0.163 0.283 0.067 0.647-0.218 0.81s-0.646 0.068-0.811-0.217l-2.104-3.647c0.372-0.144 0.736-0.305 1.090-0.483l2.044 3.537z"></path>
</svg>
