<!-- Generated by IcoMoon.io -->
<svg version="1.1" xmlns="http://www.w3.org/2000/svg" width="32" height="32" viewBox="0 0 32 32">
<title>target4</title>
<path d="M28.704 17.6h-7.904v-3.2h7.904c-0.75-5.806-5.298-10.354-11.040-11.097l-0.064-0.007v7.904h-3.2v-7.904c-5.806 0.75-10.354 5.298-11.097 11.040l-0.007 0.064h7.904v3.2h-7.904c0.75 5.806 5.298 10.354 11.040 11.097l0.064 0.007v-7.904h3.2v7.904c5.806-0.75 10.354-5.298 11.097-11.040l0.007-0.064zM16 32c-8.837 0-16-7.163-16-16s7.163-16 16-16v0c8.837 0 16 7.163 16 16s-7.163 16-16 16v0z"></path>
</svg>
