<!-- Generated by IcoMoon.io -->
<svg version="1.1" xmlns="http://www.w3.org/2000/svg" width="32" height="32" viewBox="0 0 32 32">
<title>text-box</title>
<path d="M0 0h9.6v9.6h-9.6v-9.6zM3.2 3.2v3.2h3.2v-3.2h-3.2zM22.4 0h9.6v9.6h-9.6v-9.6zM25.6 3.2v3.2h3.2v-3.2h-3.2zM22.4 22.4h9.6v9.6h-9.6v-9.6zM25.6 25.6v3.2h3.2v-3.2h-3.2zM0 22.4h9.6v9.6h-9.6v-9.6zM3.2 25.6v3.2h3.2v-3.2h-3.2zM9.6 3.2h12.8v3.2h-12.8v-3.2zM9.6 25.6h12.8v3.2h-12.8v-3.2zM25.6 9.6h3.2v12.8h-3.2v-12.8zM3.2 9.6h3.2v12.8h-3.2v-12.8zM11.2 11.2h9.6v3.2h-9.6v-3.2zM14.4 14.4h3.2v6.4h-3.2v-6.4z"></path>
</svg>
