<!-- Generated by IcoMoon.io -->
<svg version="1.1" xmlns="http://www.w3.org/2000/svg" width="32" height="32" viewBox="0 0 32 32">
<title>thermometer3</title>
<path d="M14.4 17.872v-6.672h3.2v6.672c1.88 0.679 3.2 2.448 3.2 4.525 0 2.651-2.149 4.8-4.8 4.8s-4.8-2.149-4.8-4.8c0-2.077 1.32-3.847 3.167-4.515l0.033-0.011zM12.8 16.864c-1.927 1.127-3.2 3.186-3.2 5.543 0 3.535 2.865 6.4 6.4 6.4s6.4-2.865 6.4-6.4c0-2.356-1.273-4.415-3.17-5.526l-0.030-0.016v-10.464c0-1.767-1.433-3.2-3.2-3.2s-3.2 1.433-3.2 3.2v0 10.448zM9.6 15.248v-8.848c0-3.535 2.865-6.4 6.4-6.4s6.4 2.865 6.4 6.4v0 8.848c1.981 1.764 3.222 4.321 3.222 7.168 0 5.293-4.291 9.584-9.584 9.584-0.013 0-0.027-0-0.040-0h0.002c-5.3-0.002-9.596-4.299-9.596-9.6 0-2.837 1.231-5.387 3.187-7.144l0.009-0.008z"></path>
</svg>
