<!-- Generated by IcoMoon.io -->
<svg version="1.1" xmlns="http://www.w3.org/2000/svg" width="32" height="32" viewBox="0 0 32 32">
<title>thermometer</title>
<path d="M19.524 18.278v-1.092h3.648v1.092h-3.648zM19.524 14.779h3.648v1.166h-3.648v-1.166zM19.524 12.445h3.648v1.167h-3.648v-1.167zM19.524 10.037h3.648v1.166l-3.648-0.074v-1.092zM19.524 7.555h3.648v1.241h-3.648v-1.241zM19.524 5.222h3.648v1.167h-3.648v-1.167zM21.637 25.71c0 3.866-3.135 7.001-7 7.001s-7.001-3.135-7.001-7.001c0-2.651 1.399-4.956 3.572-6.144v-15.586c0-1.933 1.641-3.499 3.574-3.499s3.5 1.566 3.5 3.499v15.763c2.010 1.231 3.355 3.44 3.355 5.968zM17.116 20.448v-16.469c0-1.289-1.044-2.333-2.333-2.333s-2.333 1.044-2.333 2.333v16.329c-2.137 0.867-3.647 2.954-3.647 5.401 0 3.222 2.612 5.833 5.833 5.833s5.832-2.612 5.832-5.833c0.001-2.332-1.376-4.327-3.353-5.262zM14.636 30.377c-2.578 0-4.667-2.090-4.667-4.667 0-2.226 1.561-4.080 3.647-4.547v-11.126h2.334v11.217c1.933 0.57 3.354 2.339 3.354 4.457 0 2.577-2.089 4.667-4.667 4.667z"></path>
</svg>
