<!-- Generated by IcoMoon.io -->
<svg version="1.1" xmlns="http://www.w3.org/2000/svg" width="40" height="32" viewBox="0 0 40 32">
<title>ticket</title>
<path d="M43.988 24.337h0.596v1.191c-0.356 0-0.748 0-1.191 0-1.315 0-2.382 1.067-2.382 2.382 0 0.436 0 0.84 0 1.191h-40.493c0-0.351 0-0.755 0-1.191 0-1.315-1.067-2.382-2.382-2.382-0.38 0-0.793 0-1.191 0v-1.191h0.595c0.329 0 0.596-0.267 0.596-0.596s-0.267-0.596-0.596-0.596h-0.595v-1.191h0.595c0.329 0 0.596-0.267 0.596-0.596s-0.267-0.596-0.596-0.596h-0.595v-1.191h0.595c0.329 0 0.596-0.267 0.596-0.596s-0.267-0.596-0.596-0.596h-0.595v-1.191h0.595c0.329 0 0.596-0.267 0.596-0.596s-0.267-0.595-0.596-0.595h-0.595v-1.191h0.595c0.329 0 0.596-0.267 0.596-0.595s-0.267-0.595-0.596-0.595h-0.595v-1.191h0.595c0.329 0 0.596-0.267 0.596-0.595s-0.267-0.596-0.596-0.596h-0.595v-1.191h0.595c0.329 0 0.596-0.267 0.596-0.596s-0.267-0.596-0.596-0.596h-0.595v-1.191c0.356 0 0.748 0 1.191 0 1.315 0 2.382-1.067 2.382-2.382 0-0.436 0-0.84 0-1.191h40.493c0 0.351 0 0.755 0 1.191 0 1.315 1.067 2.382 2.382 2.382 0.443 0 0.835 0 1.191 0v1.191h-0.596c-0.329 0-0.596 0.267-0.596 0.596s0.267 0.596 0.596 0.596h0.596v1.191h-0.596c-0.329 0-0.596 0.267-0.596 0.596s0.267 0.595 0.596 0.595h0.596v1.191h-0.596c-0.329 0-0.596 0.267-0.596 0.595s0.267 0.595 0.596 0.595h0.596v1.191h-0.596c-0.329 0-0.596 0.267-0.596 0.595s0.267 0.596 0.596 0.596h0.596v1.191h-0.596c-0.329 0-0.596 0.267-0.596 0.596s0.267 0.596 0.596 0.596h0.596v1.191h-0.596c-0.329 0-0.596 0.267-0.596 0.596s0.267 0.596 0.596 0.596h0.596v1.191h-0.596c-0.329 0-0.596 0.267-0.596 0.596s0.267 0.596 0.596 0.596zM39.819 10.045c0-1.315-1.067-2.382-2.382-2.382h-33.347c-1.315 0-2.382 1.067-2.382 2.382v13.101c0 1.315 1.067 2.382 2.382 2.382h33.347c1.315 0 2.382-1.067 2.382-2.382v-13.101zM37.438 24.337h-33.347c-0.659 0-1.191-0.534-1.191-1.191v-13.101c0-0.659 0.532-1.191 1.191-1.191h33.347c0.657 0 1.191 0.532 1.191 1.191v13.101c0 0.657-0.534 1.191-1.191 1.191zM10.506 13.604h-4.732v0.703h1.968v5.266h0.791v-5.266h1.972v-0.703zM12.151 13.604h-0.791v5.969h0.791v-5.969zM14.522 15.393c0.124-0.372 0.342-0.667 0.65-0.886 0.307-0.22 0.691-0.33 1.149-0.33 0.399 0 0.73 0.099 0.993 0.298 0.264 0.198 0.464 0.514 0.603 0.949l0.776-0.183c-0.16-0.55-0.443-0.978-0.85-1.281s-0.91-0.456-1.507-0.456c-0.526 0-1.009 0.12-1.447 0.361-0.438 0.239-0.775 0.592-1.015 1.055-0.237 0.463-0.356 1.005-0.356 1.626 0 0.57 0.106 1.104 0.317 1.601 0.21 0.498 0.517 0.877 0.918 1.139 0.404 0.262 0.927 0.393 1.57 0.393 0.621 0 1.147-0.17 1.577-0.511s0.728-0.835 0.893-1.484l-0.791-0.2c-0.108 0.503-0.317 0.881-0.622 1.137-0.307 0.255-0.68 0.382-1.123 0.382-0.363 0-0.701-0.094-1.014-0.281s-0.542-0.47-0.69-0.849-0.223-0.822-0.223-1.33c0.002-0.395 0.064-0.778 0.189-1.148zM24.769 13.604h-1.069l-2.963 2.954v-2.954h-0.791v5.969h0.791v-2.070l0.979-0.947 2.123 3.017h1.042l-2.614-3.549 2.502-2.42zM30.218 18.87h-3.661v-2.033h3.299v-0.703h-3.299v-1.828h3.522v-0.703h-4.313v5.969h4.452v-0.703zM35.8 13.604h-4.732v0.703h1.968v5.266h0.791v-5.266h1.972v-0.703z"></path>
</svg>
