<!-- Generated by IcoMoon.io -->
<svg version="1.1" xmlns="http://www.w3.org/2000/svg" width="39" height="32" viewBox="0 0 39 32">
<title>ticket2</title>
<path d="M43.392 20.095v6.624c0 1.315-1.067 2.382-2.382 2.382h-41.684c-1.315 0-2.382-1.067-2.382-2.382v-6.55c1.973 0 3.573-1.601 3.573-3.573 0-1.973-1.599-3.573-3.573-3.573v-6.55c0-1.315 1.067-2.382 2.382-2.382h41.684c1.315 0 2.382 1.067 2.382 2.382v6.477c-1.973 0-3.573 1.599-3.573 3.573 0 1.972 1.599 3.573 3.573 3.573zM37.438 10.045c0-1.315-1.067-2.382-2.382-2.382h-29.774c-1.315 0-2.382 1.067-2.382 2.382v13.101c0 1.315 1.067 2.382 2.382 2.382h29.774c1.315 0 2.382-1.067 2.382-2.382v-13.101zM35.056 24.337h-29.774c-0.659 0-1.191-0.534-1.191-1.191v-13.101c0-0.659 0.532-1.191 1.191-1.191h29.774c0.657 0 1.191 0.532 1.191 1.191v13.101c0 0.657-0.534 1.191-1.191 1.191zM11.796 15.45l-1.080-3.073-1.080 3.073-3.113 0.131 2.446 2.029-0.844 3.154 2.592-1.817 2.59 1.817-0.843-3.152 2.445-2.029-3.112-0.132zM21.324 15.45l-1.080-3.073-1.080 3.073-3.113 0.131 2.446 2.029-0.844 3.154 2.592-1.817 2.59 1.817-0.843-3.152 2.445-2.029-3.112-0.132zM30.851 15.45l-1.080-3.073-1.080 3.073-3.112 0.131 2.445 2.029-0.844 3.154 2.592-1.817 2.59 1.817-0.843-3.152 2.445-2.029-3.112-0.132z"></path>
</svg>
