<!-- Generated by IcoMoon.io -->
<svg version="1.1" xmlns="http://www.w3.org/2000/svg" width="40" height="32" viewBox="0 0 40 32">
<title>ticket1</title>
<path d="M44.583 20.095v6.624c0 1.315-1.067 2.382-2.382 2.382h-6.55c0.329 0 0.596-0.267 0.596-0.596s-0.267-0.596-0.596-0.596-0.596 0.267-0.596 0.596 0.267 0.596 0.596 0.596h-36.325c-1.315 0-2.382-1.067-2.382-2.382v-6.55c1.972 0 3.573-1.601 3.573-3.573 0-1.973-1.601-3.573-3.573-3.573v-6.55c0-1.315 1.067-2.382 2.382-2.382h36.325c-0.329 0-0.596 0.267-0.596 0.596s0.267 0.596 0.596 0.596 0.596-0.267 0.596-0.596-0.267-0.596-0.596-0.596h6.55c1.315 0 2.382 1.067 2.382 2.382v6.477c-1.973 0-3.573 1.599-3.573 3.573 0 1.972 1.599 3.573 3.573 3.573zM7.446 13.604h-0.853l-2.289 5.969h0.837l0.655-1.81h2.497l0.694 1.81h0.9l-2.443-5.969zM15.923 15.137c-0.156-0.414-0.392-0.754-0.706-1.019-0.242-0.206-0.534-0.349-0.875-0.428-0.244-0.057-0.599-0.085-1.064-0.085h-2.057v5.968h2.154c0.362 0 0.68-0.033 0.96-0.102 0.278-0.068 0.516-0.168 0.712-0.299 0.198-0.131 0.379-0.312 0.544-0.541 0.166-0.23 0.301-0.52 0.407-0.869s0.16-0.751 0.16-1.205c-0.001-0.532-0.080-1.005-0.236-1.42zM22.931 13.604h-1.066l-1.433 4.152c-0.144 0.422-0.251 0.74-0.319 0.956-0.061-0.195-0.156-0.489-0.286-0.883l-1.415-4.226h-1.186v5.969h0.763v-5.081l1.725 5.081h0.713l1.741-4.996v4.996h0.763v-5.969zM25.131 13.604h-0.791v5.969h0.791v-5.969zM31.015 13.604h-4.732v0.703h1.968v5.266h0.791v-5.266h1.972v-0.703zM35.651 6.472c-0.329 0-0.596 0.267-0.596 0.596s0.267 0.596 0.596 0.596 0.596-0.267 0.596-0.596-0.267-0.596-0.596-0.596zM35.651 8.854c-0.329 0-0.596 0.267-0.596 0.595s0.267 0.596 0.596 0.596 0.596-0.267 0.596-0.596-0.267-0.595-0.596-0.595zM35.651 11.236c-0.329 0-0.596 0.267-0.596 0.595s0.267 0.596 0.596 0.596 0.596-0.267 0.596-0.596-0.267-0.595-0.596-0.595zM35.651 13.618c-0.329 0-0.596 0.267-0.596 0.595s0.267 0.595 0.596 0.595 0.596-0.267 0.596-0.595-0.267-0.595-0.596-0.595zM35.651 16c-0.329 0-0.596 0.267-0.596 0.596s0.267 0.596 0.596 0.596 0.596-0.267 0.596-0.596-0.267-0.596-0.596-0.596zM35.651 18.382c-0.329 0-0.596 0.267-0.596 0.596s0.267 0.596 0.596 0.596 0.596-0.267 0.596-0.596-0.267-0.596-0.596-0.596zM35.651 20.764c-0.329 0-0.596 0.267-0.596 0.596s0.267 0.596 0.596 0.596 0.596-0.267 0.596-0.596-0.267-0.596-0.596-0.596zM35.651 23.146c-0.329 0-0.596 0.267-0.596 0.596s0.267 0.596 0.596 0.596 0.596-0.267 0.596-0.596-0.267-0.596-0.596-0.596zM35.651 25.528c-0.329 0-0.596 0.267-0.596 0.596s0.267 0.596 0.596 0.596 0.596-0.267 0.596-0.596-0.267-0.596-0.596-0.596zM14.748 18.451c-0.133 0.132-0.312 0.236-0.536 0.31s-0.532 0.111-0.925 0.111h-1.274v-4.564h1.254c0.47 0 0.811 0.040 1.022 0.123 0.293 0.114 0.542 0.338 0.747 0.674 0.206 0.335 0.308 0.816 0.308 1.44 0 0.451-0.052 0.835-0.157 1.152s-0.252 0.567-0.438 0.755zM6.677 15.372c0.138-0.378 0.245-0.759 0.323-1.14 0.093 0.323 0.235 0.735 0.425 1.236l0.621 1.653h-2.021l0.653-1.75z"></path>
</svg>
