<!-- Generated by IcoMoon.io -->
<svg version="1.1" xmlns="http://www.w3.org/2000/svg" width="39" height="32" viewBox="0 0 39 32">
<title>time</title>
<path d="M43.392 11.298l-2.382 0.025v-2.432c0-1.973-1.601-3.573-3.573-3.573h-36.92c-1.973 0-3.573 1.599-3.573 3.573v13.101c0 1.972 1.599 3.573 3.573 3.573h4.739l-0.025 1.117h27.442l-0.025-1.117h4.789c1.972 0 3.573-1.601 3.573-3.573v-2.456h2.431l-0.049-8.238zM39.819 21.992c0 1.315-1.067 2.382-2.382 2.382h-36.92c-1.315 0-2.382-1.067-2.382-2.382v-13.101c0-1.315 1.067-2.382 2.382-2.382h36.92c1.315 0 2.382 1.067 2.382 2.382v13.101zM37.438 7.7h-36.92c-0.659 0-1.191 0.532-1.191 1.191v13.101c0 0.659 0.532 1.191 1.191 1.191h36.92c0.657 0 1.191-0.532 1.191-1.191v-13.101c0-0.657-0.534-1.191-1.191-1.191zM35.35 11.253l-0.953 0.893h-2.895l-0.81-0.893h4.658zM34.258 14.975l0.417 0.442-0.5 0.442h-3.111l-0.394-0.442 0.476-0.442h3.112zM30.514 11.41l0.809 0.893-0.201 2.382-0.607 0.56-0.31-0.333 0.31-3.501zM22.785 11.41l0.809 0.893-0.201 2.382-0.607 0.56-0.31-0.333 0.31-3.501zM26.525 14.975l0.418 0.442-0.501 0.442h-3.107l-0.393-0.442 0.475-0.442h3.108zM10.885 11.41l0.809 0.893-0.208 2.382-0.601 0.561-0.306-0.333 0.307-3.503zM14.623 14.975l0.418 0.442-0.5 0.442h-3.112l-0.388-0.442 0.475-0.442h3.107zM7.991 11.253l-0.954 0.893h-2.894l-0.81-0.893h4.658zM3.155 11.41l0.81 0.893-0.21 2.382-0.601 0.561-0.306-0.333 0.307-3.503zM2.759 15.924l0.357-0.344 0.512 0.559-0.2 2.383-0.974 0.893 0.305-3.491zM2.602 19.58l0.977-0.893h2.889l0.797 0.893h-4.663zM7.443 19.412l-0.8-0.892 0.2-2.383 0.609-0.559 0.298 0.344-0.306 3.49zM7.837 14.911l-0.349 0.333-0.518-0.561 0.208-2.382 0.967-0.893-0.308 3.503zM10.488 15.924l0.357-0.344 0.512 0.559-0.2 2.383-0.974 0.892 0.305-3.49zM10.33 19.58l0.977-0.893h2.89l0.797 0.893h-4.664zM15.172 19.413l-0.798-0.893 0.201-2.382 0.609-0.56 0.299 0.344-0.311 3.491zM14.767 12.146h-2.894l-0.811-0.893h4.657l-0.952 0.893zM19.067 19.58h-0.893l0.082-0.893h0.893l-0.082 0.893zM19.591 13.532h-0.893l0.083-0.893h0.893l-0.083 0.893zM22.237 19.58l0.965-0.893h2.894l0.798 0.893h-4.657zM27.072 19.412l-0.799-0.892 0.202-2.382 0.609-0.56 0.298 0.344-0.31 3.49zM26.668 12.146h-2.894l-0.811-0.893h4.657l-0.952 0.893zM29.967 19.58l0.966-0.893h2.894l0.798 0.893h-4.658zM34.802 19.412l-0.8-0.892 0.2-2.383 0.609-0.559 0.298 0.344-0.306 3.49zM35.197 14.911l-0.35 0.333-0.518-0.561 0.21-2.382 0.967-0.893-0.308 3.503z"></path>
</svg>
