<!-- Generated by IcoMoon.io -->
<svg version="1.1" xmlns="http://www.w3.org/2000/svg" width="32" height="32" viewBox="0 0 32 32">
<title>timer</title>
<path d="M26.112 11.36c1.671 2.142 2.679 4.871 2.679 7.837 0 7.069-5.731 12.8-12.8 12.8s-12.8-5.731-12.8-12.8c0-6.508 4.857-11.882 11.145-12.694l0.064-0.007v-3.296h3.2v3.296c2.336 0.288 4.48 1.216 6.24 2.592l2.336-2.336 2.272 2.272-2.336 2.32zM16 28.8c5.302 0 9.6-4.298 9.6-9.6s-4.298-9.6-9.6-9.6v0c-5.302 0-9.6 4.298-9.6 9.6s4.298 9.6 9.6 9.6v0zM11.2 0h9.6v3.2h-9.6v-3.2zM19.392 13.536l2.272 2.272-5.664 5.632-2.256-2.24 5.648-5.664z"></path>
</svg>
