<!-- Generated by IcoMoon.io -->
<svg version="1.1" xmlns="http://www.w3.org/2000/svg" width="32" height="32" viewBox="0 0 32 32">
<title>time1</title>
<path d="M16 1.113c-8.552 0-15.483 6.931-15.483 15.483s6.93 15.483 15.483 15.483c8.55 0 15.483-6.931 15.483-15.483s-6.931-15.483-15.483-15.483zM15.875 29.133c-6.906 0-12.505-5.599-12.505-12.505s5.599-12.505 12.505-12.505c6.905 0 12.505 5.599 12.505 12.505s-5.6 12.505-12.505 12.505zM19.49 17.347h-3.549v-5.993c0-0.65-0.528-1.179-1.178-1.179-0.651 0-1.179 0.528-1.179 1.179v7.171c0 0.651 0.528 1.178 1.179 1.178h4.727c0.651 0 1.179-0.526 1.179-1.178 0-0.65-0.528-1.178-1.179-1.178z"></path>
</svg>
