<!-- Generated by IcoMoon.io -->
<svg version="1.1" xmlns="http://www.w3.org/2000/svg" width="32" height="32" viewBox="0 0 32 32">
<title>tools</title>
<path d="M30.033 6.396c1.142 2.755 0.598 6.043-1.642 8.283-2.466 2.466-6.194 2.852-9.092 1.217l-2.095 2.288 1.495 1.501 0.893-0.893c0.456-0.457 1.197-0.457 1.653 0l7.243 7.317c0.457 0.456 0.457 1.197 0 1.653l-3.306 3.306c-0.456 0.457-1.197 0.457-1.653 0l-7.243-7.317c-0.457-0.456-0.457-1.197 0-1.653l0.816-0.816-1.424-1.428-10.017 10.944c-0.913 0.913-2.394 0.913-3.306 0l-0.827-0.826c-0.913-0.913-0.913-2.394 0-3.306l11.412-9.558-7.579-7.6-2.394-0.001-2.77-4.454 2.229-2.233 4.555 2.788 0.030 2.344 7.667 7.697 2.231-1.867c-2.181-2.973-1.953-7.16 0.734-9.847 2.23-2.229 5.5-2.783 8.247-1.663l-4.912 4.844 4.134 4.134 4.921-4.853zM4.269 27.831c-0.456-0.456-1.196-0.456-1.653 0-0.457 0.457-0.457 1.197 0 1.654 0.457 0.456 1.197 0.456 1.653 0 0.457-0.459 0.457-1.198 0-1.654z"></path>
</svg>
