<!-- Generated by IcoMoon.io -->
<svg version="1.1" xmlns="http://www.w3.org/2000/svg" width="32" height="32" viewBox="0 0 32 32">
<title>transformers</title>
<path d="M26.856 3.215l0.054-1.733c-3.208-1.605-6.772-2.567-10.687-2.567s-7.924 0.961-11.132 2.567l0.054 1.733 10.856 7.123 10.856-7.123zM16 2.37c2.233 0 4.106 0.716 4.106 0.716l-4.106 2.759-4.106-2.759c0 0 1.873-0.716 4.106-0.716zM18.469 25.5v-8.361l0.557-7.188-3.026 1.99-2.952-1.99 0.631 7.188v8.361h4.79zM11.701 9.183l-8.085-5.39-0.054-2.097h-4.759l0.706 10.183 5.776 4.128h7.059l-0.643-6.823zM2.524 9.632l7.636 3.594 0.127 1.178-7.571-3.424-0.193-1.348zM2.203 5.974l7.572 3.657 0.192 1.273-7.635-3.519-0.129-1.411zM2.075 28.564l5.639 2.887v-11.209l-3.33-2.072v-1.284l-3.273-2.246 0.964 13.925zM12.491 26.709v-8.351l-3.658 1.86v12.131l1.648 1.025 2.246-5.476h6.546l2.246 5.476 1.722-1.025v-12.13l-3.657-1.86v8.351h-7.093zM13.818 29.184l-1.669 4.683h7.701l-1.667-4.683h-4.365zM19.657 16.005h7.059l5.776-4.128 0.706-10.183h-4.759l-0.055 2.098-8.087 5.39-0.641 6.822zM29.283 10.98l-7.647 3.573 0.204-1.327 7.637-3.594-0.193 1.348zM29.669 7.386l-7.636 3.594 0.193-1.348 7.572-3.658-0.129 1.411zM30.887 14.638l-3.272 2.246v1.284l-3.281 2.072v11.209l5.59-2.887 0.962-13.925z"></path>
</svg>
