<!-- Generated by IcoMoon.io -->
<svg version="1.1" xmlns="http://www.w3.org/2000/svg" width="32" height="32" viewBox="0 0 32 32">
<title>trashcan1</title>
<path d="M6.472 27.91c0 1.972 1.599 3.573 3.573 3.573h11.91c1.972 0 3.573-1.601 3.573-3.573l2.382-19.056h-23.819l2.382 19.056zM19.573 12.427h2.382v15.483h-2.382v-15.483zM14.809 12.427h2.382v15.483h-2.382v-15.483zM10.045 12.427h2.382v15.483h-2.382v-15.483zM27.314 4.090h-7.741c0 0-0.534-2.382-1.191-2.382h-4.764c-0.659 0-1.191 2.382-1.191 2.382h-7.741c-0.987 0-1.786 0.799-1.786 1.786s0 1.786 0 1.786h26.201c0 0 0-0.799 0-1.786s-0.8-1.786-1.786-1.786z"></path>
</svg>
