<!-- Generated by IcoMoon.io -->
<svg version="1.1" xmlns="http://www.w3.org/2000/svg" width="32" height="32" viewBox="0 0 32 32">
<title>travel-walk</title>
<path d="M17.6 11.2l2.304 3.456c0.496 0.752 1.616 1.344 2.512 1.344h4.784v-3.2h-4.8l-2.304-3.456c-0.626-0.873-1.367-1.614-2.212-2.221l-0.029-0.019-2.112-1.408c-0.404-0.246-0.893-0.392-1.416-0.392-0.478 0-0.927 0.122-1.318 0.336l0.014-0.007-6.624 3.968v8h3.2v-6.4l3.2-1.6-4.8 22.4h3.2l3.76-12.24 2.64 2.64v9.6h3.2v-12.8l-4.32-4.32 1.12-3.68zM19.2 6.4c1.767 0 3.2-1.433 3.2-3.2s-1.433-3.2-3.2-3.2v0c-1.767 0-3.2 1.433-3.2 3.2s1.433 3.2 3.2 3.2v0z"></path>
</svg>
