<!-- Generated by IcoMoon.io -->
<svg version="1.1" xmlns="http://www.w3.org/2000/svg" width="32" height="32" viewBox="0 0 32 32">
<title>travel-bus</title>
<path d="M20.8 28.8h-9.6v1.6c0 0.884-0.716 1.6-1.6 1.6v0h-1.6c-0.884 0-1.6-0.716-1.6-1.6v0-1.6c-1.767 0-3.2-1.433-3.2-3.2v0-22.4c0-1.76 1.44-3.2 3.2-3.2h19.2c1.767 0 3.2 1.433 3.2 3.2v0 22.4c0 1.767-1.433 3.2-3.2 3.2v0 1.6c0 0.884-0.716 1.6-1.6 1.6v0h-1.6c-0.884 0-1.6-0.716-1.6-1.6v0-1.6zM6.4 8v9.6h8v-9.6h-8zM17.6 8v9.6h8v-9.6h-8zM8 3.2v1.6h16v-1.6h-16zM8.8 25.6c1.325 0 2.4-1.075 2.4-2.4s-1.075-2.4-2.4-2.4v0c-1.325 0-2.4 1.075-2.4 2.4s1.075 2.4 2.4 2.4v0zM23.2 25.6c1.325 0 2.4-1.075 2.4-2.4s-1.075-2.4-2.4-2.4v0c-1.325 0-2.4 1.075-2.4 2.4s1.075 2.4 2.4 2.4v0z"></path>
</svg>
