<!-- Generated by IcoMoon.io -->
<svg version="1.1" xmlns="http://www.w3.org/2000/svg" width="32" height="32" viewBox="0 0 32 32">
<title>travel-train</title>
<path d="M19.2 28.8h-6.4l-3.2 3.2h-4.8l3.2-3.2c-1.767 0-3.2-1.433-3.2-3.2v0-22.4c0-1.76 1.44-3.2 3.2-3.2h16c1.767 0 3.2 1.433 3.2 3.2v0 22.4c0 1.767-1.433 3.2-3.2 3.2v0l3.2 3.2h-4.8l-3.2-3.2zM8 8v9.6h16v-9.6h-16zM10.4 25.6c1.325 0 2.4-1.075 2.4-2.4s-1.075-2.4-2.4-2.4v0c-1.325 0-2.4 1.075-2.4 2.4s1.075 2.4 2.4 2.4v0zM21.6 25.6c1.325 0 2.4-1.075 2.4-2.4s-1.075-2.4-2.4-2.4v0c-1.325 0-2.4 1.075-2.4 2.4s1.075 2.4 2.4 2.4v0zM12.8 3.2v1.6h6.4v-1.6h-6.4z"></path>
</svg>
