<!-- Generated by IcoMoon.io -->
<svg version="1.1" xmlns="http://www.w3.org/2000/svg" width="32" height="32" viewBox="0 0 32 32">
<title>travel-car</title>
<path d="M3.2 22.4v-4.8h-1.6c-0.884 0-1.6-0.716-1.6-1.6v0c0-0.884 0.716-1.6 1.6-1.6v0h1.6l6.4-11.2h12.8l6.4 11.2h1.6c0.884 0 1.6 0.716 1.6 1.6v0c0 0.884-0.716 1.6-1.6 1.6v0h-1.6v9.6c0 0.884-0.716 1.6-1.6 1.6v0h-1.6c-0.884 0-1.6-0.716-1.6-1.6v0-1.6h-16v1.6c0 0.884-0.716 1.6-1.6 1.6v0h-1.6c-0.884 0-1.6-0.716-1.6-1.6v0-4.8zM25.376 14.4l-4.576-8h-9.6l-4.576 8h18.752zM8.8 22.4c1.325 0 2.4-1.075 2.4-2.4s-1.075-2.4-2.4-2.4v0c-1.325 0-2.4 1.075-2.4 2.4s1.075 2.4 2.4 2.4v0zM23.2 22.4c1.325 0 2.4-1.075 2.4-2.4s-1.075-2.4-2.4-2.4v0c-1.325 0-2.4 1.075-2.4 2.4s1.075 2.4 2.4 2.4v0z"></path>
</svg>
