<!-- Generated by IcoMoon.io -->
<svg version="1.1" xmlns="http://www.w3.org/2000/svg" width="32" height="32" viewBox="0 0 32 32">
<title>truck</title>
<path d="M29.064 12.427c-0.659 0-1.191 0-1.191 0h-2.357l-0.015 1.496c0.712 0.406 1.181 1.178 1.181 2.077l0.050 8.263h-22.605v-8.263c0-0.879 0.481-1.639 1.191-2.052v-1.521h-2.382c0 0-0.534 0-1.191 0-0.659 0-1.191-0.534-1.191-1.191v-1.191c0-0.659 0.532-1.191 1.191-1.191 0.657 0 1.191 0 1.191 0v2.382h2.382v-3.573c0-1.315 1.067-2.382 2.382-2.382h15.483c1.315 0 2.382 1.067 2.382 2.382l-0.037 3.573h2.345v-2.382c0 0 0.532 0 1.191 0 0.657 0 1.191 0.532 1.191 1.191v1.191c0 0.657-0.534 1.191-1.191 1.191zM11.273 23.146h8.337v-1.191h-8.337v1.191zM11.273 20.764h8.337v-1.191h-8.337v1.191zM11.273 18.382h8.337v-1.191h-8.337v1.191zM6.509 21.955c0 0.657 0.532 1.191 1.191 1.191h1.191c0.657 0 1.191-0.534 1.191-1.191 0-0.659-0.534-1.191-1.191-1.191h-1.191c-0.657 0-1.191 0.532-1.191 1.191zM23.183 8.854c0-0.659-0.532-1.191-1.191-1.191h-13.101c-0.659 0-1.191 0.532-1.191 1.191v5.955h15.483v-5.955zM23.183 20.764h-1.191c-0.659 0-1.191 0.532-1.191 1.191 0 0.657 0.532 1.191 1.191 1.191h1.191c0.657 0 1.191-0.534 1.191-1.191 0-0.659-0.534-1.191-1.191-1.191zM24.374 4.090h-17.865c-1.315 0-2.382 1.067-2.382 2.382v-5.955c0-0.659 0.532-1.191 1.191-1.191h20.247c0.657 0 1.191 0.532 1.191 1.191v5.955c0-1.315-1.066-2.382-2.382-2.382zM26.756 26.645c0 0.657-0.534 1.191-1.191 1.191h-20.247c-0.659 0-1.191-0.534-1.191-1.191 0-0.659 0-1.191 0-1.191h22.628c0 0 0 0.532 0 1.191zM10.082 31.483c0 0.657-0.534 1.191-1.191 1.191h-1.191c-0.659 0-1.191-0.534-1.191-1.191v-2.382h3.573v2.382zM24.374 31.483c0 0.657-0.534 1.191-1.191 1.191h-1.191c-0.659 0-1.191-0.534-1.191-1.191v-2.382h3.573v2.382z"></path>
</svg>
