<!-- Generated by IcoMoon.io -->
<svg version="1.1" xmlns="http://www.w3.org/2000/svg" width="32" height="32" viewBox="0 0 32 32">
<title>tv</title>
<path d="M30.31 31.416h-2.44v1.258h-3.624v-1.258h-16.564v1.258h-3.624l0.001-1.258h-2.368c-1.308 0-2.366-1.060-2.366-2.366v-22.553c0-1.307 1.060-2.366 2.366-2.366h8.282c0 0 0.522-0.724 1.476-1.384l-3.041-3.042 0.837-0.836 3.281 3.28c0.624-0.268 1.347-0.458 2.179-0.458 0.885 0 1.635 0.218 2.275 0.512l3.334-3.334 0.836 0.836-3.113 3.114c0.868 0.64 1.328 1.312 1.328 1.312h10.944c1.308 0 2.366 1.060 2.366 2.366v22.553c0.001 1.307-1.059 2.365-2.365 2.365zM21.88 8.862c0-0.654-0.53-1.183-1.184-1.183h-16.564c-0.654 0-1.184 0.529-1.184 1.183v17.822c0 0.654 0.53 1.183 1.184 1.183h16.563c0.654 0 1.184-0.529 1.184-1.183v-17.822zM25.578 27.867h3.474v-1.183h-3.474v1.183zM25.578 25.5h3.474v-1.181h-3.474v1.181zM25.578 23.060h3.474v-1.183h-3.474v1.183zM25.578 20.694h3.474v-1.184h-3.474v1.184zM27.232 7.708c-0.979 0-1.775 0.794-1.775 1.775s0.796 1.775 1.775 1.775c0.98 0 1.775-0.794 1.775-1.775s-0.794-1.775-1.775-1.775zM27.232 12.427c-0.979 0-1.775 0.793-1.775 1.773s0.796 1.775 1.775 1.775c0.98 0 1.775-0.794 1.775-1.775s-0.794-1.773-1.775-1.773z"></path>
</svg>
