<!-- Generated by IcoMoon.io -->
<svg version="1.1" xmlns="http://www.w3.org/2000/svg" width="32" height="32" viewBox="0 0 32 32">
<title>umbrella</title>
<path d="M28.91 16.981c0 0-1.333-2.183-2.814-2.183-1.479 0-3.033 2.257-3.033 2.257s-1.628-2.255-2.961-2.255c-1.128 0-2.456 1.551-2.84 2.029v8.623c0 0.863-0.088 1.594-0.266 2.196-0.176 0.6-0.438 1.089-0.785 1.465-0.345 0.376-0.777 0.651-1.293 0.821-0.516 0.17-1.114 0.254-1.792 0.254-0.618 0-1.171-0.093-1.66-0.279-0.489-0.188-0.902-0.454-1.237-0.8s-0.594-0.763-0.774-1.254c-0.179-0.488-0.27-1.035-0.27-1.638v-0.832h2.358c0 0.781-0.006 1.805 0.279 2.203 0.285 0.395 0.719 0.596 1.304 0.596 0.394 0 0.958-0.195 0.958-0.195s0.431-0.31 0.561-0.544c0.129-0.232 0.26-0.844 0.26-0.844s0.067-0.691 0.067-1.086v-8.82c-0.528-0.597-1.822-1.932-2.86-1.932-1.332 0-3.182 2.22-3.182 2.22s-1.776-2.22-2.961-2.22c-1.184 0-2.886 2.22-2.886 2.22s-0.519-11.619 11.249-12.803l1.703-2.368 1.629 2.368c12.135 0.74 11.249 12.803 11.249 12.803z"></path>
</svg>
