<!-- Generated by IcoMoon.io -->
<svg version="1.1" xmlns="http://www.w3.org/2000/svg" width="32" height="32" viewBox="0 0 32 32">
<title>unlocked1</title>
<path d="M30.292 13.618v-7.741c0-2.302-1.866-4.168-4.168-4.168s-4.168 1.866-4.168 4.168v7.066c3.212 1.996 5.359 5.546 5.359 9.608 0 6.249-5.065 11.314-11.314 11.314s-11.314-5.065-11.314-11.313c0-6.249 5.065-11.314 11.314-11.314 1.251 0 2.449 0.211 3.573 0.585v-5.945c0-3.617 2.933-6.55 6.55-6.55s6.55 2.933 6.55 6.55v7.741h-2.382zM16 13.023c-5.262 0-9.528 4.266-9.528 9.528s4.266 9.527 9.528 9.527 9.528-4.265 9.528-9.527c0-5.262-4.266-9.528-9.528-9.528zM16 31.483c-4.934 0-8.932-3.998-8.932-8.931 0-4.935 3.998-8.933 8.932-8.933s8.932 3.998 8.932 8.933c0 4.933-3.998 8.931-8.932 8.931zM17.786 20.17c0-0.987-0.8-1.786-1.786-1.786s-1.786 0.799-1.786 1.786c0 0.844 0.6 1.521 1.39 1.705l-1.39 5.439h3.647l-1.565-5.419c0.84-0.146 1.491-0.844 1.491-1.726z"></path>
</svg>
