<!-- Generated by IcoMoon.io -->
<svg version="1.1" xmlns="http://www.w3.org/2000/svg" width="32" height="32" viewBox="0 0 32 32">
<title>upload</title>
<path d="M22.669 6.472h-13.101l-7.86 10.719v5.955c0 1.315 1.067 2.382 2.382 2.382h23.819c1.315 0 2.382-1.067 2.382-2.382v-5.955l-7.622-10.719zM23.7 17.217l-2.444 3.576-10.229-0.024-2.621-3.567-4.866-0.027 6.743-9.498h11.673l6.669 9.498-4.925 0.042zM12.576 13.618l2.904 0.074v4.69c0 0.659 0.459 1.191 1.117 1.191 0.657 0 1.042-0.532 1.042-1.191v-4.69l2.901-0.074-3.945-4.54-4.020 4.54z"></path>
</svg>
