<!-- Generated by IcoMoon.io -->
<svg version="1.1" xmlns="http://www.w3.org/2000/svg" width="32" height="32" viewBox="0 0 32 32">
<title>usb</title>
<path d="M6.388 15.507l7.579-7.579 3.815 3.815c-0.317 0.663-0.207 1.478 0.343 2.027 0.549 0.55 1.365 0.66 2.027 0.344l3.919 3.92-7.578 7.579-10.105-10.105zM20.651 11.243c-0.549-0.549-1.365-0.66-2.027-0.343l-3.815-3.815 5.894-5.894c0.93-0.93 2.439-0.93 3.368 0l6.739 6.736c0.929 0.93 0.929 2.439 0 3.368l-5.895 5.895-3.921-3.919c0.317-0.665 0.207-1.479-0.343-2.028zM7.23 31.508l-6.737-6.736 6.737-6.737 6.737 6.737-6.737 6.736zM5.598 24.717l-1.684-1.684-1.738 1.738 1.685 1.684 1.736-1.738zM8.966 28.086l-1.684-1.684-1.736 1.736 1.684 1.684 1.736-1.736z"></path>
</svg>
