<!-- Generated by IcoMoon.io -->
<svg version="1.1" xmlns="http://www.w3.org/2000/svg" width="32" height="32" viewBox="0 0 32 32">
<title>usb2</title>
<path d="M24 12.8v3.2h-6.4v-9.6h3.2l-4.8-6.4-4.8 6.4h3.2v12.8h-6.4v-3.632c0.963-0.564 1.6-1.593 1.6-2.771 0-1.767-1.433-3.2-3.2-3.2s-3.2 1.433-3.2 3.2c0 1.178 0.637 2.208 1.585 2.763l0.015 0.008v3.632c0 1.767 1.433 3.2 3.2 3.2v0h6.4v3.632c-0.963 0.564-1.6 1.593-1.6 2.771 0 1.767 1.433 3.2 3.2 3.2s3.2-1.433 3.2-3.2c0-1.178-0.637-2.208-1.585-2.763l-0.015-0.008v-6.832h6.4c1.767 0 3.2-1.433 3.2-3.2v0-3.2h1.6v-6.4h-6.4v6.4h1.6z"></path>
</svg>
