<!-- Generated by IcoMoon.io -->
<svg version="1.1" xmlns="http://www.w3.org/2000/svg" width="32" height="32" viewBox="0 0 32 32">
<title>user-group</title>
<path d="M11.2 12.8c-3.535 0-6.4-2.865-6.4-6.4s2.865-6.4 6.4-6.4v0c3.535 0 6.4 2.865 6.4 6.4s-2.865 6.4-6.4 6.4v0zM11.2 14.4c3.44 0 6.72 0.64 9.76 1.744l-1.76 9.456h-2l-1.2 6.4h-9.6l-1.2-6.4h-2l-1.76-9.456c2.901-1.094 6.254-1.733 9.755-1.744h0.005zM24.496 14.672c2.112 0.288 4.144 0.768 6.080 1.472l-1.776 9.456h-2l-1.2 6.4h-6.336l0.592-3.2h2l2.64-14.128zM20.8 0c0.016-0 0.036-0 0.055-0 3.535 0 6.4 2.865 6.4 6.4s-2.865 6.4-6.4 6.4c-0.783 0-1.534-0.141-2.227-0.398l0.044 0.014c1.331-1.627 2.137-3.727 2.137-6.016s-0.806-4.389-2.151-6.033l0.013 0.017c0.688-0.224 1.376-0.384 2.128-0.384z"></path>
</svg>
