<!-- Generated by IcoMoon.io -->
<svg version="1.1" xmlns="http://www.w3.org/2000/svg" width="32" height="32" viewBox="0 0 32 32">
<title>user-solid-square</title>
<path d="M0 3.2c0-1.76 1.44-3.2 3.2-3.2h25.6c1.767 0 3.2 1.433 3.2 3.2v0 25.6c0 1.767-1.433 3.2-3.2 3.2v0h-25.6c-1.767 0-3.2-1.433-3.2-3.2v0-25.6zM11.2 9.6v3.2c0 2.651 2.149 4.8 4.8 4.8s4.8-2.149 4.8-4.8v0-3.2c0-2.651-2.149-4.8-4.8-4.8s-4.8 2.149-4.8 4.8v0zM28.8 24.224c-3.66-2.153-8.061-3.424-12.76-3.424-0.014 0-0.028 0-0.042 0h0.002c-4.656 0-9.040 1.248-12.8 3.424v4.576h25.6v-4.576z"></path>
</svg>
