<!-- Generated by IcoMoon.io -->
<svg version="1.1" xmlns="http://www.w3.org/2000/svg" width="32" height="32" viewBox="0 0 32 32">
<title>user-solid-circle</title>
<path d="M16 32c-8.837 0-16-7.163-16-16s7.163-16 16-16v0c8.837 0 16 7.163 16 16s-7.163 16-16 16v0zM11.2 9.6v3.2c0 2.651 2.149 4.8 4.8 4.8s4.8-2.149 4.8-4.8v0-3.2c0-2.651-2.149-4.8-4.8-4.8s-4.8 2.149-4.8 4.8v0zM5.36 23.104c2.329 3.448 6.224 5.684 10.64 5.684s8.311-2.237 10.611-5.639l0.029-0.045c-3.122-1.468-6.781-2.325-10.64-2.325s-7.518 0.857-10.796 2.391l0.156-0.066z"></path>
</svg>
