<!-- Generated by IcoMoon.io -->
<svg version="1.1" xmlns="http://www.w3.org/2000/svg" width="32" height="32" viewBox="0 0 32 32">
<title>vector</title>
<path d="M19.2 6.4h6.832c0.564-0.963 1.593-1.6 2.771-1.6 1.767 0 3.2 1.433 3.2 3.2s-1.433 3.2-3.2 3.2c-1.178 0-2.208-0.637-2.763-1.585l-0.008-0.015h-3.424c4.317 2.263 7.31 6.539 7.74 11.546l0.004 0.054c0.994 0.556 1.655 1.602 1.655 2.803 0 1.767-1.433 3.2-3.2 3.2s-3.2-1.433-3.2-3.2c0-1.156 0.613-2.168 1.531-2.731l0.014-0.008c-0.48-4.571-3.646-8.291-7.873-9.579l-0.079-0.021v1.136h-6.4v-1.136c-4.299 1.314-7.459 5.033-7.932 9.552l-0.004 0.048c0.932 0.57 1.545 1.583 1.545 2.739 0 1.767-1.433 3.2-3.2 3.2s-3.2-1.433-3.2-3.2c0-1.201 0.661-2.247 1.639-2.794l0.016-0.008c0.427-5.055 3.408-9.329 7.634-11.562l0.078-0.038h-3.408c-0.564 0.963-1.593 1.6-2.771 1.6-1.767 0-3.2-1.433-3.2-3.2s1.433-3.2 3.2-3.2c1.178 0 2.208 0.637 2.763 1.585l0.008 0.015h6.832v-1.6h6.4v1.6z"></path>
</svg>
