<!-- Generated by IcoMoon.io -->
<svg version="1.1" xmlns="http://www.w3.org/2000/svg" width="32" height="32" viewBox="0 0 32 32">
<title>volume-up1</title>
<path d="M8 11.2h-6.4v9.6h6.4l8 8v-25.6l-8 8zM26.176 26.176l-2.256-2.256c2.035-2.023 3.294-4.825 3.294-7.92s-1.259-5.897-3.294-7.92l-0-0.001 2.256-2.256c2.614 2.6 4.231 6.199 4.231 10.176s-1.618 7.576-4.231 10.175l-0.001 0.001zM21.664 21.664l-2.272-2.272c0.867-0.868 1.404-2.068 1.404-3.392s-0.536-2.524-1.404-3.392l0 0 2.272-2.272c1.46 1.445 2.364 3.449 2.364 5.664s-0.904 4.219-2.363 5.663l-0.001 0.001z"></path>
</svg>
