<!-- Generated by IcoMoon.io -->
<svg version="1.1" xmlns="http://www.w3.org/2000/svg" width="32" height="32" viewBox="0 0 32 32">
<title>volume4</title>
<path d="M31.143 15.924l2.668 2.67c0.174 0.173 0.174 0.454 0 0.628l-0.942 0.942c-0.173 0.173-0.454 0.173-0.628 0l-2.668-2.67-2.67 2.67c-0.174 0.173-0.454 0.173-0.628 0l-0.942-0.942c-0.173-0.174-0.173-0.456 0-0.628l2.67-2.67-2.67-2.67c-0.173-0.174-0.173-0.454 0-0.628l0.942-0.942c0.174-0.174 0.455-0.174 0.628 0l2.67 2.669 2.668-2.669c0.174-0.174 0.456-0.174 0.628 0l0.942 0.942c0.174 0.174 0.174 0.455 0 0.628l-2.668 2.67zM18.709 30.809l-9.979-6.955v-15.782l9.979-6.88c1.316 0 3.203 0.996 3.203 2.224v25.169c0.001 1.229-1.885 2.225-3.203 2.225zM-1.941 20.891v-9.71c0-1.227 1.067-2.971 2.382-2.971h7.178v15.484h-7.178c-1.316 0.001-2.382-1.573-2.382-2.802z"></path>
</svg>
