<!-- Generated by IcoMoon.io -->
<svg version="1.1" xmlns="http://www.w3.org/2000/svg" width="32" height="32" viewBox="0 0 32 32">
<title>vote</title>
<path d="M-1.898 12.495c1.702-8.188 8.733-14.33 17.157-14.33 8.425 0 15.456 6.141 17.157 14.329h-34.314zM16.678 4.674l-1.36-2.775-1.398 2.775h-2.738l2.178 2.159-0.579 2.918 2.458-1.199 2.773 1.179-0.854-2.798 2.257-2.26h-2.737zM5.292 31.1c-3.28-2.425-5.935-6.137-6.996-10.278h6.996v10.278zM7.658 18.401h-1.211v-4.77h1.211v4.77zM8.87 13.631h1.136v4.77h-1.136v-4.77zM8.87 19.537h-1.211v-1.136h1.211v1.136zM13.544 34.404c-1.697-0.174-3.248-0.6-4.769-1.235v-12.347h4.769v13.582zM12.427 19.537v-1.136h1.211v1.136h-1.211zM11.216 18.401v-3.559h1.211v3.559h-1.211zM12.427 13.631h1.211v1.211h-1.211v-1.211zM14.776 14.841v3.559h-1.137v-3.559h1.137zM19.544 13.631v1.211h-1.136v4.695h-1.211v-4.695h-1.211v-1.211h3.559zM21.947 33.085c-1.518 0.656-3.070 1.104-4.77 1.295v-13.557h4.77v12.262zM20.756 13.631h3.556v1.211h-2.347v1.211h2.347v1.212h-2.347v1.136h2.347v1.136h-3.556v-5.907zM25.503 30.948v-10.126h6.718c-1.040 4.054-3.54 7.704-6.718 10.126z"></path>
</svg>
