<!-- Generated by IcoMoon.io -->
<svg version="1.1" xmlns="http://www.w3.org/2000/svg" width="32" height="32" viewBox="0 0 32 32">
<title>wallet</title>
<path d="M18.382 23.146c-1.315 0-2.382-1.067-2.382-2.382v-2.382c0-1.316 1.067-2.382 2.382-2.382h14.292v7.146h-14.292zM20.168 17.885c-0.986 0-1.786 0.8-1.786 1.786 0 0.987 0.8 1.786 1.786 1.786 0.987 0 1.786-0.799 1.786-1.786 0-0.986-0.799-1.786-1.786-1.786zM14.809 18.382v2.382c0 1.972 1.601 3.573 3.573 3.573h11.91v4.764c0 1.972-1.599 3.573-3.573 3.573h-25.010c-1.972 0-3.573-1.601-3.573-3.573v-22.628c0-1.973 1.601-3.573 3.573-3.573h11.471l-2.798 1.166h-9.268c-0.986 0-1.786 0.8-1.786 1.786 0 0.987 0.8 1.786 1.786 1.786h29.178v7.171h-11.91c-1.972 0-3.573 1.599-3.573 3.573zM2.901 10.045h-2.382v2.382h1.191v-1.191h1.191v-1.191zM2.901 13.618h-2.382v2.382h1.24l-0.049-1.191 1.191 0.025v-1.216zM2.901 17.191h-2.382v2.382h1.216l-0.025-1.191h1.191v-1.191zM2.901 20.764h-2.382v2.382h1.216l-0.025-1.191 1.191 0.025v-1.216zM2.901 24.337h-2.382v2.382h1.191v-1.191h1.191v-1.191zM2.901 27.91h-2.382v2.382h1.216l-0.025-1.166h1.191v-1.216zM7.664 6.398l13.994-5.881 2.68 5.881h-16.674zM23.915 2.899h2.804c1.043 0 1.972 0.454 2.626 1.166h-4.86l-0.569-1.166z"></path>
</svg>
