<!-- Generated by IcoMoon.io -->
<svg version="1.1" xmlns="http://www.w3.org/2000/svg" width="32" height="32" viewBox="0 0 32 32">
<title>warning1</title>
<path d="M33.335 26.98l-14.91-25.53c-1.243-1.243-3.261-1.243-4.504 0l-14.911 25.53c-1.243 1.242-1.243 3.259 0 4.503h34.324c1.246-1.245 1.246-3.261 0.001-4.503zM14.8 10.614c0-0.987 0.8-1.786 1.786-1.786s1.786 0.799 1.786 1.786v8.337c0 0.986-0.8 1.786-1.786 1.786s-1.786-0.8-1.786-1.786v-8.337zM16.597 26.702c-0.986 0-1.786-0.798-1.786-1.786 0-0.986 0.8-1.786 1.786-1.786s1.786 0.8 1.786 1.786c0 0.989-0.8 1.786-1.786 1.786z"></path>
</svg>
