<!-- Generated by IcoMoon.io -->
<svg version="1.1" xmlns="http://www.w3.org/2000/svg" width="32" height="32" viewBox="0 0 32 32">
<title>washingmachine</title>
<path d="M1.708 12.427v17.865c0 0.659 0.532 1.191 1.191 1.191h25.010c0.657 0 1.191-0.532 1.191-1.191v-17.865c0 0-6.721-2.456-13.708-2.456-6.703 0-13.684 2.456-13.684 2.456zM22.55 20.913c0 3.783-3.066 6.848-6.848 6.848s-6.848-3.066-6.848-6.848 3.066-6.848 6.848-6.848 6.848 3.066 6.848 6.848zM27.91 1.708h-25.010c-0.659 0-1.191 0.532-1.191 1.191v8.337c0 0 6.922-2.382 13.684-2.382 6.934 0 13.708 2.382 13.708 2.382v-8.337c0-0.659-0.534-1.191-1.191-1.191zM10.045 6.472h-5.955v-2.382h5.955v2.382zM18.976 6.472c-0.657 0-1.19-0.534-1.19-1.191s0.532-1.191 1.19-1.191c0.659 0 1.192 0.534 1.192 1.191s-0.534 1.191-1.192 1.191zM22.55 6.472c-0.659 0-1.191-0.534-1.191-1.191s0.532-1.191 1.191-1.191c0.657 0 1.191 0.534 1.191 1.191s-0.534 1.191-1.191 1.191zM26.049 6.472c-0.659 0-1.191-0.534-1.191-1.191s0.532-1.191 1.191-1.191c0.657 0 1.191 0.534 1.191 1.191s-0.535 1.191-1.191 1.191zM10.119 20.913c0 3.083 2.5 5.583 5.583 5.583s5.583-2.5 5.583-5.583c0-0.007-1.91 1.96-5.583-0.224-3.673-2.183-5.583 0.217-5.583 0.224z"></path>
</svg>
