<!-- Generated by IcoMoon.io -->
<svg version="1.1" xmlns="http://www.w3.org/2000/svg" width="32" height="32" viewBox="0 0 32 32">
<title>watch1</title>
<path d="M30.292 18.419h-1.191v8.337c0 1.972-1.601 3.573-3.573 3.573h-4.764v4.69h-13.101v-4.69h-4.764c-1.973 0-3.573-1.601-3.573-3.573v-20.247c0-1.973 1.599-3.573 3.573-3.573h4.764v-4.764h13.101v4.764h4.764c1.972 0 3.573 1.599 3.573 3.573v8.337h1.191c0.657 0 1.191 0.534 1.191 1.191v1.191c0 0.657-0.534 1.191-1.191 1.191zM26.719 7.7c0-1.316-1.067-2.382-2.382-2.382h-20.247c-1.315 0-2.382 1.067-2.382 2.382v17.865c0 1.315 1.067 2.382 2.382 2.382h20.247c1.315 0 2.382-1.067 2.382-2.382v-17.865zM21.955 17.228h-2.382v-3.573h1.191v2.382h1.191v-2.382h1.191v5.955h-1.191v-2.382zM16 19.61h-1.191v-5.955h3.573v5.955h-2.382zM17.191 14.846h-1.191v3.573h1.191v-3.573zM12.427 17.228h1.191v1.191h-1.191v-1.191zM12.427 14.846h1.191v1.191h-1.191v-1.191zM8.854 19.61v-1.191h1.191v-1.191h-1.191v-1.191h1.191v-1.191h-1.191v-1.191h2.382v5.955h-2.382zM5.281 19.61v-3.573h1.191v-1.191h-1.191v-1.191h2.382v3.573h-1.191v1.191h1.191v1.191h-2.382z"></path>
</svg>
