<!-- Generated by IcoMoon.io -->
<svg version="1.1" xmlns="http://www.w3.org/2000/svg" width="32" height="32" viewBox="0 0 32 32">
<title>watch2</title>
<path d="M17.6 14.4h3.2v3.2h-6.4v-6.4h3.2v3.2zM8.288 24.128c-2.163-2.041-3.509-4.927-3.509-8.128s1.346-6.087 3.504-8.123l0.005-0.005 1.312-7.872h12.8l1.312 7.872c2.163 2.041 3.509 4.927 3.509 8.128s-1.346 6.087-3.504 8.123l-0.005 0.005-1.312 7.872h-12.8l-1.312-7.872zM16 24c4.418 0 8-3.582 8-8s-3.582-8-8-8v0c-4.418 0-8 3.582-8 8s3.582 8 8 8v0z"></path>
</svg>
