<!-- Generated by IcoMoon.io -->
<svg version="1.1" xmlns="http://www.w3.org/2000/svg" width="32" height="32" viewBox="0 0 32 32">
<title>watch</title>
<path d="M5.282 14.809h1.191v1.191h-1.191v3.573h2.382v-1.191h-1.191v-1.191h1.191v-3.573h-2.382v1.191zM12.429 18.382h1.191v-1.191h-1.191v1.191zM8.855 14.809h1.191v1.191h-1.191v1.191h1.191v1.191h-1.191v1.191h2.382v-5.955h-2.382v1.191zM12.429 16h1.191v-1.191h-1.191v1.191zM14.811 19.573h3.573v-5.955h-3.573v5.955zM16.002 14.809h1.191v3.573h-1.191v-3.573zM20.766 13.618h-1.191v3.573h2.382v2.382h1.191v-5.955h-1.191v2.382h-1.191v-2.382zM30.294 13.618h-1.192l0.006-4.798-6.705-7.099-1.636-0.001v-2.393h-13.101v2.38l-1.672-0.001-6.653 7.002-0.017 14.549 6.63 6.95 1.711 0.001v2.466h13.101v-2.453l1.597 0.001 6.728-7.003 0.005-3.646h1.198c0.659 0 1.191-0.532 1.191-1.191v-3.573c0-0.657-0.532-1.191-1.191-1.191zM26.668 22.305l-5.362 5.639-14.288-0.013-5.268-5.584 0.013-12.726 5.214-5.567 14.437 0.014 5.268 5.66-0.014 12.577z"></path>
</svg>
