<!-- Generated by IcoMoon.io -->
<svg version="1.1" xmlns="http://www.w3.org/2000/svg" width="32" height="32" viewBox="0 0 32 32">
<title>window1</title>
<path d="M30.292 1.708h-28.583c-1.316 0-2.382 1.067-2.382 2.382v23.819c0 1.315 1.066 2.382 2.382 2.382h28.583c1.315 0 2.382-1.067 2.382-2.382v-23.819c0-1.315-1.067-2.382-2.382-2.382zM10.714 3.495c0.657 0 1.19 0.534 1.19 1.191s-0.532 1.191-1.19 1.191c-0.659 0-1.191-0.534-1.191-1.191s0.534-1.191 1.191-1.191zM7.068 3.495c0.657 0 1.191 0.534 1.191 1.191s-0.534 1.191-1.191 1.191c-0.659 0-1.191-0.534-1.191-1.191s0.532-1.191 1.191-1.191zM3.494 3.495c0.659 0 1.191 0.534 1.191 1.191s-0.532 1.191-1.191 1.191c-0.657 0-1.19-0.534-1.19-1.191s0.532-1.191 1.19-1.191zM30.292 27.91h-28.583v-20.222h28.583v20.222zM30.292 5.306h-16.674v-1.191h16.674v1.191z"></path>
</svg>
