<!-- Generated by IcoMoon.io -->
<svg version="1.1" xmlns="http://www.w3.org/2000/svg" width="32" height="32" viewBox="0 0 32 32">
<title>yin-yang</title>
<path d="M16 32c-8.837 0-16-7.163-16-16s7.163-16 16-16v0c8.837 0 16 7.163 16 16s-7.163 16-16 16v0zM16 3.2c-7.069 0-12.8 5.731-12.8 12.8s5.731 12.8 12.8 12.8v0c-3.535 0-6.4-2.865-6.4-6.4s2.865-6.4 6.4-6.4v0c3.535 0 6.4-2.865 6.4-6.4s-2.865-6.4-6.4-6.4v0zM16 24c0.884 0 1.6-0.716 1.6-1.6s-0.716-1.6-1.6-1.6v0c-0.884 0-1.6 0.716-1.6 1.6s0.716 1.6 1.6 1.6v0zM16 11.2c-0.884 0-1.6-0.716-1.6-1.6s0.716-1.6 1.6-1.6v0c0.884 0 1.6 0.716 1.6 1.6s-0.716 1.6-1.6 1.6v0z"></path>
</svg>
