<!-- Generated by IcoMoon.io -->
<svg version="1.1" xmlns="http://www.w3.org/2000/svg" width="32" height="32" viewBox="0 0 32 32">
<title>yingyang</title>
<path d="M16 0.498c-8.576 0-15.5 6.925-15.5 15.502 0 8.574 6.924 15.502 15.5 15.502 8.575 0 15.502-6.927 15.502-15.502 0-8.576-6.928-15.502-15.502-15.502zM15.945 6.697c1.109 0 2.009 0.899 2.009 2.010 0 1.11-0.9 2.010-2.009 2.010-1.111 0-2.010-0.9-2.010-2.010-0.001-1.111 0.899-2.010 2.010-2.010zM16.217 30.46c-4.217 0-7.456-3.149-7.456-7.223 0-3.936 2.98-7.226 6.976-7.222 0 0 7.501-0.369 7.501-7.245 0-4.133-2.501-6.63-7.247-7.245 8.543 0.474 14.468 6.399 14.468 14.467 0.001 7.872-6.478 14.468-14.242 14.468zM16.018 21.138c-1.11 0-2.010 0.899-2.010 2.010 0 1.11 0.9 2.010 2.010 2.010s2.010-0.9 2.010-2.010c0-1.111-0.9-2.010-2.010-2.010z"></path>
</svg>
