<!-- Generated by IcoMoon.io -->
<svg version="1.1" xmlns="http://www.w3.org/2000/svg" width="32" height="32" viewBox="0 0 32 32">
<title>zip1</title>
<path d="M17.191 26.645h-4.764v-8.337h4.764v8.337zM16 23.072h-2.382v2.382h2.382v-2.382zM17.191 17.191h-2.382v-2.382h2.382v2.382zM12.427 14.809v-2.382h2.382v2.382h-2.382zM12.427 7.663h2.382v2.382h-2.382v-2.382zM12.427 2.899h2.382v2.382h-2.382v-2.382zM17.191 5.281v2.382h-2.382v-2.382h2.382zM17.191 10.045v2.382h-2.382v-2.382h2.382zM2.899 32.674v-32.156h17.865v2.371h-15.483v27.414h20.268v-22.639h2.361v25.010h-25.010zM21.955 0.517h0.146l5.808 5.807v0.074h-5.955v-5.881z"></path>
</svg>
