<!-- Generated by IcoMoon.io -->
<svg version="1.1" xmlns="http://www.w3.org/2000/svg" width="32" height="32" viewBox="0 0 32 32">
<title>zoomin</title>
<path d="M31.668 32.627l-0.844 0.844c-0.935 0.934-2.447 0.934-3.38 0l-6.76-6.758c-0.781-0.784-0.868-1.958-0.335-2.873l-3.697-3.694c-1.988 1.474-4.44 2.357-7.104 2.357-6.598 0-11.947-5.349-11.947-11.947 0-6.599 5.349-11.948 11.947-11.948 6.599 0 11.947 5.349 11.947 11.948 0 3.072-1.167 5.863-3.073 7.979l3.615 3.615c0.915-0.532 2.089-0.447 2.87 0.337l6.76 6.758c0.934 0.935 0.934 2.449 0.001 3.381zM18.487 10.508c0-4.948-4.012-8.96-8.961-8.96s-8.961 4.010-8.961 8.96 4.011 8.96 8.96 8.96 8.962-4.011 8.962-8.96zM10.048 13.569h-1.195v-2.314h-2.389v-1.195h2.389v-2.39h1.195v2.39h2.39v1.195h-2.39v2.314z"></path>
</svg>
