<!-- Generated by IcoMoon.io -->
<svg version="1.1" xmlns="http://www.w3.org/2000/svg" width="32" height="32" viewBox="0 0 32 32">
<title>zoom-out</title>
<path d="M20.64 22.912c-2.144 1.678-4.88 2.692-7.852 2.692-7.069 0-12.8-5.731-12.8-12.8s5.731-12.8 12.8-12.8c7.069 0 12.8 5.731 12.8 12.8 0 2.972-1.013 5.708-2.713 7.881l0.021-0.028 8.56 8.528-2.272 2.272-8.528-8.544zM12.8 22.4c5.302 0 9.6-4.298 9.6-9.6s-4.298-9.6-9.6-9.6v0c-5.302 0-9.6 4.298-9.6 9.6s4.298 9.6 9.6 9.6v0zM8 11.2h9.6v3.2h-9.6v-3.2z"></path>
</svg>
