<!-- Generated by IcoMoon.io -->
<svg version="1.1" xmlns="http://www.w3.org/2000/svg" width="32" height="32" viewBox="0 0 32 32">
<title>zoomout</title>
<path d="M6.464 10.061h5.974v1.195h-5.974zM31.668 29.247l-6.76-6.758c-0.781-0.784-1.957-0.869-2.87-0.337l-3.615-3.615c1.906-2.116 3.073-4.908 3.073-7.979 0-6.599-5.347-11.948-11.947-11.948-6.598 0-11.947 5.349-11.947 11.948 0 6.598 5.349 11.947 11.947 11.947 2.664 0 5.116-0.883 7.104-2.357l3.697 3.694c-0.532 0.916-0.447 2.089 0.335 2.873l6.76 6.758c0.933 0.934 2.445 0.934 3.38 0l0.844-0.844c0.931-0.934 0.931-2.447-0.001-3.381zM9.525 19.468c-4.948 0-8.96-4.011-8.96-8.96s4.011-8.96 8.96-8.96 8.961 4.011 8.961 8.96-4.011 8.96-8.961 8.96z"></path>
</svg>
